<svg id="Capa_1" enable-background="new 0 0 497 497" height="512" viewBox="0 0 497 497" width="512" xmlns="http://www.w3.org/2000/svg"><g><path d="m447.757 412.519c-12.877-9.026-54.944-20.853-85.819-29.763-25.929-7.482-44.454-19.606-44.454-19.606h-137.968s-18.525 12.124-44.454 19.606c-20.456 5.903-45.817 13.086-64.354 19.887-31 26.188-50.708 40.873-50.708 94.357h221l7.5-10 7.5 10h221.434c11.053 0 18.967-10.805 15.482-21.293-7.179-21.605-23.389-47.929-45.159-63.188z" fill="#d3effd"/><path d="m70.708 402.643c-9.442 3.464-17.12 6.83-21.465 9.876-21.769 15.259-37.979 41.583-45.159 63.188-3.485 10.488 4.429 21.293 15.482 21.293h.434c0-23.998 19.708-68.169 50.708-94.357z" fill="#91dafa"/><path d="m326.196 352.578-168.308 19.962c-1.372 4.404-2.219 9.455-2.219 15.223 0 26.385 18.081 49.553 27.802 60.101 3.075 3.337 8.395 3.166 11.281-.334l14.744-17.886c4.874-5.91 13.055-7.911 20.106-4.917l18.898 8.022 18.898-8.022c7.052-2.993 15.233-.992 20.106 4.917l14.744 17.886c2.886 3.501 8.206 3.671 11.281.334 9.72-10.549 27.802-33.717 27.802-60.101 0-18.096-8.323-29.159-15.135-35.185z" fill="#91dafa"/><path d="m241 497v-70.944c0-4.142 3.358-7.5 7.5-7.5s7.5 3.358 7.5 7.5v70.944z" fill="#91dafa"/><path d="m179.516 346.644s-15.711 6.912-21.628 25.896c12.978 8.725 30.913 20.789 31.984 21.546 11.221 7.93 24.069 12.768 38.628 12.768 14.618 0 27.491-4.559 38.628-12.717 2.074-1.519 44.78-30.423 47.668-32.456 4.259-2.998 8.036-6.017 11.4-9.103-4.718-4.174-8.711-5.934-8.711-5.934z" fill="#5fa7ee"/><path d="m201.341 395.866c10.974 6.945 25.329 12.973 41.311 19.717 3.739 1.578 7.965 1.576 11.701-.01 35.579-15.108 63.132-27.477 63.132-52.422 0-1.102 0-3.412 0-3.412z" fill="#785252"/><path d="m267.128 394.137c2.074-1.519 44.78-30.423 47.668-32.456.918-.646 1.813-1.294 2.688-1.942 0-18.032 0-43.095 0-43.095l-137.969-.163v46.669.006c.003 20.543 17.252 32 42.075 43.323 2.259.245 4.562.374 6.91.374 14.618.001 27.491-4.558 38.628-12.716z" fill="#664646"/><path d="m334.796 321.681c28.823-20.289 36.08-41.452 36.08-78.98 0-.975 0-2.602 0-4.773 0-7.031 10-34.666 10-34.666s-10-26.363-10-39.694c0-26.274 0-50.234 0-55.905 0-67.055-54.789-107.663-122.376-107.663-31.782 0-60.732 8.982-82.488 25.468-12.572 16.745-29.888 37.703-29.888 62.194v155.039c0 38.428 8.601 60.794 38.542 80.951 2.293 1.544 43.565 29.274 45.206 30.434 8.617 6.089 28.197 10.345 38.771 11.998 10.504-1.613 19.999-5.731 28.484-11.947 2.075-1.519 44.781-30.423 47.669-32.456z" fill="#785252"/><path d="m184.666 323.652c-29.941-20.157-38.542-42.523-38.542-80.951 0-11.971 0-141.983 0-155.039 0-24.491 7.316-45.449 19.888-62.194-24.51 18.573-39.888 46.671-39.888 82.194v55.905c0 13.929-10 41.357-10 41.357s10 26.236 10 33.004v4.773c0 38.428 8.601 60.794 38.542 80.951 2.293 1.544 43.565 29.274 45.206 30.434 11.221 7.93 24.069 12.768 38.628 12.768 3.481 0 6.86-.266 10.144-.771-10.574-1.652-20.155-5.908-28.771-11.998-1.643-1.159-42.914-28.889-45.207-30.433z" fill="#664646"/><path d="m273.053 264.622h-49.106c-11.032 0-22.97 8.079-26.628 15.436 4.477 2.64 10.322 4.564 16.628 4.564h69.106c6.306 0 12.151-1.923 16.628-4.564-3.658-7.357-15.596-15.436-26.628-15.436z" fill="#664646"/><path d="m248.5 183.802c11.139 0 22.457 14.481 34.241 32 11.783 17.519-4.367 31.075-18.492 24.583-10.139 4.257-21.358 4.257-31.496 0-14.125 6.492-30.276-7.064-18.492-24.583 11.782-17.518 23.1-32 34.239-32z" fill="#664646"/><g fill="#523939"><path d="m226.837 142.771h-66.398c-4.142 0-7.5-3.358-7.5-7.5s3.358-7.5 7.5-7.5h66.398c4.142 0 7.5 3.358 7.5 7.5s-3.358 7.5-7.5 7.5z"/><path d="m336.562 142.771h-66.398c-4.142 0-7.5-3.358-7.5-7.5s3.358-7.5 7.5-7.5h66.398c4.142 0 7.5 3.358 7.5 7.5s-3.358 7.5-7.5 7.5z"/><path d="m200.191 189.529c-4.142 0-7.5-3.358-7.5-7.5v-16.757c0-4.142 3.358-7.5 7.5-7.5s7.5 3.358 7.5 7.5v16.757c0 4.142-3.358 7.5-7.5 7.5z"/><path d="m296.809 189.529c-4.142 0-7.5-3.358-7.5-7.5v-16.757c0-4.142 3.358-7.5 7.5-7.5s7.5 3.358 7.5 7.5v16.757c0 4.142-3.358 7.5-7.5 7.5z"/></g><path d="m248.5 327.986c-13.132 0-26.265-2.632-33.859-7.897-3.404-2.36-4.25-7.033-1.891-10.437 2.359-3.405 7.032-4.252 10.437-1.891 9.937 6.888 40.689 6.888 50.626 0 3.405-2.359 8.077-1.514 10.437 1.891 2.36 3.404 1.514 8.077-1.891 10.437-7.594 5.265-20.727 7.897-33.859 7.897z" fill="#664646"/><path d="m283.053 292.122h-69.106c-11.382 0-26.157-6.072-31.183-16.234-1.836-3.713-.314-8.211 3.398-10.048 3.715-1.837 8.211-.313 10.048 3.398 1.36 2.751 8.651 7.883 17.736 7.883h69.106c9.085 0 16.376-5.132 17.736-7.883 1.836-3.712 6.334-5.234 10.048-3.398 3.713 1.836 5.234 6.334 3.398 10.048-5.024 10.162-19.799 16.234-31.181 16.234z" fill="#523939"/><path d="m304.474 320.93c-4.142 0-7.5-3.358-7.5-7.5s3.358-7.5 7.5-7.5c35.22 0 57.894-4.309 71.355-13.561 12.136-8.34 17.547-21.556 17.547-42.851 0-4.142 15-35.828 15-35.828s0 31.686 0 35.828c0 26.392-7.643 43.937-24.052 55.213-16.3 11.203-40.927 16.199-79.85 16.199z" fill="#766d78"/><path d="m106.124 147.307-10 77.259c0 5.523 14.477 20 20 20s10-14.477 10-20v-60.999c0-10.87-10.07-18.378-20-16.26z" fill="#a29aa5"/><path d="m116.124 234.566c-5.523 0-10-4.477-10-10v-77.259c-1.38.294-2.758.771-4.106 1.454-11.042 5.598-20.894 22.365-20.894 51.986s9.852 46.388 20.894 51.986 24.106-2.426 24.106-14.806v-13.362c0 5.523-4.477 10.001-10 10.001z" fill="#766d78"/><path d="m394.982 148.761c-1.348-.683-2.725-1.16-4.106-1.454l-10 77.463c0 5.401 14.378 19.779 19.779 19.779 3.127 0 7.814-11.891 11.207-14.834 2.5-7.757 4.014-17.373 4.014-28.967 0-29.622-9.852-46.389-20.894-51.987z" fill="#a29aa5"/><path d="m390.876 224.77v-77.463c-9.931-2.117-20 5.391-20 16.26v74.361c0 12.38 13.063 20.404 24.106 14.806 6.72-3.407 12.995-10.959 16.881-23.019-3.393 2.943-8.08 4.834-11.207 4.834-5.401 0-9.78-4.379-9.78-9.779z" fill="#766d78"/></g></svg>