<svg id="Layer_1" height="512" viewBox="0 0 512 512" width="512" xmlns="http://www.w3.org/2000/svg" data-name="Layer 1"><path d="m262.67 11c-117.64 0-213 95.65-213 213.63a213.488 213.488 0 0 0 82.21 168.62h.35v-28.64a223.825 223.825 0 0 0 69.27 33.36l109 3.03.07.34 78.28-4.58c1.56-1.15 3.09-2.32 4.61-3.51a213.488 213.488 0 0 0 82.21-168.62c0-117.98-95.36-213.63-213-213.63z" fill="#e5f5fd"/><path d="m189.19 331.63a82.605 82.605 0 0 1 -12.91-29.82l-4.01-18.69-.38-1.78v-55.1h-2.57v-23.67a56.053 56.053 0 0 1 22.85-45.14l-2.1 30.43c17.33-4.33 36.09-30.84 42.1-39.95a3.193 3.193 0 0 1 4.76-.66 44.737 44.737 0 0 0 45.32 7.92c21.79-8.36 46.61 1.28 56.44 22.45a69.328 69.328 0 0 1 6.43 29.27v29.5h4.4a16.4 16.4 0 0 1 11.65 4.83 16.476 16.476 0 0 1 -11.65 28.13h-4.4l-6.95 32.46a82.648 82.648 0 0 1 -27.76 46.08c-.38.32-.76.64-1.15.95a82.8 82.8 0 0 1 -120.07-17.21z" fill="#ffd8b7"/><path d="m232.54 346.61a82.7 82.7 0 0 1 -26.26-44.8l-4.01-18.69-.38-1.78-1-55.1-.57-23.67c0-7.7.59-15.2 3.551-22.088-4.525 3.522-9.213 6.232-13.8 7.378l2.1-30.43a56.053 56.053 0 0 0 -22.85 45.14v23.67h2.57v55.1l.38 1.78 4.01 18.69a82.75 82.75 0 0 0 95.919 64.058 82.8 82.8 0 0 1 -39.66-19.258z" fill="#efc597"/><path d="m467.61 40.45a39.261 39.261 0 0 0 15.41 9.55 39.464 39.464 0 0 0 -24.93 25 39.471 39.471 0 0 0 -24.92-25 39.224 39.224 0 0 0 15.4-9.55 39.5 39.5 0 0 0 9.52-15.45 39.5 39.5 0 0 0 9.52 15.45z" fill="#3090fc"/><path d="m446.55 447.48v53.52h-367.76v-53.52a54.16 54.16 0 0 1 53.09-54.23c.11.09.23.18.35.27v30.98l-.15.21a224.648 224.648 0 0 0 256.97 3.1l-.2-.3v-30.75c1.56-1.15 3.09-2.32 4.61-3.51a54.16 54.16 0 0 1 53.09 54.23z" fill="#50a6ea"/><path d="m388.85 427.51.2.3a224.648 224.648 0 0 1 -256.97-3.1l.15-.21v-30.98a212.546 212.546 0 0 0 256.62 3.24z" fill="#475673"/><path d="m132.23 393.25v-28.64a224.473 224.473 0 0 0 256.42 3.27l.2.93v27.95a212.546 212.546 0 0 1 -256.62-3.24z" fill="#5f6a78"/><path d="m310.5 401v-53l-.09-.11c-.38.32-.76.64-1.15.95l-107.76-2.84v51.97a226.152 226.152 0 0 0 109.07 3.37z" fill="#efc597"/><path d="m58.7 356.8a39.407 39.407 0 0 0 12.91 12.74 39.38 39.38 0 0 0 -29.82 18.84 39.549 39.549 0 0 0 -18.79-29.92 39.376 39.376 0 0 0 29.83-18.84 39.546 39.546 0 0 0 5.87 17.18z" fill="#3090fc"/><path d="m362.94 158.64a152.232 152.232 0 0 1 -8.72 78.43 16.586 16.586 0 0 0 -4.7-.68h-4.4v-29.5a69.328 69.328 0 0 0 -6.43-29.27c-9.83-21.17-34.65-30.81-56.44-22.45a44.737 44.737 0 0 1 -45.32-7.92 3.193 3.193 0 0 0 -4.76.66c-6.01 9.11-24.77 35.62-42.1 39.95l2.1-30.43a56.053 56.053 0 0 0 -22.85 45.14v23.67h-7.33a28.181 28.181 0 0 0 -6.79.82l-.17-.78a124.488 124.488 0 0 1 -9.03-46.81c0-63.75 47.21-115.42 105.45-115.42a98.735 98.735 0 0 1 59.07 19.79 10.773 10.773 0 0 1 3.24 3.9 11.209 11.209 0 0 1 1.15 4.95 11.123 11.123 0 0 0 7.68 10.58s15.53 5.35 16.22 6.27c4.82 6.42 21.69 33.1 24.13 49.1z" fill="#6d7486"/><path d="m171.89 281.34v1.86h-9.94a28.434 28.434 0 0 1 -28.4-28.44v-.08a28.429 28.429 0 0 1 28.44-28.44h9.9z" fill="#ed6337"/><ellipse cx="238.63" cy="331.63" fill="#3090fc" rx="7.1" ry="7.12"/><path d="m79.67 224.63c0-112.921 87.362-205.374 198-213.095-4.956-.346-9.956-.535-15-.535-117.64 0-213 95.65-213 213.63a213.488 213.488 0 0 0 82.21 168.62h.35v-28.119a213.165 213.165 0 0 1 -52.56-140.501z" fill="#a6b7d0"/><path d="m132.23 402.781v-9.261c-.12-.09-.24-.18-.35-.27a54.16 54.16 0 0 0 -53.09 54.23v53.52h30v-53.52a54.218 54.218 0 0 1 23.44-44.699z" fill="#72bcef"/><g fill="#284268"><path d="m224.967 236.574a6 6 0 0 0 -6 6 7.338 7.338 0 0 1 -14.676 0 6 6 0 0 0 -12 0 19.338 19.338 0 1 0 38.676 0 6 6 0 0 0 -6-6z"/><path d="m300.371 261.912a19.36 19.36 0 0 0 19.338-19.338 6 6 0 0 0 -12 0 7.338 7.338 0 0 1 -14.676 0 6 6 0 1 0 -12 0 19.36 19.36 0 0 0 19.338 19.338z"/><path d="m102.973 153.327a6 6 0 0 0 -7.811 3.316 180.691 180.691 0 0 0 -13.151 67.986 6 6 0 0 0 12 0 168.739 168.739 0 0 1 12.278-63.492 6 6 0 0 0 -3.316-7.81z"/><path d="m97.067 256.869a6 6 0 1 0 -11.783 2.267 180.949 180.949 0 0 0 4.975 19.77 6 6 0 0 0 11.453-3.583 169.006 169.006 0 0 1 -4.645-18.454z"/><path d="m407.747 389.248c3.356-3 6.642-6.094 9.861-9.323a220.1 220.1 0 0 0 -.057-310.591 219.009 219.009 0 0 0 -373.88 155.295 218.4 218.4 0 0 0 64.02 155.3c3.217 3.225 6.6 6.323 9.99 9.317a60.365 60.365 0 0 0 -44.681 58.233v53.521a5.822 5.822 0 0 0 5.786 6h367.768c3.313 0 6.446-2.687 6.446-6v-53.521a60.22 60.22 0 0 0 -45.253-58.231zm-352.192-164.619c0-114.487 92.918-207.629 207.057-207.629s207.1 93.142 207.1 207.629a206.427 206.427 0 0 1 -74.712 159.665v-15.481a6.075 6.075 0 0 0 -.212-1.263l-.239-.929a6.026 6.026 0 0 0 -9.259-3.7 217.366 217.366 0 0 1 -69.29 31v-43.392a88.8 88.8 0 0 0 27.782-47.464l6.067-27.719a22.472 22.472 0 0 0 11.858-41.314 158.394 158.394 0 0 0 7.152-76.3c-2.835-18.574-21.873-47.288-25.258-51.8-1.156-1.541-1.789-2.389-19.055-8.345-.035-.012-.068-.024-.1-.035a5.1 5.1 0 0 1 -3.536-4.866 17.054 17.054 0 0 0 -6.812-13.669 104.6 104.6 0 0 0 -62.643-20.974c-61.455.006-111.455 54.474-111.455 121.424a130.2 130.2 0 0 0 7.535 43.963 34.49 34.49 0 0 0 8.465 65.233v29.021c0 11 8.878 20.316 19.852 20.316h10.3c2.823 3 5.846 6.964 8.846 10.259v41.478a217.625 217.625 0 0 1 -58.031-29.123 6 6 0 0 0 -9.615.193l-.264.206a7.949 7.949 0 0 0 -1.09 4.814v14.807a208.147 208.147 0 0 1 -70.443-156.005zm207.076 207.63a206.831 206.831 0 0 1 -124.631-41.815v-14.51a231.426 231.426 0 0 0 245 2.818v14.838a206.257 206.257 0 0 1 -120.369 38.669zm120.369-23.953v16.441a219.315 219.315 0 0 1 -245-3.047v-16.286c37 25.245 79.518 38.845 124.631 38.845a219.148 219.148 0 0 0 120.369-35.953zm-144.37-89.567c-5.065 0-9.457 2.261-11.637 7.261h-34.546a80.979 80.979 0 0 1 -10.247-25.264l-4.2-20.036v-54.464a5.429 5.429 0 0 0 -3-4.918v-18.745a50.335 50.335 0 0 1 9.926-29.664l-.926 14.54a6.054 6.054 0 0 0 7.5 6.233c6.182-1.545 22.627-8.526 43.944-39.9a50.712 50.712 0 0 0 48.95 6.991c18.963-7.28 40.361 1.228 48.784 19.373a63 63 0 0 1 5.822 26.739v29.5c0 3.313 2.81 5.612 6.123 5.612h4.4a10.5 10.5 0 0 1 0 21h-4.4a6.158 6.158 0 0 0 -5.866 4.917l-6.957 32.548a76.981 76.981 0 0 1 -123.345 43.881c-2.515-2.032-4.888-4.343-7.112-6.343h25.152a13.365 13.365 0 0 0 11.637 6.934 13.2 13.2 0 0 0 13.1-13.214 13 13 0 0 0 -13.102-12.981zm-75.63-116.166v17.427h-1.008c-.945 0-1.879.167-2.8.242a117.49 117.49 0 0 1 -7.192-40.775c0-60.333 44.613-109.418 99.451-109.418a92.678 92.678 0 0 1 55.5 18.614 5 5 0 0 1 1.96 4.029 17.07 17.07 0 0 0 11.779 16.262c5.336 1.841 11.681 4.16 14.068 5.2 6.163 8.579 20.161 32.056 22.2 45.392 3.5 22.949 1.05 46.442-5.95 68.406v-21.067a74.9 74.9 0 0 0 -6.931-31.793c-11.069-23.844-39.165-35.054-64-25.523a38.7 38.7 0 0 1 -39.236-6.857 9.185 9.185 0 0 0 -13.68 1.894c-8.377 12.693-19.912 26.749-30.41 33.622l1.405-20.382a6 6 0 0 0 -3.092-5.67 6.281 6.281 0 0 0 -6.6.422 62.392 62.392 0 0 0 -25.464 49.975zm3 29.427v45h-4.008a22.5 22.5 0 0 1 0-45zm2 59.584 2.436 11.668a88.74 88.74 0 0 0 8.164 22.748h-2.75c-4.357 0-7.852-3.937-7.852-8.316zm136 67.994v36.979a220.521 220.521 0 0 1 -97-3.291v-35.266a90.041 90.041 0 0 0 49.722 15.233 88.852 88.852 0 0 0 47.278-13.655zm137 135.422h-65v-26.185a6 6 0 0 0 -12 0v26.185h-202v-26.185a6 6 0 0 0 -12 0v26.185h-65v-47.521a47.846 47.846 0 0 1 41-47.739v23.64c0 2.284.451 4.757 2.475 6.206a230.923 230.923 0 0 0 264 3.188c2.166-1.475 2.527-4.117 2.527-6.514v-26.484c.173-.131.338-.271.511-.4 25.368 1.781 45.489 22.668 45.489 48.1z"/><path d="m431.263 55.69a33.632 33.632 0 0 1 21.135 21.2 6 6 0 0 0 11.387 0 33.632 33.632 0 0 1 21.135-21.2 6 6 0 0 0 0-11.38 33.632 33.632 0 0 1 -21.135-21.2 6 6 0 0 0 -11.387 0 33.632 33.632 0 0 1 -21.135 21.2 6 6 0 0 0 0 11.38zm26.829-17.382a45.92 45.92 0 0 0 11.668 11.692 45.92 45.92 0 0 0 -11.668 11.692 45.94 45.94 0 0 0 -11.669-11.692 45.94 45.94 0 0 0 11.669-11.692z"/><path d="m77.465 370.869a6 6 0 0 0 -2.733-6.458 33.7 33.7 0 0 1 -15.932-25.378 6 6 0 0 0 -11.106-2.516 33.562 33.562 0 0 1 -25.285 15.975 6 6 0 0 0 -2.526 11.1 33.7 33.7 0 0 1 15.933 25.378 6 6 0 0 0 11.106 2.516 33.564 33.564 0 0 1 25.285-15.975 6 6 0 0 0 5.258-4.642zm-32.736 4.531a46 46 0 0 0 -8.8-14 45.843 45.843 0 0 0 13.956-8.8 46.006 46.006 0 0 0 8.8 14 45.848 45.848 0 0 0 -13.956 8.8z"/><path d="m486 445.25a6 6 0 0 0 -6 6v.168a6 6 0 0 0 12 0v-.168a6 6 0 0 0 -6-6z"/><path d="m486.436 433.479a6 6 0 0 0 6-6 60.3 60.3 0 0 0 -34.436-54.492 6 6 0 0 0 -5.139 10.844 48.245 48.245 0 0 1 27.575 43.648 6 6 0 0 0 6 6z"/><ellipse cx="476.038" cy="103" rx="10.985" ry="11"/><ellipse cx="487.006" cy="475" rx="7.994" ry="8"/><ellipse cx="42.322" cy="75" rx="10.985" ry="11"/><ellipse cx="42.322" cy="432" rx="10.985" ry="11"/><path d="m427.81 192.879c.886 4.669 1.585 9.444 2.074 14.191a6 6 0 0 0 11.937-1.23c-.524-5.085-1.272-10.2-2.222-15.2a6 6 0 0 0 -11.789 2.24z"/><path d="m399.2 126.216a169.377 169.377 0 0 1 12.482 20.265c2.394 4.584 4.606 9.343 6.572 14.145a6 6 0 1 0 11.1-4.546c-2.106-5.145-4.475-10.245-7.042-15.155a181.1 181.1 0 0 0 -33.412-45.143 6 6 0 0 0 -8.423 8.547 169.751 169.751 0 0 1 18.723 21.887z"/></g></svg>