<?xml version="1.0" encoding="UTF-8"?>
<!DOCTYPE svg PUBLIC "-//W3C//DTD SVG 1.1//EN" "http://www.w3.org/Graphics/SVG/1.1/DTD/svg11.dtd">
<!-- Creator: CorelDRAW 2019 (64 Bit) -->
<svg xmlns="http://www.w3.org/2000/svg" xml:space="preserve" width="997px" height="668px" version="1.1" style="shape-rendering:geometricPrecision; text-rendering:geometricPrecision; image-rendering:optimizeQuality; fill-rule:evenodd; clip-rule:evenodd"
viewBox="0 0 997 667.8"
 xmlns:xlink="http://www.w3.org/1999/xlink">
 <defs>
  <style type="text/css">
   <![CDATA[
    .str0 {stroke:#111326;stroke-width:0.9;stroke-miterlimit:10}
    .fil1 {fill:#070A1F}
    .fil15 {fill:#111326}
    .fil16 {fill:white;fill-rule:nonzero}
    .fil10 {fill:#F2FAFA;fill-rule:nonzero}
    .fil7 {fill:#EDEDF7;fill-rule:nonzero}
    .fil8 {fill:#B5C4CC;fill-rule:nonzero}
    .fil6 {fill:#008082;fill-rule:nonzero}
    .fil5 {fill:#00A1AF;fill-rule:nonzero}
    .fil4 {fill:#00C8C3;fill-rule:nonzero}
    .fil0 {fill:#05071A;fill-rule:nonzero}
    .fil11 {fill:#111325;fill-rule:nonzero}
    .fil9 {fill:#7B7E88;fill-rule:nonzero}
    .fil3 {fill:#DA2405;fill-rule:nonzero}
    .fil2 {fill:#FF4936;fill-rule:nonzero}
    .fil14 {fill:#F2FAFA;fill-rule:nonzero}
    .fil12 {fill:#E0D966;fill-rule:nonzero}
    .fil13 {fill:#CFBA17;fill-rule:nonzero}
   ]]>
  </style>
    <clipPath id="id0">
     <path d="M5.72 76.69c0,-36.46 29.81,-66.27 66.25,-66.27 -36.44,0.02 -66.25,29.81 -66.25,66.27zm500.18 -65.73l-433.79 -0.54 433.79 0.54zm-433.79 -0.54c0,0 0,0 -0.14,0l0 0c0.14,0 0.14,0 0.14,0l0 0z"/>
    </clipPath>
    <clipPath id="id1">
     <path d="M505.02 656.86l-433.69 -0.56c-14.99,-0.02 -28.89,-5.08 -40.06,-13.56l0 0c11.17,8.48 25.07,13.54 40.06,13.56l433.69 0.55 0 0.01 0 0z"/>
    </clipPath>
    <clipPath id="id2">
     <path d="M293.85 416c0,0 0,0 -0.01,0 -2.67,-0.01 -4.84,-2.18 -4.84,-4.86 0,-2.68 2.17,-4.84 4.85,-4.84 0,0 0,0 0.01,0 2.67,0 4.84,2.17 4.84,4.85 -0.01,2.67 -2.18,4.85 -4.85,4.85l0 0z"/>
    </clipPath>
 </defs>
 <g id="Camada_x0020_1">
  <metadata id="CorelCorpID_0Corel-Layer"/>
  <g id="_2550848708048">
   <g>
    <path class="fil0" d="M924.9 657.39l-853.63 -1.09c-36.5,-0.05 -66.32,-29.95 -66.27,-66.45l0.65 -513.16c0.05,-36.51 29.95,-66.33 66.45,-66.28l853.63 1.1c36.5,0.04 66.32,29.94 66.27,66.44l-0.65 513.17c-0.05,36.49 -29.95,66.32 -66.45,66.27z"/>
    <path class="fil1" d="M505.04 656.86l-433.79 -0.56c-14.98,0 -28.81,-5 -40.04,-13.53 -15.84,-12.06 -26.21,-31.34 -26.21,-52.67 0,-0.19 0,-0.19 0,-0.19l0.72 -513.12 0 0c0,-36.53 29.81,-66.2 66.25,-66.39 0,0 0,0 0,0 0.14,0 0.14,0 0.14,0l0 0 433.79 0.56 -0.86 645.9 0 0zm-211.28 -307.65c-15.99,0 -31.83,6.12 -43.93,18.17 -24.34,24.3 -24.34,63.61 -0.14,87.9 12.1,12.24 28.08,18.36 44.07,18.36 15.84,0 31.68,-6.12 43.78,-18.17 24.34,-24.3 24.48,-63.61 0.14,-87.9 -12.09,-12.24 -28.08,-18.36 -43.92,-18.36zm-163.9 -223.09c-9.79,0 -19.73,3.71 -27.22,11.31 -15.12,15.02 -15.12,39.5 -0.14,54.71 7.63,7.6 17.57,11.31 27.36,11.31 9.94,0 19.88,-3.71 27.37,-11.31 15.12,-15.02 15.12,-39.5 0.14,-54.71 -7.63,-7.6 -17.57,-11.31 -27.51,-11.31l0 0z"/>
   </g>
   <g style="clip-path:url(#id0)">
    <image x="1.68" y="6.81" width="508.1" height="73.59" xlink:href="desafiossobre_Images\desafiossobre_ImgID1.png"/>
   </g>
   <g style="clip-path:url(#id1)">
    <image x="26.91" y="639.65" width="480.7" height="21.4" xlink:href="desafiossobre_Images\desafiossobre_ImgID2.png"/>
   </g>
   <path class="fil2" d="M538.06 541.17c-0.02,19.72 -16.03,35.69 -35.75,35.66 -19.72,-0.03 -35.69,-16.03 -35.66,-35.75 0.02,-19.72 16.03,-35.69 35.75,-35.66 19.72,0.02 35.69,16.03 35.66,35.75z"/>
   <path class="fil3" d="M502.4 505.42c-2.69,-0.01 -5.3,0.31 -7.83,0.88 15.95,3.59 27.87,17.82 27.84,34.85 -0.02,17.03 -11.96,31.24 -27.92,34.78 2.52,0.57 5.13,0.9 7.82,0.9 19.72,0.03 35.73,-15.94 35.75,-35.66 0.03,-19.72 -15.94,-35.73 -35.66,-35.75z"/>
   <path class="fil4" d="M362.18 166.63c-0.05,36.11 -29.36,65.35 -65.48,65.31 -36.11,-0.05 -65.35,-29.37 -65.31,-65.48 0.05,-36.11 29.36,-65.36 65.48,-65.31 36.12,0.05 65.35,29.36 65.31,65.48z"/>
   <path class="fil5" d="M296.87 101.15c-2.2,0 -4.38,0.11 -6.53,0.32 28.18,7.31 48.99,32.85 48.95,63.31 -0.04,33.91 -25.89,61.75 -58.94,64.99 5.23,1.36 10.69,2.16 16.35,2.17 36.12,0.04 65.43,-29.2 65.48,-65.31 0.04,-36.12 -29.19,-65.43 -65.31,-65.48z"/>
   <path class="fil6" d="M255.74 143.68c-4.04,-3.15 -4.75,-8.98 -1.6,-13.01 3.15,-4.04 8.98,-4.75 13.01,-1.6 4.04,3.15 4.75,8.98 1.6,13.01 -3.15,4.04 -8.98,4.75 -13.01,1.6z"/>
   <path class="fil6" d="M261.97 161.85c-2.44,-1.9 -2.88,-5.43 -0.97,-7.86 1.91,-2.45 5.43,-2.89 7.87,-0.98 2.45,1.91 2.88,5.44 0.97,7.88 -1.91,2.44 -5.43,2.87 -7.87,0.96z"/>
   <path class="fil6" d="M278.88 132.65c-1.46,-1.13 -1.71,-3.23 -0.58,-4.68 1.14,-1.45 3.23,-1.71 4.68,-0.57 1.45,1.13 1.71,3.22 0.58,4.67 -1.14,1.46 -3.23,1.72 -4.68,0.58z"/>
   <path class="fil7" d="M169.58 450.43c-0.03,21.4 -17.4,38.74 -38.81,38.71 -21.41,-0.03 -38.74,-17.4 -38.71,-38.81 0.03,-21.41 17.4,-38.74 38.81,-38.71 21.41,0.03 38.74,17.4 38.71,38.81z"/>
   <path class="fil8" d="M130.87 411.62c-2.92,-0.01 -5.76,0.34 -8.49,0.95 17.31,3.9 30.24,19.35 30.22,37.83 -0.03,18.49 -13,33.91 -30.32,37.77 2.74,0.61 5.57,0.96 8.49,0.97 21.41,0.03 38.79,-17.31 38.81,-38.71 0.03,-21.41 -17.3,-38.78 -38.71,-38.81z"/>
   <path class="fil8" d="M130.18 425.56c-0.01,3.09 -2.51,5.58 -5.59,5.58 -3.09,-0.01 -5.58,-2.51 -5.58,-5.59 0.01,-3.08 2.51,-5.58 5.59,-5.57 3.08,0 5.58,2.5 5.58,5.58z"/>
   <path class="fil8" d="M114.39 431.82c0,1.7 -1.37,3.07 -3.07,3.06 -1.69,0 -3.05,-1.37 -3.05,-3.06 0,-1.7 1.37,-3.07 3.06,-3.07 1.7,0.01 3.06,1.38 3.06,3.07z"/>
   <path class="fil9" d="M924.64 148.98c-8.01,0 -16.02,-3.07 -22.13,-9.19 -12.19,-12.22 -12.16,-32.01 0.06,-44.2 6.1,-6.08 14.09,-9.12 22.07,-9.12 8.01,0 16.02,3.06 22.13,9.18 12.19,12.22 12.17,32.01 -0.06,44.2 -6.1,6.09 -14.08,9.13 -22.07,9.13zm0.07 -33.81c-1.35,0 -2.44,1.09 -2.44,2.43 0,1.35 1.09,2.44 2.44,2.44 1.34,0 2.44,-1.08 2.44,-2.43 0,-1.35 -1.09,-2.44 -2.44,-2.44 0,0 0,0 0,0l0 0z"/>
   <g style="clip-path:url(#id2)">
    <image x="285.7" y="403.48" width="17.05" height="15.31" xlink:href="desafiossobre_Images\desafiossobre_ImgID3.png"/>
   </g>
   <path class="fil10" d="M566.09 198.21c0,1.17 -0.96,2.13 -2.14,2.13 -1.18,-0.01 -2.13,-0.96 -2.13,-2.14 0,-1.18 0.96,-2.14 2.14,-2.13 1.18,0 2.13,0.95 2.13,2.14z"/>
   <path class="fil11" d="M563.9 225.65c-7.02,0 -14.03,-2.68 -19.37,-8.04 -10.66,-10.69 -10.64,-28 0.05,-38.67 5.34,-5.33 12.33,-7.99 19.32,-7.99 7.01,0 14.01,2.68 19.36,8.04 10.66,10.7 10.64,28.01 -0.05,38.68 -5.34,5.32 -12.33,7.98 -19.31,7.98zm0.05 -29.58c-1.17,0 -2.13,0.95 -2.13,2.13 0,1.18 0.95,2.13 2.13,2.14 1.18,0 2.14,-0.96 2.14,-2.13 0,-1.19 -0.95,-2.14 -2.13,-2.14 0,0 0,0 -0.01,0z"/>
   <path class="fil10" d="M563.95 200.34c-1.18,-0.01 -2.13,-0.96 -2.13,-2.14 0,-1.18 0.96,-2.13 2.13,-2.13 0.01,0 0.01,0 0.01,0 1.18,0 2.13,0.95 2.13,2.14 0,1.17 -0.96,2.13 -2.14,2.13z"/>
   <path class="fil10" d="M691.92 505.57c0,1.63 -1.32,2.95 -2.96,2.95 -1.63,-0.01 -2.95,-1.33 -2.95,-2.96 0,-1.63 1.32,-2.96 2.96,-2.96 1.63,0.01 2.95,1.33 2.95,2.97z"/>
   <path class="fil11" d="M688.88 543.6c-9.72,0 -19.43,-3.71 -26.84,-11.13 -14.77,-14.82 -14.74,-38.82 0.08,-53.6 7.39,-7.38 17.07,-11.07 26.76,-11.07 9.71,0 19.43,3.72 26.83,11.14 14.79,14.82 14.75,38.81 -0.07,53.6 -7.4,7.37 -17.08,11.06 -26.76,11.06zm0.09 -41c-1.64,0 -2.96,1.33 -2.96,2.96 0,1.63 1.32,2.95 2.95,2.96 1.64,0 2.96,-1.32 2.96,-2.95 0,-1.64 -1.32,-2.96 -2.95,-2.97z"/>
   <path class="fil10" d="M688.96 508.52c-1.63,-0.01 -2.95,-1.33 -2.95,-2.96 0,-1.63 1.32,-2.96 2.96,-2.96 1.63,0.01 2.95,1.33 2.95,2.97 0,1.63 -1.32,2.95 -2.96,2.95z"/>
   <path class="fil10" d="M133.03 164.55c-0.01,1.67 -1.36,3.02 -3.03,3.01 -1.66,0 -3.01,-1.35 -3.01,-3.02 0,-1.67 1.35,-3.02 3.02,-3.01 1.67,0 3.02,1.35 3.02,3.02z"/>
   <path class="fil10 str0" d="M130.01 167.56c0,0 0,0 -0.01,0 -1.66,0 -3.01,-1.35 -3.01,-3.02 0,-1.67 1.35,-3.01 3.01,-3.01 0.01,0 0.01,0 0.01,0 1.67,0 3.02,1.35 3.02,3.02 -0.01,1.66 -1.36,3.01 -3.02,3.01z"/>
   <path class="fil10" d="M235.93 69.19c-0.2,1.78 -1.8,3.06 -3.57,2.87 -1.78,-0.19 -3.07,-1.79 -2.88,-3.57 0.2,-1.78 1.79,-3.06 3.58,-2.87 1.77,0.19 3.06,1.79 2.87,3.57z"/>
   <path class="fil10" d="M647.79 125c-0.11,1 -1,1.71 -1.99,1.61 -1,-0.11 -1.71,-1.01 -1.61,-2 0.11,-0.99 1,-1.71 2,-1.61 0.99,0.12 1.71,1.01 1.6,2z"/>
   <path class="fil10" d="M388.45 49.98c-0.11,0.99 -1,1.71 -2,1.61 -0.99,-0.12 -1.7,-1.01 -1.6,-2 0.11,-1 1,-1.71 1.99,-1.61 1,0.11 1.72,1.01 1.61,2z"/>
   <path class="fil10" d="M574.87 81.3c-0.11,0.99 -1,1.71 -1.99,1.6 -0.99,-0.11 -1.71,-1 -1.6,-2 0.1,-0.99 1,-1.71 1.99,-1.6 0.99,0.11 1.71,1 1.6,2z"/>
   <path class="fil10" d="M99.41 62.04c-0.11,0.99 -1,1.71 -1.99,1.6 -1,-0.1 -1.71,-0.99 -1.61,-1.99 0.11,-0.99 1,-1.71 2,-1.6 0.99,0.1 1.71,1 1.6,1.99z"/>
   <path class="fil10" d="M804.5 51c-0.1,0.99 -1,1.71 -1.99,1.61 -0.99,-0.11 -1.71,-1.01 -1.61,-2 0.11,-1 1,-1.71 2,-1.6 0.99,0.1 1.71,1 1.6,1.99z"/>
   <path class="fil10" d="M130.98 590.89c-0.1,0.99 -1,1.71 -1.99,1.6 -1,-0.11 -1.71,-1 -1.61,-1.99 0.11,-0.99 1,-1.71 2,-1.6 0.99,0.1 1.71,1 1.6,1.99z"/>
   <path class="fil10" d="M187.91 271.65c-0.11,1 -1,1.72 -2,1.61 -0.99,-0.11 -1.71,-1 -1.6,-2 0.1,-0.99 1,-1.71 1.99,-1.6 0.99,0.11 1.71,1 1.61,1.99z"/>
   <path class="fil10" d="M203.84 365.14c-0.11,1 -1,1.72 -1.99,1.61 -1,-0.11 -1.71,-1 -1.61,-1.99 0.11,-1 1,-1.72 2,-1.61 0.99,0.11 1.71,1 1.6,1.99z"/>
   <path class="fil10" d="M407.95 596.97c-0.11,1 -1,1.71 -2,1.6 -0.99,-0.11 -1.71,-1 -1.6,-1.99 0.11,-1 1,-1.71 2,-1.61 0.99,0.11 1.71,1.01 1.6,2z"/>
   <path class="fil10" d="M601.69 275.8c-0.21,1.97 -1.98,3.4 -3.95,3.18 -1.97,-0.21 -3.4,-1.98 -3.19,-3.95 0.22,-1.98 1.99,-3.4 3.96,-3.18 1.97,0.21 3.4,1.98 3.18,3.95z"/>
   <path class="fil10" d="M76.7 306.13c-0.31,2.79 -2.81,4.81 -5.6,4.5 -2.79,-0.3 -4.81,-2.8 -4.5,-5.59 0.3,-2.8 2.8,-4.81 5.59,-4.5 2.79,0.3 4.81,2.8 4.51,5.59z"/>
   <path class="fil10" d="M834.28 462.06c-0.33,0.95 -1.36,1.45 -2.3,1.12 -0.95,-0.33 -1.45,-1.36 -1.12,-2.31 0.33,-0.94 1.36,-1.44 2.3,-1.11 0.95,0.32 1.45,1.36 1.12,2.3z"/>
   <path class="fil10" d="M570.62 439.26c-0.33,0.95 -1.36,1.45 -2.3,1.12 -0.95,-0.32 -1.45,-1.35 -1.12,-2.3 0.32,-0.95 1.35,-1.45 2.3,-1.12 0.95,0.33 1.45,1.36 1.12,2.3z"/>
   <path class="fil10" d="M353.25 502.16c-0.33,0.95 -1.36,1.45 -2.3,1.12 -0.95,-0.32 -1.45,-1.35 -1.12,-2.3 0.32,-0.94 1.36,-1.44 2.3,-1.12 0.94,0.33 1.45,1.36 1.12,2.3z"/>
   <path class="fil10" d="M755.63 598.73c-0.65,1.88 -2.69,2.87 -4.57,2.22 -1.87,-0.64 -2.86,-2.69 -2.22,-4.57 0.65,-1.87 2.69,-2.86 4.57,-2.21 1.87,0.64 2.87,2.69 2.22,4.56z"/>
   <path class="fil10" d="M237.14 510.9c-0.92,2.65 -3.81,4.06 -6.46,3.14 -2.65,-0.92 -4.06,-3.81 -3.14,-6.46 0.92,-2.65 3.81,-4.06 6.46,-3.14 2.66,0.92 4.06,3.81 3.14,6.46z"/>
   <path class="fil10" d="M894.41 74.12c0.18,1.78 1.78,3.07 3.56,2.89 1.78,-0.19 3.07,-1.78 2.88,-3.56 -0.19,-1.78 -1.78,-3.08 -3.56,-2.88 -1.78,0.18 -3.07,1.78 -2.88,3.55z"/>
   <path class="fil10" d="M482.4 128.88c0.1,1 1,1.72 1.99,1.61 0.99,-0.1 1.71,-0.99 1.61,-1.98 -0.11,-1 -1,-1.72 -1.99,-1.61 -1,0.1 -1.72,0.99 -1.61,1.98z"/>
   <g>
    <path class="fil12" d="M916.9 216.71c-0.09,64.79 -52.68,117.25 -117.47,117.17 -64.79,-0.09 -117.24,-52.68 -117.16,-117.47 0.09,-64.78 52.67,-117.24 117.46,-117.16 64.79,0.08 117.25,52.68 117.17,117.46z"/>
    <path class="fil13" d="M799.73 99.25c-7.49,-0.01 -14.81,0.72 -21.92,2.05 52.88,11.44 92.46,58.5 92.39,114.78 -0.07,57.3 -41.22,104.92 -95.54,115.12 7.99,1.73 16.27,2.67 24.77,2.68 64.79,0.08 117.38,-52.38 117.47,-117.17 0.08,-64.78 -52.38,-117.38 -117.17,-117.46z"/>
    <path class="fil13" d="M822.09 239.11c-4.89,-3.82 -5.76,-10.88 -1.94,-15.77 3.82,-4.9 10.89,-5.76 15.79,-1.94 4.89,3.82 5.75,10.89 1.93,15.78 -3.82,4.89 -10.89,5.76 -15.78,1.93z"/>
    <path class="fil13" d="M829.65 261.16c-2.97,-2.31 -3.49,-6.59 -1.18,-9.55 2.32,-2.96 6.59,-3.48 9.55,-1.17 2.96,2.32 3.49,6.59 1.17,9.55 -2.31,2.96 -6.59,3.48 -9.54,1.17z"/>
    <path class="fil13" d="M719.33 160c-2.95,-2.32 -3.48,-6.59 -1.17,-9.55 2.32,-2.96 6.59,-3.49 9.55,-1.17 2.96,2.31 3.49,6.59 1.18,9.55 -2.32,2.96 -6.59,3.48 -9.56,1.17z"/>
    <path class="fil13" d="M850.15 225.74c-1.76,-1.38 -2.07,-3.92 -0.69,-5.68 1.37,-1.76 3.91,-2.07 5.67,-0.7 1.76,1.38 2.07,3.92 0.7,5.68 -1.38,1.76 -3.91,2.07 -5.68,0.7z"/>
    <path class="fil13" d="M707.99 180.86c-1.76,-1.37 -2.07,-3.92 -0.7,-5.67 1.38,-1.77 3.92,-2.08 5.68,-0.7 1.76,1.37 2.07,3.91 0.69,5.67 -1.37,1.76 -3.91,2.08 -5.67,0.7z"/>
    <path class="fil14" d="M927.66 116.97c0,1.34 -1.09,2.43 -2.44,2.43 -1.35,0 -2.44,-1.1 -2.44,-2.44 0.01,-1.35 1.1,-2.44 2.45,-2.44 1.34,0 2.43,1.1 2.43,2.45z"/>
    <path class="fil14" d="M925.22 119.4c-1.35,0 -2.44,-1.1 -2.44,-2.44 0.01,-1.34 1.09,-2.44 2.44,-2.44 0,0 0,0 0.01,0 1.34,0 2.43,1.1 2.43,2.45 0,1.34 -1.09,2.43 -2.44,2.43z"/>
    <path class="fil14" d="M748.86 125.89c0.1,0.99 1,1.71 1.99,1.61 0.99,-0.11 1.71,-1 1.61,-1.99 -0.1,-1 -1,-1.72 -1.99,-1.61 -0.99,0.1 -1.72,0.99 -1.61,1.99z"/>
    <path class="fil14" d="M946.38 236.3c0.1,1 1,1.72 1.99,1.61 1,-0.1 1.72,-0.99 1.61,-1.98 -0.11,-1 -0.99,-1.72 -1.99,-1.61 -1,0.1 -1.71,0.99 -1.61,1.98z"/>
   </g>
   <path class="fil10" d="M416.54 255.8c0.21,1.97 1.98,3.39 3.95,3.18 1.97,-0.2 3.4,-1.97 3.19,-3.94 -0.21,-1.97 -1.98,-3.4 -3.95,-3.19 -1.97,0.21 -3.4,1.97 -3.19,3.95z"/>
   <path class="fil10" d="M905.73 437.13c0.3,2.8 2.8,4.82 5.59,4.52 2.79,-0.29 4.81,-2.79 4.52,-5.58 -0.3,-2.79 -2.8,-4.81 -5.59,-4.52 -2.79,0.29 -4.81,2.8 -4.52,5.58z"/>
   <path class="fil15" d="M130 203.21c-9.91,0 -19.83,-3.76 -27.39,-11.36 -15.07,-15.12 -15.04,-39.61 0.08,-54.68 7.56,-7.53 17.42,-11.29 27.31,-11.29 9.92,0 19.83,3.78 27.39,11.36 15.1,15.12 15.04,39.61 -0.08,54.68 -7.53,7.53 -17.42,11.29 -27.31,11.29zm0.08 -41.82c-1.65,0 -3.01,1.33 -3.01,3 0,1.67 1.36,3.02 3.01,3.02 0,0 0.03,0 0.03,0 1.64,0 3,-1.33 3,-3 0,-1.66 -1.36,-3.02 -3,-3.02 -0.03,0 -0.03,0 -0.03,0l0 0z"/>
   <path class="fil16" d="M263.57 381.03l20.45 0c21.92,0 35.26,-12.77 35.26,-37.29 0,-24.41 -13.34,-36.61 -35.94,-36.61l-19.77 0 0 73.9zm13.1 -10.62l0 -52.66 5.77 0c14.91,0 23.39,7.91 23.39,25.99 0,18.19 -8.48,26.67 -23.39,26.67l-5.77 0z"/>
   <polygon id="1" class="fil16" points="334.19,381.03 379.84,381.03 379.84,369.96 347.3,369.96 347.3,348.15 373.86,348.15 373.86,337.07 347.3,337.07 347.3,318.2 378.71,318.2 378.71,307.13 334.19,307.13 "/>
   <path id="2" class="fil16" d="M416.57 382.39c16.61,0 26.55,-9.95 26.55,-21.93 0,-10.73 -6.21,-16.27 -14.91,-20l-10.06 -4.18c-6.1,-2.48 -11.75,-4.63 -11.75,-10.39 0,-5.43 4.63,-8.71 11.64,-8.71 6.33,0 11.3,2.38 16.04,6.33l6.67 -8.36c-5.76,-5.76 -14.12,-9.38 -22.71,-9.38 -14.47,0 -24.86,9.04 -24.86,20.79 0,10.85 7.68,16.61 14.91,19.67l10.17 4.4c6.67,2.83 11.42,4.75 11.42,10.85 0,5.76 -4.52,9.49 -12.89,9.49 -6.78,0 -13.89,-3.39 -19.21,-8.36l-7.68 8.93c7.01,6.89 16.72,10.85 26.67,10.85z"/>
   <path id="3" class="fil16" d="M471.71 341.71c2.38,-7.8 4.52,-16.16 6.56,-24.41l0.45 0c2.15,8.13 4.29,16.61 6.67,24.41l2.6 9.04 -18.88 0 2.6 -9.04zm-24.74 39.32l13.33 0 5.76 -20 24.86 0 5.77 20 13.78 0 -24.07 -73.9 -15.36 0 -24.07 73.9z"/>
   <polygon id="4" class="fil16" points="519.63,381.03 532.73,381.03 532.73,350.18 559.63,350.18 559.63,339.11 532.73,339.11 532.73,318.2 564.26,318.2 564.26,307.13 519.63,307.13 "/>
   <polygon id="5" class="fil16" points="577.26,381.03 590.36,381.03 590.36,307.13 577.26,307.13 "/>
   <path id="6" class="fil16" d="M637.82 382.39c19.33,0 32.66,-14.69 32.66,-38.65 0,-23.84 -13.33,-37.97 -32.66,-37.97 -19.21,0 -32.54,14.13 -32.54,37.97 0,23.96 13.33,38.65 32.54,38.65zm0 -11.42c-11.63,0 -19.09,-10.62 -19.09,-27.23 0,-16.5 7.46,-26.56 19.09,-26.56 11.64,0 19.1,10.06 19.1,26.56 0,16.61 -7.46,27.23 -19.1,27.23z"/>
   <path id="7" class="fil16" d="M706.87 382.39c16.61,0 26.55,-9.95 26.55,-21.93 0,-10.73 -6.21,-16.27 -14.91,-20l-10.06 -4.18c-6.1,-2.48 -11.75,-4.63 -11.75,-10.39 0,-5.43 4.63,-8.71 11.64,-8.71 6.32,0 11.3,2.38 16.04,6.33l6.67 -8.36c-5.76,-5.76 -14.13,-9.38 -22.71,-9.38 -14.47,0 -24.86,9.04 -24.86,20.79 0,10.85 7.68,16.61 14.91,19.67l10.17 4.4c6.67,2.83 11.41,4.75 11.41,10.85 0,5.76 -4.52,9.49 -12.88,9.49 -6.78,0 -13.9,-3.39 -19.21,-8.36l-7.68 8.93c7,6.89 16.72,10.85 26.67,10.85z"/>
  </g>
 </g>
</svg>
