<svg xmlns="http://www.w3.org/2000/svg" xmlns:xlink="http://www.w3.org/1999/xlink" width="1674.599" height="730.875" viewBox="0 0 1674.599 730.875">
  <defs>
    <linearGradient id="linear-gradient" x1="0.166" y1="1.085" x2="1.578" y2="-0.342" gradientUnits="objectBoundingBox">
      <stop offset="0" stop-color="#ffffbd"/>
      <stop offset="0" stop-color="#e2fdfa"/>
      <stop offset="1" stop-color="#f6f3ee"/>
    </linearGradient>
    <linearGradient id="linear-gradient-2" x1="0.494" y1="0.802" x2="0.835" y2="-0.299" xlink:href="#linear-gradient"/>
    <linearGradient id="linear-gradient-3" x1="1.243" y1="-0.346" x2="-0.032" y2="1.49" gradientUnits="objectBoundingBox">
      <stop offset="0" stop-color="#4dabff"/>
      <stop offset="1" stop-color="#2078ba"/>
    </linearGradient>
    <linearGradient id="linear-gradient-4" x1="-0.729" y1="2.569" x2="2.113" y2="-1.896" gradientUnits="objectBoundingBox">
      <stop offset="0" stop-color="#ffffbd"/>
      <stop offset="1" stop-color="#ffb850"/>
    </linearGradient>
    <linearGradient id="linear-gradient-5" x1="-0.516" y1="1.828" x2="1.642" y2="-0.783" xlink:href="#linear-gradient-4"/>
    <linearGradient id="linear-gradient-6" x1="0.495" y1="0.514" x2="0.545" y2="0.381" xlink:href="#linear-gradient-4"/>
    <linearGradient id="linear-gradient-7" x1="0.026" y1="-0.013" x2="1.254" y2="1.515" gradientUnits="objectBoundingBox">
      <stop offset="0" stop-color="#ffad8d"/>
      <stop offset="1" stop-color="#e55a5a"/>
    </linearGradient>
    <linearGradient id="linear-gradient-8" x1="0.597" y1="-0.928" x2="0.475" y2="1.355" xlink:href="#linear-gradient-7"/>
    <linearGradient id="linear-gradient-9" x1="1.167" y1="1.959" x2="0.295" y2="-0.253" gradientUnits="objectBoundingBox">
      <stop offset="0" stop-color="#4d1e84"/>
      <stop offset="1" stop-color="#2a0c47"/>
    </linearGradient>
    <linearGradient id="linear-gradient-10" x1="0.369" y1="-0.335" x2="0.727" y2="1.063" xlink:href="#linear-gradient-3"/>
    <linearGradient id="linear-gradient-11" x1="1.793" y1="-1.409" x2="-0.72" y2="1.896" xlink:href="#linear-gradient-9"/>
    <linearGradient id="linear-gradient-12" x1="0.534" y1="-0.283" x2="0.484" y2="0.809" xlink:href="#linear-gradient-9"/>
    <linearGradient id="linear-gradient-13" x1="0.975" y1="1.072" x2="0.231" y2="0.434" gradientUnits="objectBoundingBox">
      <stop offset="0" stop-color="#ada2cc"/>
      <stop offset="1" stop-color="#776aa5"/>
    </linearGradient>
    <linearGradient id="linear-gradient-14" x1="0.391" y1="0.664" x2="1.03" y2="-0.075" xlink:href="#linear-gradient-7"/>
    <linearGradient id="linear-gradient-15" x1="0.573" y1="0.85" x2="0.469" y2="0.027" xlink:href="#linear-gradient-7"/>
    <linearGradient id="linear-gradient-16" x1="1.546" y1="0.083" x2="-0.406" y2="0.869" xlink:href="#linear-gradient-13"/>
    <linearGradient id="linear-gradient-17" x1="-1.055" y1="0.046" x2="0.814" y2="0.585" xlink:href="#linear-gradient-13"/>
    <linearGradient id="linear-gradient-18" x1="-0.779" y1="0.055" x2="0.651" y2="0.571" xlink:href="#linear-gradient-13"/>
    <linearGradient id="linear-gradient-19" x1="0.793" y1="-0.597" x2="0.209" y2="1.488" xlink:href="#linear-gradient-9"/>
    <linearGradient id="linear-gradient-20" x1="0.41" y1="-0.012" x2="0.554" y2="1.039" xlink:href="#linear-gradient-7"/>
    <linearGradient id="linear-gradient-21" x1="1.357" y1="0.737" x2="-0.501" y2="0.243" xlink:href="#linear-gradient-7"/>
    <linearGradient id="linear-gradient-22" x1="1.222" y1="-4.322" x2="-0.125" y2="4.443" xlink:href="#linear-gradient-9"/>
    <linearGradient id="linear-gradient-23" x1="0.939" y1="-0.125" x2="0.183" y2="0.993" xlink:href="#linear-gradient-9"/>
    <linearGradient id="linear-gradient-24" x1="2.223" y1="-0.849" x2="-1.349" y2="1.766" xlink:href="#linear-gradient-9"/>
    <linearGradient id="linear-gradient-25" x1="1.695" y1="-1.117" x2="-0.817" y2="1.804" xlink:href="#linear-gradient-9"/>
  </defs>
  <g id="Grupo_543" data-name="Grupo 543" transform="translate(901.803 -21)">
    <g id="Grupo_4" data-name="Grupo 4" transform="translate(0 21)">
      <path id="Caminho_1" data-name="Caminho 1" d="M1084.045,68.63V289.578s-14.21,58.688-79.505,87.555c-15.364,6.794-33.55,11.936-55.052,14.276,89.841,68.6,83.4,129.864,18.436,195.758q-6.544,6.643-13.88,13.353c-13.031,11.936-18.012,24.693-17.273,37.652.955,17.011,11.756,34.371,27.121,50.7.174.194.356.388.544.578q3.1,3.275,6.446,6.5,3.578,3.458,7.372,6.824l.008.006c43.572,38.767,105.784,68.723,105.784,68.723v23.006h-772.8s9.013-53.957,53.2-101.919c1.143-1.243,2.305-2.487,3.51-3.716A213.734,213.734,0,0,1,444.07,638.4c31.165-12.293,71.291-15.444,115.044-15.424,28.255.012,58.023,1.345,87.878,2.385,13.3.47,26.616.874,39.83,1.083h.028q5.856.09,11.68.12h.006c.712.008,1.413.014,2.125.008h.034c9.161.034,18.254-.054,27.219-.31q7.321-.21,14.526-.584c10.666-.558,21.124-1.4,31.293-2.621,19.411-2.325,37.792-6.009,54.6-11.654a161.724,161.724,0,0,0,35.527-16.615,123.9,123.9,0,0,0,21.9-17.6c35.607-36.132,33.436-77.716,8.232-116.179-10.215-15.6-24.223-30.683-41.038-44.682-21.582-17.98-47.788-34.171-76.539-47.37l-.006-.008c-37.39-17.165-79.081-29.27-120.509-33.658h-.02a494.809,494.809,0,0,0-102.894-.168l-.006.006h-.008c-61.645,6.257-105.5,21.716-132.061,22.468a51.978,51.978,0,0,1-9.261-.462,28.092,28.092,0,0,1-7.414-2.085c-4.967-2.231-8.617-6.041-10.962-11.936a64.434,64.434,0,0,1-3.978-15.632v-.006q-.435-3.269-.552-6.648c-.08-2.029-.08-4.086.008-6.157a84.221,84.221,0,0,1,8.124-32.5c14.888-31.4,50.946-58.73,115.146-57.1,64.689,1.647,94.6,26.346,136.578,39.978a.058.058,0,0,0,.028.006c27.509,8.919,60.2,13.087,111.246,2.9A135.781,135.781,0,0,0,799.54,253.58l.008-.008c21.346-11.842,37.4-28.7,49.493-47.484l.028-.028a191,191,0,0,0,13.327-24.7l.006-.014C886.808,127.2,885.759,68.63,885.759,68.63Z" transform="translate(-311.248 -68.63)" fill="#12558b"/>
      <g id="Grupo_3" data-name="Grupo 3" transform="translate(58.522)">
        <path id="Caminho_2" data-name="Caminho 2" d="M1054.768,68.63V240.5s-58.514,135.912-240.8,132.478c-80.486-1.519-160.519-16.413-231.487-28.5-89.753-15.3-165-26.09-208.265.356,0,0-11.426-16.023-22.342-25.25-4.072-3.456-8.078-5.955-11.384-6.325,0,0,8.024-52.168,134.515-53.541s184.83,19.216,301.521-7.546S885.664,68.63,885.664,68.63Z" transform="translate(-340.493 -68.63)" fill="url(#linear-gradient)"/>
        <path id="Caminho_3" data-name="Caminho 3" d="M1049.073,114.389v94.969s-58.514,135.912-240.8,132.478-362.266-75.5-439.752-28.141c0,0-11.426-16.023-22.342-25.25,19.028-13.537,49.843-25.306,99.358-24.861,114.91,1.035,132.594,50.453,309.081,33.98s110.6-152.387,188.842-188.418C986.5,89.325,1017.712,105.638,1049.073,114.389Z" transform="translate(-334.798 -37.487)" opacity="0.25"/>
        <path id="Caminho_4" data-name="Caminho 4" d="M926.651,393.754C916.609,410.92,905.311,428.1,895.5,444.76c-10.418,17.69-19.154,34.795-22.918,50.7q-.564,2.347-.967,4.665c-11.252,63.977,4.591,93.959,9.139,100.971H352.476c12.657-43.7,34.11-78.322,61.055-105.635,29.606-30.024,65.846-51.216,104.311-65.894,31.025-11.842,63.5-19.459,95.124-24.055a604.847,604.847,0,0,1,101.4-5.8c15.538.4,29.9,1.345,42.619,2.6q8.438.837,16.365,1.217c1.237.06,2.467.114,3.684.16a240.486,240.486,0,0,0,45.555-2.305c64.2-9.859,92.872-47.362,103.2-85.9,5.041-18.82,5.1-31.523,3.226-40.052-1.533-6.97-4.354-11.15-6.808-13.589a96.561,96.561,0,0,1,14.066,12.191,68.86,68.86,0,0,1,10.856,15C963.779,320.535,948.079,357.131,926.651,393.754Z" transform="translate(-328.497 124.782)" fill="url(#linear-gradient-2)"/>
        <path id="Caminho_5" data-name="Caminho 5" d="M688.45,480.3H381.412c2.822-25.8,23.375-62.434,105.541-89.989a143.94,143.94,0,0,1,49.459-7.776c28.948.658,54.972,10.566,77.65,24.887a235.193,235.193,0,0,1,39.513,31.865A330.716,330.716,0,0,1,688.45,480.3Z" transform="translate(-299.53 245.576)" opacity="0.25"/>
        <path id="Caminho_6" data-name="Caminho 6" d="M735.35,380.151c-10.042,17.165-21.34,34.345-31.153,51.006-10.418,17.69-19.154,34.795-22.918,50.7q-.565,2.347-.967,4.665c-11.252,63.977,4.591,93.959,9.139,100.971H543.84c-1.935-30.891,5.759-71.957,47.86-105.635a177.531,177.531,0,0,1,18.974-13.187c103.786-62.8,159.747-139.382,145.148-193.245C772.478,306.931,756.778,343.527,735.35,380.151Z" transform="translate(-137.196 138.386)" opacity="0.25"/>
        <path id="Caminho_7" data-name="Caminho 7" d="M933.707,72.865v163.4s-58.514,135.912-240.8,132.478c-80.486-1.519-160.519-16.413-231.487-28.5,41.334-6.7,81.2-19.485,128.151-31.219,82.367-20.593,124.924,49.421,205.019,22.582s53.755-206.538,96.312-238.8C908.731,79.29,923.067,74.21,933.707,72.865Z" transform="translate(-219.432 -64.39)" opacity="0.25"/>
        <path id="Caminho_8" data-name="Caminho 8" d="M737.436,170.642s-30.447,51.88-67.513,85.656,15.589,72.221,67.513-8.435Z" transform="translate(-23.161 33.493)" fill="url(#linear-gradient-3)"/>
        <path id="Caminho_9" data-name="Caminho 9" d="M552.647,191.339s68.873-16.473,75.737-54.225-19.452-21.28-37.868,2.745S526.328,190.653,552.647,191.339Z" transform="translate(-136.085 -22.43)" fill="url(#linear-gradient-4)"/>
        <path id="Caminho_72" data-name="Caminho 72" d="M664.421,561.808s-61.4-96.776-18.882-168.413,28.336,128.352,141.8,168.413Z" transform="translate(-1590.866 169.067)" fill="#3590da"/>
        <path id="Caminho_10" data-name="Caminho 10" d="M650.218,484.764s-35.661-56.2-10.966-97.809S655.708,461.5,721.6,484.764Z" transform="translate(-1579.131 241.111)" fill="url(#linear-gradient-5)"/>
      </g>
    </g>
    <path id="Caminho_11" data-name="Caminho 11" d="M634.894,260.257a13.3,13.3,0,0,1,4.584,3.154Q637.278,261.817,634.894,260.257Z" transform="translate(12.749 123.205)" fill="url(#linear-gradient-6)"/>
    <g id="Grupo_5" data-name="Grupo 5" transform="translate(56.227 244.632)">
      <path id="Caminho_12" data-name="Caminho 12" d="M383.492,227.63c-7.682.5-7.036,4.51-8.052,7.864a1.951,1.951,0,0,0-.072.55c-3.972-4.656-10-9.435-16.4-11.19-10.64-2.918-12.695-5.833-12.011-7.38s8.409.686,8.927-.684-4.981-15.1-9.787-19.391-9.779-6.52-4.454-6.52C361.958,190.88,378.291,217.939,383.492,227.63Z" transform="translate(-339.346 -190.88)" fill="url(#linear-gradient-7)"/>
      <path id="Caminho_13" data-name="Caminho 13" d="M639.156,445.741H578.9l-8.59-6.076,42.955-22.65,1.714,1.9Z" transform="translate(-108.13 35.5)" fill="url(#linear-gradient-8)"/>
      <path id="Caminho_14" data-name="Caminho 14" d="M661.16,430.5a63.869,63.869,0,0,1-3.722,5.249,180.251,180.251,0,0,1-25.266,26.824H571.53C555.861,446.01,539.274,424.8,527.9,409.414c33.2,6.369,91.79,13.831,113.183-7.32.624-.618,1.223-1.243,1.8-1.889C652.766,413.244,662.787,427.654,661.16,430.5Z" transform="translate(-150.586 18.672)" fill="url(#linear-gradient-9)"/>
      <path id="Caminho_15" data-name="Caminho 15" d="M904.7,312.5a2.407,2.407,0,0,1-.21.126,33.992,33.992,0,0,1-5.7,1.117c-25.17,3.858-124.327,14.82-131.921,16.957-7.736,2.191-45.617,37.57-52.983,44.5a.241.241,0,0,1-.04.034c-.778.732-1.2,1.135-1.2,1.135s2.984,3.886,7.836,10.264c10,13.141,27.913,36.866,43.91,58.91,1.815,2.5,3.608,4.989,5.363,7.428,15.62,21.762,28.121,40.386,27.321,43.175-1.271,4.442-59.89-1.949-107.274-6.774-13.578-1.385-26.232-2.641-36.348-3.476-11.8-.975-20.157-1.371-22.488-.732q-5.487-7.177-10.984-13.671a320.118,320.118,0,0,0-41.987-41.44c-7.882-6.448-15.51-12.025-22.736-16.9-22.576-15.244-41.254-23.6-51.658-29.922-9.255-5.627-27.321-18.108-46.825-34.022-15.755-12.865-32.45-27.973-46.175-43.512a177.379,177.379,0,0,1-19.531-26.112c-16.615-27.919-26.226-44.392-30.675-53.487-2.125-4.348-3.072-7.01-3.038-8.429a1.951,1.951,0,0,1,.072-.55c1.017-3.354.37-7.366,8.052-7.864.176-.006.35-.02.532-.026,0,0,1.619,1.411,4.5,3.918,15.895,13.819,70.282,60.867,104.863,88.188,9.893,7.816,18.166,14.02,23.457,17.367,23.335,14.772,44.378,19.517,73.42,17.872,4.7-.27,9.611-.7,14.78-1.291,6.842-.78,15.841-3.166,26.312-6.568,14.666-4.759,32.227-11.506,50.832-18.6.028-.012.054-.02.082-.034,25.17-9.6,52.242-19.847,76.605-26.682,14.39-4.032,27.833-6.882,39.393-7.708a202.91,202.91,0,0,1,20.613-.362c40.42,1.209,82.723,12.749,99.216,19.853,4.348,1.875,6.9,3.442,7.158,4.43q.12.471.222.947C908.494,305.532,907.755,310.565,904.7,312.5Z" transform="translate(-321.326 -172.508)" fill="url(#linear-gradient-10)"/>
      <path id="Caminho_16" data-name="Caminho 16" d="M507.122,268.943c-2.884,11.9-13.233,50.449-26.2,49.481-15.33-1.143-17.475-39.2-17.475-39.2l2.581-2.425c4.7-.27,9.611-.7,14.78-1.291C487.651,274.73,496.65,272.345,507.122,268.943Z" transform="translate(-215.11 -112.732)" fill="url(#linear-gradient-11)"/>
      <path id="Caminho_17" data-name="Caminho 17" d="M605.126,264.037c-23.617,8.927-75.087,70.028-84.025,58.017s-36.7-15.1-62.54-28.612c-14.88-7.776-31.019-24.984-42.235-38.183,9.893,7.816,18.166,14.02,23.457,17.367,23.335,14.772,44.378,19.517,73.42,17.872,4.7-.27,9.611-.7,14.78-1.291,6.842-.78,15.841-3.166,26.312-6.568C568.961,277.882,586.522,271.135,605.126,264.037Z" transform="translate(-262.283 -126.43)" opacity="0.25"/>
      <path id="Caminho_18" data-name="Caminho 18" d="M659.366,364.223c-3.852,10.249-9.127,19.336-16.091,21.728-11.876,4.074-65.227,8.591-100.21,11.2-11.8-.975-20.157-1.371-22.488-.732q-5.487-7.177-10.984-13.671a320.12,320.12,0,0,0-41.987-41.44c29.808-1.795,91.912-6.331,113.89-14.042,29.344-10.3,28.6-29.378,28.6-29.378,10,13.141,27.913,36.866,43.91,58.91C655.818,359.3,657.611,361.784,659.366,364.223Z" transform="translate(-210.947 -83.759)" fill="#fff" opacity="0.25"/>
      <path id="Caminho_19" data-name="Caminho 19" d="M630.753,413.1c-1.271,4.442-59.89-1.949-107.274-6.774,36.1-19.721,11.928-75.377,10.155-87.261-2-13.327,13.011-26.138,13.891-26.877-.778.732-1.2,1.135-1.2,1.135s2.984,3.886,7.836,10.264c10,13.141,27.913,36.866,43.91,58.91,1.815,2.5,3.608,4.989,5.363,7.428C619.053,391.687,631.554,410.311,630.753,413.1Z" transform="translate(-155.014 -89.461)" opacity="0.25"/>
      <path id="Caminho_20" data-name="Caminho 20" d="M521.365,307.1c-3.072,3.75-6.317,4.907-8.763,5.135a9.383,9.383,0,0,1-4.006-.43,27.039,27.039,0,0,1,1.929,4.368v.008a19.615,19.615,0,0,1,1.163,6.027,8.6,8.6,0,0,1-3.764,7.742c-4.853,3.234-12.495,4.847-18.328.452-3.866-2.912-6.936-8.463-7.884-17.926-.08-.78-.154-1.547-.228-2.3-.242-2.359-.478-4.55-.666-6.311-.268-2.519-.45-4.16-.45-4.16s-4.334-3.158-10.175-7.58l-.014-.008c-1.129-.852-2.311-1.761-3.528-2.687-4.987-3.832-10.566-8.22-15.336-12.239-5.875-4.941-10.534-9.323-11.38-11.42a57.759,57.759,0,0,1-2.479-20.311,35.206,35.206,0,0,1,1.955-9.489c2.964-8.132,9.659-15.324,23.485-17.59,36.966-6.049,38.309,38.981,39.653,41.671s.672-9.409,10.754-6.049c8.429,2.809,9.343,14.538,6.668,21.844a13.7,13.7,0,0,1-1.963,3.7,13.723,13.723,0,0,1,4.6,3.946C527.643,290.247,526.272,301.1,521.365,307.1Z" transform="translate(-241.256 -163.909)" fill="url(#linear-gradient-12)"/>
      <path id="Caminho_21" data-name="Caminho 21" d="M521.365,294.974c-3.072,3.75-6.317,4.907-8.763,5.135a9.383,9.383,0,0,1-4.006-.43,27.039,27.039,0,0,1,1.929,4.368v.008a19.615,19.615,0,0,1,1.163,6.027,8.6,8.6,0,0,1-3.764,7.742c-4.853,3.234-12.495,4.847-18.328.452-3.866-2.912-6.936-8.463-7.884-17.926-.08-.78-.154-1.547-.228-2.3-.242-2.359-.478-4.55-.666-6.311-.268-2.519-.45-4.16-.45-4.16s-4.334-3.158-10.175-7.58l-.014-.008c-1.129-.852-2.311-1.761-3.528-2.687-4.987-3.832-10.566-8.22-15.336-12.239-5.875-4.941-10.534-9.323-11.38-11.42a57.759,57.759,0,0,1-2.479-20.311c2.944-2.459,7.454-4.14,14.35-3.078,17.844,2.747,24.713,38.955,24.713,38.955s2.822-5.665,13.079-3.6,6.48,19.679,6.48,19.679a14.3,14.3,0,0,1,11.324-1.069c5.329,1.909,4.6,7.312,4.362,8.509.5-2.083,4.368-17.433,10.84-21.366C527.643,278.123,526.272,288.979,521.365,294.974Z" transform="translate(-241.256 -151.785)" opacity="0.25"/>
      <path id="Caminho_22" data-name="Caminho 22" d="M502.013,276.481a12.243,12.243,0,0,1-.894,1.815c-.538.989-1.123,2.023-1.183,2.123v.008L487.8,277.92l-16.9-3.5-22.986-4.751,2.824-5.539,5.269-10.6a13.932,13.932,0,0,0,3.36,2.017c.444.208.915.43,1.419.664C473.012,262.012,501.993,276.287,502.013,276.481Z" transform="translate(-230.667 -128.157)" fill="url(#linear-gradient-13)"/>
      <path id="Caminho_23" data-name="Caminho 23" d="M486.014,286.576c-.963.732-2.051,1.5-3.24,2.263a56.552,56.552,0,0,1-6.257,3.468c-.216.1-.43.2-.652.3q-.928.423-1.9.819c-6.411,2.635-13.717,4.094-20.035,2.105-5.177-1.633-8.362-6.143-10.318-10.922-.4-.969-.746-1.943-1.049-2.912-.356-1.115-.644-2.217-.886-3.28-.35-1.539-.6-2.976-.774-4.214l6.978,1.163,7.03-13.769,22.986,4.751c.074.752.148,1.519.228,2.3C479.079,278.113,482.148,283.664,486.014,286.576Z" transform="translate(-237.674 -120.083)" fill="url(#linear-gradient-14)"/>
      <path id="Caminho_24" data-name="Caminho 24" d="M499.625,276.385a71.952,71.952,0,0,1-3.072,9.939c-3.308,9.229-8.437,21.414-11.044,20.977-4.032-.672-2.687-8.066-8.064-13.443-2.185-2.183-6.6-4.482-11.064-6.445-2.83-1.243-5.685-2.345-8-3.2a54.349,54.349,0,0,0,10.149-6.035c5.833,4.394,13.475,2.781,18.328-.452a8.6,8.6,0,0,0,3.764-7.742C494.679,272.836,499.625,275.129,499.625,276.385Z" transform="translate(-220.186 -111.688)" fill="url(#linear-gradient-15)"/>
      <path id="Caminho_25" data-name="Caminho 25" d="M469.268,258.413l-1.621,3.166-.424.832-4.9,9.625-2.824,5.539-7.03,13.769-6.978-1.163-7.768-1.3a.034.034,0,0,0-.034,0l-1.351-.228,15.977-39.317,1.5-3.7,12.521,10.344Z" transform="translate(-242.253 -136.059)" fill="url(#linear-gradient-16)"/>
      <path id="Caminho_26" data-name="Caminho 26" d="M463.749,251.091l-17.475,43.015-13.087-8.118-6.4-3.98c-2.669-15.47,9.489-33.49,14.618-40.258a3.905,3.905,0,0,1,4.582-1.265,4.213,4.213,0,0,1,.544.276Z" transform="translate(-252.193 -141.507)" fill="url(#linear-gradient-17)"/>
      <path id="Caminho_27" data-name="Caminho 27" d="M460.357,250.948l-17.475,43.015-13.087-8.118c8.531-14.236,11.864-37.538,12.8-45.5a4.215,4.215,0,0,1,.544.276Z" transform="translate(-248.8 -141.364)" opacity="0.25"/>
      <path id="Caminho_28" data-name="Caminho 28" d="M460.665,252.407c-2.183,3.67-11.654,32.133-13.94,33.74s-1.835,2.285-6.984,0-4.691-6.3-6.175-8.012-6.708-4.839-6.708-4.839c-1.2-.686-1.633-2.185-1.519-4.174.476-8.7,11.264-26.816,12.575-27.939.961-.82,1.465-1.069,6.2,1.525C447.278,244.442,452.33,247.452,460.665,252.407Z" transform="translate(-253.277 -141.088)" fill="url(#linear-gradient-18)"/>
      <path id="Caminho_29" data-name="Caminho 29" d="M449.032,261.017c-1.125,2.716-3.03,4.506-4.256,4s-1.307-3.122-.182-5.837,3.03-4.506,4.254-4S450.157,258.3,449.032,261.017Z" transform="translate(-234.778 -126.597)" opacity="0.25"/>
      <path id="Caminho_30" data-name="Caminho 30" d="M468.575,253.238l-1.621,3.166-.424.832-4.9,9.625L458.8,272.4l-7.03,13.769-6.978-1.163-7.768-1.3c1.895.128,5.651-.2,10.62-3.542,6.674-4.476,13.529-24.517,17.992-29.358Z" transform="translate(-241.56 -130.884)" opacity="0.25"/>
      <path id="Caminho_31" data-name="Caminho 31" d="M501.119,278.3c-.538.989-1.123,2.023-1.183,2.123v.008L487.8,277.92l-16.9-3.5-22.986-4.751,2.824-5.539,5.269-10.6a13.932,13.932,0,0,0,3.36,2.017c.444.208.915.43,1.419.664.664,4.53,2.593,12.187,8.078,13.457C475.055,271.1,493.052,275.017,501.119,278.3Z" transform="translate(-230.667 -128.157)" opacity="0.25"/>
      <path id="Caminho_32" data-name="Caminho 32" d="M460.665,251.361c-2.183,3.67-11.654,32.133-13.94,33.74s-1.835,2.285-6.984,0-4.691-6.3-6.175-8.012-6.708-4.839-6.708-4.839c-1.2-.686-1.633-2.185-1.519-4.174,2.673,1.149,7.252,3.34,8.931,5.471,2.441,3.086,5.619,7.89,8.719,9.147s12.831-28.806,12.481-31.1-12.877-5.081-11.358-9.927C447.278,243.4,452.33,246.407,460.665,251.361Z" transform="translate(-253.277 -140.043)" fill="#fff" opacity="0.25"/>
      <path id="Caminho_33" data-name="Caminho 33" d="M518.929,275.845a3.607,3.607,0,0,1-1.325-1.029c-1.8-2.405.941-15.1-4.8-15.444s-7.212,11.922-12.617,10.552-7.2-13.213-9.267-22.906-10.64-24.8-23.685-24.457-19.216,10.56-23.5,12.273a16.91,16.91,0,0,1-5.357,1.137c2.964-8.132,9.659-15.324,23.485-17.59,36.966-6.049,38.309,38.981,39.653,41.671s.672-9.409,10.754-6.049C520.69,256.811,521.6,268.54,518.929,275.845Z" transform="translate(-240.216 -163.909)" fill="#fff" opacity="0.25"/>
      <path id="Caminho_34" data-name="Caminho 34" d="M499.625,276.385a71.952,71.952,0,0,1-3.072,9.939c-10.332-3.656-23.673-.758-30.172,1.089-2.83-1.243-5.685-2.345-8-3.2a54.349,54.349,0,0,0,10.149-6.035c5.833,4.394,13.475,2.781,18.328-.452a8.6,8.6,0,0,0,3.764-7.742C494.679,272.836,499.625,275.129,499.625,276.385Z" transform="translate(-220.186 -111.688)" opacity="0.25"/>
      <path id="Caminho_35" data-name="Caminho 35" d="M486.014,286.576c-.963.732-2.051,1.5-3.24,2.263a56.552,56.552,0,0,1-6.257,3.468c2.331-11.686-4.214-21.762-9.933-22.192-6.864-.518-11.842,12.529-20.251,12.185a15.35,15.35,0,0,1-3.764-.6c-.356-1.115-.644-2.217-.886-3.28-.35-1.539-.6-2.976-.774-4.214l6.978,1.163,7.03-13.769,22.986,4.751c.074.752.148,1.519.228,2.3C479.079,278.113,482.148,283.664,486.014,286.576Z" transform="translate(-237.674 -120.083)" opacity="0.25"/>
      <path id="Caminho_36" data-name="Caminho 36" d="M472.639,281.815c-6.4,2.663-13.7,4.156-20.025,2.193-5.183-1.609-8.389-6.105-10.366-10.874a10.791,10.791,0,0,1,6.676,3.316c3.364,3.676,5,4.7,9.889,5.367C463.443,282.441,469.506,278.153,472.639,281.815Z" transform="translate(-236.332 -108.537)" fill="#fff" opacity="0.25"/>
      <path id="Caminho_37" data-name="Caminho 37" d="M705.53,457.517c-.578.646-1.177,1.271-1.8,1.889-21.394,21.151-79.987,13.689-113.183,7.32-14.2-2.729-23.759-5.257-23.759-5.257-4.374-20.727-9.879-37.282-16.057-50.461-20.331-43.406-47.914-50.267-66.168-49.1a54.6,54.6,0,0,0-19.236,4.617c33.154-32.806,117.834-24.719,172.96-15.062,16.467,2.884,30.292,5.909,39.325,8.026,7.2,1.687,11.358,2.8,11.358,2.8C710.477,367.36,733.321,426.708,705.53,457.517Z" transform="translate(-213.23 -38.64)" fill="url(#linear-gradient-19)"/>
      <path id="Caminho_38" data-name="Caminho 38" d="M583.789,510.462H528.11S472.354,461.452,460.06,412.7c-.658-2.629-1.195-5.257-1.593-7.87-.134-.888-.248-1.775-.348-2.661a57.334,57.334,0,0,1,2.143-24.385,52.091,52.091,0,0,1,8.819-16.339,47.118,47.118,0,0,1,3.892-4.334l.006-.008a54.6,54.6,0,0,1,19.236-4.616c18.254-1.163,45.837,5.7,66.168,49.1.5,1.055.989,2.137,1.473,3.24q1.309,2.954,2.567,6.129c.336.846.672,1.707,1,2.573.424,1.109.84,2.239,1.257,3.382.114.322.228.644.344.974.194.55.388,1.1.584,1.659.154.444.3.895.456,1.345q2.026,6.018,3.9,12.723c.29,1.043.578,2.1.86,3.172.142.538.282,1.077.424,1.613s.282,1.091.416,1.641q1.453,5.757,2.776,12.01l2.783,17.4,1.949,12.179Z" transform="translate(-220.882 -29.22)" fill="url(#linear-gradient-20)"/>
      <path id="Caminho_39" data-name="Caminho 39" d="M662.241,278.173c-2.918,4.8-10.472,2.231-10.472,2.231s-1.345,3.26-4.7,3.26c-2.784,0-10.794-11.89-16.191-16.849,3.058-1.937,3.8-6.97,2.762-11.944,6.668.51,23.126,1.929,25.169,3.57C661.38,260.5,665.156,273.366,662.241,278.173Z" transform="translate(-47.502 -126.821)" fill="url(#linear-gradient-21)"/>
      <path id="Caminho_40" data-name="Caminho 40" d="M471.852,364.1s-14.872,22.424-1.6,35.923,16.7-23.8,10.067-25.856-10.3,8.925-6.864,17.161" transform="translate(-213.816 -17.469)" fill="none" stroke="#000" stroke-linecap="round" stroke-linejoin="round" stroke-width="2.019" opacity="0.25"/>
      <path id="Caminho_41" data-name="Caminho 41" d="M674.032,449.248c-.578.646-1.177,1.271-1.8,1.889-14.552,14.39-46.321,15.538-75.6,12.8-13.758-1.291-26.971-3.442-37.585-5.477-14.2-2.729-23.759-5.257-23.759-5.257l2.784,17.4,1.949,12.179,4.617,28.834h-25.5c-7.7-22.1-16.809-50.906-20.579-72.877-2.838-16.513-2.649-29.17,3.44-32.213.384-.188.774-.376,1.177-.544,4.442-1.957,9.907-2.944,16.057-3.24,10.686-.524,23.417,1.035,36.362,3.24,16.171,2.747,32.67,6.5,45.939,8.435,7.608,1.109,16.117,2.245,24.491,2.761,17.8,1.1,35-.584,41.662-11.2,2.778-4.416,3.73-10.378,2.137-18.336q-.219-1.12-.49-2.2a58.59,58.59,0,0,0-18.106-30c-1.7-1.545-3.414-2.95-5.115-4.226,7.2,1.687,11.358,2.8,11.358,2.8,8.153,1.929,16.5,11.654,22.206,24.673a86.857,86.857,0,0,1,6.924,27.295C687.891,421.483,684.672,437.46,674.032,449.248Z" transform="translate(-181.732 -30.371)" opacity="0.25"/>
      <path id="Caminho_42" data-name="Caminho 42" d="M645.938,351.458c-7.352,4.06-23.517,4.887-55.368,1.1-37.893-4.511-74.639.51-98.355,9.349a80.584,80.584,0,0,0-16.045,7.81c-12.965,8.543-16.9,28.637-18.052,41.873a57.334,57.334,0,0,1,2.143-24.385,52.091,52.091,0,0,1,8.819-16.339,47.122,47.122,0,0,1,3.892-4.334l.006-.008C506.132,333.714,590.812,341.8,645.938,351.458Z" transform="translate(-220.882 -38.64)" fill="#fff" opacity="0.25"/>
      <path id="Caminho_44" data-name="Caminho 44" d="M609,242.316c-.874,5.107-3.8,9.085-11.688,8.549-12.7-.86-39.984,6.009-43.075,4.981-2.225-.746-4.274-3.8-5.243-5.459,14.39-4.032,27.833-6.882,39.393-7.708A202.914,202.914,0,0,1,609,242.316Z" transform="translate(-129.467 -139.497)" fill="url(#linear-gradient-22)"/>
      <path id="Caminho_45" data-name="Caminho 45" d="M430.129,303.143c-15.755-12.865-32.45-27.973-46.175-43.512,3.112-2.057,7.078-4.51,8.152-4.376,1.829.228,26.314,28.826,31.347,32.261C427.656,290.381,434.409,294.521,430.129,303.143Z" transform="translate(-294.69 -126.44)" fill="url(#linear-gradient-23)"/>
      <path id="Caminho_46" data-name="Caminho 46" d="M633.833,269.5a2.416,2.416,0,0,1-.21.126,33.994,33.994,0,0,1-5.7,1.117,58.386,58.386,0,0,0,1.3-18.564c4.348,1.875,6.9,3.442,7.158,4.43q.12.471.222.947C637.629,262.535,636.891,267.567,633.833,269.5Z" transform="translate(-50.462 -129.511)" fill="url(#linear-gradient-24)"/>
      <path id="Caminho_47" data-name="Caminho 47" d="M370.507,213.15c-7.192,3.266-9.491,8.771-10.121,12.951-2.125-4.348-3.072-7.01-3.038-8.429a1.951,1.951,0,0,1,.072-.55c1.017-3.354.37-7.366,8.052-7.864.176-.006.35-.02.532-.026C366,209.232,367.623,210.643,370.507,213.15Z" transform="translate(-321.326 -172.508)" fill="url(#linear-gradient-25)"/>
    </g>
  </g>
</svg>
