<svg id="Layer_1" enable-background="new 0 0 512 512" height="300" viewBox="0 0 512 512" width="300" xmlns="http://www.w3.org/2000/svg"><g><g><path d="m256.005 136.002c-3.052 0-5.967-1.755-7.3-4.719-1.813-4.029-.017-8.765 4.013-10.578l160-72c4.029-1.814 8.766-.017 10.578 4.013 1.813 4.029.018 8.765-4.012 10.578l-160 72c-1.066.479-2.182.706-3.279.706z" fill="#555a6e"/></g><g><path d="m415.994 216.002c-1.203 0-2.423-.272-3.572-.847l-160-80c-3.952-1.976-5.554-6.781-3.578-10.733s6.78-5.553 10.733-3.578l160 80c3.951 1.976 5.553 6.781 3.577 10.733-1.4 2.804-4.225 4.425-7.16 4.425z" fill="#555a6e"/></g><g><path d="m255.995 136.002c-1.097 0-2.212-.227-3.278-.707l-160-72c-4.029-1.813-5.826-6.549-4.013-10.578s6.55-5.826 10.578-4.013l160 72c4.029 1.813 5.825 6.549 4.012 10.578-1.332 2.964-4.247 4.72-7.299 4.72z" fill="#555a6e"/></g><g><path d="m96.006 216.002c-2.935 0-5.76-1.621-7.162-4.424-1.976-3.952-.375-8.757 3.578-10.733l160-80c3.953-1.976 8.757-.375 10.733 3.578 1.976 3.952.374 8.757-3.577 10.733l-160 80c-1.149.573-2.37.846-3.572.846z" fill="#555a6e"/></g><g><circle cx="256" cy="128" fill="#555a6e" r="96"/></g><g><circle cx="416" cy="56" fill="#00d2d2" r="40"/></g><g><circle cx="416" cy="56" fill="#289bc3" r="24"/></g><g><g><path d="m416 224h-304v272h160v-32h96c35.346 0 64-28.654 64-64v-160c0-8.836-7.163-16-16-16z" fill="#fab991"/></g><g><path d="m224 224h-128c-8.837 0-16 7.164-16 16v160c0 17.673 14.327 32 32 32h80c17.673 0 32-14.327 32-32v-80c26.51 0 48-21.49 48-48v-48z" fill="#463c4b"/></g><g><path d="m224 272c-26.51 0-48 21.49-48 48s21.49 48 48 48z" fill="#f0915a"/></g><g><path d="m272 496h-160c0-17.673 14.327-32 32-32h128z" fill="#f0915a"/></g><g><path d="m384 368c-13.255 0-24-10.745-24-24v-56c26.51 0 48 21.49 48 48v8c0 13.255-10.745 24-24 24z" fill="#f0915a"/></g><g><circle cx="400" cy="272" fill="#463c4b" r="16"/></g><g><circle cx="320" cy="272" fill="#463c4b" r="16"/></g></g><g><path d="m360 416h16c13.255 0 24-10.745 24-24h-64c0 13.255 10.745 24 24 24z" fill="#463c4b"/></g><g><g><path d="m304 112c0-27.136-22.517-49.012-49.886-47.964-24.483.938-44.588 20.603-46.028 45.061-.866 14.714 4.904 28.091 14.593 37.436 5.857 5.65 9.321 13.329 9.321 21.467h48v-.006c0-8.022 3.272-15.703 9.083-21.232 9.188-8.741 14.917-21.079 14.917-34.762z" fill="#00d2d2"/></g><g><path d="m256 192c-13.255 0-24-10.745-24-24h48c0 13.255-10.745 24-24 24z" fill="#a5c3dc"/></g><g><circle cx="240" cy="96" fill="#1ef0f0" r="16"/></g><g><path d="m256 192v-24h-24c0 13.255 10.745 24 24 24z" fill="#d7e6f0"/></g></g><g><circle cx="416" cy="200" fill="#00d2d2" r="40"/></g><g><circle cx="96" cy="56" fill="#00d2d2" r="40"/></g><g><circle cx="96" cy="200" fill="#00d2d2" r="40"/></g><g><circle cx="416" cy="200" fill="#289bc3" r="24"/></g><g><circle cx="96" cy="56" fill="#289bc3" r="24"/></g><g><circle cx="96" cy="200" fill="#289bc3" r="24"/></g></g></svg>