<svg id="Layer_1" height="300" viewBox="0 0 256 256" width="300" xmlns="http://www.w3.org/2000/svg"><g><g><path d="m231.374 88.82v133.048h-206.748v-133.048c0-5.334 4.319-9.663 9.663-9.663h27.24v93.788c0 2.667 2.164 4.831 4.831 4.831h123.28c2.667 0 4.831-2.165 4.831-4.831v-93.788h27.24c5.343 0 9.663 4.329 9.663 9.663z" fill="#afafaf"/></g><path d="m201.235 79.157v93.788c0 6.397-5.199 11.595-11.595 11.595h-123.28c-6.397 0-11.595-5.199-11.595-11.595v-93.788h6.764v93.788c0 2.667 2.164 4.831 4.831 4.831h123.28c2.667 0 4.831-2.165 4.831-4.831v-93.788z" fill="#878787"/><g><path d="m240.814 221.872h-225.628c-2.668 0-4.831 2.163-4.831 4.831v9.958c0 8.005 6.489 14.494 14.494 14.494h206.303c8.005 0 14.494-6.489 14.494-14.494v-9.958c0-2.668-2.163-4.831-4.832-4.831z" fill="#afafaf"/></g><g><g><path d="m46.854 50.858c-4.094-1.353-8.322-2.535-10.696-12.76-2.186 9.418-5.689 11.106-10.696 12.76 8.166 2.698 9.398 7.166 10.696 12.76 2.238-9.643 5.939-11.188 10.696-12.76z" fill="#f0c020"/></g><g><path d="m230.537 50.858c-4.094-1.353-8.322-2.535-10.696-12.76-2.186 9.418-5.689 11.106-10.696 12.76 8.166 2.698 9.398 7.166 10.696 12.76 2.238-9.643 5.939-11.188 10.696-12.76z" fill="#f0c020"/></g></g><g><path d="m138.696 20.103c-4.094-1.353-8.322-2.535-10.696-12.76-2.186 9.418-5.689 11.106-10.696 12.76 8.166 2.698 9.398 7.166 10.696 12.76 2.238-9.644 5.939-11.188 10.696-12.76z" fill="#f0c020"/></g><path d="m98.428 221.872v9.314c0 2.668 2.163 4.831 4.831 4.831h49.48c2.668 0 4.831-2.163 4.831-4.831v-9.314z" fill="#7d7b79"/><path d="m217.072 93.458v114.109h-178.145v-114.109h22.602v79.487c0 2.667 2.164 4.831 4.831 4.831h123.28c2.667 0 4.831-2.165 4.831-4.831v-79.487z" fill="#72c2e9"/><path d="m201.235 93.458v79.487c0 6.397-5.199 11.595-11.595 11.595h-123.28c-6.397 0-11.595-5.199-11.595-11.595v-79.487h6.764v79.487c0 2.667 2.164 4.831 4.831 4.831h123.28c2.667 0 4.831-2.165 4.831-4.831v-79.487z" fill="#4ba5c8"/><path d="m194.471 49.685v123.26c0 2.667-2.164 4.831-4.831 4.831h-123.28c-2.667 0-4.831-2.165-4.831-4.831v-123.26c0-2.667 2.164-4.831 4.831-4.831h123.28c2.667 0 4.831 2.164 4.831 4.831z" fill="#f0c020"/><g fill="#fc5d3d"><path d="m172.315 122.078v-6.92c0-2.122 1.72-3.842 3.842-3.842h18.313v-62.621c0-2.122-1.72-3.842-3.842-3.842h-62.621v18.31c0 2.122 1.72 3.842 3.842 3.842h7.234c6.117 0 11.076 4.959 11.076 11.076 0 6.117-4.959 11.076-11.076 11.076h-7.234c-2.122 0-3.842 1.72-3.842 3.842v18.318h18.313c2.122 0 3.842 1.72 3.842 3.842v7.233c0 6.295 5.252 11.364 11.613 11.064 5.956-.282 10.54-5.414 10.54-11.378z"/><path d="m83.685 100.554v6.92c0 2.122-1.72 3.842-3.842 3.842h-18.312v62.621c0 2.122 1.72 3.842 3.842 3.842h62.621v-18.31c0-2.122-1.72-3.842-3.842-3.842h-7.234c-6.117 0-11.076-4.959-11.076-11.076 0-6.117 4.959-11.076 11.076-11.076h7.234c2.122 0 3.842-1.72 3.842-3.842v-18.318h-18.313c-2.122 0-3.842-1.72-3.842-3.842v-7.233c0-6.295-5.252-11.364-11.613-11.064-5.957.282-10.541 5.414-10.541 11.378z"/></g></g><path d="m231.554 243.993h-50.975c-1.381 0-2.5-1.119-2.5-2.5s1.119-2.5 2.5-2.5h50.975c1.286 0 2.332-1.046 2.332-2.331v-5.127c0-1.381 1.119-2.5 2.5-2.5s2.5 1.119 2.5 2.5v5.127c0 4.042-3.289 7.331-7.332 7.331zm-60.975 0h-5c-1.381 0-2.5-1.119-2.5-2.5s1.119-2.5 2.5-2.5h5c1.381 0 2.5 1.119 2.5 2.5s-1.119 2.5-2.5 2.5z" fill="#efefef"/><path d="m231.554 243.993h-50.975c-1.381 0-2.5-1.119-2.5-2.5s1.119-2.5 2.5-2.5h50.975c1.286 0 2.332-1.046 2.332-2.331v-5.127c0-1.381 1.119-2.5 2.5-2.5s2.5 1.119 2.5 2.5v5.127c0 4.042-3.289 7.331-7.332 7.331zm-60.975 0h-5c-1.381 0-2.5-1.119-2.5-2.5s1.119-2.5 2.5-2.5h5c1.381 0 2.5 1.119 2.5 2.5s-1.119 2.5-2.5 2.5z" fill="#efefef"/><path d="m203.32 201.235h-155.522c-1.381 0-2.5-1.119-2.5-2.5v-93.478c0-1.381 1.119-2.5 2.5-2.5s2.5 1.119 2.5 2.5v90.978h153.022c1.381 0 2.5 1.119 2.5 2.5s-1.119 2.5-2.5 2.5z" fill="#c5e5fe"/><path d="m184.809 170.613h-56.819c-1.381 0-2.5-1.119-2.5-2.5s1.119-2.5 2.5-2.5h54.318v-54.299c0-1.381 1.119-2.5 2.5-2.5s2.5 1.119 2.5 2.5v56.799c.001 1.381-1.119 2.5-2.499 2.5z" fill="#f8e5b0"/><path d="m184.809 113.814c-1.381 0-2.5-1.119-2.5-2.5v-40.832c0-1.381 1.119-2.5 2.5-2.5s2.5 1.119 2.5 2.5v40.832c0 1.381-1.12 2.5-2.5 2.5zm0-50.832c-1.381 0-2.5-1.119-2.5-2.5v-5c0-1.381 1.119-2.5 2.5-2.5s2.5 1.119 2.5 2.5v5c0 1.381-1.12 2.5-2.5 2.5z" fill="#ffcbc3"/><path d="m127.99 170.613h-46c-1.381 0-2.5-1.119-2.5-2.5s1.119-2.5 2.5-2.5h46c1.381 0 2.5 1.119 2.5 2.5s-1.119 2.5-2.5 2.5zm-56 0h-.557c-1.381 0-2.5-1.119-2.5-2.5s1.119-2.5 2.5-2.5h.557c1.381 0 2.5 1.119 2.5 2.5s-1.119 2.5-2.5 2.5z" fill="#ffcbc3"/><path d="m38.594 37.532c-.598-2.578-4.273-2.577-4.87 0-2.002 8.625-4.957 9.602-9.045 10.952-2.283.754-2.28 3.996 0 4.748 7.044 2.328 7.84 5.759 9.044 10.952.596 2.567 4.273 2.573 4.871 0 2-8.624 4.955-9.6 9.044-10.952 2.282-.753 2.28-3.994 0-4.747-3.915-1.294-6.994-2.12-9.044-10.953zm-2.377 18.459c-1.02-1.842-2.492-3.582-4.764-5.071 1.795-1.162 3.384-2.786 4.715-5.324 1.355 2.581 2.935 4.194 4.561 5.29-1.71 1.135-3.229 2.704-4.512 5.105z"/><path d="m222.277 37.532c-.598-2.578-4.273-2.577-4.87 0-2.002 8.625-4.957 9.602-9.045 10.952-2.283.754-2.28 3.996 0 4.748 7.044 2.328 7.84 5.759 9.044 10.952.596 2.567 4.273 2.573 4.871 0 2-8.624 4.955-9.6 9.044-10.952 2.282-.753 2.28-3.994 0-4.747-3.915-1.294-6.994-2.12-9.044-10.953zm-2.377 18.459c-1.02-1.842-2.492-3.582-4.764-5.071 1.795-1.162 3.384-2.786 4.715-5.324 1.355 2.581 2.935 4.194 4.561 5.29-1.71 1.135-3.228 2.704-4.512 5.105z"/><path d="m130.435 6.777c-.598-2.578-4.273-2.577-4.87 0-2.002 8.625-4.957 9.602-9.045 10.952-2.283.754-2.28 3.996 0 4.748 7.044 2.328 7.84 5.759 9.044 10.952.596 2.567 4.273 2.573 4.871 0 2-8.624 4.955-9.6 9.044-10.952 2.282-.753 2.28-3.994 0-4.747-3.915-1.294-6.994-2.121-9.044-10.953zm-2.377 18.459c-1.02-1.842-2.492-3.582-4.764-5.071 1.795-1.162 3.384-2.786 4.715-5.324 1.355 2.581 2.935 4.194 4.561 5.29-1.709 1.135-3.228 2.704-4.512 5.105z"/><g><path d="m240.81 219.37h-6.939v-130.551c0-6.699-5.45-12.159-12.16-12.159h-24.74v-26.98c0-4.03-3.29-7.32-7.33-7.33h-123.282c-4.04.01-7.329 3.3-7.329 7.33v26.98h-24.74c-6.71 0-12.16 5.46-12.16 12.159v130.551h-6.94c-4.04 0-7.33 3.29-7.34 7.33v9.96c.01 9.369 7.63 17 17 17h64.04c1.38 0 2.5-1.12 2.5-2.5 0-1.381-1.12-2.5-2.5-2.5h-64.04c-6.6-.021-11.979-5.4-12-12v-9.96c.01-1.28 1.05-2.32 2.34-2.33h80.74v6.819c0 4.04 3.29 7.33 7.33 7.33h49.48c4.04 0 7.329-3.29 7.329-7.33v-6.819h80.74c1.252 0 2.34 1.005 2.34 2.33v9.96c-.02 6.6-5.399 11.979-12 12h-122.259c-1.37 0-2.5 1.119-2.5 2.5 0 1.38 1.13 2.5 2.5 2.5h.021 122.239c9.37 0 16.99-7.631 17-17v-9.96c-.001-4.039-3.307-7.33-7.34-7.33zm-116.661-66.24h-7.229c-4.72-.01-8.57-3.86-8.58-8.58.01-4.72 3.86-8.57 8.58-8.58h7.229c3.5 0 6.341-2.84 6.341-6.34v-15.811h15.829c.74 0 1.341.601 1.341 1.341v7.229c0 7.998 6.865 13.983 14.21 13.561 7.26-.36 12.939-6.45 12.939-13.87v-6.92c.01-.74.61-1.341 1.351-1.341h15.81v59.131c0 1.279-1.05 2.319-2.33 2.329h-59.15v-15.81c0-3.499-2.841-6.339-6.341-6.339zm67.821-103.45v59.14h-15.81c-3.5 0-6.341 2.841-6.351 6.341v6.92c.01 4.718-3.702 8.89-8.569 8.89-4.721-.01-8.57-3.86-8.58-8.58v-7.229c0-3.5-2.851-6.341-6.341-6.341h-15.819v-15.821c.01-.74.609-1.34 1.35-1.34h7.23c7.489 0 13.58-6.091 13.58-13.58 0-7.48-6.091-13.57-13.58-13.58h-7.23c-.74 0-1.34-.601-1.35-1.34v-15.81h59.14c1.28.009 2.33 1.049 2.33 2.33zm-127.94 0c0-1.28 1.05-2.32 2.329-2.33h59.15v15.81c0 3.5 2.84 6.34 6.34 6.34h7.23c4.72.01 8.569 3.859 8.58 8.58-.011 4.72-3.86 8.569-8.58 8.58h-7.23c-3.5 0-6.34 2.84-6.34 6.34v15.819h-15.83c-.74-.01-1.34-.609-1.34-1.34v-7.239c0-8.062-7.034-14.1-14.23-13.561-7.25.36-12.92 6.46-12.93 13.88v6.92c0 .73-.6 1.33-1.34 1.34h-15.809zm-36.9 39.139c0-3.939 3.22-7.159 7.16-7.159h24.74v9.3h-20.1c-1.388 0-2.5 1.116-2.5 2.5v114.109c0 1.39 1.115 2.5 2.5 2.5h124.85c1.38 0 2.5-1.119 2.5-2.5 0-1.369-1.11-2.489-2.48-2.5-.01 0-.01 0-.02 0h-122.35v-109.109h17.6v76.99c0 4.04 3.289 7.319 7.329 7.329h4.131c1.38 0 2.5-1.119 2.5-2.5 0-1.369-1.11-2.489-2.48-2.5-.01 0-.01 0-.02 0h-4.131c-1.279-.01-2.329-1.05-2.329-2.329v-59.131h15.81c3.5-.01 6.34-2.85 6.34-6.34v-6.92c0-5.027 4.129-8.89 8.21-8.89 4.166-.404 8.939 3.27 8.95 8.57v7.239c0 3.49 2.84 6.33 6.34 6.34h15.811v15.811c0 .74-.601 1.34-1.341 1.35h-7.229c-7.49 0-13.58 6.09-13.58 13.57 0 7.479 6.09 13.57 13.58 13.58h7.229c.74 0 1.341.6 1.341 1.34v15.81h-35c-1.381 0-2.5 1.12-2.5 2.5 0 1.381 1.119 2.5 2.5 2.5h99.149c4.04-.01 7.33-3.289 7.33-7.329v-76.99h17.6v109.109h-30.79c-1.381 0-2.5 1.12-2.5 2.5 0 1.381 1.119 2.5 2.5 2.5h33.289c1.406 0 2.5-1.147 2.5-2.5v-114.109c0-1.383-1.106-2.5-2.5-2.5h-20.1v-9.3h24.74c3.939 0 7.149 3.22 7.16 7.159v130.551c-5.555 0-163.525 0-201.74 0v-130.551zm127.939 142.37c0 1.28-1.05 2.32-2.329 2.33h-49.48c-1.28-.01-2.33-1.05-2.33-2.33v-6.819h54.14v6.819z"/><circle cx="98.89" cy="251.16" r="2.5"/><circle cx="173.78" cy="207.569" r="2.5"/><circle cx="80.49" cy="177.779" r="2.5"/></g></svg>