<svg id="Capa_1" enable-background="new 0 0 512 512" height="512" viewBox="0 0 512 512" width="512" xmlns="http://www.w3.org/2000/svg"><g><g><path d="m21 470.925v26.075c0 8.284 6.716 15 15 15h65l20-53-20-101.871c-47.519 17.077-80 62.325-80 113.796z" fill="#ffdecf"/><path d="m411 357.129-20 101.871 20 53h65c8.284 0 15-6.716 15-15v-26.075c0-51.471-32.48-96.719-80-113.796z" fill="#ffcdbe"/></g><g><path d="m397.741 353.176h-283.482c-4.538 1.068-8.954 2.406-13.259 3.952v154.872h310v-154.871c-4.304-1.547-8.72-2.885-13.259-3.953z" fill="#9d5e4a"/><g><path d="m411 357.129c-4.304-1.547-8.72-2.885-13.259-3.952h-141.741v158.823h155z" fill="#63544f"/></g><path d="m155.534 221v130.418l87.442 153.024c5.758 10.077 20.289 10.077 26.047 0l87.442-153.024v-130.418z" fill="#f9f9f9"/><path d="m269.024 504.442 87.442-153.024v-130.418h-100.466v291c5.072 0 10.145-2.519 13.024-7.558z" fill="#e2dff4"/><path d="m131 137v62.297c0 31.962 9.472 62.847 27.391 89.314 17.92 26.467 43.077 46.732 72.754 58.603 7.941 3.176 16.303 4.786 24.855 4.786s16.914-1.61 24.855-4.787h.001c29.676-11.871 54.833-32.135 72.753-58.603 17.919-26.466 27.391-57.351 27.391-89.313v-62.297z" fill="#ffdecf"/><path d="m256 352c8.552 0 16.914-1.61 24.855-4.787h.001c29.676-11.871 54.833-32.135 72.753-58.603 17.919-26.466 27.391-57.351 27.391-89.313v-62.297h-125z" fill="#ffcdbe"/></g><path d="m403.497 57.096c8.158-1.438 13.606-9.218 12.168-17.376s-9.212-13.605-17.377-12.167c-25.007 4.409-46.791 18.279-61.339 39.056-2.947 4.209-5.52 8.602-7.722 13.137l-8.12-19.487c-15.252-36.607-50.73-60.259-90.385-60.259-31.574 0-63.189 7.463-91.43 21.583-8.07 4.035-10.778 14.23-5.773 21.737l5.509 8.264c-23.991 3.965-46.098 15.272-63.635 32.809-7.24 7.24-5.259 19.444 3.899 24.023l10.062 5.031c-12.757 8.79-22.506 21.572-27.585 36.809-2.042 6.125.065 12.87 5.23 16.744l34 25.5v199.5c0 33.137 26.863 60 60 60 8.284 0 15-6.716 15-15v-227h15.147c29.018 0 57.325-5.63 84.134-16.735 22.32-9.245 42.682-21.919 60.719-37.741v281.476c0 8.284 6.716 15 15 15 33.137 0 60-26.863 60-60v-248.5c0-20.711-16.789-37.5-37.5-37.5-8.841 0-16.957 3.072-23.365 8.191 1.136-10.819 4.984-21.229 11.39-30.376 9.952-14.212 24.858-23.701 41.973-26.719z" fill="#ff9d21"/><path d="m398.288 27.552c-25.007 4.409-46.791 18.279-61.339 39.056-2.947 4.209-5.52 8.602-7.722 13.137l-8.12-19.487c-11.912-28.591-36.164-49.279-65.107-56.968v196.927c6.503-2.013 12.936-4.324 19.281-6.953 22.32-9.245 42.682-21.919 60.719-37.741v281.477c0 8.284 6.716 15 15 15 33.137 0 60-26.863 60-60v-248.5c0-20.711-16.789-37.5-37.5-37.5-8.841 0-16.957 3.072-23.365 8.191 1.136-10.819 4.984-21.229 11.39-30.376 9.951-14.212 24.857-23.701 41.973-26.719 8.158-1.438 13.606-9.218 12.168-17.376s-9.213-13.606-17.378-12.168z" fill="#ff5c5c"/><path d="" fill="none"/></g></svg>