<?xml version="1.0" encoding="UTF-8"?>
<!DOCTYPE svg PUBLIC "-//W3C//DTD SVG 1.1//EN" "http://www.w3.org/Graphics/SVG/1.1/DTD/svg11.dtd">
<!-- Creator: CorelDRAW 2019 (64 Bit) -->
<svg xmlns="http://www.w3.org/2000/svg" xml:space="preserve" width="1514px" height="1107px" version="1.1" style="shape-rendering:geometricPrecision; text-rendering:geometricPrecision; image-rendering:optimizeQuality; fill-rule:evenodd; clip-rule:evenodd"
viewBox="0 0 1514 1107"
 xmlns:xlink="http://www.w3.org/1999/xlink">
 <defs>
  <style type="text/css">
   <![CDATA[
    .str0 {stroke:white;stroke-width:16;stroke-linecap:round;stroke-linejoin:round;stroke-miterlimit:27.9551;stroke-dasharray:16.000000 48.000000}
    .fil0 {fill:none}
    .fil1 {fill:black}
    .fil24 {fill:#00000A}
    .fil14 {fill:#141160}
    .fil22 {fill:#14A2F2}
    .fil21 {fill:#22D0FF}
    .fil15 {fill:#241B7A}
    .fil9 {fill:#2D75BB}
    .fil8 {fill:#32B1CC}
    .fil16 {fill:#33248E}
    .fil17 {fill:#432DA0}
    .fil18 {fill:#583CAF}
    .fil20 {fill:#814FC1}
    .fil2 {fill:#8291A8}
    .fil4 {fill:#95E8FA}
    .fil19 {fill:#AC79E2}
    .fil12 {fill:#C478D7}
    .fil13 {fill:#D1ED7E}
    .fil10 {fill:#D8A1E4}
    .fil5 {fill:#D9176C}
    .fil3 {fill:#E5ECEC}
    .fil11 {fill:#F0838F}
    .fil7 {fill:#F49E21}
    .fil23 {fill:#F4EBC1}
    .fil6 {fill:#FDBD40}
   ]]>
  </style>
 </defs>
 <g id="Camada_x0020_1">
  <metadata id="CorelCorpID_0Corel-Layer"/>
  <rect class="fil0 str0" x="119.73" y="98.17" width="1247.01" height="925.01" rx="29.1" ry="32.38"/>
  <path class="fil1" d="M161.02 218.48c-0.09,0.39 0.15,0.77 0.54,0.86 0.05,0.01 0.11,0.02 0.16,0.02 0.33,0 0.62,-0.23 0.7,-0.56l0.95 -4.24c0.06,-0.25 -0.03,-0.52 -0.22,-0.69l-11.63 -10.22c-0.23,-0.2 -0.18,-0.45 -0.15,-0.54 0.03,-0.1 0.14,-0.33 0.45,-0.36l15.4 -1.43c0.26,-0.02 0.49,-0.19 0.59,-0.43l6.12 -14.21c0.12,-0.28 0.38,-0.31 0.48,-0.31 0.1,0 0.35,0.03 0.47,0.31l1.67 3.86c0.15,0.37 0.57,0.53 0.94,0.38 0.36,-0.16 0.53,-0.58 0.37,-0.95l-1.66 -3.86c-0.31,-0.72 -1,-1.18 -1.79,-1.18 -0.79,0 -1.48,0.46 -1.8,1.18l-5.95 13.82 -14.98 1.39c-0.79,0.08 -1.43,0.59 -1.67,1.34 -0.25,0.76 -0.03,1.55 0.56,2.07l11.31 9.93 -0.86 3.82z"/>
  <g id="_1798130511984">
   <path class="fil2" d="M29.56 940l25.19 30.35 0 0c0.92,0.01 1.83,-0.02 2.74,-0.09 6.82,-0.54 13.27,-3.29 18.38,-7.84l40.69 -36.21c2.04,-1.82 4.29,-3.35 6.68,-4.56l-32.79 -36.8c0,0 -11.7,-8.45 -41.61,14.59 -27.26,26.13 -19.28,40.56 -19.28,40.56zm0 0z"/>
   <path class="fil3" d="M11.73 969.22c0.38,1.81 1.23,3.54 2.55,5.03l1.81 2.03c11.71,13.16 28.66,20.46 46.26,19.92l14.68 -0.44c7.09,-0.21 13.92,2.73 18.64,8.03l67.45 75.27c4.75,5.31 12.88,5.81 18.26,1.14l0.45 -0.39c5.51,-4.79 6.01,-13.17 1.11,-18.58l-30.79 -34c-2.61,-2.89 -2.36,-7.36 0.57,-9.94 0.93,-0.82 2.02,-1.34 3.15,-1.58 2.37,-0.51 4.93,0.23 6.66,2.16l31.22 34.62c4.76,5.28 12.87,5.77 18.23,1.11 5.48,-4.77 6.01,-13.1 1.16,-18.52l-74.33 -83.17c-2.31,-2.59 -0.33,-6.67 3.13,-6.47 4.34,0.25 8.54,1.36 12.38,3.22 3.85,1.85 7.33,4.47 10.22,7.71l13.17 14.8c4,4.5 10.89,4.9 15.39,0.9 3.03,-2.7 4.2,-6.71 3.41,-10.42 -0.38,-1.79 -1.22,-3.51 -2.52,-4.97l-18.51 -20.8c-9.28,-10.43 -22.33,-16.74 -36.26,-17.55 -2.82,-0.17 -5.62,0.05 -8.33,0.63 -5.28,1.12 -10.23,3.59 -14.32,7.25l-40.69 36.21c-5.12,4.55 -11.57,7.3 -18.39,7.83 -4.88,0.39 -9.72,-0.38 -14.15,-2.17 -4.43,-1.77 -8.45,-4.57 -11.71,-8.23l-0.12 -0.14c-4.12,-4.64 -11.37,-5.15 -16.11,-1.15 -3.22,2.71 -4.49,6.84 -3.67,10.66zm0 0z"/>
   <path class="fil2" d="M173.14 966.03l0.01 0.02 4.56 5.12c4,4.5 10.89,4.9 15.39,0.9 3.03,-2.7 4.2,-6.71 3.41,-10.42 -0.38,-1.79 -1.22,-3.51 -2.52,-4.97l-4.99 -5.62 -15.86 14.97zm0 0z"/>
   <path class="fil2" d="M11.73 969.22c0.38,1.81 1.23,3.54 2.55,5.03l1.81 2.03c0.96,1.08 1.96,2.12 2.99,3.13l1.01 0.83 15.79 -16.43 0 -0.01c-1.53,-1.17 -2.95,-2.49 -4.25,-3.95l-0.12 -0.14c-4.12,-4.63 -11.37,-5.15 -16.11,-1.15 -3.22,2.71 -4.49,6.84 -3.67,10.66zm0 0z"/>
   <path class="fil3" d="M80.13 958.62l22.76 -20.25c3.08,-2.75 3.35,-7.47 0.61,-10.55l-13.87 -15.58c-8.33,-9.37 -22.68,-10.2 -32.05,-1.87 -9.36,8.34 -10.2,22.69 -1.86,32.06l13.87 15.58c2.74,3.08 7.46,3.35 10.54,0.61l0 0zm0 0z"/>
   <path class="fil4" d="M54.05 940.32c0.51,0.72 1.07,1.43 1.67,2.11l6.94 7.8c3.91,-1.23 11.06,-4.33 19.69,-12.02l0.01 0c8.64,-7.69 12.55,-14.43 14.22,-18.17l-6.95 -7.8c-0.6,-0.68 -1.23,-1.32 -1.9,-1.9 -3.95,1.26 -11.02,4.39 -19.52,11.96l-0.01 0.01c-8.51,7.58 -12.44,14.24 -14.15,18.01l0 0zm0 0z"/>
   <path class="fil2" d="M139.14 972.2l-18.18 -20.48 -30.79 27.33 18.19 20.48 30.78 -27.33zm0 0z"/>
   <path class="fil1" d="M8.14 962.04c0.49,-1.44 1.21,-2.8 2.12,-4.04 0.71,-0.95 1.52,-1.84 2.45,-2.63 1.4,-1.18 2.95,-2.06 4.58,-2.67 0.02,-0.01 0.04,-0.02 0.06,-0.03 0.08,-0.02 0.16,-0.05 0.23,-0.07 4.44,-1.56 9.44,-1.07 13.49,1.38 1.3,0.79 2.5,1.77 3.55,2.96 1.12,1.27 2.36,2.44 3.69,3.47 1.72,1.35 3.59,2.48 5.57,3.37l-17.53 -21.12c-0.16,-0.2 -0.31,-0.42 -0.44,-0.64 -0.28,-0.51 -2.69,-5.19 -1.01,-13.34 2.04,-9.97 9.13,-20.82 21.05,-32.25 0.11,-0.1 0.22,-0.2 0.34,-0.29 31.47,-24.24 45.14,-15.72 46.6,-14.67 0.25,0.17 0.47,0.38 0.67,0.6l30.77 34.54c1.84,-0.74 3.74,-1.31 5.69,-1.73 3.1,-0.66 6.27,-0.9 9.44,-0.71 14.93,0.87 29.19,7.77 39.13,18.94l13.48 15.14c0.01,0.02 0.03,0.03 0.04,0.04l4.99 5.62c1.74,1.95 2.95,4.33 3.49,6.87 1.12,5.29 -0.69,10.81 -4.72,14.4 -4.69,4.17 -11.7,4.97 -17.21,1.98 -1.53,-0.83 -2.92,-1.93 -4.08,-3.23l-4.54 -5.11c0,0 -0.01,-0.01 -0.01,-0.01l-8.6 -9.66c-2.52,-2.84 -5.52,-5.1 -8.92,-6.74 -3.2,-1.55 -6.61,-2.48 -10.14,-2.77l41.68 46.64c1.54,1.72 1.39,4.35 -0.33,5.88 -1.71,1.54 -4.35,1.39 -5.88,-0.33l-42.14 -47.15c-2.18,-2.44 -2.66,-5.92 -1.24,-8.86 1.42,-2.95 4.45,-4.73 7.72,-4.54 4.88,0.28 9.58,1.5 13.96,3.62 4.38,2.12 8.25,5.05 11.51,8.7l5.75 6.46 9.79 -9.25 -10.82 -12.16c-8.49,-9.53 -20.66,-15.42 -33.39,-16.16 -2.43,-0.15 -4.86,0.04 -7.23,0.54 -4.61,0.98 -8.9,3.15 -12.41,6.29l-40.7 36.22c-5.75,5.11 -13.15,8.27 -20.82,8.87 -1.04,0.08 -2.09,0.12 -3.13,0.1 -4.41,-0.05 -8.82,-0.92 -12.9,-2.56 -1.86,-0.75 -3.65,-1.65 -5.36,-2.71l-10.36 10.78c10.17,8.11 22.92,12.42 36.16,12.02l14.67 -0.44c8.35,-0.25 16.33,3.18 21.87,9.41l67.45 75.27c3.22,3.59 8.79,3.94 12.42,0.78l0.45 -0.39c1.82,-1.58 2.89,-3.77 3.04,-6.17 0.14,-2.39 -0.67,-4.69 -2.28,-6.47l-30.79 -34.01c-2.01,-2.23 -3.03,-5.11 -2.86,-8.11 0.17,-3 1.5,-5.75 3.77,-7.75 1.44,-1.26 3.18,-2.13 5.04,-2.53 3.9,-0.83 7.97,0.5 10.61,3.45l31.22 34.62c3.22,3.57 8.78,3.9 12.4,0.75 1.81,-1.56 2.88,-3.74 3.03,-6.13 0.15,-2.38 -0.64,-4.68 -2.23,-6.46l-9.51 -10.64c-1.54,-1.72 -1.39,-4.35 0.33,-5.89 1.71,-1.53 4.35,-1.38 5.88,0.33l9.51 10.64c3.09,3.46 4.63,7.91 4.34,12.54 -0.29,4.63 -2.38,8.86 -5.88,11.9 -7.03,6.11 -17.82,5.46 -24.06,-1.46l-31.23 -34.63c-0.66,-0.75 -1.7,-1.08 -2.68,-0.87 -0.47,0.1 -0.9,0.32 -1.27,0.64 -0.57,0.5 -0.91,1.2 -0.95,1.96 -0.05,0.76 0.21,1.49 0.72,2.05l30.79 34c3.12,3.46 4.69,7.92 4.42,12.57 -0.28,4.65 -2.37,8.9 -5.89,11.95l-0.45 0.4c-3.23,2.81 -7.25,4.19 -11.26,4.19 -4.74,0 -9.46,-1.93 -12.83,-5.7l-67.46 -75.28c-3.91,-4.39 -9.53,-6.81 -15.41,-6.63l-14.67 0.44c-0.65,0.02 -1.3,0.03 -1.95,0.03 -16.61,0 -32.44,-6.45 -44.3,-17.96 -1.81,-1.69 -3.42,-3.58 -5.06,-5.42 -1.76,-1.97 -2.98,-4.37 -3.52,-6.93 -0.58,-2.73 -0.38,-5.51 0.49,-8.05l0 0zm170.8 4.25l1.88 2.11c1.82,2.04 4.78,2.78 7.34,1.84 2.62,-0.95 4.39,-3.48 4.42,-6.26 0.02,-1.66 -0.6,-3.29 -1.7,-4.53l-2.15 -2.41 -9.79 9.25zm-62.13 -45.6l-28.97 -32.52c-1.93,-0.78 -12.65,-3.71 -36.28,14.43 -21.9,21.07 -19.07,33.24 -18.41,35.21l23.51 28.32c0.17,-0.01 0.34,-0.02 0.5,-0.03 0,0 0,0 0.01,0 3.99,-0.31 7.88,-1.53 11.35,-3.51 -0.74,-0.51 -1.43,-1.12 -2.04,-1.81l-6.91 -7.77c-2.22,-2.49 -4.44,-4.98 -6.66,-7.47 -0.83,-0.93 -1.64,-1.89 -2.33,-2.92 -3.41,-4.92 -5.08,-10.78 -4.73,-16.85 0.42,-7.16 3.6,-13.74 8.96,-18.51 10.24,-9.11 25.56,-8.94 35.6,-0.11 2.07,1.74 3.79,3.96 5.59,5.97l10.61 11.93c0.77,0.86 1.38,1.8 1.85,2.79l5.33 -4.75c0.96,-0.85 1.97,-1.66 3.01,-2.4l0.01 0zm-16.42 9.9l-2.99 -3.35c-2.53,4 -6.4,8.85 -12.27,14.08 -0.04,0.04 -0.09,0.08 -0.13,0.11 -5.82,5.16 -11.05,8.41 -15.29,10.45l2.99 3.36c0.59,0.66 1.4,1.05 2.28,1.1 0.88,0.05 1.73,-0.24 2.39,-0.83l22.75 -20.25c1.36,-1.22 1.48,-3.31 0.27,-4.67zm-45.84 0.61c2.49,-3.55 5.99,-7.65 10.88,-12 0.02,-0.02 0.03,-0.03 0.05,-0.04 4.87,-4.33 9.32,-7.32 13.13,-9.38 -1.92,-0.64 -3.93,-0.98 -5.94,-0.98 -4.39,0 -8.79,1.55 -12.32,4.69 -3.7,3.29 -5.89,7.82 -6.18,12.77 -0.1,1.68 0.04,3.34 0.38,4.94l0 0zm32.11 -16.04c-3.62,1.49 -9.17,4.46 -15.68,10.26 -0.02,0.01 -0.03,0.02 -0.05,0.04 -6.49,5.79 -10.07,10.94 -11.96,14.35l4.93 5.54c3.64,-1.49 9.18,-4.46 15.69,-10.25 0.04,-0.04 0.08,-0.07 0.12,-0.11 6.43,-5.75 9.99,-10.87 11.88,-14.29l-1.65 -1.86 -3.28 -3.68zm-56.81 48.86c-0.89,-0.9 -1.73,-2 -2.8,-2.71 -1.17,-0.78 -2.56,-1.21 -3.97,-1.25 -1.78,-0.06 -3.58,0.49 -5,1.68 -1.92,1.63 -2.8,4.16 -2.28,6.62 0,0.4 0.26,0.92 0.42,1.29 0.18,0.41 0.4,0.81 0.66,1.18 0.28,0.4 2.36,2.73 3.09,3.52 1.12,-1.16 9.88,-10.33 9.88,-10.33l0 0zm0 0z"/>
   <path class="fil1" d="M111.13 1002.65c-0.76,0.68 -1.75,1.05 -2.76,1.05 -0.08,0 -0.17,0 -0.25,-0.01 -1.1,-0.06 -2.13,-0.56 -2.87,-1.39l-18.18 -20.48c-1.53,-1.72 -1.38,-4.36 0.34,-5.88l30.79 -27.33c0.82,-0.74 1.91,-1.11 3.01,-1.05 1.1,0.07 2.14,0.57 2.87,1.39l18.18 20.49c1.53,1.72 1.38,4.35 -0.34,5.88l-30.79 27.33zm9.48 -45.05l-24.55 21.8 12.66 14.25 24.55 -21.8 -12.66 -14.25zm0 0z"/>
   <path class="fil1" d="M82.79 1054.02l3.15 0 0 -3.14c0,-2.3 1.86,-4.17 4.16,-4.17 2.3,0 4.17,1.87 4.17,4.17l0 3.14 3.14 0c2.3,0 4.17,1.87 4.17,4.17 0,2.3 -1.87,4.17 -4.17,4.17l-3.14 0 0 3.14c0,2.3 -1.87,4.16 -4.17,4.16 -2.3,0 -4.16,-1.86 -4.16,-4.16l0 -3.14 -3.15 0c-2.3,0 -4.16,-1.87 -4.16,-4.17 0,-2.3 1.86,-4.17 4.16,-4.17l0 0zm0 0z"/>
   <path class="fil1" d="M39.14 1016l1.53 0 0 -1.53c0,-2.3 1.86,-4.16 4.16,-4.16 2.3,0 4.17,1.86 4.17,4.16l0 1.53 1.52 0c2.3,0 4.17,1.87 4.17,4.17 0,2.3 -1.87,4.16 -4.17,4.16l-1.52 0 0 1.53c0,2.3 -1.87,4.16 -4.17,4.16 -2.3,0 -4.16,-1.86 -4.16,-4.16l0 -1.53 -1.53 0c-2.3,0 -4.16,-1.86 -4.16,-4.16 0,-2.3 1.86,-4.17 4.16,-4.17zm0 0z"/>
   <path class="fil1" d="M200.3 910.85l-4.45 0 0 4.45c0,2.3 -1.87,4.16 -4.17,4.16 -2.3,0 -4.16,-1.86 -4.16,-4.16l0 -4.45 -4.45 0c-2.3,0 -4.17,-1.87 -4.17,-4.17 0,-2.3 1.87,-4.16 4.17,-4.16l4.45 0 0 -4.45c0,-2.3 1.86,-4.17 4.16,-4.17 2.3,0 4.17,1.87 4.17,4.17l0 4.45 4.45 0c2.3,0 4.17,1.86 4.17,4.16 0,2.3 -1.87,4.17 -4.17,4.17l0 0zm0 0z"/>
   <path class="fil1" d="M193.83 1015.54c-1.6,0.65 -3.5,0.24 -4.67,-1.05 -1.16,-1.28 -1.41,-3.17 -0.63,-4.7 0.82,-1.59 2.61,-2.5 4.37,-2.21 1.7,0.28 3.08,1.6 3.42,3.29 0.38,1.93 -0.68,3.91 -2.49,4.67l0 0zm0 0z"/>
  </g>
  <g id="_1798044515488">
   <path class="fil5" d="M76.08 199.96c11.3,29.66 44.51,44.54 74.17,33.24 15.07,-5.75 27.03,-17.56 32.97,-32.55 -17.1,2.87 -34.42,4.27 -51.75,4.16 -18.58,0.15 -37.13,-1.48 -55.39,-4.85l0 0zm0 0z"/>
   <path class="fil5" d="M187.05 174.37c-2.65,-31.63 -30.44,-55.12 -62.08,-52.46 -28.15,2.36 -50.42,24.84 -52.51,53.02 -0.11,1.49 -0.22,2.98 -0.22,4.5 0.02,2.66 0.22,5.32 0.61,7.95 19.41,2.84 39.01,4.14 58.62,3.9 18.43,0.17 36.86,-0.94 55.14,-3.33 0.44,-2.82 0.68,-5.66 0.7,-8.52 0,-1.71 -0.11,-3.39 -0.26,-5.06l0 0zm0 0z"/>
   <path class="fil6" d="M73.93 71.13c4.87,2.43 16.72,-2.14 24.26,-7.42 -3.99,-9.63 -11.83,-17.15 -21.61,-20.74 -5.87,6.5 -18.43,15.51 -40.25,9.84 -3.89,4.24 -6.74,9.33 -8.32,14.85 6.06,2.14 12.42,3.31 18.84,3.47 13.54,0 20.31,-3.39 27.08,0zm0 0z"/>
   <path class="fil7" d="M222.85 50.82c-5.61,-0.01 -10.15,-4.55 -10.16,-10.15 0,-1.87 -1.51,-3.39 -3.38,-3.39 -1.87,0 -3.39,1.52 -3.39,3.39 0,5.6 -4.54,10.14 -10.15,10.15 -1.87,0 -3.38,1.52 -3.38,3.39 0,1.86 1.51,3.38 3.38,3.38 5.61,0.01 10.15,4.55 10.15,10.15 0,1.87 1.52,3.39 3.39,3.39 1.87,0 3.38,-1.52 3.38,-3.39 0.01,-5.6 4.55,-10.14 10.16,-10.15 1.87,0 3.38,-1.52 3.38,-3.38 0,-1.87 -1.51,-3.39 -3.38,-3.39zm-13.54 6.88c-0.99,-1.33 -2.16,-2.51 -3.49,-3.49 1.33,-0.99 2.5,-2.17 3.49,-3.49 0.99,1.32 2.16,2.5 3.49,3.49 -1.33,0.98 -2.5,2.16 -3.49,3.49zm0 0z"/>
   <path class="fil7" d="M134.85 91.44c-5.6,-0.01 -10.15,-4.55 -10.15,-10.16 0,-1.87 -1.52,-3.38 -3.39,-3.38 -1.87,0 -3.38,1.51 -3.38,3.38 -0.01,5.61 -4.55,10.15 -10.15,10.16 -1.87,0 -3.39,1.51 -3.39,3.38 0,1.87 1.52,3.38 3.39,3.38 5.6,0.01 10.14,4.55 10.15,10.16 0,1.87 1.51,3.38 3.38,3.38 1.87,0 3.39,-1.51 3.39,-3.38 0,-5.61 4.55,-10.15 10.15,-10.16 1.87,0 3.39,-1.51 3.39,-3.38 0,-1.87 -1.52,-3.38 -3.39,-3.38zm-13.54 6.87c-0.98,-1.33 -2.16,-2.5 -3.49,-3.49 1.33,-0.99 2.51,-2.16 3.49,-3.49 0.99,1.33 2.16,2.5 3.49,3.49 -1.33,0.99 -2.5,2.16 -3.49,3.49zm0 0z"/>
   <path class="fil8" d="M184.55 161.85c1.3,4.07 2.14,8.27 2.5,12.52 11.74,1.8 18.88,4.16 18.88,6.75 0,2.63 -7.32,5.02 -19.32,6.83 -18.28,2.39 -36.71,3.5 -55.14,3.33 -19.61,0.24 -39.21,-1.06 -58.62,-3.9 -9.91,-1.72 -15.84,-3.9 -15.84,-6.26 0,-2.33 5.77,-4.47 15.46,-6.19 0.31,-4.2 1.08,-8.35 2.3,-12.38 -21.12,4.34 -34.68,11.04 -34.68,18.57 0,7.69 14.12,14.51 35.99,18.84 18.27,3.37 36.81,5 55.39,4.85 17.34,0.11 34.65,-1.29 51.75,-4.16 23.93,-4.28 39.63,-11.42 39.63,-19.53 0,-7.95 -15.12,-14.98 -38.3,-19.27l0 0zm0 0z"/>
   <path class="fil9" d="M189 81.28c0,7.48 -6.06,13.54 -13.54,13.54 -7.47,0 -13.53,-6.06 -13.53,-13.54 0,-7.47 6.06,-13.54 13.53,-13.54 7.48,0 13.54,6.07 13.54,13.54zm0 0z"/>
   <path class="fil9" d="M216.08 128.66c0,3.74 -3.03,6.77 -6.77,6.77 -3.74,0 -6.77,-3.03 -6.77,-6.77 0,-3.74 3.03,-6.76 6.77,-6.76 3.74,0 6.77,3.02 6.77,6.76zm0 0z"/>
   <path class="fil7" d="M76.58 42.97c-14.17,-5.25 -30.11,-1.35 -40.25,9.84 21.82,5.67 34.38,-3.34 40.25,-9.84zm0 0z"/>
   <path class="fil7" d="M70.55 104.97c-9.42,2.36 -25.36,-0.2 -34.21,-1.97 13.8,15.16 37.29,16.26 52.45,2.45 0.57,-0.52 1.13,-1.06 1.67,-1.62 -6.66,-0.75 -13.39,-0.36 -19.91,1.14zm0 0z"/>
   <path class="fil6" d="M27.29 85.33c1.36,6.6 4.48,12.71 9.05,17.67 8.85,1.77 24.79,4.33 34.21,1.97 6.52,-1.5 13.25,-1.89 19.91,-1.14 6.77,-6.93 10.55,-16.24 10.55,-25.93 0,-0.49 -0.06,-0.97 -0.08,-1.46 -21.7,11.11 -58.02,10 -73.64,8.89l0 0zm0 0z"/>
   <path class="fil7" d="M73.93 71.13c-6.77,-3.39 -13.54,0 -27.08,0 -6.42,-0.16 -12.78,-1.33 -18.84,-3.47 -1.67,5.75 -1.91,11.81 -0.72,17.67 15.62,1.11 51.94,2.22 73.64,-8.89 -0.15,-4.37 -1.08,-8.68 -2.74,-12.73 -7.54,5.28 -19.39,9.85 -24.26,7.42l0 0zm0 0z"/>
   <path class="fil6" d="M173.25 176.05c-1.67,-0.01 -3.09,-1.22 -3.34,-2.87 -0.26,-1.67 -0.62,-3.32 -1.08,-4.94 -0.52,-1.8 0.52,-3.67 2.32,-4.19 1.8,-0.51 3.67,0.53 4.18,2.33 0.54,1.89 0.97,3.82 1.27,5.76 0.28,1.85 -0.98,3.58 -2.83,3.87 -0.17,0.02 -0.35,0.04 -0.52,0.04l0 0zm0 0z"/>
   <path class="fil6" d="M165.31 156.87c-1.08,0 -2.09,-0.51 -2.73,-1.39 -7.67,-10.45 -19.85,-16.64 -32.81,-16.66 -1.87,0 -3.38,-1.52 -3.38,-3.39 0,-1.87 1.51,-3.38 3.38,-3.38 15.12,0.03 29.33,7.24 38.27,19.44 1.11,1.5 0.78,3.62 -0.73,4.73 -0.58,0.42 -1.28,0.65 -2,0.65l0 0zm0 0z"/>
   <path class="fil1" d="M222.85 50.82c-5.61,-0.01 -10.15,-4.55 -10.16,-10.15 0,-1.87 -1.51,-3.39 -3.38,-3.39 -1.87,0 -3.39,1.52 -3.39,3.39 0,5.6 -4.54,10.14 -10.15,10.15 -1.87,0 -3.38,1.52 -3.38,3.39 0,1.86 1.51,3.38 3.38,3.38 5.61,0.01 10.15,4.55 10.15,10.15 0,1.87 1.52,3.39 3.39,3.39 1.87,0 3.38,-1.52 3.38,-3.39 0.01,-5.6 4.55,-10.14 10.16,-10.15 1.87,0 3.38,-1.52 3.38,-3.38 0,-1.87 -1.51,-3.39 -3.38,-3.39zm-13.54 6.88c-0.99,-1.33 -2.16,-2.51 -3.49,-3.49 1.33,-0.99 2.5,-2.17 3.49,-3.49 0.99,1.32 2.16,2.5 3.49,3.49 -1.33,0.98 -2.5,2.16 -3.49,3.49zm0 0z"/>
   <path class="fil1" d="M107.78 98.2c5.6,0.01 10.14,4.55 10.15,10.16 0,1.87 1.51,3.38 3.38,3.38 1.87,0 3.39,-1.51 3.39,-3.38 0,-5.61 4.55,-10.15 10.15,-10.16 1.87,0 3.39,-1.51 3.39,-3.38 0,-1.87 -1.52,-3.38 -3.39,-3.38 -5.6,-0.01 -10.15,-4.55 -10.15,-10.16 0,-1.87 -1.52,-3.38 -3.39,-3.38 -1.87,0 -3.38,1.51 -3.38,3.38 -0.01,5.61 -4.55,10.15 -10.15,10.16 -1.87,0 -3.39,1.51 -3.39,3.38 0,1.87 1.52,3.38 3.39,3.38zm13.53 -6.87c0.99,1.33 2.16,2.5 3.49,3.49 -1.33,0.99 -2.5,2.16 -3.49,3.49 -0.98,-1.33 -2.16,-2.5 -3.49,-3.49 1.33,-0.99 2.51,-2.16 3.49,-3.49zm0 0z"/>
   <path class="fil1" d="M187.07 158.89c-11.31,-31.65 -46.13,-48.14 -77.77,-36.83 -17.44,6.23 -31.1,20.06 -37.1,37.58 -16.63,3.6 -35.5,10.17 -35.5,21.48 0,11.59 19.69,18.21 36.96,21.8 9.53,22.58 31.61,37.31 56.11,37.43 24.29,0.07 46.26,-14.38 55.82,-36.7 15.97,-3 40.64,-9.71 40.64,-22.53 0,-11.97 -20.85,-18.66 -39.16,-22.23l0 0zm-111.23 16.3c0.29,-3.95 1.02,-7.85 2.16,-11.65l0 0c8.71,-28.59 38.95,-44.7 67.54,-35.99 21.14,6.44 36.24,25.1 38.14,47.11l0 0.01c0.14,1.57 0.25,3.15 0.25,4.76 -0.01,1.84 -0.12,3.68 -0.34,5.51 -0.52,0.07 -1.04,0.14 -1.58,0.21 -0.85,0.11 -1.72,0.22 -2.61,0.32 -1.01,0.12 -2.06,0.23 -3.12,0.34 -0.92,0.1 -1.84,0.19 -2.78,0.28 -1.1,0.11 -2.24,0.21 -3.38,0.3 -0.97,0.08 -1.93,0.16 -2.92,0.24 -1.21,0.09 -2.44,0.17 -3.68,0.25 -0.99,0.06 -1.97,0.13 -2.97,0.19 -1.3,0.08 -2.64,0.14 -3.97,0.21 -1,0.05 -1.98,0.1 -3,0.15 -1.41,0.05 -2.84,0.1 -4.28,0.15 -0.97,0.03 -1.93,0.07 -2.92,0.1 -1.63,0.05 -3.28,0.08 -4.94,0.11 -0.81,0.01 -1.62,0.04 -2.44,0.05 -2.49,0.03 -5,0.05 -7.53,0.05 -2.78,0 -5.53,-0.02 -8.25,-0.06 -0.88,-0.01 -1.73,-0.04 -2.61,-0.06 -1.82,-0.03 -3.64,-0.07 -5.42,-0.12 -1.03,-0.04 -2.03,-0.08 -3.04,-0.12 -1.59,-0.06 -3.18,-0.11 -4.73,-0.18 -1.06,-0.05 -2.09,-0.11 -3.13,-0.17 -1.45,-0.08 -2.9,-0.15 -4.31,-0.25 -1.04,-0.06 -2.06,-0.14 -3.08,-0.22 -1.34,-0.09 -2.68,-0.19 -3.98,-0.3 -1,-0.08 -1.97,-0.17 -2.95,-0.27 -1.24,-0.11 -2.47,-0.23 -3.66,-0.35 -0.95,-0.11 -1.87,-0.21 -2.79,-0.32 -1.13,-0.13 -2.24,-0.27 -3.32,-0.41 -0.88,-0.12 -1.73,-0.24 -2.58,-0.36 -0.59,-0.09 -1.15,-0.18 -1.72,-0.27 -0.18,-1.66 -0.27,-3.33 -0.27,-5 -0.01,-1.43 0.1,-2.83 0.21,-4.24l0 0zm53.93 58.39c-20.14,-0.09 -38.59,-11.3 -47.96,-29.14 1.97,0.33 4,0.63 6.05,0.92 0.61,0.09 1.25,0.16 1.87,0.24 1.48,0.2 2.97,0.39 4.49,0.56 0.8,0.1 1.6,0.18 2.41,0.26 1.38,0.15 2.76,0.29 4.16,0.42 0.87,0.08 1.74,0.15 2.62,0.22 1.38,0.12 2.77,0.22 4.18,0.32 0.89,0.06 1.78,0.12 2.67,0.18 1.45,0.08 2.9,0.16 4.36,0.23 0.87,0.04 1.73,0.09 2.61,0.12 1.59,0.06 3.19,0.11 4.8,0.15 0.76,0.02 1.52,0.05 2.28,0.06 2.37,0.05 4.76,0.08 7.16,0.08 3.7,0 7.37,-0.07 11.01,-0.19 0.56,-0.01 1.12,-0.03 1.68,-0.05 3.46,-0.12 6.87,-0.3 10.24,-0.52 0.63,-0.05 1.26,-0.09 1.89,-0.14 3.38,-0.24 6.7,-0.52 9.95,-0.87 0.43,-0.04 0.86,-0.1 1.29,-0.15 3.23,-0.35 6.4,-0.75 9.47,-1.2 0.15,-0.03 0.32,-0.04 0.47,-0.07 -9.37,17.64 -27.73,28.64 -47.7,28.57l0 0zm52.86 -36.26c-16.91,2.84 -34.03,4.21 -51.16,4.11 -7.49,0 -14.84,-0.23 -21.93,-0.69 -11.01,-0.65 -21.97,-2.02 -32.8,-4.1 -22.98,-4.55 -33.27,-11.07 -33.27,-15.52 0,-3.96 8.3,-9.66 26.67,-14.07 -0.03,0.17 -0.05,0.35 -0.08,0.53 -0.09,0.48 -0.15,0.97 -0.24,1.46 -0.16,1.01 -0.35,2.01 -0.48,3.03 -11.12,2.21 -15.72,4.89 -15.72,9.05 0,4.51 5.41,7.29 18.65,9.59 19.6,2.88 39.39,4.2 59.2,3.95 18.6,0.17 37.19,-0.96 55.64,-3.37 19.51,-2.93 22.2,-6.61 22.2,-10.17 0,-4.53 -5.6,-7.39 -19.17,-9.68 -0.13,-0.97 -0.33,-1.93 -0.5,-2.89 -0.1,-0.55 -0.18,-1.11 -0.3,-1.66 -0.04,-0.22 -0.06,-0.44 -0.11,-0.65 20.73,4.49 30.23,10.71 30.23,14.88 0,4.63 -11.53,11.68 -36.83,16.2l0 0zm-113.63 -14.14c-2.42,-0.47 -4.8,-1.16 -7.1,-2.06 2.26,-0.88 4.59,-1.56 6.97,-2.03 0,0.12 -0.02,0.23 -0.02,0.34 0,1.21 0.06,2.46 0.15,3.75zm121.67 -4.77c3.54,0.55 7.01,1.46 10.37,2.72 -3.41,1.27 -6.95,2.19 -10.54,2.74 0.13,-1.54 0.19,-3 0.19,-4.44 0,-0.33 -0.02,-0.68 -0.02,-1.02zm0 0z"/>
   <path class="fil1" d="M192.39 81.28c0,-9.34 -7.58,-16.92 -16.93,-16.92 -9.34,0 -16.92,7.58 -16.92,16.92 0,9.35 7.58,16.92 16.92,16.92 9.34,-0.01 16.92,-7.58 16.93,-16.92zm-27.08 0c0,-5.61 4.55,-10.15 10.15,-10.15 5.61,0 10.16,4.54 10.16,10.15 0,5.61 -4.55,10.16 -10.16,10.16 -5.6,-0.01 -10.14,-4.55 -10.15,-10.16zm0 0z"/>
   <path class="fil1" d="M219.46 128.66c0,-5.6 -4.54,-10.15 -10.15,-10.15 -5.61,0 -10.15,4.55 -10.15,10.15 0,5.61 4.54,10.16 10.15,10.16 5.6,-0.01 10.15,-4.55 10.15,-10.16zm-13.53 0c0,-1.86 1.51,-3.38 3.38,-3.38 1.87,0 3.38,1.52 3.38,3.38 0,1.87 -1.51,3.39 -3.38,3.39 -1.87,0 -3.38,-1.52 -3.38,-3.39zm0 0z"/>
   <path class="fil1" d="M104.32 76.32l-0.01 -0.02c-0.17,-4.77 -1.18,-9.47 -2.99,-13.88l0 0c-8.58,-20.73 -32.34,-30.58 -53.06,-22 -11.44,4.73 -20.09,14.42 -23.51,26.31l0 0c-1.81,6.27 -2.08,12.88 -0.77,19.27l0 0c4.46,21.97 25.89,36.16 47.86,31.7 8.01,-1.63 15.35,-5.64 21.04,-11.51l0.01 0 0 0 0 0c7.39,-7.56 11.52,-17.72 11.5,-28.29 0,-0.37 -0.02,-0.74 -0.05,-1.1l-0.02 -0.48zm-34.48 -31.7c-0.07,0.06 -0.16,0.12 -0.24,0.18 -0.55,0.42 -1.12,0.82 -1.72,1.21 -0.2,0.14 -0.4,0.26 -0.6,0.39 -0.64,0.4 -1.3,0.78 -1.99,1.15 -0.11,0.05 -0.22,0.12 -0.33,0.17 -0.82,0.42 -1.68,0.81 -2.58,1.17 -0.17,0.06 -0.35,0.12 -0.52,0.19 -0.77,0.29 -1.56,0.56 -2.39,0.79 -0.21,0.06 -0.41,0.13 -0.62,0.18 -2.15,0.57 -4.35,0.93 -6.57,1.08 -0.25,0.02 -0.5,0.02 -0.75,0.04 -1.01,0.05 -2.06,0.06 -3.13,0.03 -0.23,-0.01 -0.45,-0.01 -0.68,-0.02 -1.28,-0.05 -2.61,-0.17 -3.98,-0.35 -0.05,-0.01 -0.11,-0.02 -0.17,-0.03 7.52,-5.62 17.04,-7.85 26.27,-6.18l0 0zm-32.3 11.97c0.28,0.06 0.54,0.1 0.82,0.16 0.68,0.14 1.34,0.27 2,0.38 0.56,0.1 1.11,0.2 1.66,0.28 0.67,0.09 1.32,0.17 1.98,0.24 0.51,0.06 1.01,0.12 1.52,0.16 0.65,0.05 1.29,0.08 1.92,0.11 0.47,0.02 0.94,0.04 1.4,0.05 0.22,0 0.45,0.02 0.67,0.02 0.19,0 0.36,-0.03 0.56,-0.04 1.59,-0.01 3.18,-0.1 4.76,-0.28 0.19,-0.03 0.37,-0.06 0.56,-0.09 1.42,-0.19 2.83,-0.45 4.22,-0.78 0.15,-0.04 0.31,-0.06 0.46,-0.1 1.32,-0.34 2.62,-0.75 3.89,-1.23 0.23,-0.09 0.46,-0.16 0.68,-0.25 1.18,-0.47 2.3,-0.97 3.36,-1.51 0.2,-0.1 0.4,-0.21 0.61,-0.32 1.04,-0.55 2.04,-1.13 2.96,-1.73 0.13,-0.09 0.24,-0.17 0.37,-0.26 0.93,-0.62 1.81,-1.26 2.62,-1.9l0.08 -0.06c0.83,-0.67 1.58,-1.34 2.28,-1.99 0.09,-0.09 0.18,-0.17 0.26,-0.25 0.08,-0.08 0.17,-0.16 0.25,-0.23 7.09,3.13 12.9,8.6 16.45,15.49 -0.12,0.07 -0.23,0.15 -0.35,0.22 -0.43,0.26 -0.86,0.49 -1.29,0.73 -0.57,0.31 -1.13,0.63 -1.7,0.91 -0.45,0.23 -0.9,0.44 -1.35,0.66 -0.55,0.25 -1.09,0.51 -1.63,0.73 -0.46,0.2 -0.9,0.38 -1.35,0.55 -0.52,0.21 -1.04,0.4 -1.55,0.58 -0.43,0.15 -0.85,0.3 -1.27,0.43 -0.5,0.15 -0.97,0.29 -1.45,0.41 -0.38,0.1 -0.76,0.21 -1.12,0.29 -0.47,0.1 -0.9,0.17 -1.33,0.24 -0.31,0.05 -0.63,0.11 -0.92,0.14 -0.4,0.04 -0.8,0.06 -1.2,0.05 -0.2,0 -0.44,0.02 -0.62,0 -0.45,-0.01 -0.89,-0.12 -1.31,-0.3 -0.65,-0.33 -1.32,-0.61 -2.01,-0.85 -0.22,-0.08 -0.44,-0.13 -0.66,-0.19 -0.45,-0.14 -0.9,-0.28 -1.36,-0.37 -0.26,-0.06 -0.52,-0.1 -0.79,-0.14 -0.41,-0.07 -0.82,-0.14 -1.24,-0.18 -0.28,-0.03 -0.57,-0.05 -0.85,-0.07 -0.41,-0.02 -0.82,-0.04 -1.24,-0.05 -0.12,0 -0.23,-0.01 -0.35,-0.01 -0.11,0 -0.23,0.01 -0.34,0.01 -1.04,0.01 -2.1,0.07 -3.19,0.17 -0.17,0.01 -0.36,0.03 -0.53,0.05 -1.13,0.11 -2.28,0.24 -3.49,0.38 -4.16,0.56 -8.34,0.86 -12.54,0.89 -1.15,0 -2.31,-0.07 -3.47,-0.17 -0.26,-0.02 -0.51,-0.04 -0.77,-0.07 -1.11,-0.11 -2.22,-0.25 -3.29,-0.44 -0.15,-0.02 -0.3,-0.05 -0.45,-0.08 -0.98,-0.17 -1.93,-0.37 -2.86,-0.58 -0.22,-0.05 -0.44,-0.1 -0.66,-0.15 -0.99,-0.24 -1.95,-0.48 -2.86,-0.74l-0.16 -0.05c1.28,-3.2 3.03,-6.2 5.21,-8.87l0 0zm-7.13 25.55l-0.21 -0.01c-0.18,-1.41 -0.27,-2.82 -0.27,-4.23 0,-1.99 0.18,-3.97 0.54,-5.92 0.33,0.09 0.65,0.16 0.98,0.25 0.6,0.16 1.2,0.31 1.79,0.46 1.03,0.25 2.05,0.48 3.06,0.68 0.57,0.11 1.14,0.23 1.71,0.33 1.05,0.17 2.08,0.31 3.11,0.43 0.47,0.06 0.95,0.13 1.42,0.17 1.47,0.13 2.91,0.21 4.31,0.21 4.46,-0.04 8.91,-0.35 13.33,-0.94 5.39,-0.64 8.96,-1.06 12.24,0.59 0.76,0.37 1.57,0.63 2.41,0.79 0.27,0.05 0.57,0.04 0.85,0.08 0.58,0.09 1.17,0.14 1.77,0.16 0.03,0 0.08,-0.01 0.12,-0.01 0.33,0 0.69,-0.05 1.03,-0.08 0.63,-0.04 1.27,-0.07 1.93,-0.17 0.41,-0.06 0.82,-0.16 1.24,-0.25 0.62,-0.12 1.24,-0.24 1.87,-0.4 0.45,-0.12 0.9,-0.27 1.35,-0.4 0.6,-0.19 1.21,-0.37 1.82,-0.58 0.47,-0.17 0.93,-0.35 1.4,-0.53 0.59,-0.23 1.17,-0.45 1.76,-0.7 0.46,-0.2 0.92,-0.41 1.38,-0.63 0.56,-0.26 1.12,-0.51 1.66,-0.78 0.45,-0.23 0.89,-0.46 1.33,-0.69 0.52,-0.27 1.03,-0.55 1.52,-0.83 0.17,-0.09 0.35,-0.18 0.52,-0.28 0.49,1.8 0.83,3.63 1.02,5.49 -0.4,0.18 -0.8,0.37 -1.2,0.54 -0.59,0.26 -1.18,0.5 -1.79,0.74 -0.79,0.32 -1.61,0.61 -2.43,0.89 -0.61,0.22 -1.23,0.43 -1.86,0.63 -0.86,0.28 -1.74,0.53 -2.63,0.78 -0.62,0.17 -1.24,0.36 -1.87,0.52 -0.96,0.24 -1.93,0.47 -2.91,0.68 -0.59,0.14 -1.16,0.28 -1.75,0.4 -1.15,0.24 -2.31,0.45 -3.47,0.65 -0.45,0.08 -0.88,0.17 -1.32,0.24 -1.62,0.27 -3.25,0.51 -4.89,0.72 -0.28,0.03 -0.55,0.06 -0.83,0.09 -1.37,0.17 -2.73,0.33 -4.1,0.46 -0.53,0.05 -1.05,0.09 -1.58,0.14 -1.12,0.09 -2.23,0.19 -3.34,0.27 -0.59,0.04 -1.16,0.07 -1.75,0.1 -1.04,0.07 -2.09,0.13 -3.12,0.18 -0.59,0.02 -1.16,0.04 -1.74,0.06 -1.02,0.04 -2.03,0.07 -3.03,0.1 -0.56,0.01 -1.11,0.02 -1.67,0.03 -0.99,0.02 -1.98,0.03 -2.95,0.03 -0.52,0 -1.03,0 -1.54,0 -0.99,0 -1.95,-0.01 -2.9,-0.02 -0.45,0 -0.91,-0.01 -1.35,-0.02 -0.97,-0.01 -1.92,-0.04 -2.84,-0.06 -0.39,-0.01 -0.78,-0.03 -1.16,-0.04 -0.94,-0.03 -1.85,-0.06 -2.73,-0.1 -0.31,-0.02 -0.64,-0.03 -0.94,-0.04 -0.94,-0.05 -1.82,-0.1 -2.68,-0.15 -0.2,-0.01 -0.42,-0.02 -0.62,-0.03l0 0zm33.37 29.6c-4.93,0 -9.8,-1.09 -14.26,-3.18 1.58,0.18 3.16,0.33 4.73,0.46 0.21,0.01 0.4,0.03 0.61,0.04 2.04,0.15 4.06,0.24 6.01,0.24 0.06,0 0.13,0.01 0.19,0.01l0.1 0c0.12,0 0.23,-0.01 0.35,-0.01 0.81,0 1.63,-0.02 2.42,-0.05l0.16 -0.02c0.84,-0.04 1.67,-0.09 2.47,-0.17 0.09,-0.01 0.17,-0.03 0.25,-0.04 0.77,-0.08 1.52,-0.17 2.24,-0.29 0.8,-0.13 1.58,-0.29 2.32,-0.47 1.6,-0.4 3.23,-0.7 4.86,-0.92 0.08,-0.01 0.15,-0.02 0.22,-0.03 1.55,-0.2 3.06,-0.32 4.52,-0.39 0.08,0 0.16,-0.01 0.23,-0.01 -5.26,3.18 -11.28,4.85 -17.42,4.83l0 0zm25.33 -11.43l-0.13 -0.01c-1.12,-0.08 -2.34,-0.14 -3.62,-0.18 -0.26,0 -0.5,-0.01 -0.76,-0.01 -1.29,-0.02 -2.64,0 -4.05,0.06 -0.27,0.02 -0.54,0.03 -0.81,0.05 -1.46,0.08 -2.95,0.22 -4.47,0.42 -0.21,0.03 -0.42,0.07 -0.63,0.1 -1.62,0.24 -3.26,0.54 -4.92,0.95 -1.15,0.28 -2.32,0.48 -3.5,0.6 -0.52,0.06 -1.09,0.07 -1.64,0.11 -0.76,0.05 -1.51,0.11 -2.31,0.13 -0.66,0.01 -1.35,-0.01 -2.03,-0.02 -0.74,-0.01 -1.46,-0.01 -2.22,-0.04 -0.73,-0.03 -1.46,-0.09 -2.2,-0.14 -0.73,-0.05 -1.46,-0.09 -2.2,-0.16 -0.75,-0.07 -1.49,-0.15 -2.23,-0.24 -0.73,-0.07 -1.46,-0.15 -2.18,-0.24 -0.72,-0.09 -1.41,-0.19 -2.1,-0.29 -0.73,-0.1 -1.48,-0.21 -2.19,-0.32 -0.63,-0.1 -1.23,-0.2 -1.84,-0.3 -0.73,-0.12 -1.46,-0.24 -2.15,-0.36 -0.53,-0.1 -1.02,-0.19 -1.52,-0.28 -0.45,-0.09 -0.88,-0.17 -1.31,-0.25 -2.76,-3.21 -4.89,-6.9 -6.3,-10.89 1.02,0.05 2.1,0.1 3.22,0.15 0.4,0.01 0.82,0.02 1.23,0.04 0.99,0.04 2,0.07 3.06,0.09 0.62,0.02 1.24,0.03 1.89,0.04 1.13,0.02 2.28,0.03 3.46,0.04 0.41,0 0.79,0.01 1.21,0.01 0.22,0 0.46,-0.01 0.68,-0.01 1.66,0 3.37,-0.03 5.11,-0.07 0.56,-0.01 1.12,-0.02 1.69,-0.04 1.94,-0.06 3.91,-0.15 5.92,-0.26 0.52,-0.03 1.03,-0.07 1.54,-0.1 2.12,-0.14 4.25,-0.3 6.4,-0.51 0.15,-0.02 0.3,-0.03 0.45,-0.05 2.12,-0.21 4.23,-0.48 6.35,-0.78 0.45,-0.06 0.9,-0.12 1.35,-0.19 2.13,-0.32 4.25,-0.69 6.35,-1.11 0.43,-0.09 0.85,-0.18 1.27,-0.27 2.18,-0.46 4.33,-0.97 6.42,-1.55 0.07,-0.02 0.14,-0.05 0.21,-0.07 2.03,-0.57 4,-1.22 5.91,-1.92 0.36,-0.14 0.73,-0.26 1.08,-0.4 0.26,-0.1 0.54,-0.19 0.8,-0.29 -0.78,6.89 -3.68,13.38 -8.29,18.56l0 0zm0 0z"/>
   <path class="fil1" d="M169.91 173.18c0.25,1.65 1.67,2.86 3.34,2.87 0.17,0 0.35,-0.02 0.52,-0.04 1.85,-0.29 3.12,-2.02 2.83,-3.87 -0.3,-1.94 -0.72,-3.87 -1.26,-5.76 -0.52,-1.8 -2.39,-2.84 -4.19,-2.33 -1.79,0.52 -2.84,2.39 -2.32,4.19 0.46,1.62 0.82,3.27 1.08,4.94l0 0zm0 0z"/>
   <path class="fil1" d="M129.77 138.82c12.96,0.02 25.14,6.21 32.81,16.66 1.11,1.5 3.23,1.82 4.73,0.71 1.49,-1.11 1.82,-3.2 0.73,-4.7 -8.94,-12.2 -23.15,-19.41 -38.27,-19.44 -1.86,0 -3.38,1.51 -3.38,3.38 0,1.87 1.52,3.39 3.38,3.39zm0 0z"/>
  </g>
  <g id="_1798266981456">
   <path class="fil4" d="M1351.08 1017.38c0,39.34 -31.89,71.23 -71.23,71.23 -39.33,0 -71.22,-31.89 -71.22,-71.23 0,-39.34 31.89,-71.23 71.22,-71.23 39.34,0 71.23,31.89 71.23,71.23zm0 0z"/>
   <path class="fil10" d="M1417.18 887.51c0,27.4 -22.21,49.62 -49.61,49.62 -27.41,0 -49.62,-22.22 -49.62,-49.62 0,-27.4 22.21,-49.62 49.62,-49.62 27.4,0 49.61,22.22 49.61,49.62zm0 0z"/>
   <path class="fil11" d="M1440.72 968.46c-7.03,-13.48 -23.65,-18.7 -37.13,-11.67 -13.48,7.02 -18.7,23.65 -11.68,37.12 7.03,13.48 23.65,18.71 37.13,11.68 13.48,-7.03 18.71,-23.65 11.68,-37.13zm0 0z"/>
   <path class="fil12" d="M1403.57 853.37l-30.69 0c-3.48,0 -6.81,1.38 -9.27,3.84l-1.68 1.67c-2.45,2.45 -5.78,3.84 -9.26,3.84l-28.1 0c8.58,-14.84 24.63,-24.83 43,-24.83 14.17,0 26.96,5.95 36,15.48zm0 0z"/>
   <path class="fil12" d="M1417.18 887.51c0,18.19 -9.79,34.09 -24.39,42.73l-16.36 -16.36c-1.49,-1.49 -3.51,-2.33 -5.62,-2.33l-20.63 0c-2.19,0 -4.19,-0.89 -5.62,-2.33 -1.45,-1.44 -2.34,-3.43 -2.34,-5.63 0,-4.39 3.57,-7.95 7.96,-7.95l2.12 0c2.11,0 4.14,-0.84 5.63,-2.33l5.37 -5.37c1.49,-1.5 3.51,-2.33 5.62,-2.33l48.22 0c0.03,0.63 0.04,1.26 0.04,1.9l0 0zm0 0z"/>
   <g>
    <path class="fil13" d="M1335.55 972.97l-10.94 15.78c-0.95,1.38 -1.46,3.01 -1.46,4.68l0 23.29c0,4.54 -3.68,8.21 -8.21,8.21 -2.27,0 -4.32,0.92 -5.8,2.41 -1.49,1.48 -2.41,3.53 -2.41,5.8l0 7.05c0,2.69 -1.32,5.21 -3.53,6.75l-4.75 3.29c-5.45,3.78 -12.89,-0.12 -12.89,-6.74l0 -30.93 -12.28 -12.28c-1.54,-1.54 -2.4,-3.63 -2.4,-5.8l0 -16.44c0,-2.18 0.86,-4.26 2.4,-5.8l8.79 -8.8c1.54,-1.53 2.41,-3.62 2.41,-5.8l0 -11.34c20.65,1.32 38.91,11.44 51.07,26.67l0 0zm0 0z"/>
    <path class="fil13" d="M1263.59 1068.88l0 17.86c-28.32,-6.61 -50.14,-30.11 -54.26,-59.3l5.05 -1.7 10.29 0c4.71,0 8.53,3.81 8.53,8.52l0 4.23c0,2.26 0.9,4.43 2.5,6.03l13.34 13.35c1.6,1.59 3.77,2.49 6.03,2.49 2.35,0 4.48,0.96 6.02,2.5 1.55,1.54 2.5,3.67 2.5,6.02l0 0zm0 0z"/>
    <path class="fil13" d="M1242.49 973.84l0 17.22c0,2.4 -0.95,4.69 -2.64,6.39 -1.77,1.76 -4.08,2.64 -6.39,2.64 -2.31,0 -4.62,-0.88 -6.38,-2.64l-11.27 -11.27c4.52,-9.27 10.99,-17.41 18.88,-23.88l5.16 5.15c1.69,1.69 2.64,3.99 2.64,6.39l0 0zm0 0z"/>
   </g>
   <path class="fil1" d="M1461.55 956.2c-3.09,-5.91 -11.85,-6.53 -26.77,-1.88 -9.63,-6.59 -22.5,-7.81 -33.55,-2.04 -11.05,5.76 -17.42,17.01 -17.53,28.68 -12.35,9.56 -16.87,17.1 -13.78,23.01 2.01,3.87 6.34,4.97 10.7,4.97 4.32,0 8.67,-1.08 10.82,-1.62 1.28,-0.32 2.61,-0.68 3.97,-1.09 5.89,4.9 13.34,7.58 20.95,7.58 5.08,0 10.23,-1.19 15.03,-3.69 7.73,-4.03 13.42,-10.83 16.03,-19.14 1.31,-4.14 1.77,-8.41 1.4,-12.6 1.1,-0.88 2.16,-1.75 3.15,-2.62 3.36,-2.93 13.59,-11.87 9.58,-19.56l0 0zm-55.61 5.11c3.3,-1.72 6.84,-2.54 10.33,-2.54 8.1,0 15.93,4.39 19.92,12.06 0.55,1.06 1.01,2.14 1.39,3.25 -5,3.55 -11.31,7.47 -18.99,11.48 -7.69,4.01 -14.52,6.93 -20.29,9 -0.69,-0.93 -1.32,-1.93 -1.87,-3 -5.72,-10.96 -1.45,-24.53 9.51,-30.25zm-26.01 37.47c0.88,-1.35 2.63,-3.46 5.8,-6.28 0.47,1.28 1.01,2.54 1.66,3.77 0.24,0.47 0.49,0.92 0.75,1.37 -3.68,0.86 -6.46,1.2 -8.21,1.14l0 0zm57.77 -10.86c-1.8,5.72 -5.71,10.39 -11.02,13.16 -6.14,3.2 -13.08,3.27 -19.02,0.79 5.06,-2.06 10.34,-4.51 15.64,-7.27 5.3,-2.77 10.33,-5.7 14.93,-8.67 -0.15,0.67 -0.32,1.33 -0.53,1.99l0 0zm8.22 -20.41c-0.22,-0.47 -0.45,-0.93 -0.69,-1.4 -0.64,-1.23 -1.36,-2.4 -2.14,-3.52 4.12,-0.98 6.85,-1.21 8.46,-1.16 -0.95,1.48 -2.81,3.57 -5.63,6.08zm0 0z"/>
   <path class="fil1" d="M1371.31 870.86c0.82,1.99 2.9,3.29 5.04,3.14 2.16,-0.15 4.03,-1.68 4.59,-3.77 0.55,-2.03 -0.25,-4.26 -1.98,-5.47 -1.66,-1.17 -3.9,-1.24 -5.63,-0.17 -2.1,1.29 -2.96,4.01 -2.02,6.27l0 0zm0 0z"/>
   <path class="fil1" d="M1331.41 1069.09c-0.81,-1.97 -2.83,-3.25 -4.95,-3.15 -2.1,0.1 -3.95,1.53 -4.6,3.53 -0.68,2.07 0.1,4.41 1.85,5.68 1.68,1.22 3.97,1.29 5.72,0.18 2.07,-1.3 2.92,-3.99 1.98,-6.24l0 0zm0 0z"/>
   <path class="fil1" d="M1253.14 901.16l5.35 0 0 5.35c0,2.82 2.29,5.1 5.1,5.1 2.82,0 5.1,-2.28 5.1,-5.1l0 -5.35 5.35 0c2.82,0 5.1,-2.29 5.1,-5.1 0,-2.81 -2.28,-5.09 -5.1,-5.09l-5.35 0 0 -5.36c0,-2.82 -2.28,-5.1 -5.1,-5.1 -2.81,0 -5.1,2.28 -5.1,5.1l0 5.36 -5.35 0c-2.82,0 -5.1,2.28 -5.1,5.09 0,2.81 2.28,5.1 5.1,5.1l0 0zm0 0z"/>
   <path class="fil1" d="M1431.1 1055.54l-5.36 0 0 -5.35c0,-2.82 -2.28,-5.1 -5.1,-5.1 -2.81,0 -5.09,2.28 -5.09,5.1l0 5.35 -5.36 0c-2.81,0 -5.1,2.28 -5.1,5.1 0,2.81 2.29,5.09 5.1,5.09l5.36 0 0 5.36c0,2.82 2.28,5.1 5.09,5.1 2.82,0 5.1,-2.28 5.1,-5.1l0 -5.36 5.36 0c2.81,0 5.09,-2.28 5.09,-5.09 0,-2.82 -2.28,-5.1 -5.09,-5.1zm0 0z"/>
   <path class="fil1" d="M1384.25 1030.86l-1.22 0 0 -1.22c0,-2.82 -2.29,-5.1 -5.1,-5.1 -2.81,0 -5.09,2.28 -5.09,5.1l0 1.22 -1.23 0c-2.81,0 -5.1,2.28 -5.1,5.1 0,2.81 2.29,5.09 5.1,5.09l1.23 0 0 1.23c0,2.81 2.28,5.09 5.09,5.09 2.81,0 5.1,-2.28 5.1,-5.09l0 -1.23 1.22 0c2.82,0 5.1,-2.28 5.1,-5.09 0,-2.82 -2.28,-5.1 -5.1,-5.1zm0 0z"/>
   <path class="fil1" d="M1313.16 881.72c-0.2,1.9 -0.31,3.83 -0.31,5.79 0,30.17 24.55,54.71 54.72,54.71 10.03,0 19.45,-2.72 27.54,-7.46 2.44,-1.24 4.71,-2.98 6.83,-4.7 2.13,-1.73 4.13,-3.61 5.97,-5.64 4.31,-4.7 7.8,-10.15 10.26,-16.13 0.09,-0.18 0.16,-0.36 0.23,-0.54 2.06,-5.17 3.36,-10.72 3.75,-16.52 0.6,-8.69 -0.92,-17.5 -4.39,-25.48 -3.33,-7.64 -8.43,-14.54 -14.77,-19.95 -5.9,-5.04 -12.86,-8.79 -20.33,-10.91 -7.92,-2.26 -16.37,-2.69 -24.48,-1.28 -8.06,1.4 -15.76,4.64 -22.4,9.4 -0.85,0.6 -1.67,1.23 -2.48,1.88 -5.21,4.18 -9.7,9.33 -13.14,15.28 -0.06,0.11 -0.11,0.22 -0.17,0.34 -3.62,6.36 -6,13.51 -6.82,21.13 0,0.02 -0.01,0.05 -0.01,0.08l0 0zm9.89 5.79c0,-0.07 0,-0.14 0,-0.2l16.59 0c2.81,0 5.09,-2.29 5.09,-5.1 0,-2.81 -2.28,-5.09 -5.09,-5.09l-15.37 0c0.78,-3.26 1.92,-6.37 3.38,-9.31l25.02 0c4.86,0 9.43,-1.89 12.86,-5.32l1.69 -1.68c1.48,-1.49 3.55,-2.35 5.66,-2.35l28.4 0c1.45,1.69 2.77,3.48 3.96,5.36l-10.09 0c-2.82,0 -5.1,2.28 -5.1,5.1 0,2.81 2.28,5.09 5.1,5.09l14.84 0c0.67,2.11 1.19,4.28 1.54,6.5l-42.61 0c-3.49,0 -6.77,1.36 -9.22,3.82l-5.38 5.37c-0.54,0.55 -1.26,0.84 -2.02,0.84l-2.12 0c-7.2,0 -13.05,5.86 -13.05,13.06 0,3.49 1.36,6.77 3.82,9.22 2.47,2.47 5.74,3.82 9.23,3.82l20.63 0c0.76,0 1.48,0.3 2.02,0.84l11.34 11.34c-5.14,2.07 -10.74,3.21 -16.61,3.21 -24.54,0 -44.51,-19.97 -44.51,-44.52zm16.14 -34.28c7.03,-5.8 15.8,-9.38 24.9,-10.1 2.69,-0.22 5.39,-0.17 8.07,0.09 5.89,0.61 11.44,2.37 16.42,5.05l-15.7 0c-4.8,0 -9.49,1.95 -12.87,5.33l-1.68 1.68c-1.51,1.51 -3.52,2.34 -5.66,2.34l-18.07 0c1.42,-1.57 2.96,-3.04 4.59,-4.39l0 0zm61.49 63.99c-2.16,2.41 -4.59,4.59 -7.22,6.48l-13.42 -13.43c-2.47,-2.46 -5.75,-3.82 -9.23,-3.82l-20.63 0c-0.76,0 -1.48,-0.3 -2.03,-0.84 -0.54,-0.54 -0.83,-1.25 -0.83,-2.01 0,-1.58 1.28,-2.87 2.86,-2.87l2.12 0c3.49,0 6.76,-1.35 9.23,-3.82l5.38 -5.37c0.53,-0.54 1.25,-0.84 2.01,-0.84l43.05 0c0,0.01 0,0.02 0,0.03 -0.26,3.51 -0.94,6.96 -2.01,10.28l-12.79 0c-2.82,0 -5.1,2.28 -5.1,5.09 0,2.82 2.28,5.1 5.1,5.1l8.05 0c0.02,0 -1.07,1.62 -1.22,1.84 -1.02,1.45 -2.13,2.85 -3.32,4.18l0 0zm0 0z"/>
   <path class="fil1" d="M1339.53 969.79c-6.04,-7.57 -13.41,-13.83 -21.63,-18.56 -1.52,-0.88 -3.07,-1.7 -4.64,-2.47 -0.55,-0.26 -1.1,-0.52 -1.65,-0.78 0,0 0,0 -0.01,0 -5.89,-2.71 -12.19,-4.69 -18.77,-5.82 -2.68,-0.46 -5.4,-0.82 -8.11,-0.95 -1.61,-0.1 -3.23,-0.16 -4.86,-0.16 -18.14,0 -34.81,6.36 -47.92,16.97 -0.16,0.1 -0.32,0.21 -0.48,0.34 -8.45,6.93 -15.45,15.78 -20.23,25.58 -0.06,0.13 -0.12,0.27 -0.17,0.4 -4.83,10 -7.53,21.21 -7.53,33.04 0,3.61 0.26,7.16 0.75,10.64 0.28,2.43 0.8,4.86 1.37,7.24 3.01,12.56 9.14,24.11 17.99,33.74 9.99,10.88 22.73,18.53 36.91,22.23 0.26,0.06 0.51,0.13 0.77,0.19 0.37,0.09 0.74,0.2 1.11,0.28 0.05,0.01 0.09,0.02 0.14,0.03 5.55,1.29 11.34,1.97 17.29,1.97 11.26,0 22.12,-2.4 32.27,-7.15 2.55,-1.19 3.65,-4.22 2.46,-6.77 -1.19,-2.55 -4.22,-3.65 -6.77,-2.46 -8.79,4.11 -18.2,6.19 -27.97,6.19 -3.8,0 -7.53,-0.33 -11.16,-0.95l0 -13.68c0,-3.63 -1.42,-7.05 -3.99,-9.62 -2.58,-2.58 -6,-4 -9.63,-4 -0.9,0 -1.79,-0.36 -2.43,-1l-13.34 -13.34c-0.64,-0.64 -1.01,-1.53 -1.01,-2.43l0 -4.23c0,-7.51 -6.11,-13.62 -13.62,-13.62l-10.29 0c-0.19,0 -0.38,0.02 -0.58,0.04 -0.05,-1.1 -0.08,-2.2 -0.08,-3.3 0,-7.8 1.36,-15.28 3.85,-22.24l5.91 5.91c2.66,2.67 6.21,4.14 9.98,4.14 3.77,0 7.31,-1.47 9.99,-4.14 2.67,-2.67 4.13,-6.22 4.13,-9.99l0 -17.22c0,-3.78 -1.46,-7.33 -4.13,-9.99l-0.99 -0.99c10.52,-7.24 23.23,-11.51 36.92,-11.61l0 6.39c0,0.83 -0.32,1.61 -0.91,2.2l-8.8 8.79c-2.51,2.52 -3.89,5.86 -3.89,9.41l0 16.44c0,3.54 1.38,6.88 3.9,9.4l10.78 10.79 0 28.82c0,4.96 2.74,9.48 7.14,11.78 1.95,1.02 4.06,1.53 6.18,1.53 2.65,0 5.3,-0.8 7.57,-2.38l4.75 -3.3c3.59,-2.48 5.73,-6.57 5.73,-10.93l0 -7.05c0,-0.83 0.32,-1.61 0.92,-2.21 0.58,-0.58 1.36,-0.9 2.19,-0.9 7.34,0 13.31,-5.97 13.31,-13.31l0 -23.29c0,-0.64 0.19,-1.25 0.55,-1.77l6.8 -9.83c6.57,10.28 10.39,22.48 10.39,35.55 0,12.66 -3.59,24.97 -10.38,35.59 -1.52,2.37 -0.83,5.52 1.54,7.04 2.37,1.51 5.52,0.82 7.04,-1.55 7.85,-12.26 11.99,-26.47 11.99,-41.08 0,-17.77 -6.1,-34.14 -16.32,-47.12 -0.11,-0.17 -0.21,-0.32 -0.33,-0.47l0 0zm-124.32 61.04l9.46 0c1.89,0 3.43,1.54 3.43,3.43l0 4.23c0,3.59 1.46,7.1 3.99,9.63l13.35 13.35c2.53,2.53 6.04,3.99 9.63,3.99 0.91,0 1.77,0.35 2.42,1 0.65,0.65 1,1.51 1,2.42l0 11.09c-21.4,-7.33 -37.89,-25.34 -43.06,-47.64 -0.01,-0.05 -0.03,-0.11 -0.04,-0.16 -0.1,-0.44 -0.19,-0.87 -0.28,-1.3l0.1 -0.04zm21.03 -59.78c0.75,0.75 1.15,1.74 1.15,2.79l0 17.22c0,1.05 -0.4,2.04 -1.14,2.78 -0.75,0.74 -1.74,1.15 -2.79,1.15 -1.05,0 -2.03,-0.4 -2.78,-1.15l-8.6 -8.6c3.31,-5.93 7.51,-11.3 12.41,-15.94l1.75 1.75zm84.18 14.81c-1.55,2.24 -2.37,4.86 -2.37,7.57l0 23.29c0,1.72 -1.39,3.12 -3.11,3.12 -3.56,0 -6.91,1.38 -9.4,3.89 -2.52,2.51 -3.91,5.85 -3.91,9.41l0 7.05c0,1.02 -0.5,1.98 -1.33,2.56l-4.76 3.29c-1.4,0.97 -2.71,0.47 -3.22,0.2 -0.5,-0.26 -1.67,-1.05 -1.67,-2.75l0 -30.93c0,-1.35 -0.53,-2.65 -1.49,-3.6l-12.27 -12.28c-0.58,-0.58 -0.92,-1.38 -0.92,-2.2l0 -16.44c0,-0.82 0.33,-1.62 0.91,-2.2l8.8 -8.79c2.51,-2.52 3.89,-5.86 3.89,-9.41l0 -5.68c6.6,0.98 13.04,2.97 19.04,5.87 7.81,3.79 14.77,9.07 20.51,15.47l-8.7 12.56zm0 0z"/>
  </g>
  <g id="_1798263000016">
   <circle class="fil14" transform="matrix(0.171868 0.0213759 -0.0213759 0.171868 1346.84 151.825)" r="599.99"/>
   <g>
    <g>
     <path class="fil15" d="M1410.7 233.81c-45.29,35.27 -110.58,27.13 -145.85,-18.14 -35.24,-45.28 -27.12,-110.56 18.14,-145.83l127.71 163.97zm0 0l0 0 0 0z"/>
    </g>
    <circle class="fil15" transform="matrix(0.171868 0.0213759 -0.0213759 0.171868 1346.84 151.829)" r="513.5"/>
   </g>
   <g id="_1798266966640">
    <g>
     <path class="fil16" d="M1335.87 240.09c-48.74,-6.07 -83.34,-50.5 -77.28,-99.24 6.07,-48.74 50.5,-83.33 99.23,-77.28l-21.95 176.52zm0 0l0 0 0 0z"/>
    </g>
    <circle class="fil16" transform="matrix(0.171868 0.0213759 -0.0213759 0.171868 1346.84 151.829)" r="424.7"/>
   </g>
   <g>
    <g>
     <path class="fil17" d="M1288.8 197.03c-24.95,-32.06 -19.2,-78.27 12.85,-103.24 32.05,-24.95 78.26,-19.21 103.22,12.84l-116.07 90.4zm0 0l0 0 0 0z"/>
    </g>
    <circle class="fil17" transform="matrix(0.171868 0.0213759 -0.0213759 0.171868 1346.84 151.829)" r="318.46"/>
   </g>
   <g>
    <path class="fil18" d="M1340.04 206.56c-30.23,-3.76 -51.69,-31.31 -47.93,-61.54 3.76,-30.23 31.31,-51.68 61.54,-47.93l-13.61 109.47zm0 0l0 0 0 0z"/>
   </g>
   <path class="fil19" d="M1266.72 230.02c0,0 -1.76,-2.23 -5.05,-6.41 -3.19,-4.21 -7.54,-10.89 -11.72,-20.06 -3.82,-9.29 -7.48,-21.24 -8.16,-35.49 -0.68,-14.14 1.1,-30.71 8.33,-47.02 1.84,-4.05 3.68,-8.23 6.17,-12.15 2.2,-4.11 5.08,-7.87 7.93,-11.78 6.04,-7.5 13.15,-14.74 21.58,-20.63 1.81,-1.46 4.24,-2.86 6.62,-4.25l3.57 -2.09 3.67 -1.7c2.44,-1.13 4.91,-2.3 7.53,-3.09 2.59,-0.86 5.17,-1.89 7.89,-2.43 10.72,-2.8 22.26,-3.43 33.72,-1.89 22.92,3.05 45.5,15.43 60.15,35.59 14.95,19.92 18.52,48.62 8.55,72.17 -4.92,11.81 -13.13,22.15 -23.05,29.98 -4.67,3.57 -11.12,7.2 -17.08,9.28 -6.11,2.25 -12.6,3.26 -19,3.43 -12.89,0.45 -25.62,-3.67 -35.93,-10.84 -5.1,-3.66 -9.62,-8.03 -13.42,-12.89l-2.51 -3.65c-0.8,-1.26 -1.67,-2.9 -2.46,-4.35 -1.44,-2.93 -2.56,-5.79 -3.4,-8.83 -3.38,-12.04 -2.02,-25.01 3.46,-35.58 2.7,-5.31 6.35,-10.04 10.59,-13.95l3.31 -2.75 0.21 -0.17 0.48 -0.36 0.38 -0.26 0.77 -0.51 1.55 -1.03c1.28,-0.76 2.75,-1.56 4.11,-2.24 1.35,-0.55 2.67,-1.16 4.04,-1.62 10.99,-3.74 22.98,-2.38 32.28,2.91 4.66,2.63 8.66,6.18 11.75,10.22l0.3 0.37 0.16 0.19c-0.02,-0.02 0.66,0.94 0.42,0.62l0.41 0.71 0.84 1.41c0.55,1 1.11,1.77 1.64,2.94 0.51,1.29 1,2.59 1.44,3.89l0.67 1.94c0.15,0.63 0.2,1.25 0.3,1.87 1.78,9.89 -1.26,19.82 -7.2,26.48 -1.53,1.61 -3.25,3 -4.84,4.44 -0.19,0.13 0.21,-0.13 -0.47,0.34l-0.15 0.09 -0.32 0.17 -0.6 0.35 -1.22 0.7c-0.8,0.47 -1.52,0.95 -2.72,1.33 -1.08,0.38 -2.16,0.75 -3.23,1.13 -1.07,0.36 -2.09,0.35 -3.12,0.54 -2.04,0.41 -4.07,0.19 -6.04,0.06 -7.99,-0.79 -14.39,-5.61 -17.89,-11.37 -0.37,-0.66 -0.74,-1.25 -1.09,-1.96 -0.28,-0.83 -0.58,-1.65 -0.86,-2.47 -0.68,-1.64 -0.57,-3.18 -0.84,-4.7 0.03,-1.53 0.09,-3.03 0.35,-4.44 0.43,-1.38 0.56,-2.81 1.26,-4 2.16,-4.92 6.23,-8.42 9.97,-9.64 4.06,-1.4 7.56,-0.79 10.14,0.13 5.07,2.3 6.28,5.26 6.41,5.07 -0.08,0.19 -1.74,-2.6 -6.71,-4.19 -2.45,-0.61 -5.85,-0.68 -8.98,0.83 -0.77,0.23 -1.58,0.89 -2.43,1.49l-0.64 0.45c0.01,0.02 -0.28,0.32 -0.41,0.46 -0.34,0.37 -0.69,0.73 -1.03,1.11 -1.38,1.48 -2.48,3.38 -3.17,5.5 -0.51,1.01 -0.45,2.22 -0.72,3.34 -0.1,1.16 -0.02,2.36 0.05,3.55 0.34,1.13 0.37,2.49 0.96,3.46l0.66 1.59c0.35,0.58 0.82,1.2 1.23,1.81 3.09,4 8.31,7.5 14.27,7.51 1.47,-0.04 2.96,0.05 4.41,-0.4 0.71,-0.2 1.53,-0.23 2.14,-0.53 0.63,-0.29 1.25,-0.55 1.88,-0.79 1.08,-0.31 3.33,-2.13 4.12,-2.62 1.08,-1.21 2.28,-2.32 3.33,-3.58 3.96,-5.23 5.63,-12.46 3.97,-19.24 -0.09,-0.42 -0.14,-0.87 -0.26,-1.27l-0.48 -1.06c-0.3,-0.71 -0.58,-1.43 -0.83,-2.16 -0.37,-0.79 -1.15,-1.77 -1.7,-2.66l-0.92 -1.37 -0.46 -0.68c-0.32,-0.44 0.29,0.42 0.18,0.28l-0.12 -0.12 -0.24 -0.25c-2.45,-2.83 -5.49,-5.18 -8.92,-6.84 -6.82,-3.37 -15.26,-3.94 -22.63,-1.03 -0.92,0.35 -1.8,0.83 -2.7,1.22l-2.31 1.36 -1.49 1.1 -0.75 0.55 -0.38 0.28c-0.12,0.08 0.4,-0.29 0.11,-0.07l-0.14 0.14 -2.34 2.12c-2.96,2.99 -5.42,6.51 -7.18,10.39 -3.5,7.75 -4.33,16.92 -1.7,25.28 0.63,2.07 1.53,4.16 2.49,6.01 0.54,0.86 0.88,1.62 1.53,2.61l2.13 2.95c2.97,3.55 6.39,6.7 10.24,9.31 7.77,5 17.15,7.88 26.58,7.5 4.7,-0.18 9.43,-0.92 13.85,-2.62 4.59,-1.77 8.07,-3.63 12.4,-6.87 7.67,-6.2 13.9,-14.21 17.65,-23.36 7.81,-18.24 5.49,-40.29 -6.29,-56.26 -5.74,-7.82 -13.29,-14.94 -21.64,-20.07 -8.4,-5.19 -17.77,-8.62 -27.31,-10.17 -19.07,-3.14 -38.69,1.39 -53.57,11.04 -15.42,10.03 -26.8,23.88 -34.12,38.3 -1.91,3.57 -3.2,7.34 -4.74,10.91 -1.04,3.74 -2.47,7.31 -3.19,10.96 -0.73,3.63 -1.7,7.17 -1.95,10.7 -0.2,1.76 -0.4,3.49 -0.61,5.21 -0.19,1.71 -0.1,3.41 -0.17,5.08 -0.32,13.4 1.98,25.09 4.83,34.4 3.29,9.2 6.57,16.16 9.34,20.73 2.81,4.51 4.3,6.93 4.3,6.93z"/>
   <g>
    <path class="fil20" d="M1329.98 148.43c0.49,-0.81 1.02,-1.58 1.63,-2.23 0.35,-0.38 0.69,-0.74 1.03,-1.11 0.12,-0.14 0.42,-0.44 0.41,-0.46l0.63 -0.45c0.85,-0.6 1.67,-1.26 2.44,-1.49 0.18,-0.09 0.37,-0.13 0.56,-0.2 0.15,-0.18 0.26,-0.4 0.41,-0.57 0.35,-0.37 0.7,-0.74 1.03,-1.1 0.13,-0.14 0.42,-0.44 0.41,-0.46l0.32 -0.23c-1.15,0.1 -2.34,0.28 -3.61,0.73 -0.48,0.15 -0.96,0.35 -1.45,0.58 -1.18,1.37 -2.23,2.98 -3.02,4.78 -0.39,0.67 -0.6,1.43 -0.79,2.21z"/>
    <path class="fil20" d="M1309.58 67.2c-2.72,0.54 -5.3,1.56 -7.88,2.43 -2.62,0.79 -5.09,1.95 -7.54,3.1l-3.66 1.69 -3.58 2.09c-2.38,1.39 -4.81,2.79 -6.61,4.25 -0.39,0.27 -0.74,0.57 -1.11,0.84 -5.62,4.76 -10.6,10.07 -14.98,15.51 -2.85,3.91 -5.74,7.67 -7.93,11.79 -2.5,3.92 -4.34,8.1 -6.17,12.14 -7.22,16.32 -9,32.88 -8.32,47.02 0.16,3.55 0.52,6.95 1.01,10.21 -0.07,-1.98 -0.1,-3.97 -0.05,-6.03 0.07,-1.67 -0.01,-3.37 0.18,-5.08 0.21,-1.71 0.4,-3.45 0.61,-5.2 0.24,-3.55 1.22,-7.07 1.95,-10.71 0.73,-3.65 2.14,-7.22 3.19,-10.96 1.54,-3.56 2.82,-7.34 4.75,-10.91 6.69,-13.2 16.84,-25.89 30.34,-35.64 2.91,-2.45 5.97,-4.79 9.25,-6.93 14.89,-9.65 34.5,-14.18 53.58,-11.04 9.54,1.55 18.91,4.98 27.3,10.17 8.35,5.13 15.91,12.25 21.64,20.07 11.78,15.97 14.11,38.03 6.3,56.26 -3.76,9.15 -9.98,17.16 -17.65,23.36 -0.98,0.73 -1.9,1.37 -2.8,1.96 -0.88,0.8 -1.77,1.57 -2.69,2.32 -4.33,3.23 -7.81,5.09 -12.39,6.86 -4.43,1.71 -9.16,2.45 -13.85,2.63 -9.45,0.38 -18.82,-2.51 -26.6,-7.5 -3.84,-2.61 -7.26,-5.77 -10.23,-9.31l-2.13 -2.95c-0.65,-1 -0.99,-1.75 -1.53,-2.62 -0.95,-1.84 -1.86,-3.93 -2.48,-6 -2.65,-8.35 -1.82,-17.53 1.7,-25.28 1.75,-3.88 4.21,-7.4 7.17,-10.4l2.34 -2.12 0.15 -0.14c0.28,-0.21 -0.24,0.16 -0.12,0.07l0.38 -0.28 0.74 -0.54 1.5 -1.1 0.92 -0.54 1.92 -1.74 0.14 -0.14c0.29,-0.22 -0.23,0.16 -0.11,0.07l0.38 -0.28 0.75 -0.55 1.49 -1.09 2.31 -1.37c0.9,-0.39 1.78,-0.87 2.7,-1.22 7.38,-2.91 15.81,-2.34 22.63,1.03 3.43,1.65 6.47,4.01 8.92,6.84l0.24 0.25 0.12 0.12c0.11,0.14 -0.5,-0.72 -0.18,-0.28l0.46 0.69 0.92 1.36c0.55,0.89 1.33,1.87 1.7,2.66 0.25,0.74 0.53,1.45 0.83,2.16l0.48 1.07c0.12,0.39 0.17,0.84 0.26,1.26 1.66,6.78 -0.01,14.01 -3.98,19.24 -1.04,1.26 -2.24,2.37 -3.32,3.58 -0.72,0.45 -2.6,1.94 -3.76,2.45 -0.59,0.6 -1.17,1.2 -1.74,1.83 -0.79,0.49 -3.03,2.31 -4.11,2.62 -0.63,0.24 -1.25,0.5 -1.88,0.79 -0.61,0.29 -1.43,0.33 -2.14,0.52 -1.45,0.46 -2.94,0.36 -4.41,0.4 -1.28,0 -2.52,-0.18 -3.73,-0.49 2.6,1.4 5.5,2.37 8.69,2.68 1.97,0.14 3.99,0.36 6.04,-0.06 1.03,-0.18 2.04,-0.17 3.11,-0.53 1.07,-0.37 2.15,-0.75 3.24,-1.14 1.2,-0.38 1.92,-0.86 2.72,-1.32l0.5 -0.29c0.54,-0.5 1.1,-0.99 1.61,-1.52 5.94,-6.68 8.97,-16.59 7.2,-26.49 -0.11,-0.62 -0.15,-1.24 -0.31,-1.87l-0.66 -1.93c-0.44,-1.3 -0.93,-2.61 -1.44,-3.89 -0.53,-1.18 -1.09,-1.95 -1.64,-2.94l-0.84 -1.42 -0.41 -0.71c0.23,0.33 -0.44,-0.63 -0.43,-0.62l-0.15 -0.18 -0.3 -0.37c-3.09,-4.05 -7.09,-7.59 -11.75,-10.22 -9.3,-5.29 -21.29,-6.65 -32.28,-2.91 -1.37,0.46 -2.69,1.07 -4.04,1.61 -1.37,0.69 -2.83,1.49 -4.11,2.24l-1.18 0.79 -0.03 0.03c-4.25,3.9 -7.89,8.63 -10.59,13.94 -5.48,10.58 -6.85,23.55 -3.47,35.59 0.85,3.03 1.97,5.89 3.4,8.82 0.79,1.45 1.67,3.09 2.47,4.35l2.51 3.65c3.8,4.86 8.32,9.23 13.42,12.9 10.31,7.16 23.04,11.28 35.92,10.84 6.41,-0.18 12.9,-1.19 19,-3.44 5.02,-1.75 10.33,-4.61 14.69,-7.6 8.54,-7.47 15.56,-16.83 19.95,-27.38 9.99,-23.55 6.42,-52.25 -8.53,-72.18 -14.68,-20.16 -37.26,-32.54 -60.18,-35.59 -11.45,-1.54 -22.99,-0.91 -33.72,1.89z"/>
   </g>
   <path class="fil21" d="M1426.97 73.64c0,0 1.76,2.23 5.04,6.4 3.2,4.21 7.55,10.9 11.73,20.06 3.82,9.29 7.48,21.24 8.15,35.5 0.69,14.14 -1.1,30.7 -8.32,47.02 -1.84,4.05 -3.68,8.22 -6.18,12.14 -2.19,4.11 -5.07,7.88 -7.93,11.78 -6.03,7.5 -13.14,14.75 -21.57,20.63 -1.81,1.46 -4.24,2.86 -6.62,4.25l-3.58 2.09 -3.66 1.69c-2.45,1.14 -4.91,2.31 -7.53,3.1 -2.59,0.86 -5.17,1.88 -7.89,2.42 -10.72,2.81 -22.26,3.44 -33.72,1.9 -22.92,-3.05 -45.51,-15.43 -60.16,-35.6 -14.95,-19.92 -18.51,-48.62 -8.53,-72.16 4.9,-11.81 13.11,-22.15 23.05,-29.99 4.66,-3.57 11.11,-7.19 17.07,-9.27 6.11,-2.26 12.59,-3.26 19.01,-3.44 12.88,-0.44 25.61,3.68 35.92,10.84 5.1,3.67 9.62,8.04 13.42,12.89l2.51 3.65c0.8,1.26 1.67,2.91 2.47,4.35 1.43,2.94 2.55,5.79 3.39,8.83 3.38,12.04 2.02,25.01 -3.47,35.59 -2.7,5.3 -6.34,10.03 -10.59,13.94l-3.3 2.75 -0.21 0.18 -0.48 0.36 -0.38 0.25 -0.77 0.52 -1.55 1.03c-1.28,0.75 -2.75,1.56 -4.11,2.24 -1.36,0.55 -2.67,1.16 -4.05,1.61 -10.97,3.74 -22.97,2.39 -32.27,-2.91 -4.66,-2.62 -8.66,-6.17 -11.75,-10.21l-0.3 -0.37 -0.15 -0.19c0.01,0.02 -0.67,-0.94 -0.43,-0.62l-0.41 -0.71 -0.84 -1.42c-0.55,-0.99 -1.11,-1.76 -1.64,-2.93 -0.51,-1.29 -1,-2.59 -1.45,-3.89l-0.66 -1.94c-0.14,-0.63 -0.2,-1.25 -0.3,-1.88 -1.77,-9.88 1.26,-19.81 7.2,-26.48 1.52,-1.6 3.25,-3 4.84,-4.43 0.2,-0.14 -0.22,0.13 0.48,-0.35l0.14 -0.09 0.31 -0.17 0.61 -0.35 1.22 -0.7c0.81,-0.46 1.53,-0.94 2.72,-1.32 1.09,-0.38 2.17,-0.76 3.24,-1.13 1.07,-0.36 2.08,-0.35 3.11,-0.54 2.04,-0.41 4.07,-0.19 6.05,-0.06 7.98,0.79 14.38,5.61 17.88,11.36 0.37,0.67 0.75,1.26 1.09,1.97 0.29,0.83 0.58,1.65 0.87,2.46 0.68,1.64 0.57,3.19 0.83,4.71 -0.02,1.52 -0.09,3.03 -0.34,4.44 -0.44,1.38 -0.57,2.8 -1.27,4 -2.16,4.92 -6.23,8.41 -9.96,9.63 -4.06,1.4 -7.57,0.79 -10.15,-0.12 -5.07,-2.3 -6.28,-5.27 -6.41,-5.08 0.09,-0.19 1.74,2.61 6.71,4.2 2.45,0.61 5.85,0.67 8.98,-0.83 0.78,-0.24 1.59,-0.9 2.44,-1.49l0.63 -0.45c-0.01,-0.03 0.28,-0.32 0.41,-0.47 0.34,-0.36 0.68,-0.72 1.03,-1.1 1.38,-1.49 2.47,-3.39 3.17,-5.51 0.51,-1.01 0.45,-2.22 0.72,-3.33 0.1,-1.16 0.02,-2.37 -0.05,-3.55 -0.35,-1.14 -0.37,-2.5 -0.96,-3.47l-0.66 -1.6c-0.35,-0.57 -0.83,-1.19 -1.23,-1.8 -3.09,-4 -8.32,-7.5 -14.27,-7.5 -1.47,0.03 -2.96,-0.06 -4.41,0.4 -0.71,0.19 -1.53,0.22 -2.14,0.52 -0.63,0.3 -1.24,0.56 -1.88,0.8 -1.08,0.3 -3.33,2.12 -4.11,2.61 -1.08,1.22 -2.29,2.32 -3.34,3.58 -3.96,5.23 -5.64,12.46 -3.97,19.24 0.09,0.42 0.14,0.87 0.26,1.26l0.47 1.07c0.31,0.71 0.58,1.43 0.84,2.17 0.37,0.78 1.14,1.77 1.7,2.65l0.92 1.37 0.46 0.68c0.32,0.45 -0.29,-0.41 -0.18,-0.28l0.11 0.13 0.25 0.25c2.45,2.83 5.49,5.18 8.92,6.84 6.81,3.37 15.25,3.93 22.63,1.02 0.92,-0.35 1.79,-0.82 2.7,-1.22l2.31 -1.36 1.49 -1.11 0.75 -0.54 0.38 -0.27c0.12,-0.1 -0.4,0.27 -0.11,0.06l0.14 -0.14 2.34 -2.12c2.96,-3 5.41,-6.52 7.17,-10.4 3.5,-7.74 4.34,-16.92 1.71,-25.27 -0.63,-2.07 -1.53,-4.16 -2.49,-6.01 -0.54,-0.87 -0.89,-1.62 -1.53,-2.62l-2.13 -2.94c-2.97,-3.55 -6.4,-6.7 -10.24,-9.32 -7.78,-5 -17.15,-7.88 -26.59,-7.5 -4.69,0.19 -9.42,0.92 -13.85,2.63 -4.58,1.77 -8.06,3.63 -12.39,6.87 -7.67,6.2 -13.9,14.21 -17.66,23.36 -7.8,18.23 -5.48,40.29 6.3,56.25 5.73,7.83 13.29,14.95 21.64,20.08 8.4,5.19 17.77,8.62 27.3,10.16 19.09,3.14 38.69,-1.39 53.58,-11.03 15.42,-10.04 26.79,-23.89 34.11,-38.3 1.92,-3.57 3.21,-7.35 4.74,-10.92 1.05,-3.74 2.47,-7.31 3.19,-10.96 0.74,-3.63 1.71,-7.16 1.96,-10.7 0.2,-1.76 0.4,-3.49 0.6,-5.2 0.2,-1.72 0.11,-3.41 0.18,-5.08 0.32,-13.4 -1.98,-25.09 -4.84,-34.41 -3.29,-9.19 -6.57,-16.16 -9.33,-20.72 -2.81,-4.5 -4.3,-6.91 -4.3,-6.91z"/>
   <g>
    <path class="fil22" d="M1415.22 221.39c5.31,-4.59 10.06,-9.64 14.25,-14.85 2.85,-3.91 5.73,-7.67 7.92,-11.78 2.5,-3.92 4.34,-8.1 6.18,-12.14 5.57,-12.59 7.88,-25.31 8.35,-36.95 -0.33,1.52 -0.68,3.05 -0.99,4.6 -0.73,3.65 -2.15,7.22 -3.19,10.96 -1.54,3.56 -2.83,7.34 -4.74,10.91 -6.88,13.54 -17.38,26.54 -31.4,36.39 -3.39,2.97 -7.03,5.77 -10.94,8.32 -14.89,9.64 -34.5,14.18 -53.58,11.04 -9.54,-1.55 -18.91,-4.98 -27.31,-10.17 -8.35,-5.13 -15.9,-12.25 -21.63,-20.08 -11.79,-15.97 -14.11,-38.02 -6.3,-56.25 3.75,-9.15 9.98,-17.16 17.65,-23.36 1.51,-1.13 2.9,-2.04 4.27,-2.88 1.27,-1.23 2.59,-2.42 3.96,-3.54 4.33,-3.23 7.81,-5.09 12.4,-6.86 4.42,-1.7 9.15,-2.44 13.85,-2.63 9.44,-0.38 18.81,2.5 26.6,7.5 3.83,2.62 7.25,5.77 10.22,9.32l2.14 2.93c0.64,1 0.98,1.76 1.52,2.63 0.96,1.85 1.87,3.93 2.49,6 2.63,8.36 1.81,17.53 -1.7,25.28 -1.76,3.88 -4.22,7.4 -7.18,10.4l-2.34 2.12 -0.14 0.14c-0.28,0.21 0.23,-0.16 0.11,-0.07l-0.38 0.28 -0.74 0.54 -1.5 1.1 -2.31 1.37c-0.05,0.02 -0.09,0.04 -0.15,0.06 -0.26,0.29 -0.51,0.59 -0.78,0.87l-2.34 2.12 -0.14 0.14c-0.29,0.21 0.23,-0.16 0.11,-0.06l-0.38 0.27 -0.75 0.54 -1.49 1.1 -2.31 1.37c-0.91,0.39 -1.78,0.87 -2.7,1.22 -7.38,2.91 -15.81,2.34 -22.63,-1.02 -3.43,-1.66 -6.47,-4.02 -8.92,-6.84l-0.24 -0.25 -0.12 -0.13c-0.11,-0.13 0.5,0.73 0.18,0.28l-0.46 -0.69 -0.64 -0.95 0.05 0.09 0.42 0.71c-0.24,-0.33 0.43,0.63 0.42,0.62l0.15 0.18 0.3 0.37c3.1,4.04 7.1,7.59 11.75,10.22 9.3,5.3 21.3,6.65 32.28,2.91 1.37,-0.46 2.7,-1.07 4.04,-1.62 1.2,-0.6 2.45,-1.28 3.61,-1.95 3.79,-3.7 7.08,-8.05 9.55,-12.9 5.49,-10.58 6.85,-23.55 3.47,-35.59 -0.84,-3.04 -1.96,-5.9 -3.4,-8.83 -0.79,-1.45 -1.66,-3.09 -2.46,-4.35l-2.52 -3.65c-3.79,-4.85 -8.31,-9.22 -13.41,-12.89 -10.31,-7.16 -23.05,-11.28 -35.92,-10.84 -6.42,0.18 -12.9,1.18 -19.01,3.44 -4.41,1.54 -9.09,3.93 -13.12,6.52 -8,7.29 -14.59,16.27 -18.77,26.32 -9.98,23.55 -6.42,52.26 8.54,72.17 14.65,20.17 37.24,32.55 60.16,35.6 11.45,1.53 22.99,0.9 33.71,-1.9 2.73,-0.54 5.3,-1.56 7.89,-2.42 2.62,-0.79 5.08,-1.96 7.53,-3.1l3.66 -1.69 3.58 -2.09c2.04,-1.2 4.03,-2.4 5.72,-3.63z"/>
    <path class="fil22" d="M1363.06 157.12l-0.31 0.22c-0.85,0.6 -1.67,1.26 -2.44,1.5 -0.71,0.33 -1.43,0.58 -2.16,0.77 -0.4,0.64 -0.84,1.25 -1.33,1.81 1.34,-0.04 2.74,-0.22 4.25,-0.73 0.7,-1 1.33,-2.09 1.84,-3.25 0.06,-0.1 0.1,-0.21 0.15,-0.32z"/>
    <path class="fil22" d="M1327.44 142.89c1.04,-1.26 2.25,-2.37 3.33,-3.58 0.79,-0.49 3.03,-2.32 4.11,-2.62 0.33,-0.12 0.64,-0.27 0.96,-0.4 1,-1.18 2.13,-2.24 3.16,-3.39 0.79,-0.49 3.03,-2.32 4.12,-2.62 0.63,-0.24 1.24,-0.5 1.87,-0.79 0.54,-0.27 1.24,-0.33 1.88,-0.48 -0.98,-0.23 -1.99,-0.4 -3.02,-0.51 -1.98,-0.13 -4.01,-0.35 -6.05,0.06 -1.03,0.19 -2.04,0.18 -3.11,0.55 -1.07,0.36 -2.16,0.74 -3.24,1.12 -0.82,0.27 -1.42,0.58 -1.98,0.9 -0.03,0.04 -0.07,0.07 -0.1,0.11 -5.94,6.67 -8.98,16.59 -7.21,26.48 0.11,0.63 0.16,1.24 0.31,1.87l0.66 1.94c0.14,0.42 0.32,0.83 0.46,1.26 -0.04,-0.23 -0.08,-0.44 -0.13,-0.66 -1.66,-6.78 0.01,-14.01 3.98,-19.24z"/>
   </g>
   <g>
    <ellipse class="fil23" transform="matrix(-0.106722 -0.136402 0.136402 -0.106722 1267.11 160.11)" rx="31.54" ry="2.87"/>
    <ellipse class="fil23" transform="matrix(0.136884 -0.106104 0.106104 0.136884 1267.14 160.114)" rx="31.54" ry="2.87"/>
    <ellipse class="fil23" transform="matrix(0.171868 0.0213759 -0.0213759 0.171868 1433.61 136.167)" rx="1.26" ry="13.82"/>
    <ellipse class="fil23" transform="matrix(0.171868 0.0213759 -0.0213759 0.171868 1433.61 136.17)" rx="13.84" ry="1.26"/>
    <ellipse class="fil23" transform="matrix(0.171868 0.0213759 -0.0213759 0.171868 1306.87 91.7698)" rx="1.26" ry="13.82"/>
    <ellipse class="fil23" transform="matrix(0.171868 0.0213759 -0.0213759 0.171868 1306.87 91.773)" rx="13.84" ry="1.26"/>
    <ellipse class="fil23" transform="matrix(-0.106993 -0.136192 0.136192 -0.106993 1392.02 116.081)" rx="41.62" ry="3.77"/>
    <ellipse class="fil23" transform="matrix(0.137004 -0.105949 0.105949 0.137004 1392.03 116.059)" rx="41.62" ry="3.77"/>
    <ellipse class="fil23" transform="matrix(0.171868 0.0213759 -0.0213759 0.171868 1362.2 216.999)" rx="3.79" ry="41.64"/>
    <ellipse class="fil23" transform="matrix(0.171868 0.0213759 -0.0213759 0.171868 1362.2 216.999)" rx="41.62" ry="3.77"/>
    <circle class="fil23" transform="matrix(0.171868 0.0213759 -0.0213759 0.171868 1271.45 106.452)" r="7.14"/>
    <circle class="fil23" transform="matrix(0.171868 0.0213759 -0.0213759 0.171868 1413.1 85.3518)" r="7.12"/>
    <circle class="fil23" transform="matrix(0.171868 0.0213759 -0.0213759 0.171868 1390.11 150.629)" r="12.88"/>
    <circle class="fil23" transform="matrix(0.171868 0.0213759 -0.0213759 0.171868 1337.35 79.1409)" r="12.86"/>
    <circle class="fil23" transform="matrix(0.171868 0.0213759 -0.0213759 0.171868 1414.62 198.054)" r="10.01"/>
    <path class="fil23" d="M1292.57 220.78c-0.12,0.95 -0.98,1.62 -1.92,1.5 -0.97,-0.12 -1.64,-0.98 -1.52,-1.93 0.12,-0.95 0.98,-1.62 1.94,-1.5 0.95,0.11 1.62,0.98 1.5,1.93z"/>
    <path class="fil23" d="M1421.58 168.76c-0.18,1.44 -1.5,2.47 -2.95,2.29 -1.45,-0.18 -2.47,-1.5 -2.29,-2.94 0.18,-1.45 1.49,-2.47 2.94,-2.29 1.45,0.18 2.48,1.49 2.3,2.94z"/>
   </g>
   <circle class="fil14" transform="matrix(0.171868 0.0213759 -0.0213759 0.171868 1346.84 151.829)" r="35.15"/>
   <g>
    <path class="fil24" d="M1347.6 145.79c3.33,0.41 5.7,3.45 5.29,6.79 -0.42,3.33 -3.46,5.71 -6.8,5.29l1.51 -12.08zm0 0l0 0 0 0z"/>
   </g>
   <g>
   </g>
   <g>
   </g>
   <g>
   </g>
   <g>
   </g>
   <g>
   </g>
   <g>
   </g>
   <g>
   </g>
   <g>
   </g>
   <g>
   </g>
   <g>
   </g>
   <g>
   </g>
   <g>
   </g>
   <g>
   </g>
   <g>
   </g>
   <g>
   </g>
  </g>
 </g>
</svg>
