<?xml version="1.0" encoding="UTF-8"?>
<!DOCTYPE svg PUBLIC "-//W3C//DTD SVG 1.1//EN" "http://www.w3.org/Graphics/SVG/1.1/DTD/svg11.dtd">
<!-- Creator: CorelDRAW 2019 (64 Bit) -->
<svg xmlns="http://www.w3.org/2000/svg" xml:space="preserve" width="800px" height="800px" version="1.1" style="shape-rendering:geometricPrecision; text-rendering:geometricPrecision; image-rendering:optimizeQuality; fill-rule:evenodd; clip-rule:evenodd"
viewBox="0 0 800 800"
 xmlns:xlink="http://www.w3.org/1999/xlink">
 <defs>
  <style type="text/css">
   <![CDATA[
    .fil2 {fill:#052625}
    .fil0 {fill:#09A3AA}
    .fil1 {fill:#3FD2E0}
   ]]>
  </style>
 </defs>
 <g id="Camada_x0020_1">
  <metadata id="CorelCorpID_0Corel-Layer"/>
  <g id="_2817469159552">
   <g>
    <circle class="fil0" cx="451.67" cy="621.67" r="43.33"/>
    <circle class="fil0" cx="228.33" cy="365" r="81.67"/>
    <path class="fil0" d="M728.33 481.67c-45,0 -83.33,-36.67 -83.33,-81.67 0,-45 36.67,-83.33 81.67,-83.33 15,0 31.66,5 45,11.66l6.66 3.34 1.67 8.33c6.67,38.33 6.67,78.33 0,116.67l-1.67 10 -6.66 3.33c-13.34,8.33 -28.34,11.67 -43.34,11.67z"/>
    <path class="fil0" d="M310 125c-33.33,0 -65,-20 -76.67,-53.33l-5 -15 15 -6.67c41.67,-18.33 86.67,-30 131.67,-33.33l16.67 0 1.66 15c0,3.33 0,6.66 0,10 -1.66,45 -38.33,81.66 -83.33,83.33z"/>
   </g>
   <path class="fil1" d="M400 783.33c-211.67,0 -383.33,-171.66 -383.33,-383.33 0,-138.33 75,-265 193.33,-333.33l16.67 -10 6.66 16.66c18.34,41.67 66.67,61.67 108.34,43.34 30,-13.34 50,-43.34 50,-75 0,-1.67 0,-3.34 0,-5l-1.67 -20 18.33 0c170,5 316.67,120 361.67,283.33l8.33 28.33 -28.33 -6.66c-43.33,-11.67 -90,13.33 -101.67,56.66 -11.66,43.34 13.34,90 56.67,101.67 15,5 30,5 45,0l28.33 -8.33 -8.33 28.33c-45,166.67 -196.67,283.33 -370,283.33zm51.67 -206.66c-25,0 -43.34,20 -43.34,43.33 0,25 20,43.33 43.34,43.33 25,0 43.33,-20 43.33,-43.33 1.67,-23.33 -18.33,-43.33 -43.33,-43.33l0 0zm-223.34 -293.34c-45,0 -81.66,36.67 -81.66,81.67 0,45 36.66,81.67 81.66,81.67 45,0 81.67,-36.67 81.67,-81.67 0,-45 -36.67,-81.67 -81.67,-81.67l0 0zm293.34 -115c-25,0 -43.34,20 -43.34,43.34 0,25 20,43.33 43.34,43.33 25,0 43.33,-20 43.33,-43.33 0,-23.34 -18.33,-43.34 -43.33,-43.34l0 0z"/>
   <circle class="fil0" cx="521.67" cy="211.67" r="43.33"/>
   <g>
    <path class="fil2" d="M400 0c-221.67,0 -400,178.33 -400,400 0,221.67 178.33,400 400,400 221.67,0 400,-178.33 400,-400 0,-221.67 -178.33,-400 -400,-400zm-25 35c0,3.33 0,5 0,8.33 -1.67,36.67 -31.67,65 -68.33,63.34 -25,-1.67 -46.67,-16.67 -56.67,-38.34 40,-20 81.67,-30 125,-33.33zm391.67 365c0,18.33 -1.67,36.67 -5,55 -10,6.67 -21.67,10 -35,10 -36.67,-1.67 -63.34,-33.33 -61.67,-68.33 1.67,-33.34 28.33,-60 61.67,-61.67 11.66,0 23.33,3.33 35,10 3.33,18.33 5,36.67 5,55zm-38.34 -98.33c-55,0 -100,43.33 -100,98.33 0,55 43.34,100 98.34,100 10,0 19.99,-1.67 28.33,-3.33 -53.33,193.33 -255,310 -450,258.33 -195,-51.67 -311.67,-255 -258.33,-450 25,-95 88.33,-175 173.33,-223.33 21.67,50 80,73.33 130,51.66 36.67,-15 60,-51.66 60,-90 0,-3.33 0,-5 0,-8.33 161.67,3.33 303.33,115 345,271.67 -10,-5 -18.33,-5 -26.67,-5z"/>
    <path class="fil2" d="M228.33 266.67c-55,0 -98.33,45 -98.33,98.33 0,55 45,98.33 98.33,98.33 53.34,0 98.34,-45 98.34,-98.33 0,-53.33 -43.34,-98.33 -98.34,-98.33l0 0zm0 165c-36.66,0 -65,-30 -65,-65 0,-36.67 30,-65 65,-65 36.67,0 65,30 65,65 0,35 -28.33,65 -65,65l0 0z"/>
    <path class="fil2" d="M451.67 560c-33.34,0 -60,26.67 -60,60 0,33.33 26.66,60 60,60 33.33,0 60,-26.67 60,-60 1.66,-31.67 -26.67,-60 -60,-60l0 0zm0 88.33c-15,0 -26.67,-11.66 -26.67,-26.66 0,-15 11.67,-26.67 26.67,-26.67 15,0 26.66,11.67 26.66,26.67l0 0c1.67,15 -11.66,26.66 -26.66,26.66z"/>
    <path class="fil2" d="M521.67 151.67c-33.34,0 -60,26.66 -60,60 0,33.33 26.66,60 60,60 33.33,0 60,-26.67 60,-60 0,-33.34 -26.67,-60 -60,-60l0 0zm0 88.33c-15,0 -26.67,-11.67 -26.67,-26.67 0,-15 11.67,-26.66 26.67,-26.66 15,0 26.66,11.66 26.66,26.66l0 0c0,13.34 -11.66,26.67 -26.66,26.67z"/>
   </g>
   <g>
   </g>
   <g>
   </g>
   <g>
   </g>
   <g>
   </g>
   <g>
   </g>
   <g>
   </g>
   <g>
   </g>
   <g>
   </g>
   <g>
   </g>
   <g>
   </g>
   <g>
   </g>
   <g>
   </g>
   <g>
   </g>
   <g>
   </g>
   <g>
   </g>
  </g>
 </g>
</svg>
