<?xml version="1.0" encoding="UTF-8"?>
<!DOCTYPE svg PUBLIC "-//W3C//DTD SVG 1.1//EN" "http://www.w3.org/Graphics/SVG/1.1/DTD/svg11.dtd">
<!-- Creator: CorelDRAW 2019 (64 Bit) -->
<svg xmlns="http://www.w3.org/2000/svg" xml:space="preserve" width="800px" height="800px" version="1.1" style="shape-rendering:geometricPrecision; text-rendering:geometricPrecision; image-rendering:optimizeQuality; fill-rule:evenodd; clip-rule:evenodd"
viewBox="0 0 800 800"
 xmlns:xlink="http://www.w3.org/1999/xlink"
 enable-background="new 0 0 514.688 514.688">
 <defs>
  <style type="text/css">
   <![CDATA[
    .fil7 {fill:black}
    .fil3 {fill:#0EA8B2}
    .fil2 {fill:#71E4BF}
    .fil1 {fill:#923EC3}
    .fil0 {fill:#B071D2}
    .fil4 {fill:#D8FC7E}
    .fil5 {fill:#FCAD42}
    .fil6 {fill:white}
   ]]>
  </style>
 </defs>
 <g id="Camada_x0020_1">
  <metadata id="CorelCorpID_0Corel-Layer"/>
  <g id="_2781075584192">
   <g>
    <g>
     <path class="fil0" d="M610.39 581.14l-28.61 -47.91c41.67,-77.5 29.81,-176.2 -35.61,-241.62 -18.4,-18.4 -39.43,-32.55 -61.87,-42.47l-16.2 -64.79c0,-15.76 -25.4,-28.54 -56.73,-28.54 -31.34,0 -56.74,12.78 -56.74,28.54l-14.27 56.6c-30.61,9.54 -59.42,26.42 -83.66,50.66 -59.36,59.36 -74.63,146.1 -45.83,219.56l-6.37 9.57c-1.31,1.97 -2.81,3.8 -4.3,5.64 -11.25,13.81 -4.64,41.11 15.75,62.8 20.38,21.69 47.22,29.97 61.71,19.6 1.84,-1.31 3.69,-2.6 5.69,-3.67l1.27 -0.67c56.08,39.07 127.35,46.85 189.48,23.31l56.06 33.63c11.14,11.15 38.14,2.22 60.29,-19.94 22.16,-22.15 31.09,-49.15 19.95,-60.3l-0.01 0z"/>
     <path class="fil1" d="M433.56 169.51l24.93 101.35 13.55 5.99c19.65,8.7 37.37,20.87 52.69,36.19 27.04,27.04 44.12,61.29 49.39,99.04 5.1,36.56 -1.66,74.49 -19.04,106.8l-8.14 15.14 56.28 92.1c12.37,-18.09 15.83,-36.32 7.17,-44.98l-28.61 -47.91c41.67,-77.5 29.81,-176.2 -35.61,-241.62 -18.4,-18.4 -39.43,-32.55 -61.87,-42.47l-16.2 -64.79c0,-12.95 -17.14,-23.87 -40.62,-27.36 2.82,3.62 4.93,7.86 6.08,12.52l0 0z"/>
     <ellipse class="fil2" cx="411.37" cy="184.35" rx="56.74" ry="28.54"/>
     <path class="fil3" d="M411.37 155.81c-5.25,0 -10.33,0.37 -15.16,1.04 23.98,3.34 41.59,14.38 41.59,27.5 0,13.12 -17.61,24.16 -41.59,27.5 4.83,0.67 9.91,1.04 15.16,1.04 31.33,0 56.73,-12.78 56.73,-28.54 0,-15.76 -25.4,-28.54 -56.73,-28.54l0 0z"/>
     <ellipse class="fil2" transform="matrix(0.344664 -0.344664 0.344664 0.344664 570.152 621.26)" rx="116.38" ry="58.53"/>
     <path class="fil3" d="M610.39 581.14c-9.5,-9.5 -30.52,-4.4 -50.24,11.04 8.33,-1.61 15.43,-0.39 19.94,4.12 11.14,11.14 2.21,38.14 -19.95,60.3 -3.26,3.26 -6.64,6.23 -10.05,8.9 12.26,-2.36 27.17,-10.86 40.36,-24.06 22.16,-22.15 31.09,-49.15 19.94,-60.3l0 0z"/>
     <ellipse class="fil2" transform="matrix(0.355389 -0.333939 0.333939 0.355389 241.127 565.819)" rx="70.48" ry="116.38"/>
     <path class="fil3" d="M270.99 547.87c2.53,11.76 0.62,22.3 -6.3,28.81 -13.83,13 -42.44,5.02 -63.9,-17.81 -1.76,-1.88 -3.42,-3.8 -4.97,-5.75 2.51,11.72 9.41,24.67 20.13,36.06 21.46,22.84 50.06,30.81 63.89,17.81 12.69,-11.93 8.51,-37.37 -8.85,-59.12l0 0z"/>
     <path class="fil4" d="M736.43 306.9c-19.57,-8.75 -46.94,-16.48 -81.33,-22.98 -39.57,-7.47 -86.58,-13 -137.8,-16.34 10.16,6.99 19.83,15 28.87,24.03 9.11,9.11 17.15,18.89 24.19,29.14 20.86,2.21 40.58,4.82 58.79,7.83 33.39,5.52 56.13,11.34 71.51,16.46 9.67,3.22 9.67,16.9 0,20.12 -15.38,5.13 -38.12,10.95 -71.51,16.47 -63.26,10.44 -144.63,16.2 -229.15,16.2 -84.51,0 -165.89,-5.76 -229.15,-16.2 -33.39,-5.52 -56.13,-11.34 -71.5,-16.47 -9.67,-3.22 -9.67,-16.9 0,-20.12 15.37,-5.12 38.11,-10.94 71.5,-16.46 19.1,-3.15 39.86,-5.88 61.85,-8.14 6.98,-10.15 14.98,-19.81 24,-28.83 9.12,-9.12 18.88,-17.2 29.15,-24.23 -52.44,3.31 -100.57,8.91 -140.94,16.54 -34.4,6.51 -61.77,14.23 -81.34,22.98 -28,12.51 -42.2,28.73 -42.2,48.21 0,19.47 14.2,35.69 42.2,48.2 19.58,8.75 46.94,16.48 81.34,22.98 68.37,12.92 158.97,20.04 255.09,20.04 96.13,0 186.72,-7.12 255.1,-20.04 34.4,-6.5 61.76,-14.23 81.33,-22.98 28.01,-12.51 42.21,-28.73 42.21,-48.2 0,-19.48 -14.2,-35.7 -42.21,-48.21l0 0z"/>
     <path class="fil2" d="M736.43 306.9c-3.48,-1.55 -7.21,-3.07 -11.18,-4.56 15.32,10.64 23.08,23.24 23.08,37.61 0,19.48 -14.2,35.7 -42.21,48.21 -19.57,8.74 -46.94,16.47 -81.33,22.97 -68.38,12.93 -158.97,20.04 -255.1,20.04 -96.12,0 -186.72,-7.11 -255.09,-20.04 -28.29,-5.34 -51.81,-11.52 -70.16,-18.41 5.43,3.78 11.8,7.32 19.13,10.59 19.58,8.75 46.94,16.48 81.34,22.98 68.37,12.92 158.97,20.04 255.09,20.04 96.13,0 186.72,-7.12 255.1,-20.04 34.4,-6.5 61.76,-14.23 81.33,-22.98 28.01,-12.51 42.21,-28.73 42.21,-48.2 0,-19.48 -14.2,-35.7 -42.21,-48.21l0 0z"/>
     <g>
      <circle class="fil5" cx="138.82" cy="184.35" r="34.05"/>
      <circle class="fil5" cx="718.26" cy="520.68" r="34.05"/>
     </g>
    </g>
    <g>
     <g>
      <path class="fil6" d="M278.9 359.11l-19.22 -12.14c3.65,-5.79 7.71,-11.41 12.06,-16.72l17.58 14.4c-3.75,4.59 -7.26,9.46 -10.42,14.46zm24.93 -29.77l-15.35 -16.77c6.01,-5.5 12.44,-10.59 19.1,-15.11l12.77 18.81c-5.76,3.91 -11.32,8.3 -16.52,13.07zm34.74 -23.54l-9.83 -20.49c7.25,-3.49 14.88,-6.48 22.67,-8.91l6.76 21.7c-6.74,2.1 -13.33,4.69 -19.6,7.7l0 0z"/>
     </g>
     <g>
      <path class="fil7" d="M741.07 296.52c-20.38,-9.1 -48.6,-17.1 -83.86,-23.77 -39.13,-7.39 -84.9,-12.87 -136.07,-16.3 -8.65,-5.76 -17.7,-10.9 -27.14,-15.37l-14.58 -58.32c-1.33,-21.95 -30.14,-38.31 -68.05,-38.31 -37.91,0 -66.72,16.35 -68.06,38.3l-12.44 49.36c-17.17,5.93 -33.58,14.07 -48.75,24.12 -52.44,3.41 -99.31,8.96 -139.32,16.53 -12.56,2.37 -24.36,4.94 -35.08,7.64l5.55 22.04c10.28,-2.58 21.63,-5.06 33.75,-7.35 30.63,-5.79 65.47,-10.37 103.89,-13.7 -0.75,0.73 -1.51,1.44 -2.25,2.18 -8.13,8.13 -15.55,16.87 -22.24,26.1 -20.47,2.2 -39.78,4.78 -57.42,7.7 -29.66,4.9 -54.31,10.58 -73.25,16.89 -9.12,3.04 -15.02,11.22 -15.02,20.85 0,9.62 5.9,17.8 15.02,20.84 18.94,6.31 43.58,11.99 73.25,16.89 63.85,10.55 145.89,16.35 231,16.35 85.12,0 167.15,-5.8 231,-16.35 29.67,-4.9 54.32,-10.58 73.25,-16.89 9.13,-3.04 15.03,-11.22 15.03,-20.85 0,-9.62 -5.9,-17.8 -15.03,-20.84 -18.94,-6.31 -43.58,-11.99 -73.25,-16.89 -16.75,-2.77 -35.01,-5.24 -54.32,-7.36 -6.75,-9.36 -14.25,-18.21 -22.48,-26.44 -0.64,-0.64 -1.29,-1.27 -1.94,-1.9 37.2,3.3 70.97,7.8 100.73,13.42 33.52,6.34 60.04,13.8 78.8,22.19 23.55,10.51 35.48,23.24 35.48,37.83 0,14.58 -11.93,27.31 -35.48,37.82 -18.76,8.39 -45.27,15.85 -78.8,22.19 -67.7,12.79 -157.55,19.84 -252.99,19.84 -95.44,0 -185.28,-7.05 -252.98,-19.84 -33.53,-6.34 -60.05,-13.8 -78.81,-22.19 -23.54,-10.51 -35.48,-23.24 -35.48,-37.83 0,-14.58 11.94,-27.31 35.48,-37.83 6.69,-2.99 14.51,-5.91 23.22,-8.67l-6.87 -21.67c-9.53,3.02 -18.15,6.25 -25.63,9.59 -32.47,14.51 -48.93,34.22 -48.93,58.58 0,24.37 16.46,44.08 48.93,58.59 20.38,9.1 48.6,17.1 83.87,23.76 13.44,2.54 27.73,4.86 42.74,6.95 0.81,22.26 5.02,44.06 12.54,65 -3.54,5.21 -6.12,8.99 -6.83,9.96 -14.85,18.5 -7.83,51.81 16.41,77.6 16.64,17.7 37.31,27.53 54.91,27.53 7.99,0 15.35,-2.03 21.41,-6.26 0.11,-0.07 0.26,-0.16 0.44,-0.26 55.92,36.11 125.43,44.37 188.48,22.31l50.38 30.23c5.33,4.72 12.28,6.99 20.16,6.99 16.45,0 36.92,-9.9 55.05,-28.02 26.81,-26.81 35.61,-58.74 21.04,-75.21l-24.75 -41.43c4.03,-8.07 7.56,-16.44 10.54,-24.94l-21.45 -7.51c-3.31,9.43 -7.38,18.67 -12.11,27.46l-3.05 5.68 19.35 32.39c-2.36,0.47 -4.77,1.09 -7.25,1.91 -13.04,4.31 -26.8,13.27 -38.75,25.22 -14.92,14.91 -24.25,31.42 -27.09,45.96l-32.29 -19.37c-0.67,-6.33 9.61,-29.6 41.3,-56.21l-14.61 -17.41c-17.26,14.49 -31.54,30.67 -40.22,45.56 -7.18,12.32 -9.45,21.79 -9.14,29.02 -51.02,16.2 -106.23,10.55 -152.64,-15.35 10.98,-6.03 23.71,-12.99 33.48,-18.32l1.28 -0.7 1.06 -1c10.67,-10.03 14.43,-25.51 10.58,-43.6 -3.42,-16.04 -12.63,-32.67 -25.93,-46.82l-16.56 15.57c10.34,11 17.72,24.12 20.25,35.99 1.97,9.22 0.84,16.93 -3.06,21.42 -12.62,6.88 -22.41,12.24 -30.05,16.44 -1.06,-16.01 -9.35,-34.19 -24.12,-49.9 -14.48,-15.41 -31.71,-24.74 -47.37,-27.03 4.08,-6.04 8.82,-13.09 14.26,-21.19l-18.87 -12.68c-2.4,3.57 -5.12,7.63 -7.95,11.82 -3.23,-12.39 -5.22,-25.06 -5.94,-37.92 57.12,6.74 122.97,10.36 191.57,10.36 69.75,0 136.65,-3.74 194.43,-10.7 -0.56,10.22 -1.92,20.4 -4.07,30.38l22.21 4.8c2.72,-12.53 4.29,-25.33 4.74,-38.18 13.97,-1.98 27.31,-4.16 39.89,-6.54 35.27,-6.66 63.49,-14.66 83.87,-23.76 32.47,-14.51 48.93,-34.22 48.93,-58.59 0,-24.36 -16.46,-44.07 -48.93,-58.58l0 0zm-329.7 -129.34c28.14,0 45.37,11.12 45.37,17.17 0,6.05 -17.22,17.17 -45.37,17.17 -28.15,0 -45.37,-11.12 -45.37,-17.17 0,-6.05 17.22,-17.17 45.37,-17.17zm-306.23 187.93c17.53,-5.65 40.24,-10.8 67.57,-15.31 12.01,-1.99 24.82,-3.81 38.27,-5.47 -6.73,12.54 -12.2,25.74 -16.34,39.41 -7.52,-1.05 -14.85,-2.16 -21.93,-3.33 -27.32,-4.51 -50.03,-9.65 -67.57,-15.3zm522.16 -15.31c27.31,4.51 50.02,9.65 67.56,15.31 -17.52,5.64 -40.23,10.79 -67.56,15.3 -6.22,1.03 -12.63,2.01 -19.2,2.95 -4.07,-13.4 -9.44,-26.34 -16.01,-38.65 12.33,1.55 24.11,3.25 35.21,5.09l0 0zm-42.06 36.54c-54.9,6.58 -119.08,10.12 -185.24,10.12 -65.06,0 -128.19,-3.42 -182.48,-9.79 9.37,-28.91 25.53,-55.34 47.21,-77.02 22.07,-22.07 49.39,-38.62 79.02,-47.85l6.08 -1.89 9.84 -39.04c12.29,8.3 30.58,13.38 51.7,13.38 21.1,0 39.36,-5.07 51.66,-13.35l9.88 39.53c-3.84,5.32 -26.65,16.35 -67.7,16.35l0 22.73c34.73,0 71.54,-7.86 85.3,-24.78 17.51,9.09 33.5,20.79 47.62,34.92 21.6,21.6 37.73,47.91 47.11,76.69l0 0zm-27.1 232.78c9.35,-9.35 20.21,-16.53 29.81,-19.7 7.6,-2.51 12.72,-1.93 14.41,-0.24 1.69,1.7 2.28,6.81 -0.24,14.42 -3.17,9.59 -10.35,20.46 -19.7,29.81 -19.9,19.89 -39.94,24.21 -44.22,19.94 -4.28,-4.29 0.04,-24.33 19.94,-44.23l0 0zm-348.23 -76.53c9.59,-9.01 33.16,1.71 47.83,17.31 14.67,15.61 23.91,39.79 14.32,48.81l0.11 0.12c-0.79,0.47 -0.98,0.61 -1.13,0.71 -8.59,6.15 -29.45,0.33 -46.81,-18.14 -17.36,-18.47 -21.88,-39.65 -15.21,-47.85 0.13,-0.17 0.41,-0.54 0.78,-1.07l0.11 0.11z"/>
      <polygon class="fil7" points="418,513.29 440.73,513.29 440.73,536.03 418,536.03 "/>
      <polygon class="fil7" points="490.84,320.83 513.57,320.83 513.57,343.56 490.84,343.56 "/>
      <path class="fil7" d="M138.82 229.77c25.04,0 45.41,-20.38 45.41,-45.42 0,-25.04 -20.37,-45.42 -45.41,-45.42 -25.05,0 -45.42,20.38 -45.42,45.42 0,25.04 20.37,45.42 45.42,45.42zm0 -68.11c12.51,0 22.68,10.18 22.68,22.69 0,12.51 -10.17,22.68 -22.68,22.68 -12.51,0 -22.69,-10.17 -22.69,-22.68 0,-12.51 10.18,-22.69 22.69,-22.69z"/>
      <path class="fil7" d="M718.26 475.26c-25.05,0 -45.42,20.37 -45.42,45.42 0,25.04 20.37,45.42 45.42,45.42 25.04,0 45.41,-20.38 45.41,-45.42 0,-25.05 -20.37,-45.42 -45.41,-45.42zm0 68.1c-12.51,0 -22.69,-10.18 -22.69,-22.68 0,-12.51 10.18,-22.69 22.69,-22.69 12.5,0 22.68,10.18 22.68,22.69 0,12.5 -10.18,22.68 -22.68,22.68z"/>
      <polygon class="fil7" points="600.62,165.48 623.35,165.48 623.35,138.96 650.06,138.96 650.06,116.22 623.35,116.22 623.35,89.7 600.62,89.7 600.62,116.22 574.28,116.22 574.28,138.96 600.62,138.96 "/>
      <polygon class="fil7" points="138.58,634.52 115.85,634.52 115.85,661.04 89.52,661.04 89.52,683.78 115.85,683.78 115.85,710.3 138.58,710.3 138.58,683.78 165.29,683.78 165.29,661.04 138.58,661.04 "/>
     </g>
    </g>
   </g>
  </g>
 </g>
</svg>
