<?xml version="1.0" encoding="UTF-8"?>
<!DOCTYPE svg PUBLIC "-//W3C//DTD SVG 1.1//EN" "http://www.w3.org/Graphics/SVG/1.1/DTD/svg11.dtd">
<!-- Creator: CorelDRAW 2019 (64 Bit) -->
<svg xmlns="http://www.w3.org/2000/svg" xml:space="preserve" width="800px" height="800px" version="1.1" style="shape-rendering:geometricPrecision; text-rendering:geometricPrecision; image-rendering:optimizeQuality; fill-rule:evenodd; clip-rule:evenodd"
viewBox="0 0 800 800"
 xmlns:xlink="http://www.w3.org/1999/xlink">
 <defs>
  <style type="text/css">
   <![CDATA[
    .fil4 {fill:black}
    .fil1 {fill:#8291A8}
    .fil3 {fill:#C478D7}
    .fil2 {fill:#D8A1E4}
    .fil0 {fill:#E5ECEC}
   ]]>
  </style>
 </defs>
 <g id="Camada_x0020_1">
  <metadata id="CorelCorpID_0Corel-Layer"/>
  <g id="_1835677264288">
   <path class="fil0" d="M777.9 488.1c0,95.07 -77.06,172.13 -172.12,172.13 -95.07,0 -172.13,-77.06 -172.13,-172.13 0,-95.06 77.06,-172.12 172.13,-172.12 95.06,0 172.12,77.06 172.12,172.12zm0 0z"/>
   <path class="fil1" d="M728.5 608.77c-31.22,31.76 -74.67,51.45 -122.72,51.45 -48.05,0 -91.5,-19.69 -122.72,-51.45l245.44 0zm0 0z"/>
   <path class="fil1" d="M777.86 485.2l-344.16 0c0.37,-23.67 5.53,-46.17 14.56,-66.59l315.03 0c9.03,20.42 14.2,42.92 14.57,66.59l0 0zm0 0z"/>
   <path class="fil2" d="M463.35 391.41c-18.75,27.56 -29.7,60.85 -29.7,96.69 0,12.25 1.28,24.2 3.72,35.72 10.86,51.47 44.71,94.46 90.3,117.7 2.76,1.4 5.54,2.73 8.37,3.96 -18.26,14.96 -38.49,27.7 -59.68,38.08 -86.36,42.31 -190.17,42.41 -276.63,0.3 -21.7,-10.57 -42.19,-23.65 -60.91,-38.88 -16.19,-13.17 -31.08,-27.91 -44.38,-43.99 -13.42,-16.22 -25.22,-33.77 -35.15,-52.33 -10.29,-19.24 -18.59,-39.56 -24.68,-60.51 -6.71,-23.08 -10.76,-46.94 -12.03,-70.94 -0.3,-5.75 -0.49,-11.52 -0.49,-17.28 0,-174.31 141.32,-315.61 315.63,-315.61 146.7,0 270.04,100.1 305.43,235.73 -12.03,-2.68 -24.53,-4.08 -37.37,-4.08 -59.22,0 -111.45,29.91 -142.43,75.44l0 0zm0 0z"/>
   <g>
    <path class="fil3" d="M194 170.67l0.94 -0.47c18.62,-9.48 40.64,-9.48 59.25,0l0.94 0.47c18.61,9.48 40.63,9.48 59.24,0l0.94 -0.47c18.62,-9.48 40.64,-9.48 59.25,0l0.94 0.47c18.61,9.48 40.64,9.48 59.25,0l0.94 -0.47c18.61,-9.48 40.63,-9.48 59.25,0l0.93 0.47c18.61,9.48 40.33,9.64 58.94,0.17 -56.57,-53.63 -132.99,-86.53 -217.08,-86.53 -81.59,0 -155.95,30.96 -211.98,81.78l9.01 4.58c18.61,9.48 40.63,9.48 59.24,0l0 0zm0 0z"/>
    <path class="fil3" d="M463.35 391.41c-18.75,27.56 -29.7,60.85 -29.7,96.69 0,12.25 1.28,24.2 3.72,35.72 -14.93,-1.83 -29.62,-6.27 -43.38,-13.27l-1.9 -0.95c-37.36,-19.03 -81.54,-19.03 -118.91,0l-1.89 0.95c-37.36,19.03 -81.56,19.03 -118.92,0l-1.88 -0.95c-34.51,-17.59 -74.86,-18.91 -110.24,-4.02 -9.05,-25.39 -14.75,-51.94 -17,-78.8 -0.66,-7.73 -1.02,-15.5 -1.11,-23.27 1.55,0.74 3.08,1.52 4.62,2.3 37.36,19.03 81.56,19.03 118.9,0l1.9 -0.96c37.35,-19.02 81.56,-19.02 118.92,0l1.87 0.96c37.36,19.03 81.57,19.03 118.93,0l1.89 -0.96c23.18,-11.81 48.99,-16.28 74.18,-13.44l0 0zm0 0z"/>
    <path class="fil3" d="M536.04 645.48c-21.52,17.64 -45.71,32.13 -71.12,43.4 -77.1,34.16 -167.59,35.48 -245.69,3.67 -26.01,-10.59 -50.58,-24.6 -72.91,-41.65 -2.64,-2.02 -5.24,-4.09 -7.82,-6.18 17.15,-5.91 35.74,-4.18 51.83,3.99 18.61,9.48 40.63,9.48 59.25,0l0.93 -0.47c18.62,-9.48 40.64,-9.48 59.25,0l0.94 0.47c18.61,9.48 40.63,9.48 59.25,0l0.93 -0.47c18.62,-9.48 40.64,-9.48 59.25,0l0.94 0.47c18.61,9.48 40.64,9.48 59.25,0 6.78,-3.44 13.93,-5.88 21.49,-6.93 3.98,-0.56 8.02,-0.74 12.03,-0.56 1.09,0.06 2.22,0.06 3.29,0.24 0.94,0.16 1.75,0.67 2.62,1.1 2.07,1.02 4.17,2.01 6.29,2.92l0 0zm0 0z"/>
   </g>
   <path class="fil4" d="M274.58 258.97c-3.67,-5.37 -10.43,-8 -16.75,-6.3 -6.12,1.65 -10.66,7.03 -11.31,13.33 -0.66,6.37 2.94,12.67 8.72,15.39 5.64,2.65 12.5,1.61 17.06,-2.67 5.45,-5.1 6.35,-13.54 2.28,-19.75l0 0zm0 0z"/>
   <path class="fil4" d="M685.71 424.47c2.43,5.91 8.57,9.8 14.95,9.47 6.42,-0.34 12.06,-4.74 13.94,-10.89 1.78,-5.86 -0.19,-12.44 -4.94,-16.32 -5.21,-4.26 -12.68,-4.6 -18.28,-0.9 -6.02,4 -8.44,11.96 -5.67,18.64l0 0zm0 0z"/>
   <path class="fil4" d="M571.64 531.39l-67.28 0c-8.48,0 -15.36,6.88 -15.36,15.36 0,8.49 6.88,15.37 15.36,15.37l67.28 -0.01c8.48,0 15.36,-6.87 15.36,-15.36 0,-8.48 -6.88,-15.36 -15.36,-15.36l0 0zm0 0z"/>
   <path class="fil4" d="M782.4 551c7.02,-19.67 10.87,-40.85 10.87,-62.9 0,-51.26 -20.7,-97.78 -54.15,-131.66 -0.72,-0.89 -1.54,-1.7 -2.44,-2.42 -33.81,-33.02 -80.02,-53.41 -130.9,-53.41 -61.13,0 -115.51,29.41 -149.76,74.82 -25.56,-1.31 -50.9,4.06 -73.76,15.71l-1.95 0.98c-32.87,16.74 -72.12,16.74 -105,-0.01l-1.86 -0.94c-41.6,-21.19 -91.27,-21.19 -132.8,-0.03l-1.96 0.98c-31.58,16.09 -69.05,16.71 -101.16,1.84 0.85,-43.3 10.91,-84.37 28.3,-121.35 13.39,4.71 26.13,7.09 38.38,7.09 12.73,0 24.95,-2.55 36.83,-7.64 0.42,-0.18 0.83,-0.38 1.23,-0.6 13.57,-7.3 34.26,-15.07 55.76,-10.58 8.32,1.73 16.45,-3.6 18.18,-11.9 1.73,-8.3 -3.6,-16.44 -11.9,-18.17 -23.99,-5.01 -50.25,-0.43 -75.95,13.25 -14.72,6.15 -30.04,6.5 -47.81,1.05 13.39,-22.14 29.56,-42.43 48.02,-60.38 22.75,11.28 49.74,11.17 72.4,-0.36l0.94 -0.48c14.18,-7.23 31.12,-7.23 45.32,0l0.93 0.48c22.91,11.66 50.28,11.66 73.19,0l0.93 -0.48c14.2,-7.23 31.13,-7.23 45.32,0l0.93 0.48c22.91,11.66 50.27,11.66 73.18,0l0.95 -0.48c14.18,-7.22 31.12,-7.23 45.31,0l0.93 0.48c11.68,5.94 24.19,8.92 36.68,8.92 8.69,0 17.36,-1.48 25.74,-4.36 17.34,17.54 32.5,37.19 45.1,58.51 -6.62,1 -12.92,1.06 -19.15,0.15 -7.5,-1.1 -14.34,-4.07 -22.26,-7.5 -3.93,-1.7 -8,-3.46 -12.38,-5.09 -15.8,-5.84 -32.98,-7.74 -49.69,-5.47 -11.94,1.63 -21.66,5.81 -31.06,9.86 -3.73,1.61 -7.25,3.13 -10.86,4.46 -11.1,4.11 -23.16,5.43 -34.89,3.84 -7.63,-1.03 -14.98,-4.2 -22.76,-7.55 -5.57,-2.4 -11.34,-4.89 -17.76,-6.88 -18.23,-5.67 -37.65,-6.18 -56.15,-1.47 -8.22,2.09 -13.19,10.46 -11.1,18.68 2.1,8.22 10.46,13.19 18.68,11.09 13,-3.31 26.63,-2.96 39.43,1.03 4.88,1.52 9.67,3.59 14.74,5.77 8.91,3.84 19,8.18 30.79,9.78 4.58,0.62 9.2,0.93 13.82,0.93 12.2,0 24.4,-2.16 35.86,-6.41 4.37,-1.61 8.43,-3.36 12.36,-5.06 8.18,-3.52 15.26,-6.57 23.03,-7.62 11.74,-1.6 23.8,-0.27 34.89,3.84 3.6,1.33 7.11,2.85 10.83,4.46 9.1,3.94 18.5,8.02 30.03,9.71 16.5,2.41 33.43,0.36 51.75,-6.29 4.62,-1.69 8.25,-5.58 9.55,-10.34 1.57,-5.7 -0.69,-10.37 -3.29,-15.32 -6.44,-12.24 -13.65,-24.07 -21.56,-35.4 -16.03,-22.95 -34.96,-43.79 -56.19,-62.02 -21.51,-18.48 -45.39,-34.18 -70.9,-46.56 -24.75,-12.02 -50.99,-20.91 -77.95,-26.4 -28.51,-5.81 -57.69,-7.77 -86.73,-6.08 -3.6,0.22 -7.21,0.48 -10.81,0.82 -76.69,7.09 -147.87,40.36 -203.01,95.5 -62.52,62.51 -96.95,145.63 -96.95,234.03 0,29.51 3.95,59.06 11.75,87.51 2.19,7.96 4.47,15.99 7.46,23.7 5.49,15.37 12.11,30.37 19.81,44.77 10.39,19.41 22.79,37.88 36.85,54.88 13.77,16.64 29.3,32.04 46.15,45.79 19.67,16.13 41.39,29.96 64.25,41.09 6.7,3.26 13.53,6.3 20.43,9.12 39.67,16.15 81.99,24.21 124.29,24.21 44.24,0 88.44,-8.84 129.56,-26.43 1.6,-0.68 3.2,-1.36 4.79,-2.06 16.05,-7.17 23.39,-25.57 16.72,-41.9 -4.89,-11.96 -16.36,-19.87 -29.22,-20.16 -7.45,-0.17 -14.89,-2.04 -21.54,-5.43l-0.94 -0.48c-22.91,-11.64 -50.26,-11.64 -73.17,0.01l-0.94 0.48c-14.19,7.21 -31.13,7.21 -45.32,0l-0.94 -0.49c-22.9,-11.64 -50.26,-11.64 -73.17,0.01l-0.94 0.48c-14.18,7.22 -31.12,7.22 -45.32,0 -17.49,-8.9 -36.75,-11.38 -55.11,-7.28 -13.01,-11.18 -25.06,-23.44 -35.91,-36.54 -12.76,-15.43 -24.01,-32.18 -33.43,-49.79 -4.62,-8.62 -8.79,-17.49 -12.54,-26.53 27.67,-7.65 57.29,-4.81 83.23,8.41l1.87 0.94c20.81,10.6 43.63,15.89 66.45,15.89 22.8,0 45.6,-5.28 66.36,-15.86l1.95 -0.98c31.79,-16.2 68.61,-16.9 100.99,-1.93 7.7,3.56 16.83,0.2 20.38,-7.5 3.56,-7.71 0.21,-16.83 -7.5,-20.39 -40.99,-18.94 -87.58,-18.05 -127.76,2.41l-1.95 0.98c-32.87,16.74 -72.11,16.74 -104.99,0l-1.87 -0.95c-33.49,-17.06 -71.86,-20.51 -107.5,-10.06 -5.67,-19 -9.42,-38.58 -11.22,-58.33 37.17,12.7 78.46,10.03 113.83,-7.99l1.95 -0.98c32.87,-16.75 72.12,-16.74 105,0l1.86 0.95c41.6,21.18 91.27,21.18 132.81,0.03l1.95 -0.98c12.86,-6.56 26.68,-10.59 40.84,-12.02 -0.77,1.58 -1.51,3.17 -2.24,4.77 -0.4,0.75 -0.74,1.53 -1.02,2.34 -9.92,22.84 -15.44,48.02 -15.44,74.46 0,50.57 20.14,96.52 52.79,130.27 0.63,0.79 1.34,1.52 2.12,2.17 33.95,33.99 80.86,55.05 132.58,55.05 80.61,0 149.5,-51.14 175.94,-122.67 0.28,-0.62 0.5,-1.26 0.69,-1.92l0 0zm-279.57 -394.01l-0.93 -0.48c-22.91,-11.67 -50.27,-11.66 -73.18,-0.01l-0.94 0.49c-14.19,7.22 -31.13,7.22 -45.32,-0.01l-0.93 -0.47c-22.91,-11.67 -50.27,-11.67 -73.19,0l-0.93 0.48c-14.19,7.21 -31.13,7.22 -45.33,-0.01l-0.92 -0.48c-22.92,-11.66 -50.27,-11.66 -73.19,0l-0.93 0.48c0,0.01 -0.01,0.01 -0.01,0.01 -9.84,5.01 -21.01,6.53 -31.67,4.59 31.43,-24.11 67.74,-42.16 107.17,-52.36 24.73,-6.39 50.26,-9.6 75.8,-9.54 7.03,0.02 14.05,0.28 21.06,0.78 48.85,3.51 96.02,18.83 137.55,44.87 5.71,3.57 11.28,7.33 16.71,11.27 0.18,0.13 0.36,0.25 0.53,0.39 2.4,1.74 4.77,3.52 7.12,5.34 -6.3,-0.56 -12.56,-2.34 -18.47,-5.34l0 0zm-246.29 505.42l0.93 -0.48c14.19,-7.21 31.14,-7.21 45.32,0l0.94 0.48c22.91,11.65 50.27,11.64 73.18,0l0.93 -0.48c14.19,-7.21 31.14,-7.21 45.32,0l0.94 0.48c10.72,5.46 22.75,8.48 34.78,8.75 0.62,0.02 1.21,0.45 1.47,1.08 0.35,0.86 -0.01,1.86 -0.78,2.2l-0.87 0.39c-1.08,0.48 -2.17,0.92 -3.25,1.38 -73.78,31.36 -159.71,31.46 -233.42,0.84 -1.12,-0.47 -2.25,-0.95 -3.37,-1.44 -1.28,-0.55 -2.57,-1.1 -3.85,-1.67 -2.81,-1.27 -5.61,-2.57 -8.38,-3.92 16.89,2.86 34.54,0.32 50.12,-7.61l-0.01 0zm349.24 -17.54c-28.32,0 -54.9,-7.55 -77.86,-20.74l96.7 0c8.48,0 15.36,-6.87 15.36,-15.36 0,-8.48 -6.87,-15.36 -15.36,-15.36l-134.87 0c-25.3,-27.85 -40.74,-64.81 -40.74,-105.31 0,-18.99 3.4,-37.2 9.61,-54.06l179.11 0c8.48,0 15.36,-6.88 15.36,-15.36 0,-8.48 -6.88,-15.36 -15.36,-15.36l-163.76 0c27.93,-43.27 76.58,-71.98 131.81,-71.98 27.3,0 53,7.02 75.38,19.35l-75.38 0c-8.49,0 -15.36,6.88 -15.36,15.36 0,8.48 6.87,15.36 15.36,15.36l114.74 0c22.15,23.8 36.99,54.48 40.95,88.43l-224.1 0c-8.48,0 -15.36,6.88 -15.36,15.36 0,8.48 6.88,15.37 15.36,15.37l224.68 0c-0.84,10.6 -2.74,20.91 -5.59,30.82l-129.39 0c-8.48,0 -15.36,6.88 -15.36,15.36 0,8.49 6.88,15.37 15.36,15.37l116.86 -0.01c-26.47,49.22 -78.46,82.76 -138.15,82.76l0 0zm0 0z"/>
  </g>
 </g>
</svg>
