<?xml version="1.0" encoding="UTF-8"?>
<!DOCTYPE svg PUBLIC "-//W3C//DTD SVG 1.1//EN" "http://www.w3.org/Graphics/SVG/1.1/DTD/svg11.dtd">
<!-- Creator: CorelDRAW 2019 (64 Bit) -->
<svg xmlns="http://www.w3.org/2000/svg" xml:space="preserve" width="800px" height="800px" version="1.1" style="shape-rendering:geometricPrecision; text-rendering:geometricPrecision; image-rendering:optimizeQuality; fill-rule:evenodd; clip-rule:evenodd"
viewBox="0 0 800 800"
 xmlns:xlink="http://www.w3.org/1999/xlink">
 <defs>
  <style type="text/css">
   <![CDATA[
    .str0 {stroke:white;stroke-width:2.36;stroke-miterlimit:22.9256}
    .fil0 {fill:white}
    .fil5 {fill:#4D007E}
    .fil1 {fill:#CB0E00}
    .fil2 {fill:#DB0400}
    .fil3 {fill:#ED4D4D}
    .fil4 {fill:#EFBF00}
   ]]>
  </style>
 </defs>
 <g id="Camada_x0020_1">
  <metadata id="CorelCorpID_0Corel-Layer"/>
  <circle class="fil0 str0" cx="400" cy="400" r="400"/>
  <g id="_2781177889808">
   <circle class="fil1" cx="400" cy="400" r="386.67"/>
   <circle class="fil2" cx="333.33" cy="333.33" r="240"/>
   <circle class="fil3" cx="333.33" cy="333.33" r="146.67"/>
   <g>
    <path class="fil4" d="M253.33 413.33c-29.41,0 -53.33,-23.92 -53.33,-53.33 0,-29.41 23.92,-53.33 53.33,-53.33 29.42,0 53.34,23.92 53.34,53.33 0,29.41 -23.92,53.33 -53.34,53.33z"/>
    <path class="fil4" d="M520 493.33c-29.41,0 -53.33,-23.92 -53.33,-53.33 0,-29.41 23.92,-53.33 53.33,-53.33 29.41,0 53.33,23.92 53.33,53.33 0,29.41 -23.92,53.33 -53.33,53.33z"/>
    <path class="fil4" d="M480 720c-29.41,0 -53.33,-23.92 -53.33,-53.33 0,-29.42 23.92,-53.34 53.33,-53.34 29.41,0 53.33,23.92 53.33,53.34 0,29.41 -23.92,53.33 -53.33,53.33z"/>
    <path class="fil4" d="M306.67 186.67c-29.42,0 -53.34,-23.92 -53.34,-53.34 0,-29.41 23.92,-53.33 53.34,-53.33 29.41,0 53.33,23.92 53.33,53.33 0,29.41 -23.92,53.34 -53.33,53.34z"/>
   </g>
   <g>
    <path class="fil5" d="M14.21 387.32c-5.27,0 -10.27,-3.16 -12.37,-8.36 -2.75,-6.84 0.56,-14.6 7.4,-17.35 29.36,-11.8 59.44,-32.69 77.42,-45.17l4.06 -2.83c6.07,-4.17 14.36,-2.68 18.56,3.39 4.19,6.07 2.67,14.36 -3.38,18.55l-4.03 2.8c-18.89,13.12 -50.52,35.09 -82.68,48.01 -1.64,0.64 -3.32,0.96 -4.98,0.96z"/>
    <path class="fil5" d="M164.29 290.77c-3.5,0 -7,-1.37 -9.62,-4.1 -5.1,-5.31 -4.92,-13.75 0.4,-18.86 27.74,-26.6 79.38,-76.12 113.27,-114.95 4.84,-5.55 13.26,-6.13 18.81,-1.28 5.56,4.84 6.12,13.26 1.28,18.81 -34.67,39.73 -86.87,89.79 -114.91,116.68 -2.57,2.46 -5.91,3.7 -9.23,3.7z"/>
    <path class="fil5" d="M325.05 111.23c-2.13,0 -4.3,-0.52 -6.32,-1.6 -6.48,-3.5 -8.89,-11.59 -5.4,-18.07 12.04,-22.32 21.44,-50.53 25.79,-77.42 1.17,-7.26 7.97,-12.24 15.29,-11.04 7.27,1.18 12.22,8.03 11.04,15.3 -4.8,29.69 -15.24,60.97 -28.65,85.82 -2.4,4.47 -7,7.01 -11.75,7.01z"/>
    <path class="fil5" d="M27 515.49c-6.35,0 -11.96,-4.53 -13.11,-11 -1.29,-7.25 3.54,-14.17 10.79,-15.46 27.29,-4.87 53.71,-18 67.01,-25.4 6.46,-3.59 14.56,-1.26 18.14,5.17 3.58,6.44 1.25,14.56 -5.18,18.13 -14.77,8.22 -44.18,22.8 -75.29,28.34 -0.8,0.16 -1.59,0.22 -2.36,0.22z"/>
    <path class="fil5" d="M164.17 441.48c-4.25,0 -8.42,-2.03 -11.01,-5.8 -4.16,-6.07 -2.61,-14.37 3.45,-18.53 17.3,-11.87 37.43,-27.12 56.68,-42.98 5.68,-4.68 14.08,-3.88 18.76,1.83 4.68,5.68 3.87,14.09 -1.82,18.76 -19.83,16.33 -40.63,32.08 -58.55,44.37 -2.28,1.6 -4.91,2.35 -7.51,2.35z"/>
    <path class="fil5" d="M281.32 344.76c-3.41,0 -6.83,-1.31 -9.43,-3.89 -5.21,-5.22 -5.21,-13.64 0,-18.87 42.1,-42.12 78.16,-88.4 107.88,-128.12 4.43,-5.9 12.78,-7.11 18.67,-2.7 5.89,4.42 7.09,12.78 2.7,18.67 -30.3,40.48 -67.11,87.7 -110.38,131 -2.61,2.62 -6.04,3.91 -9.44,3.91z"/>
    <path class="fil5" d="M446.99 139.79c-2.16,0 -4.36,-0.54 -6.39,-1.64 -6.45,-3.54 -8.84,-11.65 -5.29,-18.1 22.12,-40.45 33.78,-73.48 34.65,-98.17 0.27,-7.35 6.33,-13.19 13.8,-12.85 7.36,0.26 13.11,6.44 12.85,13.8 -1.04,29.28 -13.44,65.26 -37.9,110.01 -2.43,4.44 -7,6.95 -11.72,6.95z"/>
    <path class="fil5" d="M76.31 617.63c-6.19,0 -11.74,-4.34 -13.04,-10.63 -1.5,-7.21 3.13,-14.27 10.34,-15.76 18.71,-3.88 40.14,-11.88 65.51,-24.45 6.62,-3.27 14.6,-0.58 17.87,6.02 3.26,6.6 0.57,14.6 -6.03,17.87 -27.44,13.6 -50.97,22.32 -71.93,26.67 -0.92,0.18 -1.82,0.28 -2.72,0.28z"/>
    <path class="fil5" d="M211.05 544.93c-4.3,0 -8.53,-2.08 -11.1,-5.92 -4.1,-6.12 -2.44,-14.4 3.68,-18.49 60.69,-40.56 138.86,-96.27 205.05,-167.68 5.01,-5.42 13.44,-5.71 18.84,-0.72 5.4,5 5.72,13.44 0.72,18.84 -68.08,73.45 -147.88,130.36 -209.79,171.73 -2.29,1.51 -4.85,2.24 -7.4,2.24z"/>
    <path class="fil5" d="M484.44 309.23c-3.03,0 -6.08,-1.03 -8.57,-3.14 -5.64,-4.73 -6.36,-13.14 -1.63,-18.78 20.23,-24.07 30.72,-42.78 42.85,-64.47 6.18,-11.01 13.16,-23.5 22.03,-37.72 3.91,-6.24 12.13,-8.13 18.37,-4.25 6.26,3.89 8.15,12.12 4.26,18.37 -8.55,13.68 -15.07,25.35 -21.39,36.64 -12.8,22.86 -23.85,42.6 -45.72,68.6 -2.63,3.13 -6.39,4.75 -10.2,4.75z"/>
    <path class="fil5" d="M597.59 139.52c-1.87,0 -3.76,-0.39 -5.56,-1.21 -6.7,-3.07 -9.63,-10.99 -6.55,-17.68 4.25,-9.26 5.72,-18.7 7.43,-29.62 0.68,-4.34 1.37,-8.77 2.24,-13.3 1.4,-7.23 8.38,-11.94 15.62,-10.56 7.23,1.4 11.95,8.4 10.56,15.62 -0.81,4.19 -1.45,8.3 -2.08,12.32 -1.84,11.82 -3.73,24.03 -9.53,36.66 -2.25,4.89 -7.09,7.77 -12.13,7.77z"/>
    <path class="fil5" d="M135.75 696.16c-7.06,0 -12.95,-5.55 -13.31,-12.68 -0.36,-7.36 5.31,-13.61 12.67,-13.97 23.34,-1.15 48.45,-10 70.6,-17.82l5.61 12.16 3.25 12.99c-22.67,8 -50.91,17.96 -78.14,19.3 -0.24,0.01 -0.47,0.02 -0.68,0.02z"/>
    <path class="fil5" d="M447.01 535.77c-3.46,0 -6.94,-1.34 -9.56,-4.04 -5.13,-5.28 -5.01,-13.72 0.27,-18.85 15.63,-15.21 33.99,-33.8 49.08,-49.75 5.07,-5.34 13.51,-5.56 18.85,-0.52 5.35,5.06 5.58,13.51 0.52,18.86 -15.33,16.2 -33.97,35.09 -49.85,50.53 -2.6,2.51 -5.96,3.77 -9.31,3.77z"/>
    <path class="fil5" d="M548.56 425.35c-2.99,0 -5.99,-1 -8.47,-3.04 -5.68,-4.7 -6.49,-13.08 -1.81,-18.78l5.24 -6.34c11.68,-14.15 22.71,-27.5 34.21,-42.99 4.39,-5.89 12.73,-7.15 18.66,-2.75 5.9,4.4 7.13,12.75 2.74,18.66 -11.92,16.04 -23.68,30.28 -35.06,44.05l-5.22 6.32c-2.64,3.21 -6.45,4.87 -10.29,4.87z"/>
    <path class="fil5" d="M654.43 271.79c-1.56,0 -3.15,-0.28 -4.71,-0.86 -6.89,-2.6 -10.37,-10.28 -7.77,-17.18 14.61,-38.79 20.94,-84.54 17.41,-125.51 -0.64,-7.33 4.8,-13.8 12.13,-14.43 7.39,-0.82 13.8,4.8 14.43,12.14 3.88,44.8 -3.05,94.8 -19.02,137.2 -2.01,5.34 -7.09,8.64 -12.47,8.64z"/>
    <path class="fil5" d="M286.72 639.48c-6.23,0 -11.8,-4.39 -13.05,-10.72 -1.44,-7.22 3.22,-14.23 10.42,-15.68l0 0c0.44,-0.09 43.87,-9.29 78.07,-43.51 5.22,-5.21 13.64,-5.21 18.85,0 5.22,5.22 5.22,13.64 0,18.86 -40.1,40.1 -89.58,50.37 -91.66,50.78 -0.88,0.19 -1.76,0.27 -2.63,0.27z"/>
    <path class="fil5" d="M298.88 786.61c-5.12,0 -10,-2.96 -12.2,-7.94 -2.99,-6.73 0.07,-14.62 6.8,-17.59 4.81,-2.13 9.83,-4.28 14.89,-6.45 13.24,-5.68 26.92,-11.56 38.26,-17.56 6.52,-3.47 14.57,-0.97 18.02,5.55 3.44,6.5 0.96,14.57 -5.54,18.02 -12.3,6.51 -26.48,12.6 -40.22,18.5 -4.98,2.14 -9.9,4.25 -14.62,6.34 -1.76,0.76 -3.59,1.13 -5.39,1.13z"/>
    <path class="fil5" d="M409.44 724.45c-4.45,0 -8.81,-2.22 -11.33,-6.29 -3.9,-6.25 -1.98,-14.47 4.28,-18.36l7.36 -4.57c10.37,-6.43 17.42,-10.82 29.08,-18.46 6.16,-4.04 14.42,-2.32 18.46,3.84 4.04,6.16 2.33,14.43 -3.84,18.47 -11.89,7.79 -19.08,12.24 -29.65,18.82l-7.33 4.54c-2.19,1.37 -4.63,2.01 -7.03,2.01z"/>
    <path class="fil5" d="M511.28 655.09c-3.93,0 -7.83,-1.73 -10.47,-5.05 -4.57,-5.77 -3.6,-14.16 2.19,-18.73 9.15,-7.23 20.76,-16.55 29.53,-24.4 5.5,-4.92 13.92,-4.44 18.83,1.04 4.9,5.49 4.44,13.92 -1.04,18.83 -9.31,8.33 -21.34,17.97 -30.78,25.44 -2.45,1.94 -5.37,2.87 -8.26,2.87z"/>
    <path class="fil5" d="M616.84 554.75c-3.2,0 -6.41,-1.15 -8.96,-3.47 -5.45,-4.96 -5.84,-13.39 -0.89,-18.84 32.09,-35.28 49.49,-55.96 74.21,-92.75 4.11,-6.11 12.4,-7.73 18.51,-3.62 6.1,4.1 7.74,12.38 3.62,18.5 -25.65,38.19 -43.61,59.52 -76.62,95.82 -2.63,2.89 -6.24,4.36 -9.87,4.36z"/>
    <path class="fil5" d="M729.97 403.91c-2.29,0 -4.64,-0.59 -6.76,-1.86 -6.34,-3.73 -8.45,-11.92 -4.72,-18.25 11.95,-20.25 22.88,-45.29 33.47,-69.51 2.91,-6.66 5.8,-13.28 8.69,-19.74 3,-6.74 10.9,-9.74 17.62,-6.74 6.72,3 9.73,10.88 6.73,17.62 -2.85,6.4 -5.72,12.95 -8.6,19.55 -10.91,24.94 -22.17,50.73 -34.93,72.37 -2.5,4.21 -6.94,6.56 -11.5,6.56z"/>
    <path class="fil5" d="M253.33 413.33c-29.41,0 -53.33,-23.92 -53.33,-53.33 0,-29.41 23.92,-53.33 53.33,-53.33 29.42,0 53.34,23.92 53.34,53.33 0,29.41 -23.92,53.33 -53.34,53.33zm0 -80c-14.7,0 -26.66,11.96 -26.66,26.67 0,14.71 11.96,26.67 26.66,26.67 14.71,0 26.67,-11.96 26.67,-26.67 0,-14.71 -11.96,-26.67 -26.67,-26.67z"/>
    <path class="fil5" d="M520 493.33c-29.41,0 -53.33,-23.92 -53.33,-53.33 0,-29.41 23.92,-53.33 53.33,-53.33 29.41,0 53.33,23.92 53.33,53.33 0,29.41 -23.92,53.33 -53.33,53.33zm0 -80c-14.71,0 -26.67,11.96 -26.67,26.67 0,14.71 11.96,26.67 26.67,26.67 14.71,0 26.67,-11.96 26.67,-26.67 0,-14.71 -11.96,-26.67 -26.67,-26.67z"/>
    <path class="fil5" d="M480 720c-29.41,0 -53.33,-23.92 -53.33,-53.33 0,-29.42 23.92,-53.34 53.33,-53.34 29.41,0 53.33,23.92 53.33,53.34 0,29.41 -23.92,53.33 -53.33,53.33zm0 -80c-14.71,0 -26.67,11.96 -26.67,26.67 0,14.7 11.96,26.66 26.67,26.66 14.71,0 26.67,-11.96 26.67,-26.66 0,-14.71 -11.96,-26.67 -26.67,-26.67z"/>
    <path class="fil5" d="M306.67 186.67c-29.42,0 -53.34,-23.92 -53.34,-53.34 0,-29.41 23.92,-53.33 53.34,-53.33 29.41,0 53.33,23.92 53.33,53.33 0,29.41 -23.92,53.34 -53.33,53.34zm0 -80c-14.71,0 -26.67,11.96 -26.67,26.66 0,14.71 11.96,26.67 26.67,26.67 14.7,0 26.66,-11.96 26.66,-26.67 0,-14.7 -11.96,-26.66 -26.66,-26.66z"/>
    <path class="fil5" d="M400 800c-220.56,0 -400,-179.44 -400,-400 0,-220.56 179.44,-400 400,-400 220.56,0 400,179.44 400,400 0,220.56 -179.44,400 -400,400zm0 -773.33c-205.85,0 -373.33,167.48 -373.33,373.33 0,205.85 167.48,373.33 373.33,373.33 205.85,0 373.33,-167.48 373.33,-373.33 0,-205.85 -167.48,-373.33 -373.33,-373.33z"/>
   </g>
   <g>
   </g>
   <g>
   </g>
   <g>
   </g>
   <g>
   </g>
   <g>
   </g>
   <g>
   </g>
   <g>
   </g>
   <g>
   </g>
   <g>
   </g>
   <g>
   </g>
   <g>
   </g>
   <g>
   </g>
   <g>
   </g>
   <g>
   </g>
   <g>
   </g>
  </g>
 </g>
</svg>
