<svg height="456pt" viewBox="-40 0 456 456" width="456pt" xmlns="http://www.w3.org/2000/svg"><path d="m328 456v-120c.007812-39.921875-29.417969-73.738281-68.960938-79.246094h-150.078124c-39.542969 5.507813-68.96875 39.324219-68.960938 79.246094v120zm0 0" fill="#0093ba"/><path d="m144 276.441406h80v179.558594h-80zm0 0" fill="#ccdce5"/><path d="m144 247.199219h80v72c-10.523438 10.761719-24.949219 16.820312-40 16.800781-15.050781.019531-29.476562-6.039062-40-16.800781zm0 0" fill="#f5be9a"/><path d="m144 292.320312c8.074219 2.40625 16.453125 3.644532 24.878906 3.679688h30.242188c8.425781-.035156 16.804687-1.273438 24.878906-3.679688v-45.121093h-80zm0 0" fill="#ec917f"/><path d="m96 176h-24c-13.253906 0-24-10.746094-24-24s10.746094-24 24-24h24zm0 0" fill="#ec917f"/><path d="m199.121094 280h-30.242188c-25.945312 0-50.597656-11.335938-67.480468-31.039062-13.808594-16.109376-21.398438-36.625-21.398438-57.839844v-87.121094c0-57.4375 46.5625-104 104-104s104 46.5625 104 104v87.121094c0 21.214844-7.589844 41.730468-21.398438 57.839844-16.882812 19.703124-41.535156 31.039062-67.480468 31.039062zm0 0" fill="#f5be9a"/><path d="m16 360h-16v-24c.0859375-39.214844 19.269531-75.929688 51.40625-98.398438l9.1875 13.09375c-27.871094 19.476563-44.507812 51.304688-44.59375 85.304688zm0 0" fill="#ccdce5"/><path d="m24 392h64v32h-64zm0 0" fill="#7ecce6"/><path d="m367.472656 237.214844-14.945312-5.71875c1.96875-5.136719 3.558594-10.410156 4.761718-15.777344l15.605469 3.503906c-1.371093 6.121094-3.183593 12.136719-5.421875 17.992188zm0 0" fill="#ccdce5"/><path d="m375.558594 201.734375-15.949219-1.320313c.261719-3.074218.390625-6.175781.390625-9.292968v-87.121094c.054688-27.070312-8.542969-53.449219-24.535156-75.289062l12.917968-9.421876c18.007813 24.566407 27.6875 54.25 27.617188 84.710938v87.121094c0 3.550781-.148438 7.089844-.441406 10.613281zm0 0" fill="#ccdce5"/><path d="m247.121094 280h-30.242188c-25.945312 0-50.597656-11.335938-67.480468-31.039062-13.808594-16.109376-21.398438-36.625-21.398438-57.839844v-87.121094c0-57.4375 46.5625-104 104-104s104 46.5625 104 104v87.121094c0 21.214844-7.589844 41.730468-21.398438 57.839844-16.882812 19.703124-41.535156 31.039062-67.480468 31.039062zm0 0" fill="#354f5c"/><path d="m240 200h-16v-32c0-4.417969 3.582031-8 8-8 18.101562-.007812 33.945312-12.171875 38.625-29.65625 4.679688-17.488281-2.96875-35.941406-18.644531-44.988281-15.679688-9.046875-35.484375-6.4375-48.28125 6.363281-12.800781 12.800781-15.40625 32.605469-6.355469 48.28125l-13.839844 8c-12.296875-21.308594-9.25-48.144531 7.511719-66.152344 16.765625-18.007812 43.316406-22.964844 65.449219-12.21875 22.132812 10.746094 34.65625 34.679688 30.875 58.988282-3.785156 24.308593-22.988282 43.300781-47.339844 46.816406zm0 0" fill="#ffc119"/><path d="m224 216h16v16h-16zm0 0" fill="#ffc119"/><path d="m40 424h48v32h-48zm0 0" fill="#f5be9a"/><path d="m344 424h-64v-32h64zm0 0" fill="#7ecce6"/><path d="m328 456h-48v-32h48zm0 0" fill="#f5be9a"/><g fill="#047fa7"><path d="m80 344h16v112h-16zm0 0"/><path d="m272 344h16v112h-16zm0 0"/><path d="m144 360-40-48 40-19.558594zm0 0"/><path d="m224 360 40-48-40-19.558594zm0 0"/></g></svg>