<?xml version="1.0" encoding="UTF-8"?>
<!DOCTYPE svg PUBLIC "-//W3C//DTD SVG 1.1//EN" "http://www.w3.org/Graphics/SVG/1.1/DTD/svg11.dtd">
<!-- Creator: CorelDRAW 2019 (64 Bit) -->
<svg xmlns="http://www.w3.org/2000/svg" xml:space="preserve" width="1000px" height="400px" version="1.1" style="shape-rendering:geometricPrecision; text-rendering:geometricPrecision; image-rendering:optimizeQuality; fill-rule:evenodd; clip-rule:evenodd"
viewBox="0 0 1800 1200"
 xmlns:xlink="http://www.w3.org/1999/xlink">
 <defs>
  <style type="text/css">
   <![CDATA[
    .str0 {stroke:#FF2B0A;stroke-width:2.23;stroke-miterlimit:10}
    .fil2 {fill:none;fill-rule:nonzero}
    .fil1 {fill:#00CCBF;fill-rule:nonzero}
    .fil3 {fill:#083FB3;fill-rule:nonzero}
    .fil8 {fill:#FF2B0A;fill-rule:nonzero}
    .fil5 {fill:#FF7533;fill-rule:nonzero}
    .fil4 {fill:#FFA834;fill-rule:nonzero}
    .fil6 {fill:#FFCC69;fill-rule:nonzero}
    .fil0 {fill:white;fill-rule:nonzero}
    .fil7 {fill:url(#id2);fill-rule:nonzero}
   ]]>
  </style>
     <clipPath id="id0">
      <rect x="260" y="56" width="1280" height="1088"/>
     </clipPath>
      <clipPath id="id1">
       <rect x="651.03" y="127.03" width="546.9" height="541.09"/>
      </clipPath>
  <linearGradient id="id2" gradientUnits="userSpaceOnUse" x1="535.09" y1="395.14" x2="1278.35" y2="395.14">
   <stop offset="0" style="stop-opacity:1; stop-color:#720F05"/>
   <stop offset="1" style="stop-opacity:1; stop-color:#FF5D16"/>
  </linearGradient>
 </defs>
 <g id="Camada_x0020_1">
  <metadata id="CorelCorpID_0Corel-Layer"/>
  <g id="_2867455031120">
   <g>
    <g style="clip-path:url(#id0)">
     <image x="260" y="56" width="1280" height="1088" xlink:href="HOME_Images\HOME_ImgID1.png"/>
    </g>
    <path class="fil0" d="M412.77 424.2l488.32 -140.67c6.46,-1.86 13.2,-1.81 19.64,0.14l463.69 140.37c20.06,6.07 33.29,29.12 30.94,53.9l-26.46 422.86c-2.02,21.4 -15.24,38.79 -32.74,43.1l-418.42 87.51c-4.95,1.22 -10.03,1.33 -15.01,0.33l-460.71 -92.16c-17.89,-3.58 -31.74,-20.81 -34.15,-42.48l-46.41 -417.91c-2.81,-25.29 10.72,-49.05 31.31,-54.99z"/>
    <path class="fil1" d="M467.27 450.36l433.52 -124.88c5.73,-1.66 11.71,-1.61 17.43,0.12l411.65 124.61c17.81,5.4 29.56,25.86 27.48,47.86l-22.1 376.8c-1.8,18.99 -13.53,34.44 -29.07,38.26l-372.86 76.3c-4.39,1.08 -8.91,1.18 -13.33,0.29l-409.01 -81.82c-15.87,-3.18 -28.17,-18.48 -30.31,-37.71l-41.2 -371.01c-2.49,-22.46 9.52,-43.55 27.8,-48.82z"/>
    <path class="fil0" d="M412.77 424.2l488.32 -140.67c6.46,-1.86 13.2,-1.81 19.64,0.14l463.69 140.37c20.06,6.07 33.29,29.12 30.94,53.9l-26.46 422.86c-2.02,21.4 -15.24,38.79 -32.74,43.1l-418.42 87.51c-4.95,1.22 -10.03,1.33 -15.01,0.33l-460.71 -92.16c-17.89,-3.58 -31.74,-20.81 -34.15,-42.48l-46.41 -417.91c-2.81,-25.29 10.72,-49.05 31.31,-54.99z"/>
    <line class="fil2" x1="373.42" y1="405.31" x2="901.31" y2= "253.24" />
    <path class="fil2" d="M901.31 253.24c6.98,-2.01 14.27,-1.96 21.23,0.15"/>
    <line class="fil2" x1="922.54" y1="253.39" x2="1423.81" y2= "405.13" />
    <path class="fil2" d="M1423.81 405.13c21.69,6.57 35.99,31.48 33.46,58.27"/>
    <line class="fil2" x1="1457.27" y1="463.4" x2="1428.66" y2= "920.54" />
    <path class="fil2" d="M1428.66 920.54c-2.19,23.12 -16.48,41.93 -35.4,46.58"/>
    <line class="fil2" x1="1393.26" y1="967.12" x2="940.93" y2= "1061.73" />
    <path class="fil2" d="M940.93 1061.73c-5.35,1.32 -10.85,1.44 -16.23,0.36"/>
    <line class="fil2" x1="924.7" y1="1062.09" x2="426.65" y2= "962.45" />
    <path class="fil2" d="M426.65 962.45c-19.33,-3.86 -34.31,-22.49 -36.91,-45.91"/>
    <line class="fil2" x1="389.74" y1="916.54" x2="339.57" y2= "464.76" />
    <path class="fil2" d="M339.57 464.76c-3.03,-27.35 11.59,-53.03 33.85,-59.45"/>
    <path class="fil0" d="M427.87 897.1l-46.41 -417.91c-2.81,-25.29 10.72,-49.05 31.31,-54.99l15.1 472.9z"/>
    <line class="fil2" x1="441.1" y1="437.8" x2="900.93" y2= "305.33" />
    <path class="fil2" d="M900.93 305.33c6.08,-1.75 12.43,-1.7 18.49,0.13"/>
    <line class="fil2" x1="919.42" y1="305.46" x2="1356.07" y2= "437.64" />
    <path class="fil2" d="M1356.07 437.64c18.89,5.72 31.35,27.42 29.14,50.76"/>
    <line class="fil2" x1="1385.21" y1="488.4" x2="1361.02" y2= "887.32" />
    <path class="fil2" d="M1361.02 887.32c-1.91,20.15 -14.36,36.53 -30.83,40.59"/>
    <line class="fil2" x1="1330.19" y1="927.91" x2="935.44" y2= "1009.59" />
    <path class="fil2" d="M935.44 1009.59c-4.65,1.14 -9.45,1.25 -14.13,0.31"/>
    <line class="fil2" x1="921.31" y1="1009.9" x2="487.47" y2= "923.11" />
    <path class="fil2" d="M487.47 923.11c-16.84,-3.37 -29.89,-19.6 -32.15,-40"/>
    <line class="fil2" x1="455.32" y1="883.11" x2="411.61" y2= "489.58" />
    <path class="fil2" d="M411.61 489.58c-2.64,-23.82 10.1,-46.19 29.49,-51.78"/>
    <path class="fil3" d="M467.27 450.36l433.52 -124.88c5.73,-1.66 11.71,-1.61 17.43,0.12l411.65 124.61c17.81,5.4 29.56,25.86 27.48,47.86l-22.1 376.8c-1.8,18.99 -13.53,34.44 -29.07,38.26l-372.86 76.3c-4.39,1.08 -8.91,1.18 -13.33,0.29l-409.01 -81.82c-15.87,-3.18 -28.17,-18.48 -30.31,-37.71l-41.2 -371.01c-2.49,-22.46 9.52,-43.55 27.8,-48.82z"/>
    <g>
     <g style="clip-path:url(#id1)">
      <image x="651.03" y="127.03" width="546.91" height="541.09" xlink:href="HOME_Images\HOME_ImgID2.png"/>
     </g>
     <path class="fil4" d="M1108.54 370.01c0,91.39 -57.95,169.06 -139.08,198.63 -22.51,8.13 -46.76,12.52 -72.2,12.52 -21.72,0 -42.77,-3.32 -62.62,-9.45 -21.31,-6.53 -41.29,-16.39 -59.14,-29.04 -54.09,-38.37 -89.39,-101.38 -89.39,-172.66 0,-71.27 35.3,-134.28 89.39,-172.51 34.37,-24.25 76.46,-38.64 121.76,-38.64 17.98,0 35.3,2.27 51.95,6.4 29.58,7.46 56.75,21.18 79.8,39.7 48.49,38.77 79.53,98.31 79.53,165.05z"/>
     <path class="fil5" d="M924.59 367.93l-135.7 0c-7.4,0 -13.4,-6 -13.4,-13.41 0,-7.4 6,-13.4 13.4,-13.4l80.2 0c11,0 20.85,-8.24 21.43,-19.22 0.61,-11.7 -8.7,-21.39 -20.28,-21.39l-80.8 0c-7.7,0 -13.95,-6.25 -13.95,-13.96 0,-7.7 6.25,-13.95 13.95,-13.95l48.52 0c10.99,0 20.85,-8.23 21.42,-19.21 0.62,-11.71 -8.7,-21.4 -20.27,-21.4l-63.62 0 -21.66 0 -10.83 0c-1.69,0 -3.31,-0.27 -4.88,-0.66 -32.35,37.13 -51.97,85.63 -51.97,138.73 0,55.29 21.31,105.56 56.08,143.23 2.7,-1.33 5.69,-2.13 8.89,-2.13 13.46,0 24.37,-10.91 24.37,-24.37l0 -10.83 63.15 0c10.99,0 20.85,-8.23 21.42,-19.21 0.61,-11.71 -8.7,-21.4 -20.27,-21.4l-50.9 0c-7.4,0 -13.4,-6 -13.4,-13.4 0,-7.41 6,-13.41 13.4,-13.41l136.85 0c11.58,0 20.89,-9.69 20.28,-21.4 -0.58,-10.98 -10.43,-19.21 -21.43,-19.21z"/>
     <path class="fil6" d="M1108.48 370.06c0,91.29 -57.93,169.04 -139.04,198.55l-67.1 0c-12.03,0 -22.75,-8.81 -23.87,-20.78 -1.29,-13.73 9.45,-25.24 22.9,-25.24l113.04 0c10.09,0 18.27,-8.18 18.27,-18.28 0,-10.09 -8.18,-18.27 -18.27,-18.27l-44.39 0c-12.02,0 -22.75,-8.81 -23.87,-20.78 -1.29,-13.73 9.45,-25.24 22.91,-25.24l75.91 0c8.91,0 16.13,-7.23 16.13,-16.14 0,-8.91 -7.22,-16.13 -16.13,-16.13l-15.39 0c-12.02,0 -22.75,-8.81 -23.87,-20.78 -1.29,-13.73 9.45,-25.25 22.91,-25.25l16.35 0c8.91,0 16.13,-7.22 16.13,-16.13 0,-8.91 -7.22,-16.14 -16.13,-16.14l-45.17 0c-12.02,0 -22.75,-8.81 -23.87,-20.78 -1.29,-13.73 9.45,-25.24 22.91,-25.24l46.02 0c8.97,0 16.24,-7.27 16.24,-16.25 0,-8.97 -7.27,-16.24 -16.24,-16.24l-103.27 0c-12.02,0 -22.74,-8.81 -23.87,-20.78 -1.28,-13.73 9.45,-25.24 22.91,-25.24l88.37 0c48.46,38.77 79.48,98.33 79.48,165.14z"/>
    </g>
    <path class="fil7" d="M1275.1 313.03c-13.01,-25.66 -40.04,-53.71 -186.59,-33.04 2.3,4.03 8.05,20.54 10.54,27.49 65.37,-5.17 75.7,-2.93 82.54,10.6 7.03,13.83 -0.47,25.32 -59.94,47.78 -48.65,18.35 -114.35,37.48 -188.42,53.86 -71.49,15.81 -139.12,26.49 -193.67,31.39 -71.15,6.48 -113.7,8.12 -120.93,-6.11 -7.1,-13.93 8.93,-27.27 69,-49.86 -0.73,-4.51 -2.08,-22.35 -1.48,-26.34 -138.91,42.3 -160.97,88.1 -147.76,114.06 13.47,26.45 82.16,47.71 235.88,24.95 54.55,-8.06 113.96,-19.01 175.42,-32.58 63.65,-14.06 122.98,-29.56 175.21,-45.41 140.31,-42.52 163.48,-90.65 150.2,-116.79z"/>
    <polygon class="fil0" points="1137.51,482.89 1137.3,500.69 1154.17,506.39 1137.17,511.69 1136.96,529.49 1126.67,514.96 1109.68,520.26 1120.31,505.99 1110.02,491.46 1126.88,497.16 "/>
    <polygon class="fil0" points="1223.94,517.46 1223.73,535.26 1240.59,540.96 1223.6,546.26 1223.39,564.06 1213.09,549.54 1196.1,554.83 1206.73,540.56 1196.44,526.03 1213.3,531.73 "/>
    <polygon class="fil0" points="587.58,506.19 587.79,523.99 570.92,529.69 587.92,534.99 588.13,552.79 598.42,538.26 615.41,543.56 604.78,529.29 615.07,514.76 598.21,520.46 "/>
    <polygon class="fil0" points="501.15,540.76 501.37,558.56 484.5,564.26 501.49,569.56 501.71,587.36 512,572.83 528.99,578.13 518.36,563.86 528.65,549.33 511.79,555.03 "/>
    <path class="fil0" d="M928 945.84c0,4.16 -3.37,7.53 -7.53,7.53 -4.16,0 -7.53,-3.37 -7.53,-7.53 0,-4.16 3.37,-7.53 7.53,-7.53 4.16,0 7.53,3.37 7.53,7.53z"/>
    <path class="fil8" d="M823.27 930.78c0,4.16 -3.37,7.53 -7.53,7.53 -4.16,0 -7.53,-3.37 -7.53,-7.53 0,-4.16 3.37,-7.53 7.53,-7.53 4.16,0 7.53,3.37 7.53,7.53z"/>
    <line class="fil2 str0" x1="561.06" y1="884.08" x2="751.64" y2= "915.77" />
    <path class="fil8" d="M1000.82 930.78c0,4.16 3.37,7.53 7.52,7.53 4.16,0 7.54,-3.37 7.54,-7.53 0,-4.16 -3.38,-7.53 -7.54,-7.53 -4.15,0 -7.52,3.37 -7.52,7.53z"/>
    <line class="fil2 str0" x1="1263.03" y1="884.08" x2="1072.45" y2= "915.77" />
   </g>
   <g id="_2196945651040">
    <path class="fil0" d="M638.59 724.5l-14.33 0 0 -46.67 15.9 0c1.44,9.52 5.51,17.1 12.17,22.79 6.7,5.69 14.9,8.52 24.63,8.52 6.69,0 11.94,-1.27 15.74,-3.8 3.81,-2.54 5.69,-6.02 5.69,-10.38 0,-6.87 -7.07,-11.95 -21.26,-15.25 -2.3,-0.5 -4.07,-0.91 -5.27,-1.21 -12.36,-2.92 -20.91,-5.33 -25.69,-7.25 -4.75,-1.89 -8.67,-4.07 -11.76,-6.55 -3.98,-3.12 -6.99,-6.84 -9.03,-11.14 -2.03,-4.31 -3.06,-9.11 -3.06,-14.33 0,-11.97 4.21,-21.29 12.65,-27.9 8.43,-6.63 20.34,-9.94 35.71,-9.94 7.66,0 14.44,0.83 20.34,2.45 5.9,1.65 11,4.13 15.33,7.46l3.54 -8.34 14.69 0 0 43.37 -16.25 0c-1.03,-8.75 -4.66,-15.65 -10.88,-20.64 -6.22,-4.98 -14.3,-7.49 -24.21,-7.49 -5.93,0 -10.61,1.24 -14.06,3.72 -3.45,2.47 -5.19,5.84 -5.19,10.05 0,6.05 7.81,10.71 23.41,14.01 5.93,1.27 10.61,2.33 14.09,3.21 13.57,3.33 23.53,8.11 29.82,14.33 6.3,6.23 9.46,14.33 9.46,24.36 0,11.79 -4.42,21.17 -13.27,28.16 -8.81,6.96 -20.79,10.44 -35.88,10.44 -7.26,0 -14.31,-0.97 -21.15,-2.89 -6.87,-1.92 -12.56,-4.51 -17.1,-7.73l-4.78 8.64zm141.37 -43.64c0,9.94 1.11,17.22 3.36,21.85 2.24,4.63 5.78,6.96 10.61,6.96 4.78,0 8.26,-2.33 10.47,-6.96 2.21,-4.63 3.33,-11.91 3.33,-21.85 0,-9.85 -1.15,-17.13 -3.42,-21.82 -2.27,-4.69 -5.72,-7.05 -10.38,-7.05 -4.6,0 -8.08,2.42 -10.44,7.26 -2.36,4.86 -3.53,12.06 -3.53,21.61zm-29.55 57.47l0 -76.28c0,-3.39 -0.53,-5.63 -1.59,-6.69 -1.09,-1.07 -3.31,-1.6 -6.73,-1.6l-4.07 0 0 -14.33 40.55 0 0 11.27c3.68,-4.96 7.67,-8.58 11.94,-10.85 4.25,-2.27 9.11,-3.42 14.6,-3.42 11.29,0 19.87,3.77 25.8,11.35 5.9,7.58 8.84,18.6 8.84,33.05 0,13.77 -3.06,24.74 -9.2,32.88 -6.13,8.17 -14.33,12.24 -24.59,12.24 -5.25,0 -9.99,-1.03 -14.24,-3.07 -4.28,-2.03 -8.2,-5.13 -11.76,-9.35l0 24.8c0,3.45 0.55,5.72 1.65,6.75 1.09,1.04 3.3,1.57 6.63,1.57l5.87 0 0 14.33 -56.09 0 0 -14.33 4.07 0c3.42,0 5.64,-0.53 6.73,-1.57 1.06,-1.03 1.59,-3.3 1.59,-6.75zm155.75 -25.15c-3.75,4.36 -8.02,7.61 -12.83,9.76 -4.81,2.12 -10.2,3.18 -16.16,3.18 -8.2,0 -14.68,-2.18 -19.52,-6.51 -4.83,-4.34 -7.25,-10.15 -7.25,-17.4 0,-6.72 1.94,-11.91 5.87,-15.51 3.89,-3.6 12.03,-6.72 24.38,-9.35 10.5,-2.27 17.07,-4.45 19.73,-6.63 2.65,-2.15 3.98,-5.34 3.98,-9.56 0,-4.03 -1.62,-7.28 -4.87,-9.73 -3.21,-2.44 -7.55,-3.68 -13.03,-3.68 -2.98,0 -5.54,0.26 -7.7,0.82 -2.12,0.53 -4.01,1.42 -5.69,2.63 3.1,0.23 5.61,1.3 7.49,3.12 1.92,1.86 2.86,4.13 2.86,6.84 0,3.37 -1.29,6.11 -3.89,8.29 -2.56,2.15 -5.9,3.24 -10,3.24 -4.59,0 -8.28,-1.23 -11.05,-3.71 -2.8,-2.48 -4.19,-5.72 -4.19,-9.7 0,-7.23 3.54,-12.83 10.59,-16.84 7.04,-4.01 16.89,-6.01 29.54,-6.01 6.22,0 11.86,0.56 16.93,1.68 5.04,1.12 9.02,2.68 11.91,4.63 3.33,2.32 5.66,4.89 7.02,7.75 1.35,2.86 2.03,7.67 2.03,14.42l0 2.33 0 32.17c0,2.71 0.36,4.72 1.09,6.01 0.71,1.3 1.89,1.95 3.51,1.95 1.6,0 2.74,-0.62 3.39,-1.83 0.68,-1.21 1.01,-3.24 1.01,-6.13l0 -7.25 10.64 0 0 8.13c0,8.91 -1.95,15.45 -5.87,19.61 -3.92,4.16 -10.11,6.22 -18.57,6.22 -5.55,0 -10.12,-1.09 -13.71,-3.27 -3.6,-2.18 -6.14,-5.42 -7.64,-9.67zm-2.33 -31.43c-2.24,1.15 -5.31,2.62 -9.17,4.48 -9.23,4.48 -13.83,8.7 -13.83,12.62 0,2.8 0.97,5.1 2.95,6.81 1.94,1.74 4.51,2.6 7.69,2.6 3.87,0 6.87,-1.24 9.09,-3.72 2.18,-2.48 3.27,-5.99 3.27,-10.5l0 -12.29zm115.91 11.82l18.52 0c-0.53,10.35 -3.95,18.34 -10.29,23.97 -6.34,5.61 -15.1,8.41 -26.28,8.41 -13.8,0 -24.5,-3.92 -32.11,-11.8 -7.6,-7.84 -11.41,-18.87 -11.41,-33.11 0,-13.8 3.95,-24.71 11.83,-32.76 7.9,-8.02 18.63,-12.03 32.23,-12.03 11.11,0 20.02,2.65 26.74,7.93 6.69,5.31 10.06,12.27 10.06,20.91 0,5.51 -1.63,9.9 -4.84,13.18 -3.24,3.24 -7.58,4.86 -13.06,4.86 -4.43,0 -7.99,-1.27 -10.68,-3.8 -2.68,-2.54 -4.01,-5.96 -4.01,-10.23 0,-4.07 1.18,-7.29 3.54,-9.59 2.36,-2.33 5.6,-3.48 9.76,-3.48l0.35 0c-1.74,-1.71 -3.53,-2.97 -5.45,-3.74 -1.89,-0.8 -4.04,-1.18 -6.4,-1.18 -6.28,0 -11,2.42 -14.18,7.25 -3.16,4.87 -4.75,12.09 -4.75,21.74 0,10.08 1.33,17.54 3.98,22.35 2.65,4.8 6.75,7.22 12.27,7.22 4.45,0 7.84,-1.36 10.2,-4.07 2.36,-2.71 3.69,-6.72 3.98,-12.03zm59.45 -23.18l27.24 0.09 0 -0.68c0,-5.86 -1.18,-10.29 -3.51,-13.29 -2.33,-3.01 -5.78,-4.52 -10.32,-4.52 -4.21,0 -7.49,1.57 -9.79,4.72 -2.3,3.16 -3.51,7.73 -3.62,13.68zm34.67 24.24l21.08 -0.09c-2.65,10.38 -7.51,18.23 -14.62,23.51 -7.14,5.27 -16.36,7.9 -27.69,7.9 -13.41,0 -24.24,-4.04 -32.46,-12.09 -8.2,-8.08 -12.3,-18.67 -12.3,-31.82 0,-13.98 3.95,-25.03 11.88,-33.11 7.91,-8.11 18.64,-12.15 32.17,-12.15 14.01,0 24.89,3.95 32.7,11.82 7.82,7.91 11.71,18.93 11.71,33.09l0 3.21 -57.5 0 0 1.39c0,7.66 1.42,13.41 4.28,17.28 2.86,3.83 7.13,5.75 12.85,5.75 5.25,0 9.41,-1.27 12.51,-3.84 3.06,-2.53 4.86,-6.16 5.39,-10.85z"/>
    <path class="fil8" d="M869.79 813.64l6.05 0c-0.66,8.72 -3.41,15.34 -8.25,19.84 -4.84,4.52 -11.56,6.77 -20.19,6.77 -10.1,0 -18.29,-3.33 -24.56,-10 -6.26,-6.65 -9.39,-15.35 -9.39,-26.08 0,-4.99 0.88,-9.71 2.64,-14.2 1.75,-4.48 4.23,-8.36 7.44,-11.64 3.16,-3.14 6.75,-5.55 10.78,-7.23 4.04,-1.67 8.27,-2.51 12.7,-2.51 3.7,0 7.28,0.67 10.72,2 3.44,1.33 6.89,3.38 10.33,6.17l2.52 -6.15 4.62 0 0 26.3 -5.13 0c-0.65,-6.77 -3.04,-12.23 -7.17,-16.36 -4.13,-4.15 -9.24,-6.21 -15.3,-6.21 -6.68,0 -12.21,2.8 -16.59,8.41 -4.39,5.61 -6.57,12.75 -6.57,21.42 0,9.19 2.17,16.48 6.52,21.85 4.35,5.39 10.24,8.08 17.68,8.08 6.03,0 10.85,-1.75 14.46,-5.24 3.6,-3.5 5.83,-8.57 6.69,-15.22zm23.98 0.82c0,6.54 1.41,11.56 4.24,15.07 2.82,3.51 6.85,5.27 12.09,5.27 5.24,0 9.27,-1.76 12.09,-5.27 2.83,-3.51 4.24,-8.53 4.24,-15.07 0,-6.55 -1.41,-11.6 -4.25,-15.15 -2.84,-3.54 -6.87,-5.32 -12.08,-5.32 -5.24,0 -9.27,1.78 -12.09,5.32 -2.83,3.55 -4.24,8.6 -4.24,15.15zm-9.77 0c0,-7.54 2.43,-13.69 7.32,-18.46 4.89,-4.77 11.15,-7.15 18.81,-7.15 7.65,0 13.89,2.38 18.77,7.15 4.87,4.77 7.3,10.92 7.3,18.46 0,7.51 -2.43,13.64 -7.3,18.38 -4.88,4.74 -11.12,7.1 -18.77,7.1 -7.67,0 -13.95,-2.36 -18.83,-7.1 -4.87,-4.74 -7.3,-10.87 -7.3,-18.38zm97.75 -0.28c0,-5.85 -1.39,-10.52 -4.18,-14.03 -2.79,-3.51 -6.48,-5.25 -11.12,-5.25 -4.31,0 -7.67,1.69 -10.06,5.09 -2.37,3.39 -3.56,8.21 -3.56,14.47 0,6.13 1.19,10.89 3.59,14.26 2.39,3.38 5.73,5.08 10.03,5.08 4.69,0 8.42,-1.77 11.17,-5.29 2.76,-3.53 4.13,-8.3 4.13,-14.33zm0 -32.99c0,-2.35 -0.42,-3.9 -1.27,-4.64 -0.86,-0.73 -2.62,-1.1 -5.29,-1.1l-3.21 0 0 -4.84 18.34 0 0 56.94c0,2.35 0.42,3.9 1.28,4.63 0.84,0.74 2.6,1.11 5.24,1.11l2.55 0 0 4.94 -17.64 0 0 -8.28c-2.06,3.28 -4.51,5.73 -7.35,7.36 -2.84,1.63 -6.1,2.43 -9.78,2.43 -6.43,0 -11.64,-2.33 -15.6,-6.98 -3.98,-4.67 -5.97,-10.77 -5.97,-18.31 0,-7.61 2.02,-13.78 6.03,-18.46 4.02,-4.69 9.28,-7.04 15.74,-7.04 3.7,0 6.94,0.79 9.69,2.35 2.76,1.56 5.18,4 7.24,7.32l0 -17.43zm59.98 28.72c-0.1,-5.42 -1.24,-9.45 -3.44,-12.08 -2.2,-2.63 -5.51,-3.94 -9.94,-3.94 -4.13,0 -7.38,1.38 -9.73,4.15 -2.33,2.75 -3.68,6.72 -4,11.87l27.11 0zm2.51 12.7l5.94 0c-1.14,5.81 -3.52,10.16 -7.12,13.07 -3.61,2.9 -8.45,4.36 -14.51,4.36 -7.19,0 -12.99,-2.35 -17.39,-7.03 -4.41,-4.69 -6.61,-10.87 -6.61,-18.55 0,-7.69 2.2,-13.89 6.58,-18.57 4.4,-4.69 10.2,-7.04 17.42,-7.04 7.47,0 13.18,2.25 17.13,6.77 3.96,4.5 5.96,11.05 6.03,19.63l-37.39 0 0 0.69c0,5.96 1.26,10.53 3.8,13.66 2.52,3.14 6.2,4.7 11.02,4.7 3.86,0 7.07,-0.99 9.62,-2.96 2.54,-1.98 4.37,-4.88 5.48,-8.73zm82.95 -58.96l0 2.52c-4.65,0.07 -7.82,0.99 -9.54,2.76 -1.69,1.78 -2.55,5.24 -2.55,10.41l0 7.11c0,7.4 -1.01,12.46 -3.01,15.16 -1.99,2.69 -5.71,4.56 -11.11,5.58 5.4,0.99 9.12,2.84 11.11,5.53 2,2.67 3.01,7.67 3.01,15.01l0 7.04c0,5.11 0.84,8.53 2.54,10.25 1.68,1.73 4.87,2.62 9.55,2.68l0 2.52 -0.48 0c-7.12,0 -12.01,-1.21 -14.68,-3.61 -2.66,-2.42 -3.98,-6.88 -3.98,-13.42l0 -10.46c0,-5.19 -0.98,-8.77 -2.91,-10.74 -1.93,-1.96 -5.56,-3.17 -10.9,-3.59l0 -2.52c5.41,-0.5 9.05,-1.73 10.95,-3.68 1.9,-1.95 2.86,-5.52 2.86,-10.73l0 -10.58c0,-6.62 1.32,-11.15 3.98,-13.59 2.67,-2.44 7.56,-3.65 14.68,-3.65l0.48 0zm17.54 0l0.49 0c7.08,0 11.97,1.23 14.64,3.68 2.67,2.45 4.02,6.97 4.02,13.56l0 10.58c0,5.21 0.96,8.78 2.85,10.73 1.9,1.95 5.55,3.18 10.95,3.68l0 2.52c-5.34,0.42 -8.97,1.63 -10.9,3.59 -1.93,1.97 -2.9,5.55 -2.9,10.74l0 10.46c0,6.5 -1.35,10.97 -4.02,13.39 -2.67,2.43 -7.56,3.64 -14.64,3.64l-0.49 0 0 -2.52c4.69,-0.06 7.88,-0.95 9.56,-2.68 1.69,-1.72 2.53,-5.14 2.53,-10.25l0 -7.04c0,-7.34 1.01,-12.34 3.01,-15.01 2,-2.69 5.71,-4.54 11.12,-5.53 -5.41,-1.02 -9.12,-2.89 -11.12,-5.58 -2,-2.7 -3.01,-7.76 -3.01,-15.16l0 -7.11c0,-5.17 -0.85,-8.63 -2.55,-10.41 -1.71,-1.77 -4.89,-2.69 -9.54,-2.76l0 -2.52z"/>
   </g>
  </g>
 </g>
</svg>
