<svg id="Capa_1" enable-background="new 0 0 513 513" height="512" viewBox="0 0 513 513" width="512" xmlns="http://www.w3.org/2000/svg"><g><g><g><path d="m505 168.323c0-35.417-28.712-64.129-64.129-64.129-7.816 0-15.272 1.468-22.199 4.028-38.121-41.873-93.068-68.157-154.156-68.157-63.697 0-120.682 28.606-158.912 73.635-9.753-5.991-21.19-9.506-33.475-9.506-35.417 0-64.129 28.711-64.129 64.129 0 30.166 20.856 55.397 48.915 62.238-.504 5.913-.819 11.88-.819 17.924 0 113.345 90.495 205.491 203.167 208.287 15.27 10.199 33.608 16.165 53.349 16.165 44.322 0 81.542-30.017 92.695-70.801 41.559-38.101 67.628-92.826 67.628-153.651 0-8.065-.505-16.007-1.396-23.833 19.934-10.878 33.461-32.022 33.461-56.329z" fill="#00d2dc"/></g><g><g><path d="m292.816 447.053c-94.001-12.382-168.816-88.946-179.302-183.178-3.698-33.236.615-64.991 11.05-93.829 7.487-20.691.152-44.389-18.501-56.061-.154-.097-.309-.192-.464-.288-4.818-2.958-10.051-5.301-15.59-6.927-.231-.067-.469-.115-.701-.18-2.302-.647-4.667-1.137-7.066-1.524-.633-.1-1.263-.208-1.901-.29-2.692-.35-5.423-.584-8.213-.584-35.416.002-64.128 28.713-64.128 64.131 0 30.166 20.856 55.397 48.915 62.238-.504 5.913-.819 11.88-.819 17.924 0 113.345 90.495 205.491 203.167 208.287 15.27 10.199 33.608 16.165 53.349 16.165 29.711 0 56.184-13.529 73.799-34.707-28.907 9.612-60.578 13.172-93.595 8.823z" fill="#0096d2"/></g></g><g><path d="m380.75 176.339c-15.425 0-29.488 6.975-40.129 18.437-8.325 8.968-20.309 13.627-32.545 13.627h-2.867c-12.047 0-23.275-5.102-32.173-13.223-12.94-11.811-30.193-18.974-49.125-18.839-38.226.272-70.532 31.881-71.591 70.093-1.131 40.781 31.591 74.195 72.117 74.195 2.487 0 91.13-.372 139.147-.574 19.763-.083 39.057-5.718 55.772-16.261 13.153-13.235 21.516-33.1 21.516-55.31-.001-39.845-26.918-72.145-60.122-72.145z" fill="#beebeb"/></g><g><circle cx="312.613" cy="376.742" fill="#beebeb" r="96.194"/></g><g><path d="m336.661 456.903c-53.126 0-96.194-43.068-96.194-96.194 0-28.2 12.21-53.485 31.542-71.08-32.806 15.32-55.59 48.515-55.59 87.112 0 53.126 43.067 96.194 96.194 96.194 24.927 0 47.564-9.562 64.653-25.115-12.35 5.768-26.075 9.083-40.605 9.083z" fill="#00d2dc"/></g><g><circle cx="224.435" cy="248.484" fill="#0096d2" r="24.048"/></g><g><circle cx="384.758" cy="248.484" fill="#0096d2" r="24.048"/></g><g><circle cx="239.132" cy="234.456" fill="#fff" r="12.024"/></g><g><circle cx="398.716" cy="234.456" fill="#fff" r="12.024"/></g><g><circle cx="72.129" cy="168.323" fill="#00d2dc" r="32.065"/></g></g><g fill="#283c64"><path d="m513 168.323c0-39.772-32.357-72.129-72.129-72.129-6.77 0-13.438.943-19.879 2.788-1.135-1.186-2.28-2.365-3.444-3.529-40.876-40.876-95.224-63.388-153.032-63.388-61.374 0-119.67 26.004-160.716 71.495-9.751-4.771-20.571-7.366-31.671-7.366-39.772-.001-72.129 32.356-72.129 72.129 0 31.473 20.271 58.286 48.436 68.112-.22 4.009-.339 8.042-.339 12.049 0 56.783 21.829 110.44 61.466 151.085 39.161 40.157 91.431 63.257 147.348 65.189 16.122 10.239 35.231 16.178 55.702 16.178 47.158 0 87.092-31.494 99.892-74.552 21.23-19.901 37.983-43.407 49.787-69.896 12.371-27.762 18.644-57.371 18.644-88.004 0-6.583-.307-13.117-.884-19.595 20.67-13.369 32.948-35.852 32.948-60.566zm-200.387 296.613c-25.601 0-48.686-10.969-64.812-28.449 19.079 6.182 39.895 9.382 61.492 9.382 1.727 0 3.461-.021 5.197-.062 23.158-.546 45.386-4.735 65.495-12.22-16.191 19.158-40.383 31.349-67.372 31.349zm81.896-55.471c-23.091 12.612-50.871 19.65-80.395 20.346-29.855.701-58.128-5.133-81.915-16.862-4.996-11.052-7.779-23.311-7.779-36.208 0-48.63 39.563-88.193 88.193-88.193s88.194 39.563 88.194 88.193c0 11.558-2.239 22.601-6.298 32.724zm53.168-79.489c-7.935 17.808-18.296 34.155-30.896 48.836.014-.689.026-1.378.026-2.07 0-57.453-46.741-104.193-104.194-104.193-33.149 0-62.73 15.562-81.827 39.762-2.104.208-4.23.319-6.35.319-17.471 0-33.802-6.898-45.986-19.425-12.179-12.521-18.619-29.052-18.134-46.548.454-16.394 7.364-31.942 19.457-43.779 12.092-11.836 27.787-18.419 44.194-18.536.155-.001.309-.002.464-.002 16.037 0 31.367 5.938 43.211 16.75 10.82 9.876 24.161 15.315 37.567 15.315h2.866c14.861 0 28.86-5.899 38.409-16.184 9.506-10.241 21.675-15.88 34.266-15.88 28.74 0 52.121 28.775 52.121 64.145 0 19.295-6.995 37.399-19.191 49.67-3.114 3.134-3.099 8.199.035 11.314 3.135 3.114 8.2 3.098 11.314-.035 15.152-15.246 23.842-37.461 23.842-60.949 0-44.192-30.559-80.145-68.121-80.145-17.09 0-33.424 7.456-45.992 20.995-6.531 7.035-16.256 11.07-26.683 11.07h-2.866c-9.405 0-18.916-3.954-26.781-11.132-14.803-13.512-33.957-20.932-53.996-20.932-.192 0-.387.001-.58.002-42.672.304-78.35 35.238-79.531 77.872-.605 21.852 7.441 42.502 22.658 58.147 14.25 14.65 33.042 23.137 53.292 24.162-7.564 14.427-11.852 30.831-11.852 48.22 0 26.963 10.295 51.566 27.16 70.086-43.429-6.258-83.459-26.535-114.562-58.43-36.706-37.64-56.921-87.329-56.921-139.915 0-2.816.062-5.645.179-8.468 2.581.281 5.199.435 7.854.435 4.888 0 9.775-.493 14.528-1.465 4.329-.886 7.12-5.113 6.234-9.441s-5.111-7.118-9.441-6.234c-3.699.757-7.508 1.141-11.321 1.141-30.95 0-56.129-25.179-56.129-56.129s25.179-56.129 56.129-56.129c17.92 0 34.914 8.672 45.458 23.197 2.596 3.576 7.599 4.369 11.174 1.774 3.575-2.596 4.37-7.598 1.774-11.174-3.755-5.173-8.15-9.766-13.029-13.706 37.906-40.894 91.078-64.22 147.01-64.22 110.512 0 200.419 89.908 200.419 200.419.001 28.372-5.806 55.79-17.258 81.49zm29.992-119.249c-6.281-35.906-21.516-69.454-44.583-97.988 2.567-.356 5.165-.546 7.785-.546 30.95 0 56.129 25.18 56.129 56.129 0 16.562-7.088 31.836-19.331 42.405z"/><path d="m72.129 128.258c-22.092 0-40.064 17.973-40.064 40.064s17.973 40.064 40.064 40.064 40.064-17.973 40.064-40.064-17.972-40.064-40.064-40.064zm0 64.129c-13.269 0-24.064-10.795-24.064-24.064s10.795-24.064 24.064-24.064 24.064 10.795 24.064 24.064-10.795 24.064-24.064 24.064z"/><path d="m248.484 240.484c-4.418 0-8 3.582-8 8 0 8.849-7.199 16.048-16.048 16.048s-16.048-7.199-16.048-16.048 7.199-16.048 16.048-16.048c4.418 0 8-3.582 8-8s-3.582-8-8-8c-17.671 0-32.048 14.377-32.048 32.048s14.377 32.048 32.048 32.048 32.048-14.377 32.048-32.048c0-4.419-3.582-8-8-8z"/><path d="m408.807 240.484c-4.418 0-8 3.582-8 8 0 8.849-7.199 16.048-16.048 16.048s-16.049-7.199-16.049-16.048 7.2-16.048 16.049-16.048c4.418 0 8-3.582 8-8s-3.582-8-8-8c-17.672 0-32.049 14.377-32.049 32.048s14.377 32.048 32.049 32.048c17.671 0 32.048-14.377 32.048-32.048 0-4.419-3.582-8-8-8z"/><path d="m337.618 313.939c-6.881 4.513-13.312 6.706-19.661 6.706s-12.78-2.193-19.661-6.706c-3.694-2.421-8.653-1.391-11.077 2.303-2.423 3.695-1.392 8.654 2.303 11.077 9.437 6.188 19.004 9.326 28.436 9.326s18.999-3.138 28.436-9.326c3.694-2.423 4.726-7.382 2.303-11.077s-7.384-4.725-11.079-2.303z"/></g></g></svg>