<?xml version="1.0" encoding="UTF-8"?>
<!DOCTYPE svg PUBLIC "-//W3C//DTD SVG 1.1//EN" "http://www.w3.org/Graphics/SVG/1.1/DTD/svg11.dtd">
<!-- Creator: CorelDRAW 2019 (64 Bit) -->
<svg xmlns="http://www.w3.org/2000/svg" xml:space="preserve" width="668px" height="922px" version="1.1" style="shape-rendering:geometricPrecision; text-rendering:geometricPrecision; image-rendering:optimizeQuality; fill-rule:evenodd; clip-rule:evenodd"
viewBox="0 0 668 922.37"
 xmlns:xlink="http://www.w3.org/1999/xlink">
 <defs>
  <style type="text/css">
   <![CDATA[
    .str0 {stroke:#CDD1D3;stroke-width:4.17;stroke-miterlimit:10}
    .fil5 {fill:none;fill-rule:nonzero}
    .fil11 {fill:white;fill-rule:nonzero}
    .fil3 {fill:#00B182;fill-rule:nonzero}
    .fil0 {fill:#05071A;fill-rule:nonzero}
    .fil2 {fill:#564BB5;fill-rule:nonzero}
    .fil1 {fill:#7459BC;fill-rule:nonzero}
    .fil8 {fill:#BFBFBF;fill-rule:nonzero}
    .fil7 {fill:#CDD1D3;fill-rule:nonzero}
    .fil6 {fill:#E8EBE8;fill-rule:nonzero}
    .fil9 {fill:#F6F9FB;fill-rule:nonzero}
    .fil10 {fill:#F6F9FB;fill-rule:nonzero;fill-opacity:0.050980}
    .fil4 {fill:#3D3D3D;fill-rule:nonzero;fill-opacity:0.101961}
   ]]>
  </style>
 </defs>
 <g id="Camada_x0020_1">
  <metadata id="CorelCorpID_0Corel-Layer"/>
  <g id="_2550823558736">
   <g>
    <path class="fil0" d="M660.77 913.5l-654 0 0 -577.36c0,-180.6 146.4,-327 327,-327 180.6,0 327,146.4 327,327l0 577.36z"/>
   </g>
   <g>
    <g>
     <g>
      <path class="fil1" d="M461.46 346.41c0,66.59 -53.98,120.56 -120.56,120.56 -66.59,0 -120.56,-53.97 -120.56,-120.56 0,-66.58 53.97,-120.56 120.56,-120.56 66.58,0 120.56,53.98 120.56,120.56z"/>
      <path class="fil2" d="M340.9 225.85c-13.99,0 -27.36,2.51 -39.84,6.88 57.75,8.95 102.01,58.73 102.01,118.99 0,52.6 -33.74,97.21 -80.72,113.68 6.06,0.94 12.22,1.57 18.55,1.57 66.58,0 120.56,-53.97 120.56,-120.56 0,-66.58 -53.98,-120.56 -120.56,-120.56z"/>
      <path class="fil3" d="M337.93 225.89c7.8,4.69 57.08,36.54 29.58,77.06 -29.81,43.93 -72.95,36.87 -77.66,85.5 0,0 -16.47,26.67 -36.87,-15.68 -13.88,-28.84 -24.86,-43.13 -30.45,-49.32 10.54,-54.66 58,-96.18 115.4,-97.56z"/>
      <path class="fil3" d="M344.31 466.92c-2.44,-10.49 -14.39,-70.77 29.19,-81.84 38.24,-9.71 66.75,5.84 76.61,12.44 -18.78,40.06 -58.95,68.1 -105.8,69.4z"/>
      <path class="fil4" d="M340.9 225.85c-13.99,0 -27.36,2.51 -39.84,6.88 57.75,8.95 102.01,58.73 102.01,118.99 0,52.6 -33.74,97.21 -80.72,113.68 6.06,0.94 12.22,1.57 18.55,1.57 66.58,0 120.56,-53.97 120.56,-120.56 0,-66.58 -53.98,-120.56 -120.56,-120.56z"/>
     </g>
     <path class="fil5 str0" d="M542.7 347.99c0,115.61 -93.72,209.33 -209.33,209.33 -115.61,0 -209.33,-93.72 -209.33,-209.33 0,-115.61 93.72,-209.33 209.33,-209.33 115.61,0 209.33,93.72 209.33,209.33z"/>
     <g>
      <g>
       <path class="fil6" d="M247.63 181.12c0,18.43 -14.93,33.36 -33.36,33.36 -18.42,0 -33.36,-14.93 -33.36,-33.36 0,-18.43 14.94,-33.36 33.36,-33.36 18.43,0 33.36,14.93 33.36,33.36z"/>
       <path class="fil7" d="M214.27 147.76c-3.13,0 -6.11,0.57 -8.99,1.38 15.47,2.9 27.19,16.43 27.19,32.74 0,15.29 -10.35,28.04 -24.38,31.98 2.01,0.38 4.07,0.62 6.18,0.62 18.43,0 33.36,-14.93 33.36,-33.36 0,-18.43 -14.93,-33.36 -33.36,-33.36z"/>
      </g>
      <g>
       <path class="fil8" d="M202.61 167.47c0,2.36 -1.91,4.26 -4.26,4.26 -2.36,0 -4.27,-1.9 -4.27,-4.26 0,-2.35 1.91,-4.26 4.27,-4.26 2.35,0 4.26,1.91 4.26,4.26z"/>
       <path class="fil8" d="M210.57 160.9c0,1.15 -0.93,2.08 -2.08,2.08 -1.15,0 -2.08,-0.93 -2.08,-2.08 0,-1.15 0.93,-2.08 2.08,-2.08 1.15,0 2.08,0.93 2.08,2.08z"/>
       <path class="fil8" d="M200.9 158.45c0,0.7 -0.57,1.27 -1.27,1.27 -0.71,0 -1.28,-0.57 -1.28,-1.27 0,-0.7 0.57,-1.27 1.28,-1.27 0.7,0 1.27,0.57 1.27,1.27z"/>
      </g>
     </g>
    </g>
    <g>
     <g>
      <g>
       <path class="fil9" d="M139.75 667.12c0,1.6 -1.3,2.89 -2.9,2.89 -1.6,0 -2.89,-1.29 -2.89,-2.89 0,-1.6 1.29,-2.89 2.89,-2.89 1.6,0 2.9,1.29 2.9,2.89z"/>
       <path class="fil10" d="M162.99 641.04c14.48,14.48 14.48,37.96 0,52.44 -14.48,14.47 -37.96,14.47 -52.44,0 -14.48,-14.48 -14.48,-37.96 0,-52.44 14.48,-14.48 37.96,-14.48 52.44,0z"/>
      </g>
      <g>
       <path class="fil9" d="M539.33 180.76c0,1.6 -1.3,2.89 -2.89,2.89 -1.6,0 -2.9,-1.29 -2.9,-2.89 0,-1.6 1.3,-2.89 2.9,-2.89 1.59,0 2.89,1.29 2.89,2.89z"/>
       <path class="fil10" d="M562.57 154.68c14.48,14.48 14.48,37.96 0,52.44 -14.48,14.48 -37.95,14.48 -52.43,0 -14.48,-14.48 -14.48,-37.96 0,-52.44 14.48,-14.48 37.95,-14.48 52.43,0z"/>
      </g>
      <g>
       <path class="fil9" d="M552.3 777.62c0,1.6 -1.29,2.89 -2.89,2.89 -1.6,0 -2.89,-1.29 -2.89,-2.89 0,-1.6 1.29,-2.89 2.89,-2.89 1.6,0 2.89,1.29 2.89,2.89z"/>
       <path class="fil10" d="M575.55 751.54c14.48,14.48 14.48,37.95 0,52.43 -14.48,14.48 -37.96,14.48 -52.44,0 -14.48,-14.48 -14.48,-37.95 0,-52.43 14.48,-14.48 37.96,-14.48 52.44,0z"/>
      </g>
      <g>
       <path class="fil9" d="M190.07 572.47c0.61,1.61 -0.2,3.4 -1.81,4 -1.6,0.61 -3.4,-0.2 -4,-1.81 -0.6,-1.61 0.21,-3.4 1.81,-4 1.61,-0.6 3.4,0.21 4,1.81z"/>
       <g>
        <g>
         <path class="fil9" d="M77.66 358.24c0.34,0.89 -0.12,1.89 -1.01,2.23 -0.9,0.34 -1.9,-0.11 -2.24,-1.01 -0.34,-0.9 0.12,-1.9 1.01,-2.24 0.9,-0.33 1.9,0.12 2.24,1.02z"/>
         <g>
          <path class="fil9" d="M566.61 442.17c0.33,0.9 -0.12,1.9 -1.02,2.24 -0.89,0.33 -1.89,-0.12 -2.23,-1.02 -0.34,-0.89 0.11,-1.89 1.01,-2.23 0.9,-0.34 1.9,0.11 2.24,1.01z"/>
          <path class="fil9" d="M358.24 586.91c0.34,0.89 -0.11,1.89 -1.01,2.23 -0.9,0.34 -1.9,-0.11 -2.24,-1.01 -0.33,-0.9 0.12,-1.9 1.02,-2.24 0.89,-0.33 1.9,0.12 2.23,1.02z"/>
          <path class="fil9" d="M236.51 766.46c0.34,0.9 -0.11,1.9 -1.01,2.24 -0.9,0.34 -1.9,-0.12 -2.23,-1.01 -0.34,-0.9 0.11,-1.9 1.01,-2.24 0.9,-0.34 1.9,0.12 2.23,1.01z"/>
          <g>
           <path class="fil9" d="M592.35 591.13c0.67,1.78 -0.23,3.76 -2,4.43 -1.78,0.67 -3.77,-0.23 -4.44,-2.01 -0.67,-1.77 0.23,-3.76 2.01,-4.43 1.78,-0.67 3.76,0.23 4.43,2.01z"/>
          </g>
          <g>
           <path class="fil9" d="M106.46 200.67c0.34,0.9 -0.11,1.9 -0.99,2.23 -0.89,0.34 -1.88,-0.12 -2.22,-1.02 -0.34,-0.89 0.11,-1.89 0.99,-2.23 0.89,-0.33 1.88,0.13 2.22,1.02z"/>
           <g>
            <path class="fil9" d="M388.84 85.04c0.67,1.77 -0.21,3.75 -1.97,4.41 -1.75,0.66 -3.71,-0.24 -4.38,-2.02 -0.67,-1.77 0.21,-3.75 1.97,-4.41 1.75,-0.66 3.71,0.25 4.38,2.02z"/>
           </g>
          </g>
          <path class="fil9" d="M156.26 844.04c0.95,2.52 -0.32,5.33 -2.84,6.28 -2.51,0.94 -5.32,-0.33 -6.27,-2.85 -0.95,-2.51 0.32,-5.32 2.84,-6.27 2.52,-0.95 5.33,0.33 6.27,2.84z"/>
         </g>
        </g>
       </g>
      </g>
     </g>
    </g>
   </g>
  </g>
  <path class="fil11" d="M85.79 745.08l10.51 0 0 -29.92c0,-6.1 -1,-14.81 -1.5,-20.81l0.4 0 5.21 15.21 10.8 29.42 6.91 0 10.71 -29.42 5.3 -15.21 0.4 0c-0.6,6 -1.5,14.71 -1.5,20.81l0 29.92 10.71 0 0 -65.44 -13.21 0 -11.31 32.02c-1.4,4.1 -2.7,8.5 -4.1,12.81l-0.4 0c-1.41,-4.31 -2.81,-8.71 -4.21,-12.81l-11.61 -32.02 -13.11 0 0 65.44z"/>
  <path id="1" class="fil11" d="M185.77 746.28c17.11,0 28.92,-13.01 28.92,-34.22 0,-21.12 -11.81,-33.62 -28.92,-33.62 -17.02,0 -28.82,12.5 -28.82,33.62 0,21.21 11.8,34.22 28.82,34.22zm0 -10.1c-10.31,0 -16.92,-9.41 -16.92,-24.12 0,-14.61 6.61,-23.52 16.92,-23.52 10.3,0 16.91,8.91 16.91,23.52 0,14.71 -6.61,24.12 -16.91,24.12z"/>
  <polygon id="2" class="fil11" points="238.4,745.08 250.01,745.08 250.01,689.44 268.92,689.44 268.92,679.64 219.49,679.64 219.49,689.44 238.4,689.44 "/>
  <polygon id="3" class="fil11" points="279.83,745.08 291.44,745.08 291.44,679.64 279.83,679.64 "/>
  <path id="4" class="fil11" d="M319.76 745.08l13.71 0 20.31 -65.44 -11.91 0 -9.1 32.92c-2,7.4 -3.5,13.81 -5.71,21.31l-0.4 0c-2.2,-7.5 -3.7,-13.91 -5.8,-21.31l-9.21 -32.92 -12.31 0 20.42 65.44z"/>
  <path id="5" class="fil11" d="M373.5 710.26c2.1,-6.91 4,-14.31 5.8,-21.62l0.4 0c1.9,7.21 3.8,14.71 5.9,21.62l2.31 8 -16.72 0 2.31 -8zm-21.92 34.82l11.81 0 5.1 -17.71 22.02 0 5.1 17.71 12.21 0 -21.32 -65.44 -13.6 0 -21.32 65.44z"/>
  <path id="6" class="fil11" d="M431.84 768.4c11.51,-0.5 18.11,-3.5 18.11,-9.81 0,-4.1 -2.7,-6.1 -7.5,-7.3l2.3 -5.21c6.8,-0.9 12.41,-4.1 16.91,-9.3l-6.21 -7.31c-3.7,4 -8.2,6.71 -14.01,6.71 -11,0 -18.01,-9.01 -18.01,-23.92 0,-14.71 7.61,-23.72 18.31,-23.72 5.11,0 9.01,2.3 12.41,5.71l6.21 -7.51c-4.11,-4.4 -10.71,-8.3 -18.92,-8.3 -16.51,0 -29.92,12.7 -29.92,34.12 0,20.21 11.31,32.02 26.12,33.52l-3.9 8.11c5.9,0.8 7.7,2.2 7.7,4.5 0,2.9 -2.5,4.2 -10.6,4.7l1 5.01z"/>
  <path id="7" class="fil11" d="M485.98 710.26c2.1,-6.91 4,-14.31 5.8,-21.62l0.4 0c1.9,7.21 3.8,14.71 5.9,21.62l2.31 8 -16.72 0 2.31 -8zm-21.92 34.82l11.81 0 5.1 -17.71 22.02 0 5.1 17.71 12.21 0 -21.32 -65.44 -13.61 0 -21.31 65.44zm35.22 -70.05c6.51,0 11.01,-4.5 11.51,-13.41l-7.6 -0.6c-0.5,4.01 -2,5.81 -4.21,5.81 -4,0 -7,-6.41 -14.31,-6.41 -6.5,0 -11,4.41 -11.5,13.31l7.6 0.6c0.4,-4 2,-5.7 4.2,-5.7 4.01,0 7.01,6.4 14.31,6.4z"/>
  <path id="8" class="fil11" d="M552.82 746.28c17.11,0 28.92,-13.01 28.92,-34.22 0,-21.12 -11.81,-33.62 -28.92,-33.62 -17.01,0 -28.82,12.5 -28.82,33.62 0,21.21 11.81,34.22 28.82,34.22zm0 -10.1c-10.3,0 -16.91,-9.41 -16.91,-24.12 0,-14.61 6.61,-23.52 16.91,-23.52 10.31,0 16.91,8.91 16.91,23.52 0,14.71 -6.6,24.12 -16.91,24.12z"/>
 </g>
</svg>
