<?xml version="1.0" encoding="UTF-8"?>
<svg xmlns="http://www.w3.org/2000/svg" xmlns:xlink="http://www.w3.org/1999/xlink" width="512" height="512" viewBox="0 0 60 61" version="1.1"><!-- Generator: Sketch 51.3 (57544) - http://www.bohemiancoding.com/sketch --><title>007 - Autism</title><desc>Created with Sketch.</desc><defs/><g id="Page-1" stroke="none" stroke-width="1" fill="none" fill-rule="evenodd"><g id="007---Autism" transform="translate(-1.000000, -1.000000)" fill-rule="nonzero"><path d="M47.13,38.71 C45.8503538,41.6319437 45.3706323,44.8415908 45.74,48.01 C45.9651005,50.0721875 46.3733794,52.1102353 46.96,54.1 C47.2748963,55.1305317 47.672868,56.1338218 48.15,57.1 C48.7418004,58.0090608 49.2761765,58.9542385 49.75,59.93 L24.65,60 L24.65,59.99 L24.64,59.98 C24.55,59.62 23.04,53.8 19.72,52.3 C19.1,52.51 18.45,52.74 17.78,52.97 C15.5555599,53.740597 13.2924947,54.3948165 11,54.93 C10.3693821,55.0806865 9.70512584,54.9878335 9.14,54.67 L9.13,54.67 C8.4939137,54.2687189 8.01949017,53.6562169 7.79,52.94 C7.52484783,52.2284319 7.42566071,51.4657172 7.5,50.71 C7.73858566,49.940746 7.82020035,49.1314004 7.74,48.33 C7.48,47.32 6.51,47.07 5.75,46.53 C5.14,46.09 6.25,44.68 6.25,44.68 C6.25,44.68 5.07,43.81 4.65,43.43 C4.21,43.07 4.82,42.45 5.38,41.28 C5.60694079,40.7719796 5.67323378,40.2067446 5.57,39.66 C5.36,38.59 3.73,38.18 2.93,37.59 C2.56,37.31 1.95,36.89 1.88,36.38 C1.77,35.67 2.61,34.67 3.02,34.17 C4.76454657,31.9217816 6.25996718,29.4908848 7.48,26.92 C7.64010631,26.6486227 7.73589137,26.3441631 7.76,26.03 C7.74,24.6 5.67,24.01 5.47,22.62 C5.44871368,22.2115508 5.52408857,21.8038412 5.69,21.43 C6.26667192,20.2042401 6.76109856,18.9414478 7.17,17.65 C7.41142981,16.464203 7.72874925,15.2951313 8.12,14.15 C8.95859812,11.8496676 10.2508376,9.74127689 11.92,7.95 C14.37,5.36 17.99,4.08 21.41,3.4 C24.4513721,2.73504394 27.5355865,2.28393999 30.64,2.05 C30.74,2.04 30.84,2.04 30.94,2.03 C37.34,1.71 42.4,3.88 47.35,7.76 C50.0585045,9.77277844 52.0382351,12.6124983 52.99,15.85 C53.7151888,18.5213389 54.0552867,21.2825294 54,24.05 C53.980834,26.7831121 53.1829958,29.4541358 51.7,31.75 C50.21,34.1 48.25,36.14 47.13,38.71 Z" id="Shape" fill="#FEC108"/><path d="M44.13,38.71 C42.8503538,41.6319437 42.3706323,44.8415908 42.74,48.01 C42.9651005,50.0721875 43.3733794,52.1102353 43.96,54.1 C44.2748963,55.1305317 44.672868,56.1338218 45.15,57.1 C45.7418004,58.0090608 46.2761765,58.9542385 46.75,59.93 L24.65,59.99 L24.64,59.98 C24.55,59.62 23.04,53.8 19.72,52.3 C19.1,52.51 18.45,52.74 17.78,52.97 C17.4604669,52.6972041 17.1035092,52.4715799 16.72,52.3 C14.31,53.14 11.37,54.1 9.14,54.67 L9.13,54.67 C8.4939137,54.2687189 8.01949017,53.6562169 7.79,52.94 C7.52484783,52.2284319 7.42566071,51.4657172 7.5,50.71 C7.73858566,49.940746 7.82020035,49.1314004 7.74,48.33 C7.48,47.32 6.51,47.07 5.75,46.53 C5.14,46.09 6.25,44.68 6.25,44.68 C6.25,44.68 5.07,43.81 4.65,43.43 C4.21,43.07 4.82,42.45 5.38,41.28 C5.60694079,40.7719796 5.67323378,40.2067446 5.57,39.66 C5.36,38.59 3.73,38.18 2.93,37.59 C2.56,37.31 1.95,36.89 1.88,36.38 C1.77,35.67 2.61,34.67 3.02,34.17 C4.76454657,31.9217816 6.25996718,29.4908848 7.48,26.92 C7.64010631,26.6486227 7.73589137,26.3441631 7.76,26.03 C7.74,24.6 5.67,24.01 5.47,22.62 C5.44871368,22.2115508 5.52408857,21.8038412 5.69,21.43 C6.26667192,20.2042401 6.76109856,18.9414478 7.17,17.65 C7.41142981,16.464203 7.72874925,15.2951313 8.12,14.15 C8.95859812,11.8496676 10.2508376,9.74127689 11.92,7.95 C14.37,5.36 17.99,4.08 21.41,3.4 C24.4513721,2.73504394 27.5355865,2.28393999 30.64,2.05 C35.8,2.37 40.12,4.44 44.35,7.76 C47.0585045,9.77277844 49.0382351,12.6124983 49.99,15.85 C50.7151888,18.5213389 51.0552867,21.2825294 51,24.05 C50.980834,26.7831121 50.1829958,29.4541358 48.7,31.75 C47.21,34.1 45.25,36.14 44.13,38.71 Z" id="Shape" fill="#FFDC00"/><path d="M52,25 L52,38 C51.9967052,39.1032019 51.1032019,39.9967052 50,40 L37,40 L37,34.5 C35.9686129,35.2735403 34.5181311,35.1359168 33.6506276,34.1822074 C32.7831241,33.228498 32.7831241,31.771502 33.6506276,30.8177926 C34.5181311,29.8640832 35.9686129,29.7264597 37,30.5 L37,25 L42.5,25 C41.7264597,23.9686129 41.8640832,22.5181311 42.8177926,21.6506276 C43.771502,20.7831241 45.228498,20.7831241 46.1822074,21.6506276 C47.1359168,22.5181311 47.2735403,23.9686129 46.5,25 L52,25 Z" id="Shape" fill="#4527A0"/><path d="M33,32.5 C33,33.4469301 33.5350059,34.3125879 34.381966,34.736068 C35.2289261,35.159548 36.2424559,35.0681581 37,34.5 L37,40 L24,40 C22.8954305,40 22,39.1045695 22,38 L22,25 L27.5,25 C26.7264597,23.9686129 26.8640832,22.5181311 27.8177926,21.6506276 C28.771502,20.7831241 30.228498,20.7831241 31.1822074,21.6506276 C32.1359168,22.5181311 32.2735403,23.9686129 31.5,25 L37,25 L37,30.5 C36.2424559,29.9318419 35.2289261,29.840452 34.381966,30.263932 C33.5350059,30.6874121 33,31.5530699 33,32.5 Z" id="Shape" fill="#9D27B0"/><path d="M40.936,18.074 C40.742753,18.8958707 40.1477383,19.5646828 39.3539445,19.8522717 C38.5601507,20.1398606 37.6748268,20.0073704 37,19.5 L37,25 L31.5,25 C32.2735403,23.9686129 32.1359168,22.5181311 31.1822074,21.6506276 C30.228498,20.7831241 28.771502,20.7831241 27.8177926,21.6506276 C26.8640832,22.5181311 26.7264597,23.9686129 27.5,25 L22,25 L22,12 C22,10.8954305 22.8954305,10 24,10 L37,10 L37,15.5 C37.8416465,14.8665321 38.9900688,14.8285972 39.8716847,15.4051418 C40.7533007,15.9816864 41.1789335,17.0489958 40.936,18.074 Z" id="Shape" fill="#673AB7"/><path d="M60,4 L60,17 L54.5,17 C55.2735403,15.9686129 55.1359168,14.5181311 54.1822074,13.6506276 C53.228498,12.7831241 51.771502,12.7831241 50.8177926,13.6506276 C49.8640832,14.5181311 49.7264597,15.9686129 50.5,17 L46,17 C45.4477153,17 45,16.5522847 45,16 L45,11.5 C46.0313871,12.2735403 47.4818689,12.1359168 48.3493724,11.1822074 C49.2168759,10.228498 49.2168759,8.77150196 48.3493724,7.81779257 C47.4818689,6.86408318 46.0313871,6.72645969 45,7.5 L45,2 L58,2 C59.1032019,2.0032948 59.9967052,2.89679813 60,4 Z" id="Shape" fill="#6A1B9A"/><path d="M49,25 L49,38 C48.9967052,39.1032019 48.1032019,39.9967052 47,40 L37,40 L37,34.5 C35.9686129,35.2735403 34.5181311,35.1359168 33.6506276,34.1822074 C32.7831241,33.228498 32.7831241,31.771502 33.6506276,30.8177926 C34.5181311,29.8640832 35.9686129,29.7264597 37,30.5 L37,25 L42.5,25 C41.6715729,23.8954305 41.8954305,22.3284271 43,21.5 C44.1045695,22.3284271 44.3284271,23.8954305 43.5,25 L49,25 Z" id="Shape" fill="#673AB7"/><path d="M57,4 L57,17 L54.5,17 C55.2464756,16.0046992 55.1474968,14.6119629 54.267767,13.732233 C53.3880371,12.8525032 51.9953008,12.7535244 51,13.5 C50.0046992,12.7535244 48.6119629,12.8525032 47.732233,13.732233 C46.8525032,14.6119629 46.7535244,16.0046992 47.5,17 L46,17 C45.4477153,17 45,16.5522847 45,16 L45,11.5 C46.0313871,12.2735403 47.4818689,12.1359168 48.3493724,11.1822074 C49.2168759,10.228498 49.2168759,8.77150196 48.3493724,7.81779257 C47.4818689,6.86408318 46.0313871,6.72645969 45,7.5 L45,2 L55,2 C56.1032019,2.0032948 56.9967052,2.89679813 57,4 Z" id="Shape" fill="#9D27B0"/><path d="M10.511,56 C8.86145152,55.9690108 7.4263849,54.8624583 6.977,53.275 C6.66129272,52.4143284 6.54869822,51.4923539 6.648,50.581 C6.682,50.318 6.739,50.05 6.798,49.781 C6.91941128,49.3932674 6.95356021,48.9834802 6.898,48.581 C6.817,48.267 6.586,48.11 5.998,47.774 C5.765,47.641 5.528,47.505 5.306,47.349 C4.98074391,47.1171358 4.76606133,46.7609003 4.713,46.365 C4.67448978,45.8623148 4.78770505,45.359639 5.038,44.922 C4.698,44.661 4.325,44.367 4.109,44.172 C3.185,43.417 3.798,42.333 4.164,41.686 C4.299,41.449 4.455,41.174 4.604,40.854 C4.74159405,40.5365137 4.78128854,40.1851827 4.718,39.845 C4.667,39.586 3.942,39.216 3.51,38.995 C3.14797678,38.8240989 2.80078202,38.6234083 2.472,38.395 C1.75470729,37.9902386 1.23115797,37.313086 1.02,36.517 C0.86,35.487 1.62,34.458 2.345,33.575 C4.05560327,31.369443 5.52247783,28.985227 6.72,26.464 C6.79697882,26.3281355 6.85421996,26.1820023 6.89,26.03 C6.89,25.755 6.565,25.439 6.076,24.991 C5.3374331,24.4449531 4.82021123,23.6511932 4.619,22.755 C4.56192334,22.1842424 4.65284498,21.6084053 4.883,21.083 C5.062,20.611 5.266,20.155 5.47,19.699 C5.82566937,18.9679886 6.11224857,18.2053397 6.326,17.421 L6.426,16.999 C6.65602311,15.9179422 6.95190812,14.8519547 7.312,13.807 C8.19404573,11.3778111 9.55841114,9.15217091 11.323,7.264 C13.559,4.9 16.836,3.316 21.345,2.419 C24.5310865,1.72059835 27.7640828,1.25668862 31.018,1.031 C36.2094345,0.7390928 41.3474228,2.20804585 45.6,5.2 C46.0418278,5.53137085 46.1313708,6.1581722 45.8,6.6 C45.4686292,7.0418278 44.8418278,7.13137085 44.4,6.8 C40.5130383,4.10634113 35.8415232,2.77991362 31.119,3.029 C27.9639186,3.25014863 24.8292288,3.70168567 21.74,4.38 C17.704,5.18 14.689,6.615 12.776,8.637 C11.1965696,10.3291549 9.97605599,12.323545 9.188,14.5 C8.85614522,15.4674021 8.58396707,16.4542566 8.373,17.455 L8.273,17.881 C8.03405513,18.788547 7.70821606,19.6709581 7.3,20.516 C7.111,20.937 6.923,21.357 6.76,21.786 C6.66364086,22.0015614 6.61063423,22.2339751 6.604,22.47 C6.649,22.796 7.03,23.146 7.434,23.517 C8.25904392,24.1003679 8.79170832,25.0118401 8.895,26.017 C8.87635428,26.4916102 8.74434083,26.9548574 8.51,27.368 C7.2548892,30.0038306 5.71756418,32.4957388 3.925,34.8 C3.163,35.727 3.005,36.1 3,36.247 C3.18518784,36.4261779 3.38598284,36.5884872 3.6,36.732 C3.86136569,36.9140729 4.13730073,37.0742824 4.425,37.211 C5.277,37.647 6.446,38.245 6.686,39.465 C6.82865982,40.2207273 6.73544627,41.0020454 6.419,41.703 C6.244,42.073 6.065,42.393 5.908,42.668 C5.859,42.755 5.808,42.851 5.758,42.938 C6.172,43.272 6.738,43.696 6.978,43.872 C7.19643076,44.0334948 7.33976225,44.2769033 7.37503403,44.5462515 C7.41030582,44.8155997 7.33448237,45.0877071 7.165,45.3 C7.01691908,45.4930204 6.88797779,45.6999963 6.78,45.918 L6.987,46.036 C7.87220583,46.4166291 8.54814599,47.1633751 8.839,48.082 C8.98564963,48.7876772 8.95576498,49.5186489 8.752,50.21 C8.706,50.419 8.658,50.627 8.632,50.837 C8.5729723,51.4418114 8.65336419,52.0521056 8.867,52.621 C9.0847514,53.5454575 9.99364951,54.1329967 10.926,53.952 C13.8403482,53.2516858 16.7117997,52.3835725 19.526,51.352 C20.0479091,51.1705745 20.6180744,51.4465909 20.7995,51.9685 C20.9809255,52.4904091 20.7049091,53.0605744 20.183,53.242 C17.2887222,54.3027843 14.334635,55.19265 11.336,55.907 C11.0649467,55.96639 10.7884727,55.9975562 10.511,56 Z M5.411,42.659 L5.443,42.688 C5.43377066,42.6766361 5.42374541,42.6659425 5.413,42.656 L5.411,42.659 Z" id="Shape" fill="#000000"/><path d="M24.78,61 C24.3194886,60.9998779 23.9186017,60.6852787 23.809,60.238 C23.421,58.657 21.88,54.314 19.438,53.211 C19.0639436,53.0419148 18.8312137,52.6614066 18.8510746,52.25139 C18.8709354,51.8413735 19.1393525,51.4851405 19.528,51.353 C20.57,50.999 21.515,50.669 22.258,50.409 C22.951,50.167 23.473,49.985 23.744,49.898 C27.901,48.583 28.744,47.082 28.72,46.053 C28.7070213,45.5007153 29.1442153,45.0424787 29.6965,45.0295 C30.2487847,45.0165213 30.7070213,45.4537153 30.72,46.006 C30.778,48.498 28.636,50.449 24.352,51.806 C24.093,51.889 23.588,52.065 22.918,52.299 L22.018,52.614 C23.6685471,54.4421006 24.8727465,56.6280067 25.536,59 L48.218,58.937 L48.151,58.837 C47.8630969,58.4195592 47.6041562,57.9828684 47.376,57.53 C46.879054,56.5216399 46.4640482,55.4749292 46.135,54.4 C45.5288621,52.3528819 45.1078369,50.2554538 44.877,48.133 C44.5430828,45.2776259 44.8642118,42.3837036 45.816,39.671 C45.9993585,39.1499193 46.5704193,38.8761415 47.0915,39.0595 C47.6125807,39.2428585 47.8863585,39.8139193 47.703,40.335 C46.8523283,42.7584669 46.5650569,45.3439092 46.863,47.895 C47.0789954,49.8978497 47.4749279,51.8771776 48.046,53.809 C48.3444759,54.7867332 48.7220564,55.7385437 49.175,56.655 C49.3660492,57.0298282 49.5822082,57.3913183 49.822,57.737 C50.2467748,58.3198965 50.587758,58.9594505 50.835,59.637 C50.9304293,59.9404437 50.8757998,60.2711879 50.6878608,60.5278273 C50.4999218,60.7844667 50.201095,60.9363833 49.883,60.937 L24.783,61.007 L24.78,61 Z" id="Shape" fill="#000000"/><path d="M11.191,19.57 C11.1166262,19.5700283 11.042488,19.5616417 10.97,19.545 C10.7104041,19.4865943 10.4847895,19.3271371 10.3430905,19.1019201 C10.2013915,18.8767032 10.1552938,18.6042999 10.215,18.345 L10.315,17.905 C10.5108134,16.9875133 10.7602412,16.0822941 11.062,15.194 C11.7557551,13.2674298 12.8354602,11.5027432 14.235,10.008 C15.1927669,9.03313896 16.3335802,8.25696453 17.592,7.724 C17.9199594,7.56444073 18.3087773,7.59608314 18.6066219,7.80657101 C18.9044665,8.01705888 19.0640965,8.37300663 19.0231772,8.73541821 C18.9822579,9.09782979 18.7472795,9.40922295 18.41,9.548 C17.3922981,9.97499852 16.4681984,10.5974068 15.69,11.38 C14.4766381,12.6774003 13.5405702,14.2085911 12.939,15.88 C12.6674992,16.6901711 12.4424665,17.5151797 12.265,18.351 L12.165,18.785 C12.0642825,19.2425061 11.6594595,19.5687751 11.191,19.57 Z" id="Shape" fill="#000000"/><circle id="Oval" fill="#000000" cx="10" cy="22" r="1"/><path d="M50,41 L37,41 C36.4477153,41 36,40.5522847 36,40 L36,35.964 C34.6432091,36.1601172 33.2968315,35.5460616 32.5553829,34.3929799 C31.8139344,33.2398982 31.8139344,31.7601018 32.5553829,30.6070201 C33.2968315,29.4539384 34.6432091,28.8398828 36,29.036 L36,25 C36,24.4477153 36.4477153,24 37,24 L41.036,24 C41.012502,23.834361 41.0004733,23.6672968 41,23.5 C41,21.5670034 42.5670034,20 44.5,20 C46.4329966,20 48,21.5670034 48,23.5 C47.9995267,23.6672968 47.987498,23.834361 47.964,24 L52,24 C52.5522847,24 53,24.4477153 53,25 L53,38 C53,39.6568542 51.6568542,41 50,41 Z M38,39 L50,39 C50.5522847,39 51,38.5522847 51,38 L51,26 L46.5,26 C46.1212279,26 45.7749648,25.7859976 45.6055728,25.4472136 C45.4361808,25.1084296 45.4727368,24.7030176 45.7,24.4 C46.1641242,23.7811677 46.0815501,22.9108787 45.5093245,22.3903766 C44.9370988,21.8698745 44.0629012,21.8698745 43.4906755,22.3903766 C42.9184499,22.9108787 42.8358758,23.7811677 43.3,24.4 C43.5272632,24.7030176 43.5638192,25.1084296 43.3944272,25.4472136 C43.2250352,25.7859976 42.8787721,26 42.5,26 L38,26 L38,30.5 C38,30.8787721 37.7859976,31.2250352 37.4472136,31.3944272 C37.1084296,31.5638192 36.7030176,31.5272632 36.4,31.3 C35.7811677,30.8358758 34.9108787,30.9184499 34.3903766,31.4906755 C33.8698745,32.0629012 33.8698745,32.9370988 34.3903766,33.5093245 C34.9108787,34.0815501 35.7811677,34.1641242 36.4,33.7 C36.7030176,33.4727368 37.1084296,33.4361808 37.4472136,33.6055728 C37.7859976,33.7749648 38,34.1212279 38,34.5 L38,39 Z" id="Shape" fill="#000000"/><path d="M37,41 L24,41 C22.3431458,41 21,39.6568542 21,38 L21,25 C21,24.4477153 21.4477153,24 22,24 L26.036,24 C26.012502,23.834361 26.0004733,23.6672968 26,23.5 C25.9977943,21.7886819 27.2333957,20.3267142 28.9211487,20.0436872 C30.6089017,19.7606602 32.2538266,20.7395793 32.81,22.358 C32.9900084,22.8855346 33.0434465,23.4480056 32.966,24 L37,24 C37.5522847,24 38,24.4477153 38,25 L38,30.5 C38,30.8787721 37.7859976,31.2250352 37.4472136,31.3944272 C37.1084296,31.5638192 36.7030176,31.5272632 36.4,31.3 C35.7811677,30.8358758 34.9108787,30.9184499 34.3903766,31.4906755 C33.8698745,32.0629012 33.8698745,32.9370988 34.3903766,33.5093245 C34.9108787,34.0815501 35.7811677,34.1641242 36.4,33.7 C36.7030176,33.4727368 37.1084296,33.4361808 37.4472136,33.6055728 C37.7859976,33.7749648 38,34.1212279 38,34.5 L38,40 C38,40.5522847 37.5522847,41 37,41 Z M23,26 L23,38 C23,38.5522847 23.4477153,39 24,39 L36,39 L36,35.964 C34.6432091,36.1601172 33.2968315,35.5460616 32.5553829,34.3929799 C31.8139344,33.2398982 31.8139344,31.7601018 32.5553829,30.6070201 C33.2968315,29.4539384 34.6432091,28.8398828 36,29.036 L36,26 L31.5,26 C31.1233786,25.9983211 30.7796429,25.7851787 30.6107044,25.4485687 C30.4417658,25.1119587 30.4762809,24.708979 30.7,24.406 C31.0034375,24.0032635 31.0842155,23.4750127 30.915,23 C30.7499852,22.5205397 30.3505581,22.1592431 29.857,22.043 C29.4043339,21.9342526 28.9268145,22.0405321 28.563,22.331 C27.9317665,22.8369174 27.8154149,23.7522458 28.3,24.4 C28.5272632,24.7030176 28.5638192,25.1084296 28.3944272,25.4472136 C28.2250352,25.7859976 27.8787721,26 27.5,26 L23,26 Z" id="Shape" fill="#000000"/><path d="M37,26 L31.5,26 C31.1233786,25.9983211 30.7796429,25.7851787 30.6107044,25.4485687 C30.4417658,25.1119587 30.4762809,24.708979 30.7,24.406 C31.0034375,24.0032635 31.0842155,23.4750127 30.915,23 C30.7499852,22.5205397 30.3505581,22.1592431 29.857,22.043 C29.4043339,21.9342526 28.9268145,22.0405321 28.563,22.331 C27.9317665,22.8369174 27.8154149,23.7522458 28.3,24.4 C28.5272632,24.7030176 28.5638192,25.1084296 28.3944272,25.4472136 C28.2250352,25.7859976 27.8787721,26 27.5,26 L22,26 C21.4477153,26 21,25.5522847 21,25 L21,12 C21,10.3431458 22.3431458,9 24,9 L37,9 C37.5522847,9 38,9.44771525 38,10 L38,14.036 C39.1442834,13.8702217 40.2966031,14.2802671 41.0789461,15.1316227 C41.8612892,15.9829783 42.1726918,17.1657743 41.911,18.292 C41.6437712,19.4680086 40.7855962,20.4211999 39.644,20.81 C39.1158892,20.9905804 38.5525556,21.0436927 38,20.965 L38,25 C38,25.5522847 37.5522847,26 37,26 Z M32.966,24 L36,24 L36,19.5 C36.0016789,19.1233786 36.2148213,18.7796429 36.5514313,18.6107044 C36.8880413,18.4417658 37.291021,18.4762809 37.594,18.7 C37.9974538,19.0017306 38.5248129,19.0823723 39,18.915 C39.4790701,18.7488246 39.8400268,18.3493961 39.957,17.856 C40.0652988,17.4034953 39.9586482,16.9263356 39.668,16.563 C39.1513005,15.9520796 38.2531673,15.8378586 37.6,16.3 C37.2969824,16.5272632 36.8915704,16.5638192 36.5527864,16.3944272 C36.2140024,16.2250352 36,15.8787721 36,15.5 L36,11 L24,11 C23.4477153,11 23,11.4477153 23,12 L23,24 L26.036,24 C26.012502,23.834361 26.0004733,23.6672968 26,23.5 C25.9977943,21.7886819 27.2333957,20.3267142 28.9211487,20.0436872 C30.6089017,19.7606602 32.2538266,20.7395793 32.81,22.358 C32.9900084,22.8855346 33.0434465,23.4480056 32.966,24 Z" id="Shape" fill="#000000"/><path d="M60,18 L54.5,18 C54.1212279,18 53.7749648,17.7859976 53.6055728,17.4472136 C53.4361808,17.1084296 53.4727368,16.7030176 53.7,16.4 C54.1641242,15.7811677 54.0815501,14.9108787 53.5093245,14.3903766 C52.9370988,13.8698745 52.0629012,13.8698745 51.4906755,14.3903766 C50.9184499,14.9108787 50.8358758,15.7811677 51.3,16.4 C51.5272632,16.7030176 51.5638192,17.1084296 51.3944272,17.4472136 C51.2250352,17.7859976 50.8787721,18 50.5,18 L46,18 C44.8954305,18 44,17.1045695 44,16 L44,11.5 C44.0016789,11.1233786 44.2148213,10.7796429 44.5514313,10.6107044 C44.8880413,10.4417658 45.291021,10.4762809 45.594,10.7 C45.9974538,11.0017306 46.5248129,11.0823723 47,10.915 C47.4790701,10.7488246 47.8400268,10.3493961 47.957,9.856 C48.0652988,9.4034953 47.9586482,8.92633557 47.668,8.563 C47.1513005,7.95207962 46.2531673,7.83785862 45.6,8.3 C45.2969824,8.52726324 44.8915704,8.56381921 44.5527864,8.39442719 C44.2140024,8.22503518 44,7.87877206 44,7.5 L44,2 C44,1.44771525 44.4477153,1 45,1 L58,1 C59.6568542,1 61,2.34314575 61,4 L61,17 C61,17.5522847 60.5522847,18 60,18 Z M55.964,16 L59,16 L59,4 C59,3.44771525 58.5522847,3 58,3 L46,3 L46,6.036 C47.1442834,5.87022168 48.2966031,6.28026705 49.0789461,7.13162268 C49.8612892,7.98297831 50.1726918,9.16577428 49.911,10.292 C49.6437712,11.4680086 48.7855962,12.4211999 47.644,12.81 C47.1158972,12.9906176 46.5525547,13.0437308 46,12.965 L46,16 L49.036,16 C49.012502,15.834361 49.0004733,15.6672968 49,15.5 C49,13.5670034 50.5670034,12 52.5,12 C54.4329966,12 56,13.5670034 56,15.5 C55.9995267,15.6672968 55.987498,15.834361 55.964,16 Z" id="Shape" fill="#000000"/></g></g></svg>
