<svg height="312" viewBox="0 0 60 60" width="312" xmlns="http://www.w3.org/2000/svg"><g id="Page-1" fill="none" fill-rule="evenodd"><g id="008---Target-Audience" fill-rule="nonzero"><circle id="Oval" cx="30" cy="30" fill="#f44335" r="26"/><path id="Shape" d="m30 4c-.5 0-1 .018-1.5.046 13.7346379.81809046 24.454075 12.1950193 24.454075 25.954s-10.7194371 25.1359095-24.454075 25.954c.5.028 1 .046 1.5.046 14.3594033-.0000003 25.9999995-11.6405967 25.9999995-26s-11.6405962-25.9999997-25.9999995-26z" fill="#c81e1e"/><circle id="Oval" cx="30" cy="30" fill="#f5f5f5" r="22"/><path id="Shape" d="m30 8c-.5 0-1 .023-1.5.057 11.5391351.78718633 20.4970742 10.3770456 20.4970742 21.943s-8.9579391 21.1558137-20.4970742 21.943c.5.034 1 .057 1.5.057 12.1502645 0 22-9.8497355 22-22s-9.8497355-22-22-22z" fill="#cfd8dc"/><circle id="Oval" cx="30" cy="30" fill="#f44335" r="15"/><path id="Shape" d="m30 15c-.506 0-1.006.027-1.5.076 7.6612948.774165 13.491947 7.2236903 13.491947 14.924s-5.8306522 14.149835-13.491947 14.924c.494.049.994.076 1.5.076 8.2842712 0 15-6.7157288 15-15s-6.7157288-15-15-15z" fill="#c81e1e"/><path id="Shape" d="m44.89 31.76c-.6241342 5.2892895-4.0084885 9.8499829-8.89 11.98v-4.74c0-3.3137085 2.6862915-6 6-6 1.0937329.0059395 2.1406675-.4432643 2.89-1.24z" fill="#ff9801"/><path id="Shape" d="m42 33c-.107 0-.211.01-.316.016-.7350525 3.5821426-2.7571775 6.7707961-5.684 8.963v1.761c4.8815115-2.1300171 8.2658658-6.6907105 8.89-11.98-.7493325.7967357-1.7962671 1.2459395-2.89 1.24z" fill="#f57c00"/><path id="Shape" d="m36 39v4.74c-3.8236074 1.6799649-8.1763926 1.6799649-12 0v-4.74c0-3.3137085 2.6862915-6 6-6 3.3116533.0049563 5.9950437 2.6883467 6 6z" fill="#ffdc00"/><path id="Shape" d="m28.5 33.2c2.6485697.6787432 4.5006301 3.0658433 4.5 5.8v4.74c-1.4283581.6284424-2.9471186 1.0270326-4.5 1.181 2.5601375.264262 5.1449628-.1427619 7.5-1.181v-4.74c.0002669-1.8552176-.8588326-3.6059266-2.3264081-4.7408516-1.4675754-1.134925-3.3780875-1.526049-5.1735919-1.0591484z" fill="#fec108"/><path id="Shape" d="m24 39v4.74c-4.8815115-2.1300171-8.2658658-6.6907105-8.89-11.98.7493325.7967357 1.7962671 1.2459395 2.89 1.24 3.3116533.0049563 5.9950437 2.6883467 6 6z" fill="#ff9801"/><path id="Shape" d="m22 29c0 2.209139-1.790861 4-4 4-1.0937329.0059395-2.1406675-.4432643-2.89-1.24-.0774018-.5834093-.1141571-1.1714933-.11-1.76-.0012532-1.421445.2007923-2.8357637.6-4.2 1.2120706-.9090529 2.8337183-1.0552768 4.1888544-.3777088 1.3551361.6775681 2.2111456 2.0626206 2.2111456 3.5777088z" fill="#ffe0b2"/><circle id="Oval" cx="30" cy="29" fill="#ffe0b2" r="4"/><path id="Shape" d="m30 25c-.5146869.0021442-1.0240797.1040228-1.5.3 1.5106493.6093694 2.4998715 2.0750763 2.4998715 3.704s-.9892222 3.0946306-2.4998715 3.704c1.4960688.6053048 3.209337.2522552 4.3442174-.8952038 1.1348805-1.147459 1.4690246-2.8645145.8472667-4.3538207-.621758-1.4893061-2.0776019-2.4590745-3.6914841-2.4589755z" fill="#dfc49c"/><path id="Shape" d="m45 30c.0041571.5885067-.0325982 1.1765907-.11 1.76-.7493325.7967357-1.7962671 1.2459395-2.89 1.24-1.7403683 0-3.281013-1.1253113-3.8104329-2.7832004-.5294198-1.6578892.0738969-3.4678396 1.4921663-4.476499s3.3259719-.9845216 4.7182666.0596994c.3992077 1.3642363.6012532 2.778555.6 4.2z" fill="#ffe0b2"/><path id="Shape" d="m44.4 25.8c-1.1241073-.8451087-2.610437-1.0351279-3.911-.5.3239776.1266416.6301907.2947059.911.5.3992077 1.3642363.6012532 2.778555.6 4.2.0041571.5885067-.0325982 1.1765907-.11 1.76-.3898259.4102585-.8640847.7309802-1.39.94 1.518374.6251402 3.2649546.2502198 4.393-.943.2403733-1.9985709.0726553-4.0251358-.493-5.957z" fill="#dfc49c"/><g fill="#000"><path id="Shape" d="m59 29h-2.025c-.5400246-14.115862-11.859138-25.43497537-25.975-25.975v-2.025c0-.55228475-.4477153-1-1-1s-1 .44771525-1 1v2.025c-14.115862.54002463-25.43497537 11.859138-25.975 25.975h-2.025c-.55228475 0-1 .4477153-1 1s.44771525 1 1 1h2.025c.54002463 14.115862 11.859138 25.4349754 25.975 25.975v2.025c0 .5522847.4477153 1 1 1s1-.4477153 1-1v-2.025c14.115862-.5400246 25.4349754-11.859138 25.975-25.975h2.025c.5522847 0 1-.4477153 1-1s-.4477153-1-1-1zm-4.025 0h-2c-.5326968-11.9088315-10.0661685-21.44230319-21.975-21.975v-2c13.0121695.53685512 23.4381449 10.9628305 23.975 23.975zm-5.975 2h1.948c-.5241232 10.7925962-9.1554301 19.4243358-19.948 19.949v-1.949c0-.5522847-.4477153-1-1-1s-1 .4477153-1 1v1.948c-10.7925962-.5241232-19.42433581-9.1554301-19.949-19.948h1.949c.5522847 0 1-.4477153 1-1s-.4477153-1-1-1h-1.949c.52416597-10.7929602 9.1560398-19.42483403 19.949-19.949v1.949c0 .5522847.4477153 1 1 1s1-.4477153 1-1v-1.949c10.7929602.52416597 19.424834 9.1560398 19.949 19.949h-1.949c-.5522847 0-1 .4477153-1 1s.4477153 1 1 1zm-20-25.975v2c-11.9088315.53269681-21.44230319 10.0661685-21.975 21.975h-2c.53685512-13.0121695 10.9628305-23.43814488 23.975-23.975zm-23.975 25.975h2c.53269681 11.9088315 10.0661685 21.4423032 21.975 21.975v2c-13.0121695-.5368551-23.43814488-10.9628305-23.975-23.975zm25.975 23.975v-2c11.9088315-.5326968 21.4423032-10.0661685 21.975-21.975h2c-.5368551 13.0121695-10.9628305 23.4381449-23.975 23.975z"/><path id="Shape" d="m30 14c-8.836556 0-16 7.163444-16 16s7.163444 16 16 16 16-7.163444 16-16c-.0104696-8.8322157-7.1677843-15.9895304-16-16zm0 2c5.4215824.0072229 10.3516047 3.1440495 12.655 8.052-.2169852-.0314249-.4357745-.0487944-.655-.052-2.0969507-.009273-3.9748565 1.2965383-4.696209 3.2655327s-.1314504 4.1789013 1.475209 5.5264673c-1.1496301.5993516-2.1113371 1.5046504-2.779 2.616-.6665764-1.1124229-1.6271545-2.0193665-2.776-2.621 1.6037681-1.3550552 2.1901368-3.5677172 1.4679143-5.5391738-.7222224-1.9714567-2.5991731-3.2817075-4.698755-3.2800794s-3.9744983 1.3147882-4.6936624 3.2873626c-.7191641 1.9725743-.1293645 4.1843242 1.4765031 5.5368906-1.148527.5997998-2.1091537 1.505059-2.776 2.616-.6665764-1.1124229-1.6271545-2.0193665-2.776-2.621 1.6030391-1.3488097 2.1900395-3.5569273 1.4684119-5.5237206-.7216275-1.9667932-2.5974279-3.2712953-4.6924119-3.2632794-.2192255.0032056-.4380148.0205751-.655.052 2.3033953-4.9079505 7.2334176-8.0447771 12.655-8.052zm9 13c0-1.6568542 1.3431458-3 3-3 .5351837.0016603 1.0599885.1478041 1.519.423.3151742 1.1663487.4768714 2.3688249.481 3.577 0 .429-.026.852-.064 1.272-.5350388.4705103-1.2235082.7293976-1.936.728-.7956495 0-1.5587112-.3160705-2.1213203-.8786797-.5626092-.5626091-.8786797-1.3256708-.8786797-2.1213203zm-12 0c0-1.6568542 1.3431458-3 3-3s3 1.3431458 3 3-1.3431458 3-3 3-3-1.3431458-3-3zm-11 1c.0041286-1.2081751.1658258-2.4106513.481-3.577.4590115-.2751959.9838163-.4213397 1.519-.423 1.6568542 0 3 1.3431458 3 3s-1.3431458 3-3 3c-.7124918.0013976-1.4009612-.2574897-1.936-.728-.038-.42-.064-.843-.064-1.272zm.526 3.751c.4758839.1571849.9728903.2411433 1.474.249 2.7593693.0049535 4.9950465 2.2406307 5 5v3.106c-3.1640893-1.8351976-5.4869171-4.8329156-6.474-8.355zm8.474 9.31v-4.061c.0033061-2.7600532 2.2399468-4.9966939 5-5 2.7593693.0049535 4.9950465 2.2406307 5 5v4.061c-3.2157791 1.2519546-6.7842209 1.2519546-10 0zm12-.955v-3.106c.0033061-2.7600532 2.2399468-4.9966939 5-5 .5011097-.0078567.9981161-.0918151 1.474-.249-.9870829 3.5220844-3.3099107 6.5198024-6.474 8.355z"/></g></g></g></svg>