<?xml version="1.0" encoding="UTF-8"?>
<!DOCTYPE svg PUBLIC "-//W3C//DTD SVG 1.1//EN" "http://www.w3.org/Graphics/SVG/1.1/DTD/svg11.dtd">
<!-- Creator: CorelDRAW 2019 (64 Bit) -->
<svg xmlns="http://www.w3.org/2000/svg" xml:space="preserve" width="942px" height="659px" version="1.1" style="shape-rendering:geometricPrecision; text-rendering:geometricPrecision; image-rendering:optimizeQuality; fill-rule:evenodd; clip-rule:evenodd"
viewBox="0 0 942 659.17"
 xmlns:xlink="http://www.w3.org/1999/xlink">
 <defs>
  <style type="text/css">
   <![CDATA[
    .str0 {stroke:#111325;stroke-width:0.9;stroke-miterlimit:10}
    .fil3 {fill:#05061A}
    .fil14 {fill:#111325}
    .fil15 {fill:#111326}
    .fil2 {fill:#282B3E}
    .fil16 {fill:white;fill-rule:nonzero}
    .fil4 {fill:#F5C43D;fill-rule:nonzero}
    .fil12 {fill:#F2FAFA;fill-rule:nonzero}
    .fil6 {fill:#B8FFE0;fill-rule:nonzero}
    .fil11 {fill:#1F29B5;fill-rule:nonzero}
    .fil10 {fill:black;fill-rule:nonzero}
    .fil0 {fill:#06071B;fill-rule:nonzero}
    .fil1 {fill:#27283A;fill-rule:nonzero}
    .fil8 {fill:#2D4197;fill-rule:nonzero}
    .fil9 {fill:#4E5AA6;fill-rule:nonzero}
    .fil7 {fill:#71CBD4;fill-rule:nonzero}
    .fil13 {fill:#7B7E88;fill-rule:nonzero}
    .fil5 {fill:#9DEFE9;fill-rule:nonzero}
   ]]>
  </style>
    <clipPath id="id0">
     <path d="M9.25 606.42c-2.74,-6.88 -4.25,-14.45 -4.25,-22.19l0 -510.96c0,-36.99 34.69,-67.27 77.05,-67.27l398.3 0 0 1.55 -397.61 0c-42.5,0 -77.19,30.27 -77.19,67.26l0 510.97c0,7.22 1.23,14.1 3.7,20.64l0 0z"/>
    </clipPath>
    <clipPath id="id1">
     <path d="M170.8 430.89c-18.34,0 -36.68,-6.13 -50.66,-18.38 -27.91,-24.42 -27.86,-63.99 0.14,-88.34 13.98,-12.17 32.22,-18.26 50.52,-18.26 18.34,0 36.68,6.13 50.65,18.38 0.61,0.52 1.21,1.05 1.77,1.61l-7.62 0c-6.64,0 -11.98,4.7 -11.98,10.49 0,5.74 5.34,10.44 11.98,10.44l22.38 0c9.29,22.17 3.76,48.02 -16.67,65.8 -13.97,12.17 -32.22,18.26 -50.51,18.26zm0.18 -67.6c-3.11,0 -5.62,2.18 -5.62,4.89 0,2.66 2.51,4.84 5.58,4.84 0,0 0,0 0,0 3.11,0 5.61,-2.18 5.61,-4.84 0,-2.71 -2.5,-4.89 -5.57,-4.89l0 0z"/>
    </clipPath>
    <clipPath id="id2">
     <path d="M170.96 373.04c-0.01,0 -0.01,0 -0.02,0 -3.08,0 -5.57,-2.19 -5.57,-4.88 0.01,-2.69 2.51,-4.87 5.59,-4.87 3.08,0 5.59,2.19 5.58,4.88 0,2.69 -2.51,4.87 -5.58,4.87l0 0z"/>
    </clipPath>
    <clipPath id="id3">
     <path d="M205.33 154.5c-11.41,0 -22.82,-3.81 -31.53,-11.42 -17.34,-15.2 -17.31,-39.82 0.09,-54.97 8.71,-7.59 20.06,-11.35 31.44,-11.35 11.41,0 22.83,3.8 31.53,11.42 17.34,15.18 17.31,39.82 -0.09,54.97 -8.67,7.57 -20.06,11.35 -31.44,11.35zm0.09 -42.04c-1.9,0 -3.46,1.34 -3.46,3.01 0,1.68 1.53,3.04 3.46,3.04 1.93,0 3.5,-1.34 3.5,-3.04 0,-1.67 -1.57,-3.01 -3.47,-3.01 -0.03,0 -0.03,0 -0.03,0l0 0z"/>
    </clipPath>
 </defs>
 <g id="Camada_x0020_1">
  <metadata id="CorelCorpID_0Corel-Layer"/>
  <g id="_2550663763424">
   <path class="fil0" d="M859.84 653.17l-777.14 0c-42.43,0 -77.16,-30.32 -77.16,-67.39l0 -510.93c0,-37.06 34.73,-67.38 77.16,-67.38l777.14 0c42.44,0 77.16,30.32 77.16,67.38l0 510.93c0,37.07 -34.72,67.39 -77.16,67.39z"/>
   <g style="clip-path:url(#id0)">
    <image x="0.75" y="2.04" width="483.72" height="606.96" xlink:href="quemsomos_Images\quemsomos_ImgID1.png"/>
   </g>
   <polygon class="fil1" points="815.48,653.09 112.88,653.09 113.89,651.65 473.29,651.65 473.29,367.88 619.53,367.88 "/>
   <polygon class="fil2" points="385.64,651.68 387.06,651.68 474.02,651.68 474.02,651.68 474.02,367.88 387.06,367.88 385.64,367.88 317.06,367.88 116.06,651.68 "/>
   <path class="fil3" d="M120.99 651.65l-38.94 0c-33.45,0 -62.24,-19.01 -72.8,-45.21 -2.47,-6.46 -3.7,-13.48 -3.7,-20.67l0 -510.86c0,-37.1 34.69,-67.36 77.19,-67.36l397.61 0 0 103.9c-4.52,-0.18 -9.05,-0.37 -13.57,-0.37 -118.05,0 -214.44,95.05 -221.02,214.83l-22.48 0c-0.69,-0.55 -1.24,-1.11 -1.79,-1.66 -13.98,-12.18 -32.35,-18.27 -50.73,-18.27 -18.23,0 -36.47,6.09 -50.45,18.08 -27.97,24.55 -28.11,64.05 -0.14,88.41 13.99,12.36 32.22,18.45 50.59,18.45 18.38,0 36.61,-6.09 50.6,-18.27 20.43,-17.72 25.91,-43.74 16.59,-65.89l63.2 0 0 0 -9.04 0 13.98 21.04 15.9 0 -201 283.85zm84.33 -574.89c-11.38,0 -22.76,3.69 -31.4,11.25 -17.42,15.32 -17.42,39.87 -0.14,55 8.78,7.75 20.16,11.44 31.54,11.44 11.38,0 22.75,-3.69 31.39,-11.25 17.42,-15.14 17.55,-39.87 0.14,-55 -8.64,-7.57 -20.15,-11.44 -31.53,-11.44l0 0z"/>
   <path class="fil4" d="M480.93 54.87c0,-6.82 -6.33,-12.36 -14.15,-12.36 -7.81,0 -14.15,5.54 -14.15,12.36 0,6 4.91,11 11.41,12.12l-0.03 94.57 4.57 0 0.03 -94.49c6.94,-0.8 12.32,-5.93 12.32,-12.2z"/>
   <path class="fil5" d="M688.06 335.11c-2.1,-124.09 -100.35,-224.02 -221.34,-224.02 -119.44,0 -216.74,97.42 -221.22,219.31 98.55,33.91 251.74,59.71 442.56,4.71z"/>
   <path class="fil6" d="M311.06 254.81c0,0 -19.92,-97.38 121.46,-121.74l-121.46 121.74z"/>
   <path class="fil7" d="M341.39 280.06c0,6.73 -6.25,12.2 -13.96,12.2 -7.71,0 -13.97,-5.47 -13.97,-12.2 0,-6.74 6.26,-12.2 13.97,-12.2 7.71,0 13.96,5.46 13.96,12.2z"/>
   <path class="fil7" d="M482.13 280.06c0,6.73 -6.25,12.2 -13.96,12.2 -7.72,0 -13.98,-5.47 -13.98,-12.2 0,-6.74 6.26,-12.2 13.98,-12.2 7.71,0 13.96,5.46 13.96,12.2z"/>
   <path class="fil7" d="M622.87 280.06c0,6.73 -6.25,12.2 -13.97,12.2 -7.71,0 -13.97,-5.47 -13.97,-12.2 0,-6.74 6.26,-12.2 13.97,-12.2 7.72,0 13.97,5.46 13.97,12.2z"/>
   <path class="fil8" d="M726.94 346.83l-511.34 0c-6.61,0 -11.98,-4.68 -11.98,-10.46 0,-5.79 5.37,-10.47 11.98,-10.47l511.34 0c6.61,0 11.98,4.68 11.98,10.47 0,5.78 -5.37,10.46 -11.98,10.46z"/>
   <polygon class="fil9" points="630.56,367.88 306.12,367.88 292.04,346.83 644.64,346.83 "/>
   <polygon class="fil10" points="641.83,351.04 644.64,346.83 641.83,351.04 "/>
   <polygon class="fil11" points="295.61,352.16 292.04,346.83 644.64,346.83 641.83,351.04 "/>
   <path class="fil12" d="M791.93 414.14c0,1.35 -1.26,2.45 -2.81,2.45 -1.56,-0.01 -2.81,-1.11 -2.81,-2.46 0,-1.36 1.26,-2.45 2.82,-2.45 1.54,0 2.8,1.1 2.8,2.46z"/>
   <path class="fil13" d="M789.04 445.67c-9.22,0 -18.44,-3.08 -25.47,-9.23 -14.03,-12.28 -14,-32.18 0.06,-44.43 7.02,-6.12 16.22,-9.18 25.41,-9.18 9.22,0 18.44,3.08 25.47,9.23 14.03,12.28 14,32.18 -0.07,44.43 -7.01,6.12 -16.21,9.18 -25.4,9.18zm0.09 -33.99c-1.56,0 -2.82,1.09 -2.82,2.45 0,1.35 1.25,2.45 2.81,2.46 1.55,0 2.81,-1.1 2.81,-2.45 0,-1.36 -1.26,-2.46 -2.8,-2.46z"/>
   <path class="fil12" d="M789.12 416.59c-1.56,-0.01 -2.81,-1.11 -2.81,-2.46 0,-1.36 1.26,-2.45 2.82,-2.45 1.54,0 2.8,1.1 2.8,2.46 0,1.35 -1.26,2.45 -2.81,2.45z"/>
   <g style="clip-path:url(#id1)">
    <image x="87.36" y="302.42" width="163.81" height="132.57" xlink:href="quemsomos_Images\quemsomos_ImgID2.png"/>
   </g>
   <path class="fil8" d="M237.96 346.83l-22.36 0c-6.61,0 -11.98,-4.68 -11.98,-10.46 0,-5.79 5.37,-10.47 11.98,-10.47l7.64 0c6.64,6.24 11.54,13.37 14.72,20.93z"/>
   <g style="clip-path:url(#id2)">
    <image x="161.96" y="358.82" width="19.63" height="17.14" xlink:href="quemsomos_Images\quemsomos_ImgID3.png"/>
   </g>
   <path class="fil12" d="M208.9 115.48c0,1.68 -1.55,3.03 -3.47,3.03 -1.92,0 -3.47,-1.36 -3.47,-3.03 0,-1.68 1.56,-3.03 3.48,-3.03 1.92,0 3.47,1.36 3.46,3.03z"/>
   <g style="clip-path:url(#id3)">
    <image x="151.94" y="73.31" width="106.24" height="84.47" xlink:href="quemsomos_Images\quemsomos_ImgID4.png"/>
   </g>
   <path class="fil12 str0" d="M205.43 118.51c-1.92,0 -3.47,-1.36 -3.47,-3.03 0,-1.67 1.55,-3.03 3.47,-3.03 0.01,0 0.01,0 0.01,0 1.92,0 3.47,1.36 3.46,3.03 0,1.68 -1.55,3.03 -3.47,3.03z"/>
   <path class="fil12" d="M220.14 76.32c-0.19,1.48 -1.71,2.55 -3.41,2.39 -1.7,-0.16 -2.92,-1.49 -2.74,-2.97 0.19,-1.48 1.71,-2.55 3.41,-2.4 1.69,0.17 2.92,1.5 2.74,2.98z"/>
   <path class="fil12" d="M612.84 122.79c-0.1,0.83 -0.95,1.43 -1.9,1.34 -0.95,-0.09 -1.63,-0.83 -1.53,-1.66 0.1,-0.83 0.95,-1.43 1.9,-1.34 0.95,0.09 1.63,0.84 1.53,1.66z"/>
   <path class="fil12" d="M365.56 60.32c-0.1,0.83 -0.95,1.43 -1.9,1.34 -0.95,-0.09 -1.63,-0.83 -1.53,-1.66 0.1,-0.83 0.95,-1.43 1.9,-1.34 0.95,0.09 1.64,0.83 1.53,1.66z"/>
   <path class="fil12" d="M543.31 86.4c-0.1,0.83 -0.95,1.43 -1.9,1.33 -0.94,-0.08 -1.63,-0.83 -1.53,-1.66 0.1,-0.82 0.96,-1.42 1.91,-1.33 0.94,0.09 1.63,0.83 1.52,1.66z"/>
   <path class="fil12" d="M89.97 70.37c-0.1,0.82 -0.95,1.42 -1.9,1.33 -0.95,-0.09 -1.64,-0.83 -1.53,-1.66 0.1,-0.83 0.96,-1.43 1.9,-1.34 0.95,0.09 1.63,0.84 1.53,1.67z"/>
   <path class="fil12" d="M762.26 61.18c-0.1,0.82 -0.95,1.42 -1.9,1.33 -0.95,-0.09 -1.63,-0.84 -1.53,-1.66 0.1,-0.83 0.95,-1.42 1.9,-1.34 0.95,0.1 1.63,0.84 1.53,1.67z"/>
   <path class="fil12" d="M120.07 510.74c-0.1,0.83 -0.95,1.43 -1.9,1.34 -0.94,-0.09 -1.63,-0.83 -1.53,-1.66 0.1,-0.83 0.95,-1.43 1.91,-1.34 0.94,0.09 1.63,0.84 1.52,1.66z"/>
   <path class="fil12" d="M174.35 244.91c-0.1,0.83 -0.95,1.43 -1.9,1.34 -0.95,-0.09 -1.63,-0.84 -1.53,-1.66 0.1,-0.83 0.95,-1.43 1.9,-1.33 0.95,0.08 1.64,0.83 1.53,1.65z"/>
   <path class="fil12" d="M189.54 322.76c-0.09,0.83 -0.95,1.43 -1.9,1.34 -0.94,-0.09 -1.63,-0.84 -1.52,-1.66 0.1,-0.83 0.95,-1.43 1.9,-1.34 0.95,0.09 1.63,0.84 1.52,1.66z"/>
   <path class="fil12" d="M384.15 515.81c-0.1,0.82 -0.95,1.42 -1.9,1.33 -0.94,-0.09 -1.63,-0.83 -1.52,-1.66 0.09,-0.82 0.95,-1.43 1.9,-1.33 0.94,0.08 1.63,0.83 1.52,1.66z"/>
   <path class="fil12" d="M568.89 248.37c-0.2,1.64 -1.9,2.83 -3.77,2.65 -1.88,-0.18 -3.24,-1.66 -3.04,-3.3 0.2,-1.64 1.89,-2.82 3.77,-2.65 1.88,0.18 3.24,1.66 3.04,3.3z"/>
   <path class="fil12" d="M68.31 273.63c-0.28,2.32 -2.68,4 -5.34,3.74 -2.65,-0.25 -4.58,-2.34 -4.29,-4.65 0.29,-2.32 2.68,-4.01 5.34,-3.76 2.66,0.25 4.58,2.34 4.29,4.67z"/>
   <path class="fil12" d="M791.13 270.96c-0.31,0.79 -1.3,1.2 -2.19,0.93 -0.9,-0.27 -1.38,-1.13 -1.07,-1.92 0.31,-0.78 1.3,-1.2 2.19,-0.93 0.9,0.28 1.38,1.14 1.07,1.92z"/>
   <path class="fil12" d="M807.34 167.11c-0.32,0.79 -1.3,1.2 -2.2,0.93 -0.91,-0.27 -1.38,-1.13 -1.07,-1.92 0.31,-0.78 1.29,-1.2 2.2,-0.93 0.9,0.28 1.38,1.13 1.07,1.92z"/>
   <path class="fil12" d="M883.11 547.2c-0.31,0.8 -1.29,1.21 -2.2,0.94 -0.9,-0.27 -1.38,-1.13 -1.07,-1.92 0.31,-0.79 1.3,-1.2 2.2,-0.93 0.9,0.27 1.38,1.13 1.07,1.91z"/>
   <path class="fil12" d="M539.26 384.48c-0.32,0.79 -1.3,1.21 -2.2,0.94 -0.9,-0.27 -1.38,-1.14 -1.07,-1.92 0.32,-0.79 1.3,-1.21 2.2,-0.93 0.9,0.27 1.38,1.13 1.07,1.91z"/>
   <path class="fil12" d="M332 436.86c-0.31,0.79 -1.3,1.2 -2.2,0.94 -0.9,-0.28 -1.38,-1.14 -1.06,-1.92 0.3,-0.79 1.29,-1.2 2.19,-0.94 0.9,0.28 1.38,1.13 1.07,1.92z"/>
   <path class="fil12" d="M715.66 517.28c-0.62,1.56 -2.57,2.38 -4.35,1.84 -1.79,-0.54 -2.74,-2.24 -2.12,-3.8 0.62,-1.56 2.57,-2.39 4.36,-1.85 1.78,0.54 2.73,2.24 2.11,3.81z"/>
   <path class="fil12" d="M221.3 444.14c-0.88,2.21 -3.64,3.38 -6.17,2.62 -2.52,-0.77 -3.86,-3.18 -2.99,-5.39 0.88,-2.21 3.63,-3.38 6.16,-2.62 2.53,0.77 3.87,3.18 3,5.39z"/>
   <path class="fil12" d="M847.98 80.43c0.18,1.48 1.7,2.55 3.4,2.4 1.69,-0.15 2.92,-1.48 2.75,-2.97 -0.18,-1.47 -1.71,-2.55 -3.4,-2.39 -1.7,0.15 -2.93,1.48 -2.75,2.96z"/>
   <path class="fil12" d="M455.14 126.03c0.1,0.83 0.95,1.43 1.9,1.34 0.94,-0.09 1.63,-0.83 1.53,-1.66 -0.1,-0.83 -0.95,-1.42 -1.89,-1.34 -0.96,0.09 -1.64,0.83 -1.54,1.66z"/>
   <path class="fil12" d="M704.94 157.18c0.1,0.83 0.95,1.43 1.9,1.34 0.95,-0.09 1.63,-0.83 1.53,-1.66 -0.1,-0.83 -0.94,-1.42 -1.89,-1.34 -0.95,0.09 -1.64,0.83 -1.54,1.66z"/>
   <path class="fil12" d="M893.27 249.12c0.1,0.83 0.95,1.44 1.9,1.35 0.95,-0.09 1.63,-0.83 1.53,-1.66 -0.1,-0.83 -0.94,-1.43 -1.89,-1.34 -0.95,0.09 -1.64,0.83 -1.54,1.65z"/>
   <path class="fil12" d="M392.35 231.71c0.19,1.64 1.88,2.83 3.76,2.66 1.88,-0.18 3.24,-1.65 3.04,-3.29 -0.2,-1.65 -1.88,-2.83 -3.77,-2.66 -1.87,0.17 -3.24,1.64 -3.03,3.29z"/>
   <path class="fil12" d="M858.78 382.71c0.29,2.32 2.66,4.01 5.32,3.76 2.67,-0.24 4.59,-2.33 4.31,-4.65 -0.28,-2.32 -2.66,-4 -5.32,-3.76 -2.66,0.25 -4.59,2.33 -4.31,4.65z"/>
   <path class="fil14" d="M170.8 430.89c-18.34,0 -36.68,-6.13 -50.66,-18.38 -27.91,-24.42 -27.86,-63.99 0.14,-88.34 13.98,-12.17 32.22,-18.26 50.52,-18.26 18.34,0 36.68,6.13 50.65,18.38 0.61,0.52 1.21,1.05 1.77,1.61l-7.62 0c-6.64,0 -11.98,4.7 -11.98,10.49 0,5.74 5.34,10.44 11.98,10.44l22.38 0c9.29,22.17 3.76,48.02 -16.67,65.8 -13.97,12.17 -32.22,18.26 -50.51,18.26zm0.18 -67.6c-3.11,0 -5.62,2.18 -5.62,4.89 0,2.66 2.51,4.84 5.58,4.84 0,0 0,0 0,0 3.11,0 5.61,-2.18 5.61,-4.84 0,-2.71 -2.5,-4.89 -5.57,-4.89l0 0z"/>
   <path class="fil15" d="M205.33 154.5c-11.41,0 -22.82,-3.81 -31.53,-11.42 -17.34,-15.2 -17.31,-39.82 0.09,-54.97 8.71,-7.59 20.06,-11.35 31.44,-11.35 11.41,0 22.83,3.8 31.53,11.42 17.34,15.18 17.31,39.82 -0.09,54.97 -8.67,7.57 -20.06,11.35 -31.44,11.35zm0.09 -42.04c-1.9,0 -3.46,1.34 -3.46,3.01 0,1.68 1.53,3.04 3.46,3.04 1.93,0 3.5,-1.34 3.5,-3.04 0,-1.67 -1.57,-3.01 -3.47,-3.01 -0.03,0 -0.03,0 -0.03,0l0 0z"/>
  </g>
  <path class="fil16" d="M182.5 514.89c-10.3,0 -16.9,-9.41 -16.9,-24.71 0,-14.59 6.6,-23.5 16.9,-23.5 10.3,0 16.9,8.91 16.9,23.5 0,15.3 -6.6,24.71 -16.9,24.71zm20.8 25.69c4.5,0 8.3,-0.9 10.5,-1.9l-2.1 -8.6c-1.9,0.6 -4.2,1.01 -7.1,1.01 -6.3,0 -12.2,-2.31 -15.2,-7.5 13.3,-3 22,-15.21 22,-33.41 0,-21.1 -11.8,-33.6 -28.9,-33.6 -17,0 -28.8,12.5 -28.8,33.6 0,18.9 9.3,31.2 23.4,33.71 4.2,9.69 13.2,16.69 26.2,16.69z"/>
  <path id="1" class="fil16" d="M249 524.38c15.2,0 24.7,-8.4 24.7,-29.89l0 -36.71 -11.1 0 0 37.61c0,14.19 -5.6,18.9 -13.6,18.9 -7.9,0 -13.2,-4.71 -13.2,-18.9l0 -37.61 -11.6 0 0 36.71c0,21.49 9.7,29.89 24.8,29.89z"/>
  <polygon id="2" class="fil16" points="290,523.18 330.4,523.18 330.4,513.39 301.6,513.39 301.6,494.08 325.1,494.08 325.1,484.29 301.6,484.29 301.6,467.58 329.4,467.58 329.4,457.78 290,457.78 "/>
  <path id="3" class="fil16" d="M343.8 523.18l10.5 0 0 -29.89c0,-6.11 -1,-14.81 -1.5,-20.81l0.4 0 5.2 15.2 10.8 29.4 6.9 0 10.7 -29.4 5.3 -15.2 0.4 0c-0.6,6 -1.5,14.7 -1.5,20.81l0 29.89 10.7 0 0 -65.4 -13.2 0 -11.3 32c-1.4,4.11 -2.7,8.5 -4.1,12.81l-0.4 0c-1.4,-4.31 -2.8,-8.7 -4.2,-12.81l-11.6 -32 -13.1 0 0 65.4z"/>
  <path id="4" class="fil16" d="M457.4 524.38c14.7,0 23.5,-8.8 23.5,-19.39 0,-9.51 -5.5,-14.4 -13.2,-17.7l-8.9 -3.71c-5.4,-2.2 -10.4,-4.09 -10.4,-9.19 0,-4.81 4.1,-7.71 10.3,-7.71 5.6,0 10,2.1 14.2,5.6l5.9 -7.4c-5.1,-5.1 -12.5,-8.3 -20.1,-8.3 -12.8,0 -22,8 -22,18.41 0,9.6 6.8,14.7 13.2,17.4l9 3.9c5.9,2.49 10.1,4.2 10.1,9.6 0,5.1 -4,8.4 -11.4,8.4 -6,0 -12.3,-3 -17,-7.41l-6.8 7.9c6.2,6.11 14.8,9.6 23.6,9.6z"/>
  <path id="5" class="fil16" d="M518.2 524.38c17.1,0 28.9,-13 28.9,-34.2 0,-21.1 -11.8,-33.6 -28.9,-33.6 -17,0 -28.8,12.5 -28.8,33.6 0,21.2 11.8,34.2 28.8,34.2zm0 -10.09c-10.3,0 -16.9,-9.41 -16.9,-24.11 0,-14.59 6.6,-23.5 16.9,-23.5 10.3,0 16.9,8.91 16.9,23.5 0,14.7 -6.6,24.11 -16.9,24.11z"/>
  <path id="6" class="fil16" d="M560.2 523.18l10.5 0 0 -29.89c0,-6.11 -1,-14.81 -1.5,-20.81l0.4 0 5.2 15.2 10.8 29.4 6.9 0 10.7 -29.4 5.3 -15.2 0.4 0c-0.6,6 -1.5,14.7 -1.5,20.81l0 29.89 10.7 0 0 -65.4 -13.2 0 -11.3 32c-1.4,4.11 -2.7,8.5 -4.1,12.81l-0.4 0c-1.4,-4.31 -2.8,-8.7 -4.2,-12.81l-11.6 -32 -13.1 0 0 65.4z"/>
  <path id="7" class="fil16" d="M660.1 524.38c17.1,0 28.9,-13 28.9,-34.2 0,-21.1 -11.8,-33.6 -28.9,-33.6 -17,0 -28.8,12.5 -28.8,33.6 0,21.2 11.8,34.2 28.8,34.2zm0 -10.09c-10.3,0 -16.9,-9.41 -16.9,-24.11 0,-14.59 6.6,-23.5 16.9,-23.5 10.3,0 16.9,8.91 16.9,23.5 0,14.7 -6.6,24.11 -16.9,24.11z"/>
  <path id="8" class="fil16" d="M721.2 524.38c14.7,0 23.5,-8.8 23.5,-19.39 0,-9.51 -5.5,-14.4 -13.2,-17.7l-8.9 -3.71c-5.4,-2.2 -10.4,-4.09 -10.4,-9.19 0,-4.81 4.1,-7.71 10.3,-7.71 5.6,0 10,2.1 14.2,5.6l5.9 -7.4c-5.1,-5.1 -12.5,-8.3 -20.1,-8.3 -12.8,0 -22,8 -22,18.41 0,9.6 6.8,14.7 13.2,17.4l9 3.9c5.9,2.49 10.1,4.2 10.1,9.6 0,5.1 -4,8.4 -11.4,8.4 -6,0 -12.3,-3 -17,-7.41l-6.8 7.9c6.2,6.11 14.8,9.6 23.6,9.6z"/>
  <path id="9" class="fil16" d="M764 501.69l10.1 0c-1.4,-12.9 14.2,-17.4 14.2,-30.11 0,-10.9 -7.5,-16.6 -17.9,-16.6 -7.5,0 -13.7,3.6 -18.1,8.7l6.4 5.9c2.9,-3.2 6.2,-5.2 10.3,-5.2 5.1,0 8.1,3.2 8.1,8 0,9 -15.2,14.7 -13.1,29.31zm5.1 22.69c4.2,0 7.5,-3.3 7.5,-7.8 0,-4.5 -3.3,-7.8 -7.5,-7.8 -4.2,0 -7.4,3.3 -7.4,7.8 0,4.5 3.2,7.8 7.4,7.8z"/>
 </g>
</svg>
