<svg id="Layer_1" enable-background="new 0 0 512 512" height="512" viewBox="0 0 512 512" width="512" xmlns="http://www.w3.org/2000/svg"><g><g clip-rule="evenodd" fill-rule="evenodd"><g fill="#66e0f7"><path d="m238.282 80.656c-8.787 8.787-8.787 23.033 0 31.82s23.033 8.787 31.82 0 8.787-23.033 0-31.82-23.033-8.787-31.82 0z"/><circle cx="110.472" cy="219.602" r="39"/><circle cx="105.16" cy="341.39" r="22.5"/><circle cx="218.394" cy="401.771" r="51"/></g><path d="m182.332 437.833c-19.917-19.917-19.917-52.208 0-72.125s52.208-19.917 72.125 0 19.917 52.208 0 72.125-52.208 19.917-72.125 0zm55.461-191.373c-53.739-64.262-66.564-154.129-31.804-231.351-45.417 9.385-88.694 31.699-123.938 66.943-96.069 96.069-96.069 251.828 0 347.897s251.828 96.069 347.897 0c35.244-35.244 57.558-78.521 66.943-123.938-22.52 10.137-46.115 16.227-69.837 18.436 1.465 11.554-2.238 23.639-11.111 32.512-15.23 15.23-39.924 15.23-55.154 0-10.481-10.481-13.749-25.443-9.805-38.719-24.628-6.432-48.217-17.151-69.586-31.95-1.171 1.858-2.566 3.615-4.184 5.233-11.716 11.716-30.71 11.716-42.426 0s-11.716-30.711 0-42.426c.955-.959 1.96-1.837 3.005-2.637zm-99.744-54.435c15.23 15.23 15.23 39.924 0 55.154s-39.924 15.23-55.154 0-15.23-39.924 0-55.154c15.231-15.231 39.924-15.231 55.154 0zm-16.979 133.455c8.787 8.787 8.787 23.033 0 31.82s-23.033 8.787-31.82 0-8.787-23.033 0-31.82 23.034-8.787 31.82 0z" fill="#60a4ff"/><path d="m205.99 15.109c-34.76 77.222-21.935 167.09 31.804 231.351 11.762-9.003 28.66-8.125 39.42 2.635 10.098 10.098 11.493 25.602 4.184 37.194 21.369 14.799 44.958 25.518 69.586 31.95 1.787-6.016 5.056-11.685 9.805-16.435 15.23-15.23 39.924-15.23 55.154 0 6.358 6.357 10.061 14.364 11.111 22.643 23.722-2.208 47.318-8.299 69.837-18.436 16.196-78.381-6.118-163.134-66.943-223.959s-145.577-83.14-223.958-66.943zm64.112 97.367c-8.787 8.787-23.033 8.787-31.82 0s-8.787-23.033 0-31.82 23.033-8.787 31.82 0 8.787 23.033 0 31.82z" fill="#99ebfa"/><path d="m277.213 249.095c-10.76-10.76-27.658-11.638-39.42-2.635-1.045.8-2.05 1.678-3.007 2.635-11.716 11.716-11.716 30.71 0 42.426s30.71 11.716 42.426 0c1.618-1.618 3.013-3.375 4.184-5.233 7.31-11.591 5.915-27.095-4.183-37.193z" fill="#66e0f7"/><path d="m360.788 301.804c-4.749 4.749-8.018 10.419-9.805 16.435-3.944 13.276-.676 28.238 9.805 38.719 15.23 15.23 39.924 15.23 55.154 0 8.873-8.873 12.577-20.957 11.111-32.512-1.05-8.279-4.754-16.285-11.111-22.643-15.23-15.23-39.923-15.23-55.154.001z" fill="#66e0f7"/></g><g><path d="m437.02 74.98c-48.353-48.351-112.64-74.98-181.02-74.98s-132.667 26.629-181.02 74.98c-48.351 48.353-74.98 112.64-74.98 181.02s26.629 132.667 74.98 181.02c48.353 48.351 112.64 74.98 181.02 74.98s132.667-26.629 181.02-74.98c48.351-48.353 74.98-112.64 74.98-181.02s-26.629-132.667-74.98-181.02zm-14.143 347.897c-92.016 92.017-241.738 92.017-333.754 0-92.017-92.016-92.017-241.738 0-333.754 28.935-28.936 63.579-48.765 100.338-59.502-9.553 27.267-13.824 55.734-12.664 84.851.214 5.383 4.646 9.602 9.985 9.602.134 0 .269-.002.405-.008 5.519-.22 9.814-4.872 9.594-10.39-1.232-30.945 4.243-61.091 16.245-89.636 14.196-2.609 28.584-3.93 42.974-3.93 60.435 0 120.869 23.004 166.877 69.013 56.966 56.965 78.649 136.044 65.082 209.858-17.077 7.176-34.949 12.05-53.252 14.516-2.339-6.86-6.232-13.303-11.694-18.765-19.105-19.104-50.191-19.104-69.297 0-3.47 3.47-6.301 7.339-8.511 11.456-18.084-5.521-35.241-13.412-51.175-23.539 4.466-13.843 1.225-29.653-9.747-40.625-11.88-11.879-29.429-14.699-44.013-8.483-8.849-11.481-16.512-23.868-22.81-36.93-2.398-4.974-8.375-7.064-13.351-4.665-4.975 2.398-7.063 8.375-4.665 13.351 6.899 14.31 15.294 27.88 24.988 40.458-12.214 15.68-11.128 38.43 3.28 52.839 7.798 7.798 18.042 11.697 28.285 11.697 9.821 0 19.636-3.594 27.302-10.763 17.515 11.132 36.377 19.798 56.26 25.848-1.126 13.847 3.584 28.084 14.155 38.655 9.552 9.552 22.1 14.328 34.648 14.328s25.096-4.776 34.648-14.328c8.546-8.546 13.257-19.489 14.157-30.685 15.408-2.062 30.537-5.681 45.207-10.803-10.733 36.757-30.562 71.399-59.497 100.334zm-55.018-114.002c5.653-5.654 13.08-8.48 20.506-8.48s14.853 2.827 20.506 8.48c11.307 11.307 11.307 29.705 0 41.012s-29.705 11.307-41.012 0-11.307-29.705 0-41.012zm-126.001-52.709c3.899-3.899 9.021-5.849 14.142-5.849s10.243 1.949 14.142 5.849c7.798 7.798 7.798 20.487 0 28.285-7.798 7.799-20.486 7.798-28.284 0-7.798-7.799-7.798-20.487 0-28.285z"/><path d="m145.121 184.954c-19.105-19.105-50.191-19.105-69.297 0-19.105 19.105-19.105 50.191 0 69.297 9.553 9.552 22.101 14.329 34.648 14.329s25.096-4.776 34.648-14.329c19.105-19.106 19.105-50.192.001-69.297zm-14.143 55.154c-11.307 11.308-29.705 11.308-41.012 0-11.307-11.307-11.307-29.705 0-41.012 5.653-5.654 13.08-8.48 20.506-8.48s14.853 2.827 20.506 8.48c11.307 11.307 11.307 29.705 0 41.012z"/><path d="m218.395 340.771c-16.294 0-31.612 6.345-43.134 17.867s-17.867 26.84-17.867 43.134 6.345 31.612 17.867 43.133c11.521 11.522 26.839 17.867 43.133 17.867 5.523 0 10-4.477 10-10s-4.477-10-10-10c-10.951 0-21.247-4.265-28.991-12.009s-12.008-18.04-12.008-28.991c0-10.952 4.265-21.248 12.009-28.992s18.04-12.008 28.991-12.008 21.248 4.265 28.991 12.008c15.986 15.986 15.986 41.997 0 57.982-3.905 3.905-3.905 10.237 0 14.143s10.237 3.905 14.143 0c23.783-23.784 23.783-62.483 0-86.267-11.522-11.522-26.841-17.867-43.134-17.867z"/><path d="m128.142 318.409c-12.671-12.67-33.289-12.671-45.962 0-12.671 12.672-12.671 33.291 0 45.962 6.336 6.335 14.658 9.503 22.981 9.503 8.322 0 16.645-3.168 22.981-9.503 12.671-12.671 12.671-33.29 0-45.962zm-14.143 31.82c-4.873 4.874-12.804 4.874-17.677 0-4.874-4.874-4.874-12.804 0-17.677 2.438-2.437 5.638-3.655 8.839-3.655s6.402 1.219 8.838 3.655c4.874 4.873 4.874 12.803 0 17.677z"/><path d="m254.192 129.065c8.681 0 16.842-3.38 22.98-9.519 6.139-6.138 9.52-14.3 9.52-22.981 0-8.682-3.381-16.843-9.519-22.981-6.139-6.138-14.3-9.519-22.981-9.519-8.682 0-16.843 3.38-22.98 9.519-6.139 6.138-9.52 14.3-9.52 22.981s3.381 16.843 9.519 22.98c6.138 6.14 14.299 9.52 22.981 9.52zm-8.838-41.338c2.36-2.361 5.5-3.661 8.838-3.661s6.478 1.3 8.838 3.661c2.361 2.361 3.661 5.5 3.661 8.839 0 3.338-1.3 6.478-3.662 8.838-2.361 2.361-5.5 3.661-8.838 3.661s-6.478-1.3-8.839-3.661-3.661-5.5-3.661-8.838c.001-3.339 1.301-6.478 3.663-8.839z"/><path d="m335.405 398.433h-.007c-5.523 0-9.997 4.477-9.997 10s4.481 10 10.004 10 10-4.477 10-10-4.477-10-10-10z"/><path d="m173.405 303.683c5.523 0 10-4.477 10-10s-4.477-10-10-10h-.007c-5.523 0-9.997 4.477-9.997 10s4.481 10 10.004 10z"/><path d="m134.406 122.182c5.523 0 10-4.477 10-10s-4.477-10-10-10h-.007c-5.523 0-9.997 4.477-9.997 10s4.481 10 10.004 10z"/><path d="m283.402 178.932c0 5.523 4.481 10 10.004 10s10-4.477 10-10-4.477-10-10-10h-.007c-5.524 0-9.997 4.477-9.997 10z"/><path d="m420.906 229.432c5.523 0 10-4.477 10-10s-4.477-10-10-10h-.007c-5.523 0-9.997 4.477-9.997 10s4.481 10 10.004 10z"/><path d="m375.156 132.682c5.523 0 10-4.477 10-10s-4.477-10-10-10h-.007c-5.523 0-9.997 4.477-9.997 10s4.481 10 10.004 10z"/><path d="m193.164 168.622c5.523 0 10-4.477 10-10s-4.477-10-10-10h-.007c-5.523 0-9.996 4.477-9.996 10s4.48 10 10.003 10z"/></g></g></svg>