<?xml version="1.0" encoding="iso-8859-1"?>
<!-- Generator: Adobe Illustrator 19.0.0, SVG Export Plug-In . SVG Version: 6.00 Build 0)  -->
<svg version="1.1" id="Capa_1" xmlns="http://www.w3.org/2000/svg" xmlns:xlink="http://www.w3.org/1999/xlink" x="0px" y="0px"
	 viewBox="0 0 384 384" style="enable-background:new 0 0 384 384;" xml:space="preserve">
<g>
	<circle style="fill:#09A3AA;" cx="216.8" cy="298.4" r="20.8"/>
	<circle style="fill:#09A3AA;" cx="109.6" cy="175.2" r="39.2"/>
	<path style="fill:#09A3AA;" d="M349.6,231.2c-21.6,0-40-17.6-40-39.2s17.6-40,39.2-40c7.2,0,15.2,2.4,21.6,5.6l3.2,1.6l0.8,4
		c3.2,18.4,3.2,37.6,0,56l-0.8,4.8l-3.2,1.6C364,229.6,356.8,231.2,349.6,231.2z"/>
	<path style="fill:#09A3AA;" d="M148.8,60c-16,0-31.2-9.6-36.8-25.6l-2.4-7.2l7.2-3.2c20-8.8,41.6-14.4,63.2-16h8l0.8,7.2
		c0,1.6,0,3.2,0,4.8C188,41.6,170.4,59.2,148.8,60z"/>
</g>
<path style="fill:#3FD2E0;" d="M192,376C90.4,376,8,293.6,8,192c0-66.4,36-127.2,92.8-160l8-4.8l3.2,8c8.8,20,32,29.6,52,20.8
	c14.4-6.4,24-20.8,24-36c0-0.8,0-1.6,0-2.4L187.2,8h8.8c81.6,2.4,152,57.6,173.6,136l4,13.6l-13.6-3.2c-20.8-5.6-43.2,6.4-48.8,27.2
	c-5.6,20.8,6.4,43.2,27.2,48.8c7.2,2.4,14.4,2.4,21.6,0l13.6-4l-4,13.6C348,320,275.2,376,192,376z M216.8,276.8
	c-12,0-20.8,9.6-20.8,20.8c0,12,9.6,20.8,20.8,20.8c12,0,20.8-9.6,20.8-20.8C238.4,286.4,228.8,276.8,216.8,276.8L216.8,276.8z
	 M109.6,136c-21.6,0-39.2,17.6-39.2,39.2s17.6,39.2,39.2,39.2s39.2-17.6,39.2-39.2S131.2,136,109.6,136L109.6,136z M250.4,80.8
	c-12,0-20.8,9.6-20.8,20.8c0,12,9.6,20.8,20.8,20.8c12,0,20.8-9.6,20.8-20.8S262.4,80.8,250.4,80.8L250.4,80.8z"/>
<circle style="fill:#09A3AA;" cx="250.4" cy="101.6" r="20.8"/>
<g>
	<path style="fill:#052625;" d="M192,0C85.6,0,0,85.6,0,192s85.6,192,192,192s192-85.6,192-192S298.4,0,192,0z M180,16.8
		c0,1.6,0,2.4,0,4c-0.8,17.6-15.2,31.2-32.8,30.4c-12-0.8-22.4-8-27.2-18.4C139.2,23.2,159.2,18.4,180,16.8z M368,192
		c0,8.8-0.8,17.6-2.4,26.4c-4.8,3.2-10.4,4.8-16.8,4.8c-17.6-0.8-30.4-16-29.6-32.8c0.8-16,13.6-28.8,29.6-29.6
		c5.6,0,11.2,1.6,16.8,4.8C367.2,174.4,368,183.2,368,192z M349.6,144.8c-26.4,0-48,20.8-48,47.2s20.8,48,47.2,48
		c4.8,0,9.6-0.8,13.6-1.6c-25.6,92.8-122.4,148.8-216,124S-3.2,240,22.4,146.4c12-45.6,42.4-84,83.2-107.2C116,63.2,144,74.4,168,64
		c17.6-7.2,28.8-24.8,28.8-43.2c0-1.6,0-2.4,0-4c77.6,1.6,145.6,55.2,165.6,130.4C357.6,144.8,353.6,144.8,349.6,144.8z"/>
	<path style="fill:#052625;" d="M109.6,128c-26.4,0-47.2,21.6-47.2,47.2c0,26.4,21.6,47.2,47.2,47.2s47.2-21.6,47.2-47.2
		S136,128,109.6,128L109.6,128z M109.6,207.2c-17.6,0-31.2-14.4-31.2-31.2c0-17.6,14.4-31.2,31.2-31.2c17.6,0,31.2,14.4,31.2,31.2
		S127.2,207.2,109.6,207.2L109.6,207.2z"/>
	<path style="fill:#052625;" d="M216.8,268.8c-16,0-28.8,12.8-28.8,28.8s12.8,28.8,28.8,28.8s28.8-12.8,28.8-28.8
		C246.4,282.4,232.8,268.8,216.8,268.8L216.8,268.8z M216.8,311.2c-7.2,0-12.8-5.6-12.8-12.8c0-7.2,5.6-12.8,12.8-12.8
		c7.2,0,12.8,5.6,12.8,12.8l0,0C230.4,305.6,224,311.2,216.8,311.2z"/>
	<path style="fill:#052625;" d="M250.4,72.8c-16,0-28.8,12.8-28.8,28.8s12.8,28.8,28.8,28.8s28.8-12.8,28.8-28.8
		S266.4,72.8,250.4,72.8L250.4,72.8z M250.4,115.2c-7.2,0-12.8-5.6-12.8-12.8s5.6-12.8,12.8-12.8c7.2,0,12.8,5.6,12.8,12.8l0,0
		C263.2,108.8,257.6,115.2,250.4,115.2z"/>
</g>
<g>
</g>
<g>
</g>
<g>
</g>
<g>
</g>
<g>
</g>
<g>
</g>
<g>
</g>
<g>
</g>
<g>
</g>
<g>
</g>
<g>
</g>
<g>
</g>
<g>
</g>
<g>
</g>
<g>
</g>
</svg>
