<?xml version="1.0" encoding="iso-8859-1"?>
<!-- Generator: Adobe Illustrator 19.0.0, SVG Export Plug-In . SVG Version: 6.00 Build 0)  -->
<svg version="1.1" id="Capa_1" xmlns="http://www.w3.org/2000/svg" xmlns:xlink="http://www.w3.org/1999/xlink" x="0px" y="0px"
	 viewBox="0 0 512 512" style="enable-background:new 0 0 512 512;" xml:space="preserve">
<path style="fill:#FE9010;" d="M264.533,59.733c-32.614,0-63.505,7.347-91.145,20.429L67.2,191.957
	c-10.291,25.011-16,52.386-16,81.109c0,117.82,95.514,213.333,213.333,213.333s213.333-95.514,213.333-213.333
	S382.353,59.733,264.533,59.733z"/>
<circle style="fill:#FEA03E;" cx="230.4" cy="238.933" r="153.6"/>
<circle style="fill:#FFCFA5;" cx="230.4" cy="238.933" r="93.867"/>
<path style="fill:#2747BF;" d="M93.867,196.267c-47.053,0-85.333-38.281-85.333-85.333S46.814,25.6,93.867,25.6
	S179.2,63.881,179.2,110.933S140.919,196.267,93.867,196.267z"/>
<path style="fill:#EA3600;" d="M85.333,401.067c-0.375,0-0.751-0.026-1.126-0.077c-40.627-5.419-64.99-19.268-72.405-41.165
	c-12.723-37.589,31.471-82.372,33.365-84.258c3.328-3.337,8.73-3.328,12.058,0c3.337,3.328,3.337,8.73,0.009,12.066
	c-10.769,10.812-37.026,43.87-29.261,66.739C34.355,373.18,62.848,380.86,85.879,384c8.73-0.077,118.007-1.664,222.199-33.604
	c-0.589-3.046-0.879-6.067-0.879-9.062c0-28.237,22.972-51.2,51.2-51.2c16.751,0,31.957,8.004,41.472,21.359
	c30.225-17.545,54.135-37.905,71.168-60.612c0.529-0.657,31.164-38.75,20.292-66.56c-6.212-15.889-25.506-26.257-57.335-30.805
	c-4.668-0.666-7.91-4.983-7.245-9.651c0.666-4.668,4.983-7.919,9.651-7.236c38.4,5.487,62.234,19.456,70.844,41.532
	c14.464,37.111-21.248,81.391-22.775,83.251c-19.601,26.146-47.795,49.493-83.575,69.103c-2.057,1.126-4.489,1.365-6.716,0.64
	c-2.227-0.717-4.07-2.321-5.077-4.437c-5.76-12.041-17.528-19.516-30.703-19.516c-18.825,0-34.133,15.309-34.133,34.133
	c0,3.84,0.734,7.689,2.236,11.767c0.802,2.176,0.691,4.599-0.333,6.69c-1.024,2.091-2.842,3.678-5.06,4.395
	C208.179,400.58,86.554,401.067,85.333,401.067L85.333,401.067z"/>
<path style="fill:#CB0E00;" d="M358.4,392.533c-28.228,0-51.2-22.963-51.2-51.2s22.972-51.2,51.2-51.2
	c28.228,0,51.2,22.963,51.2,51.2S386.628,392.533,358.4,392.533z"/>
<g>
	<path style="fill:#4D007E;" d="M93.867,204.8C42.112,204.8,0,162.688,0,110.933s42.112-93.867,93.867-93.867
		s93.867,42.112,93.867,93.867S145.621,204.8,93.867,204.8z M93.867,34.133c-42.351,0-76.8,34.458-76.8,76.8s34.449,76.8,76.8,76.8
		s76.8-34.458,76.8-76.8S136.218,34.133,93.867,34.133z"/>
	<path style="fill:#4D007E;" d="M358.4,392.533c-28.228,0-51.2-22.963-51.2-51.2s22.972-51.2,51.2-51.2
		c28.228,0,51.2,22.963,51.2,51.2S386.628,392.533,358.4,392.533z M358.4,307.2c-18.825,0-34.133,15.309-34.133,34.133
		c0,18.825,15.309,34.133,34.133,34.133s34.133-15.309,34.133-34.133C392.533,322.509,377.225,307.2,358.4,307.2z"/>
	<path style="fill:#4D007E;" d="M460.8,105.933l-37.666-37.666L460.8,30.601l37.666,37.666L460.8,105.933z M447.266,68.267
		L460.8,81.801l13.534-13.534L460.8,54.733L447.266,68.267z"/>
	<path style="fill:#4D007E;" d="M460.8,51.2c-4.71,0-8.533-3.823-8.533-8.533V25.6c0-4.71,3.823-8.533,8.533-8.533
		s8.533,3.823,8.533,8.533v17.067C469.333,47.377,465.51,51.2,460.8,51.2z"/>
	<path style="fill:#4D007E;" d="M503.467,76.8H486.4c-4.71,0-8.533-3.823-8.533-8.533s3.823-8.533,8.533-8.533h17.067
		c4.71,0,8.533,3.823,8.533,8.533S508.177,76.8,503.467,76.8z"/>
	<path style="fill:#4D007E;" d="M460.8,119.467c-4.71,0-8.533-3.823-8.533-8.533V93.867c0-4.71,3.823-8.533,8.533-8.533
		s8.533,3.823,8.533,8.533v17.067C469.333,115.644,465.51,119.467,460.8,119.467z"/>
	<path style="fill:#4D007E;" d="M435.2,76.8h-17.067c-4.71,0-8.533-3.823-8.533-8.533s3.823-8.533,8.533-8.533H435.2
		c4.71,0,8.533,3.823,8.533,8.533S439.91,76.8,435.2,76.8z"/>
	<path style="fill:#4D007E;" d="M84.77,401.067l-0.563-0.077c-40.627-5.419-64.99-19.268-72.405-41.165
		c-12.723-37.589,31.471-82.372,33.365-84.258l12.075,12.066c-10.769,10.812-37.026,43.87-29.261,66.739
		C34.364,373.18,62.857,380.86,85.888,384c8.73-0.077,118.007-1.664,222.199-33.604c-0.597-3.046-0.887-6.067-0.887-9.062
		c0-28.237,22.972-51.2,51.2-51.2c16.751,0,31.957,8.004,41.472,21.359c30.225-17.545,54.135-37.905,71.168-60.612
		c0.529-0.657,31.164-38.75,20.292-66.56c-6.212-15.889-25.506-26.257-57.335-30.805l2.415-16.887
		c38.4,5.487,62.234,19.456,70.844,41.532c14.464,37.111-21.248,81.391-22.775,83.251c-19.601,26.146-47.795,49.493-83.575,69.103
		l-7.91,4.335l-3.891-8.132c-5.76-12.041-17.528-19.516-30.703-19.516c-18.825,0-34.133,15.309-34.133,34.133
		c0,3.84,0.734,7.689,2.236,11.767l3.089,8.354l-8.474,2.731C208.179,400.58,86.554,401.067,85.333,401.067H84.77z"/>
	<path style="fill:#4D007E;" d="M384,170.667c-0.811,0-1.638-0.119-2.458-0.358c-17.135-5.146-31.189-10.769-44.22-17.707
		c-4.164-2.219-5.743-7.381-3.524-11.546s7.381-5.743,11.546-3.524c12.023,6.4,25.079,11.614,41.114,16.427
		c4.514,1.357,7.074,6.11,5.717,10.633C391.066,168.286,387.669,170.667,384,170.667z"/>
	<path style="fill:#4D007E;" d="M290.125,272.981c-1.28,0-2.586-0.29-3.814-0.896c-4.215-2.108-5.922-7.236-3.814-11.452
		c0.401-0.802,10.103-19.738,34.338-27.23c22.485-6.946,49.34-1.894,79.838,15.061c4.122,2.287,5.606,7.484,3.319,11.605
		c-2.287,4.113-7.484,5.606-11.605,3.311c-26.274-14.583-48.649-19.183-66.509-13.67c-17.067,5.282-24.047,18.432-24.115,18.56
		C296.269,271.258,293.257,272.981,290.125,272.981z"/>
	<path style="fill:#4D007E;" d="M248.388,213.333c-2.901,0-5.726-1.476-7.322-4.139c-2.423-4.045-1.118-9.284,2.927-11.708
		c11.563-6.938,18.313-14.993,20.07-23.953c2.432-12.416-5.359-23.236-5.436-23.339c-2.825-3.772-2.065-9.122,1.707-11.947
		c3.772-2.833,9.122-2.057,11.947,1.707c0.512,0.683,12.442,16.887,8.533,36.864c-2.722,13.892-12.16,25.779-28.041,35.302
		C251.401,212.941,249.882,213.333,248.388,213.333z"/>
	<path style="fill:#4D007E;" d="M125.986,306.355c-3.063,0-6.025-1.655-7.552-4.557c-2.202-4.173-0.597-9.327,3.567-11.529
		c23.859-12.578,50.918-20.19,80.41-22.622c4.71-0.35,8.815,3.106,9.207,7.808c0.393,4.702-3.106,8.815-7.799,9.207
		c-27.196,2.244-52.045,9.216-73.856,20.71C128.691,306.039,127.326,306.355,125.986,306.355z"/>
	<path style="fill:#4D007E;" d="M76.117,353.28l-7.851-3.413l-7.134-4.736c4.489-8.252,8.73-16.051,16.478-23.808
		c3.328-3.337,8.738-3.328,12.066,0c3.337,3.337,3.337,8.738,0,12.075C83.669,339.396,80.341,345.523,76.117,353.28z
		 M68.267,349.867h0.085H68.267z"/>
	<path style="fill:#4D007E;" d="M51.2,119.467c-4.71,0-8.533-3.823-8.533-8.533c0-28.237,22.972-51.2,51.2-51.2
		c4.71,0,8.533,3.823,8.533,8.533S98.577,76.8,93.867,76.8c-18.825,0-34.133,15.309-34.133,34.133
		C59.733,115.644,55.91,119.467,51.2,119.467z"/>
	<path style="fill:#4D007E;" d="M264.533,494.933c-122.334,0-221.867-99.533-221.867-221.867c0-29.133,5.598-57.515,16.649-84.352
		l3.021-7.339l7.535,2.483c7.825,2.569,15.898,3.874,23.996,3.874c42.351,0,76.8-34.458,76.8-76.8
		c0-9.404-1.758-18.722-5.239-27.691l-2.867-7.398l7.177-3.396c29.79-14.097,61.688-21.248,94.797-21.248
		c122.334,0,221.867,99.533,221.867,221.867S386.867,494.933,264.533,494.933z M72.337,202.274
		c-8.363,22.665-12.604,46.438-12.604,70.793c0,112.922,91.87,204.8,204.8,204.8s204.8-91.878,204.8-204.8s-91.87-204.8-204.8-204.8
		c-28.015,0-55.091,5.538-80.58,16.486c2.509,8.559,3.78,17.331,3.78,26.18c0,51.755-42.112,93.867-93.867,93.867
		C86.63,204.8,79.42,203.947,72.337,202.274z"/>
</g>
<g>
</g>
<g>
</g>
<g>
</g>
<g>
</g>
<g>
</g>
<g>
</g>
<g>
</g>
<g>
</g>
<g>
</g>
<g>
</g>
<g>
</g>
<g>
</g>
<g>
</g>
<g>
</g>
<g>
</g>
</svg>
