<svg id="Layer_1" enable-background="new 0 0 514.688 514.688" height="512" viewBox="0 0 514.688 514.688" width="512" xmlns="http://www.w3.org/2000/svg"><g><g><path d="m396.172 376.873-18.884-31.614c27.501-51.142 19.674-116.265-23.498-159.437-12.137-12.137-26.012-21.474-40.821-28.025l-10.688-42.75c0-10.399-16.761-18.829-37.438-18.829s-37.438 8.43-37.438 18.829l-9.415 37.349c-20.198 6.294-39.211 17.43-55.208 33.427-39.168 39.167-49.24 96.403-30.238 144.875l-4.205 6.32c-.864 1.299-1.851 2.507-2.836 3.717-7.421 9.118-3.063 27.131 10.39 41.443s31.161 19.776 40.721 12.933c1.213-.868 2.439-1.718 3.755-2.422l.836-.447c37.009 25.782 84.037 30.919 125.03 15.382l36.991 22.195c7.353 7.353 25.166 1.462 39.787-13.158s20.513-32.434 13.159-39.788z" fill="#b071d2"/><path d="m279.484 105.255 16.453 66.876 8.94 3.955c12.964 5.735 24.662 13.769 34.771 23.877 17.842 17.843 29.11 40.44 32.585 65.351 3.365 24.125-1.095 49.152-12.56 70.472l-5.372 9.99 37.139 60.776c8.16-11.938 10.445-23.966 4.732-29.68l-18.884-31.614c27.501-51.142 19.674-116.265-23.498-159.437-12.137-12.137-26.012-21.474-40.821-28.025l-10.688-42.75c0-8.542-11.311-15.75-26.809-18.055 1.862 2.39 3.254 5.186 4.012 8.264z" fill="#923ec3"/><ellipse cx="264.844" cy="115.047" fill="#71e4bf" rx="37.438" ry="18.829"/><path d="m264.844 96.217c-3.465 0-6.815.242-10 .685 15.819 2.201 27.438 9.488 27.438 18.145 0 8.656-11.619 15.944-27.438 18.145 3.185.443 6.535.685 10 .685 20.676 0 37.438-8.43 37.438-18.829-.001-10.401-16.762-18.831-37.438-18.831z" fill="#0ea8b2"/><ellipse cx="369.7" cy="403.346" fill="#71e4bf" rx="37.438" ry="18.829" transform="matrix(.707 -.707 .707 .707 -176.926 379.555)"/><path d="m396.172 376.873c-6.269-6.269-20.141-2.906-33.155 7.281 5.494-1.061 10.181-.255 13.155 2.719 7.353 7.353 1.462 25.167-13.158 39.787-2.155 2.155-4.381 4.116-6.631 5.877 8.088-1.562 17.925-7.171 26.631-15.877 14.621-14.62 20.512-32.433 13.158-39.787z" fill="#0ea8b2"/><ellipse cx="152.415" cy="366.648" fill="#71e4bf" rx="22.673" ry="37.438" transform="matrix(.729 -.685 .685 .729 -209.755 203.878)"/><path d="m172.217 354.916c1.664 7.763.408 14.716-4.162 19.011-9.124 8.576-28 3.315-42.161-11.75-1.165-1.24-2.255-2.509-3.282-3.796 1.658 7.736 6.214 16.276 13.282 23.796 14.161 15.066 33.037 20.326 42.161 11.75 8.374-7.87 5.617-24.657-5.838-39.011z" fill="#0ea8b2"/><path d="m479.338 195.911c-12.915-5.77-30.972-10.871-53.67-15.16-26.108-4.934-57.131-8.582-90.924-10.783 6.704 4.612 13.086 9.893 19.047 15.854 6.013 6.013 11.318 12.463 15.96 19.231 13.765 1.455 26.78 3.181 38.798 5.166 22.033 3.639 37.037 7.481 47.185 10.862 6.378 2.125 6.378 11.152 0 13.277-10.148 3.381-25.152 7.224-47.185 10.862-41.741 6.894-95.439 10.69-151.205 10.69s-109.464-3.796-151.205-10.69c-22.033-3.639-37.037-7.481-47.185-10.862-6.378-2.125-6.378-11.152 0-13.277 10.148-3.381 25.152-7.224 47.185-10.862 12.601-2.081 26.299-3.878 40.808-5.375 4.609-6.694 9.883-13.069 15.836-19.022 6.018-6.018 12.463-11.346 19.236-15.989-34.6 2.185-66.357 5.883-92.999 10.918-22.699 4.29-40.756 9.39-53.67 15.16-18.48 8.257-27.85 18.959-27.85 31.809s9.37 23.553 27.85 31.81c12.915 5.77 30.972 10.871 53.67 15.16 45.117 8.526 104.896 13.222 168.324 13.222s123.207-4.695 168.324-13.222c22.699-4.29 40.756-9.39 53.67-15.16 18.479-8.257 27.85-18.959 27.85-31.81s-9.371-23.552-27.85-31.809z" fill="#d8fc7e"/><path d="m479.338 195.911c-2.295-1.025-4.76-2.028-7.376-3.01 10.105 7.025 15.226 15.335 15.226 24.82 0 12.851-9.37 23.553-27.85 31.81-12.915 5.77-30.972 10.871-53.67 15.16-45.117 8.526-104.896 13.222-168.324 13.222s-123.207-4.696-168.324-13.223c-18.665-3.527-34.184-7.604-46.294-12.15 3.585 2.493 7.784 4.827 12.624 6.99 12.915 5.77 30.972 10.871 53.67 15.16 45.117 8.526 104.896 13.222 168.324 13.222s123.207-4.695 168.324-13.222c22.699-4.29 40.756-9.39 53.67-15.16 18.479-8.257 27.85-18.959 27.85-31.81s-9.371-23.552-27.85-31.809z" fill="#71e4bf"/><g fill="#fcad42"><circle cx="85" cy="115.047" r="22.469"/><circle cx="467.344" cy="336.973" r="22.469"/></g></g><g><g><path d="m177.432 230.363-12.683-8.01c2.412-3.82 5.09-7.533 7.96-11.037l11.604 9.504c-2.48 3.03-4.796 6.241-6.881 9.543zm16.452-19.644-10.13-11.063c3.97-3.635 8.211-6.99 12.607-9.972l8.421 12.413c-3.796 2.577-7.463 5.477-10.898 8.622zm22.923-15.533-6.489-13.523c4.788-2.297 9.822-4.275 14.962-5.876l4.463 14.32c-4.449 1.386-8.801 3.095-12.936 5.079z" fill="#fff"/></g><g><path d="m482.397 189.063c-13.447-6.008-32.065-11.284-55.337-15.682-25.817-4.879-56.02-8.495-89.782-10.758-5.706-3.804-11.681-7.194-17.908-10.143l-9.621-38.483c-.877-14.485-19.888-25.279-44.906-25.279-25.014 0-44.021 10.79-44.905 25.271l-8.21 32.571c-11.33 3.913-22.156 9.285-32.166 15.92-34.609 2.249-65.536 5.913-91.934 10.902-8.289 1.566-16.076 3.263-23.146 5.043l3.662 14.546c6.781-1.707 14.273-3.339 22.269-4.85 20.212-3.82 43.199-6.847 68.551-9.044-.495.481-.996.954-1.484 1.442-5.365 5.365-10.258 11.133-14.671 17.224-13.511 1.45-26.249 3.154-37.891 5.077-19.574 3.233-35.836 6.983-48.334 11.147-6.021 2.006-9.912 7.405-9.912 13.754s3.891 11.748 9.913 13.754c12.495 4.163 28.757 7.913 48.333 11.146 42.131 6.958 96.264 10.791 152.427 10.791s110.296-3.832 152.427-10.791c19.576-3.233 35.838-6.984 48.334-11.147 6.021-2.006 9.912-7.405 9.912-13.754s-3.891-11.748-9.913-13.754c-12.498-4.164-28.76-7.914-48.333-11.146-11.057-1.826-23.105-3.456-35.843-4.856-4.455-6.173-9.405-12.015-14.835-17.445-.424-.424-.855-.839-1.284-1.257 24.546 2.182 46.831 5.148 66.466 8.859 22.125 4.181 39.622 9.106 52.003 14.638 15.533 6.94 23.409 15.339 23.409 24.962s-7.876 18.021-23.409 24.962c-12.382 5.532-29.878 10.457-52.003 14.638-44.67 8.442-103.955 13.091-166.931 13.091s-122.261-4.649-166.931-13.091c-22.125-4.181-39.622-9.106-52.003-14.638-15.535-6.941-23.411-15.339-23.411-24.963s7.876-18.021 23.409-24.962c4.417-1.974 9.573-3.9 15.325-5.725l-4.537-14.298c-6.288 1.995-11.976 4.124-16.907 6.327-21.426 9.575-32.29 22.581-32.29 38.658s10.864 29.083 32.29 38.657c13.447 6.008 32.065 11.284 55.337 15.682 8.869 1.676 18.302 3.204 28.204 4.58.536 14.692 3.311 29.073 8.273 42.892-2.333 3.441-4.039 5.937-4.503 6.573-9.804 12.209-5.167 34.191 10.828 51.208 10.978 11.679 24.618 18.164 36.232 18.163 5.271 0 10.126-1.336 14.123-4.128.078-.047.178-.105.295-.173 36.897 23.825 82.764 29.28 124.364 14.719l33.246 19.947c3.518 3.116 8.104 4.613 13.304 4.613 10.853-.001 24.364-6.53 36.325-18.491 17.687-17.687 23.499-38.757 13.884-49.622l-16.333-27.342c2.657-5.325 4.99-10.843 6.956-16.454l-14.156-4.959c-2.181 6.225-4.868 12.322-7.986 18.12l-2.015 3.747 12.768 21.375c-1.555.309-3.149.721-4.787 1.263-8.604 2.846-17.684 8.754-25.566 16.637-9.845 9.844-16 20.734-17.874 30.332l-21.31-12.786c-.44-4.172 6.342-19.526 27.255-37.089l-9.646-11.487c-11.383 9.56-20.808 20.236-26.538 30.063-4.739 8.127-6.235 14.381-6.032 19.149-33.661 10.692-70.097 6.965-100.716-10.126 7.242-3.979 15.643-8.575 22.089-12.093l.844-.46.7-.658c7.043-6.62 9.522-16.837 6.98-28.77-2.255-10.587-8.33-21.559-17.104-30.894l-10.93 10.273c6.824 7.26 11.695 15.915 13.363 23.746 1.297 6.086.556 11.173-2.023 14.133-8.324 4.544-14.783 8.08-19.827 10.849-.698-10.565-6.169-22.559-15.915-32.928-9.554-10.164-20.92-16.319-31.256-17.83 2.69-3.99 5.817-8.639 9.409-13.987l-12.452-8.363c-1.58 2.353-3.38 5.031-5.244 7.799-2.136-8.178-3.448-16.54-3.922-25.025 37.692 4.451 81.141 6.835 126.409 6.835 46.023 0 90.171-2.462 128.295-7.057-.371 6.744-1.264 13.458-2.688 20.045l14.661 3.171c1.789-8.271 2.828-16.719 3.128-25.194 9.216-1.307 18.015-2.747 26.32-4.316 23.272-4.398 41.89-9.674 55.337-15.682 21.426-9.574 32.29-22.58 32.29-38.657s-10.862-29.083-32.289-38.657zm-217.553-85.346c18.571 0 29.938 7.335 29.938 11.33s-11.366 11.33-29.938 11.33-29.938-7.335-29.938-11.33 11.366-11.33 29.938-11.33zm-202.063 124.003c11.563-3.727 26.55-7.123 44.581-10.101 7.924-1.309 16.379-2.515 25.252-3.607-4.438 8.274-8.05 16.983-10.776 26.005-4.966-.693-9.801-1.424-14.476-2.196-18.027-2.977-33.009-6.372-44.581-10.101zm344.545-10.101c18.023 2.977 33.006 6.371 44.581 10.101-11.561 3.727-26.548 7.123-44.581 10.101-4.106.678-8.335 1.325-12.667 1.942-2.69-8.84-6.228-17.38-10.563-25.502 8.136 1.026 15.908 2.149 23.23 3.358zm-27.751 24.116c-36.23 4.337-78.574 6.677-122.231 6.677-42.929 0-84.589-2.262-120.414-6.461 6.182-19.08 16.847-36.516 31.156-50.826 14.563-14.563 32.591-25.479 52.136-31.569l4.014-1.251 6.493-25.757c8.112 5.473 20.176 8.829 34.115 8.829 13.922 0 25.975-3.348 34.087-8.81l6.521 26.082c-2.534 3.512-17.583 10.791-44.67 10.791v15c22.916 0 47.202-5.188 56.281-16.354 11.558 5.997 22.105 13.721 31.425 23.041 14.252 14.251 24.894 31.613 31.087 50.608zm-17.886 153.6c6.169-6.169 13.338-10.908 19.67-13.002 5.02-1.659 8.393-1.273 9.51-.156 1.118 1.118 1.503 4.492-.156 9.51-2.094 6.332-6.833 13.501-13.001 19.67-13.132 13.131-26.357 15.982-29.18 13.158-2.825-2.825.025-16.049 13.157-29.18zm-229.778-50.5c6.327-5.947 21.881 1.125 31.56 11.422 9.678 10.297 15.775 26.258 9.448 32.206l.076.081c-.523.31-.651.401-.745.469-5.673 4.055-19.436.215-30.891-11.972-11.456-12.188-14.438-26.165-10.037-31.574.089-.11.27-.357.518-.706z"/><path d="m269.219 332.101h15v15h-15z"/><path d="m317.281 205.101h15v15h-15z"/><path d="m85 145.015c16.525 0 29.969-13.444 29.969-29.969s-13.444-29.968-29.969-29.968-29.969 13.444-29.969 29.969 13.444 29.968 29.969 29.968zm0-44.937c8.254 0 14.969 6.715 14.969 14.969s-6.715 14.968-14.969 14.968-14.969-6.715-14.969-14.969 6.715-14.968 14.969-14.968z"/><path d="m467.344 307.004c-16.525 0-29.969 13.444-29.969 29.969s13.444 29.969 29.969 29.969 29.969-13.444 29.969-29.969-13.444-29.969-29.969-29.969zm0 44.938c-8.254 0-14.969-6.715-14.969-14.969s6.715-14.969 14.969-14.969 14.969 6.715 14.969 14.969-6.715 14.969-14.969 14.969z"/><path d="m389.719 102.594h15v-17.5h17.625v-15h-17.625v-17.5h-15v17.5h-17.375v15h17.375z"/><path d="m84.844 412.094h-15v17.5h-17.375v15h17.375v17.5h15v-17.5h17.625v-15h-17.625z"/></g></g></g></svg>