<svg height="512pt" viewBox="0 -20 512 511" width="512pt" xmlns="http://www.w3.org/2000/svg"><path d="m340.855469 351.46875c-43.335938 43.335938-90.703125 77.800781-133.371094 97.050781-47.625 21.480469-85.472656 21.695313-106.570313.597657-21.097656-21.097657-20.882812-58.941407.601563-106.566407 19.246094-42.671875 53.714844-90.039062 97.050781-133.371093 43.335938-43.335938 90.699219-77.804688 133.371094-97.050782 47.625-21.484375 85.46875-21.699218 106.566406-.601562s20.886719 58.945312-.597656 106.570312c-19.25 42.667969-53.714844 90.035156-97.050781 133.371094zm-118.824219-118.828125c-40.570312 40.570313-72.628906 84.449219-90.265625 123.554687-14.738281 32.664063-17.566406 59.277344-7.386719 69.457032 10.179688 10.179687 36.796875 7.351562 69.460938-7.382813 39.101562-17.640625 82.980468-49.699219 123.550781-90.265625 40.570313-40.570312 72.625-84.449218 90.265625-123.554687 14.734375-32.664063 17.5625-59.277344 7.382812-69.457031-10.179687-10.179688-36.792968-7.351563-69.457031 7.382812-39.105469 17.640625-82.980469 49.695312-123.550781 90.265625zm0 0" fill="#c7aee4"/><path d="m124.378906 425.652344c.003906.003906.003906.003906 0 0-10.179687-10.179688-7.351562-36.796875 7.386719-69.460938 17.636719-39.101562 49.695313-82.980468 90.265625-123.550781s84.445312-72.628906 123.550781-90.265625c32.640625-14.726562 59.242188-17.558594 69.4375-7.402344-.414062-.410156-20.828125-20.386718-61.410156-31.390625-6.964844 2.324219-14.199219 5.171875-21.671875 8.542969-42.671875 19.246094-90.035156 53.714844-133.371094 97.050781-43.335937 43.335938-77.804687 90.703125-97.050781 133.371094 0 .003906-9.21875 54.09375 22.863281 83.105469zm0 0" fill="#b18cd9"/><path d="m438.710938 280.320312c0 93.335938-75.664063 169-169 169-93.335938 0-169-75.664062-169-169 0-93.335937 75.664062-169 169-169 93.335937 0 169 75.664063 169 169zm0 0" fill="#c2eafb"/><path d="m389.210938 399.824219c9.011718-9.011719 16.789062-18.785157 23.339843-29.113281-5.550781-9.410157-9.648437-23.175782-9.1875-43.265626 1.335938-58.035156 0-76.246093 0-76.246093s-67.394531 85.1875-67.882812 86.359375c-120.121094 53.589844-193.855469.742187-234.726563-53.5.921875 41.992187 17.410156 83.714844 49.457032 115.761718 66 66 173.003906 66 239 .003907zm0 0" fill="#91d4f2"/><path d="m385.308594 280.320312c0 15.3125-12.410156 27.726563-27.722656 27.726563-15.316407 0-27.726563-12.414063-27.726563-27.726563s12.410156-27.722656 27.726563-27.722656c15.3125 0 27.722656 12.410156 27.722656 27.722656zm0 0" fill="#59c2e8"/><path d="m419.828125 167.328125c-1.910156 10.804687-5.992187 23.425781-12.171875 37.121094-17.640625 39.105469-49.695312 82.984375-90.265625 123.554687-40.570313 40.566406-84.449219 72.625-123.550781 90.265625-12.617188 5.691407-24.316406 9.601563-34.53125 11.675781l26.960937 26.960938c6.824219-2.296875 13.902344-5.089844 21.214844-8.390625 42.667969-19.246094 90.035156-53.714844 133.371094-97.050781 43.335937-43.335938 77.800781-90.699219 97.050781-133.371094 3.675781-8.148438 6.722656-15.996094 9.15625-23.535156zm0 0" fill="#c7aee4"/><path d="m301.25 114.273438c-39.679688-7.5-81.523438-.707032-117.277344 20.367187 2.785156 9.027344 7.742188 17.53125 14.886719 24.679687 23.4375 23.4375 61.4375 23.4375 84.875 0 12.378906-12.382812 18.214844-28.832031 17.515625-45.046874zm0 0" fill="#59c2e8"/><path d="m340.128906 388.085938c-17.167968 11.335937-22.808594 33.574218-13.851562 51.53125 22.984375-8.144532 44.550781-21.414063 62.941406-39.800782 1.328125-1.328125 2.625-2.671875 3.902344-4.03125-12.96875-15.457031-35.75-19.082031-52.992188-7.699218zm0 0" fill="#59c2e8"/><path d="m86.761719 203.882812 5.964843 10.90625c5.953126 10.878907 14.898438 19.824219 25.777344 25.773438l10.90625 5.96875c11.164063 6.105469 11.164063 22.136719 0 28.242188l-10.90625 5.964843c-10.882812 5.949219-19.824218 14.894531-25.777344 25.773438l-5.964843 10.910156c-6.105469 11.160156-22.136719 11.160156-28.242188 0l-5.964843-10.910156c-5.949219-10.878907-14.894532-19.824219-25.777344-25.773438l-10.90625-5.964843c-11.160156-6.105469-11.160156-22.136719 0-28.242188l10.90625-5.96875c10.882812-5.949219 19.828125-14.894531 25.777344-25.773438l5.964843-10.90625c6.105469-11.164062 22.136719-11.164062 28.242188 0zm0 0" fill="#f9ee80"/><path d="m471.792969 13.367188 3.824219 6.992187c3.816406 6.976563 9.550781 12.707031 16.523437 16.523437l6.992187 3.824219c7.15625 3.914063 7.15625 14.191407 0 18.101563l-6.992187 3.824218c-6.976563 3.816407-12.707031 9.550782-16.523437 16.523438l-3.824219 6.992188c-3.910157 7.15625-14.191407 7.15625-18.101563 0l-3.824218-6.992188c-3.816407-6.972656-9.550782-12.707031-16.523438-16.523438l-6.992188-3.824218c-7.15625-3.914063-7.15625-14.191406 0-18.101563l6.992188-3.824219c6.972656-3.816406 12.707031-9.550781 16.523438-16.523437l3.824218-6.992187c3.910156-7.15625 14.1875-7.15625 18.101563 0zm0 0" fill="#f9ee80"/><path d="m259.46875 248.820312c-7.480469-7.480468-18.304688-8.785156-24.175781-2.914062-5.871094 5.871094-4.566407 16.695312 2.914062 24.175781s18.300781 8.785157 24.175781 2.914063c5.871094-5.871094 4.566407-16.695313-2.914062-24.175782zm0 0" fill="#454545"/><path d="m287.242188 199.84375c-2.925782-2.929688-7.675782-2.929688-10.605469 0-2.929688 2.925781-2.929688 7.675781 0 10.605469l8.804687 8.804687c2.929688 2.929688 7.675782 2.929688 10.605469 0 2.929687-2.929687 2.929687-7.679687 0-10.609375zm0 0"/><path d="m199.835938 287.25c-2.929688-2.929688-7.675782-2.929688-10.605469 0-2.929688 2.929688-2.929688 7.675781 0 10.605469l8.804687 8.804687c2.929688 2.929688 7.675782 2.929688 10.605469 0 2.929687-2.929687 2.929687-7.679687 0-10.605468zm0 0"/><path d="m433.203125 116.832031c6.167969 6.167969 10.273437 14.167969 12.191406 23.769531.710938 3.566407 3.316407 6.621094 8.824219 5.886719 4.105469-.546875 6.695312-4.761719 5.882812-8.824219-2.507812-12.5625-7.296874-23.894531-16.292968-31.441406-47.101563-39.503906-122.179688 2.421875-125.839844 4.253906-15.503906-4.382812-31.707031-6.65625-48.257812-6.65625-47.148438 0-91.46875 18.359376-124.808594 51.695313-17.949219 17.953125-31.832032 39.628906-40.628906 63.25-1.839844-2.378906-3.507813-4.910156-4.964844-7.578125l-5.96875-10.90625c-4.199219-7.683594-11.9375-12.269531-20.699219-12.269531-8.757813 0-16.5 4.585937-20.703125 12.269531 0 0-6.273438 13.957031-13.929688 22.0625-2.847656 3.011719-2.578124 7.804688.476563 10.597656 3.0625 2.792969 7.710937 2.488282 10.597656-.480468 10.75-11.054688 16.015625-24.980469 16.015625-24.980469 1.53125-2.800781 4.351563-4.472657 7.542969-4.46875 3.191406 0 6.007813 1.667969 7.539063 4.46875l5.96875 10.90625c6.648437 12.164062 16.59375 22.105469 28.753906 28.757812l10.910156 5.964844c2.796875 1.53125 4.46875 4.351563 4.46875 7.539063 0 3.191406-1.671875 6.011718-4.46875 7.542968l-10.910156 5.964844c-12.160156 6.652344-22.101563 16.597656-28.753906 28.757812l-5.96875 10.90625c-1.53125 2.800782-4.347657 4.472657-7.539063 4.472657s-6.011719-1.671875-7.542969-4.472657l-5.964844-10.90625c-6.648437-12.160156-16.59375-22.105468-28.753906-28.757812l-10.910156-5.964844c-2.796875-1.53125-4.46875-4.351562-4.46875-7.542968 0-3.1875 1.671875-6.007813 4.46875-7.539063 3.636719-1.988281 4.96875-6.542969 2.980469-10.179687-1.984375-3.632813-6.542969-4.96875-10.175781-2.980469-7.683594 4.203125-12.273438 11.941406-12.273438 20.699219 0 8.761718 4.589844 16.5 12.273438 20.703124l10.90625 5.964844c9.640624 5.273438 17.519531 13.15625 22.792968 22.792969l5.964844 10.910156c4.203125 7.683594 11.945312 12.273438 20.703125 12.269531 8.761719 0 16.5-4.585937 20.699219-12.269531l3.300781-6.039062c.914063 4.550781 2.007813 9.050781 3.273437 13.496093-1.847656 3.6875-3.605468 7.375-5.238281 10.988282-22.855469 50.671875-22.523437 91.496094.933594 114.957031 11.890625 11.890625 28.242187 17.839844 48.074219 17.839844 19.300781 0 56.457031-9.003907 77.824218-22.125 15.898438 4.5 101.460938 26.539062 173.003907-45.007813 45.476562-45.480468 62.480469-111.351562 45.007812-173 1.839844-3.679687 15.660157-29.8125 20.496094-58.773437.683594-4.082031-2.082031-7.949219-6.167969-8.625-4.082031-.6875-7.949218 2.082031-8.628906 6.167969-2.226562 13.386718-6.984375 28.226562-14.152344 44.113281-18.882812 41.863281-52.804687 88.441406-95.515625 131.148437-42.710937 42.710938-89.289062 76.632813-131.152343 95.519532-44.578126 20.113281-79.445313 20.867187-98.179688 2.132812-18.304688-18.300781-17.992188-52.011719.785156-95.125 3.148438 7.496094 6.820313 14.769531 10.976563 21.769531-9.90625 28.460938-9.558594 49.84375 1.09375 60.5 5.539062 5.535157 13.980469 8.285157 24.742187 8.28125 14.140625 0 32.289063-4.742187 53.105469-14.132812 39.910156-18.003907 84.574219-50.609375 125.769531-91.800781 41.195313-41.195313 73.796875-85.863282 91.800782-125.773438 16.53125-36.652344 18.664062-65.027344 5.847656-77.84375-10.632813-10.632812-31.984375-10.996094-60.390625-1.132812-7-4.175782-14.265625-7.84375-21.75-10.996094 43.054687-18.71875 76.714843-19.011719 95.003906-.726563zm-88.941406 277.515625c11.960937-7.894531 27.359375-6.992187 38.230469 1.542969-15.191407 14.824219-32.851563 26.261719-51.882813 34.011719-3.457031-13.292969 1.78125-27.71875 13.652344-35.554688zm1.894531-37.578125c33.789062-33.785156 62.28125-70.050781 82.566406-104.765625 8.476563 47.40625-4.574218 96.03125-35.960937 132.894532-15.902344-13.203126-38.953125-14.828126-56.765625-3.070313-17.675782 11.667969-25.269532 33.363281-19.570313 53.082031-24.042969 7.265625-49.722656 8.910156-75.019531 4.417969 34.710938-20.289063 70.96875-48.773437 104.75-82.558594zm-52.496094-236.195312c-.894531 12.546875-6.269531 24.484375-15.226562 33.441406-20.476563 20.476563-53.792969 20.476563-74.269532 0-4.683593-4.683594-8.34375-10.054687-10.945312-16.011719 23.234375-12.527344 58.214844-23.242187 100.441406-17.429687zm-163.976562 299.777343c-5.386719-5.390624-4.585938-19.164062-.875-33.757812 4.910156 6.515625 18.476562 22.679688 34.671875 34.6875-17.789063 4.585938-29.519531 3.34375-33.796875-.929688zm213.597656-154.332031c5.726562-5.816406 14.335938-7.371093 21.628906-4.546875-7.363281 10.0625-15.40625 20.179688-24.046875 30.226563-2.273437-3.332031-6.664062-16.449219 2.417969-25.679688zm30.417969-17.023437c-13.363281-6.863282-30.148438-4.589844-41.023438 6.417968-17.722656 17.941407-7.351562 41.355469-1.925781 47.71875-5.984375 6.582032-12.246094 13.078126-18.664062 19.566407-69.542969 70.300781-127.804688 91.554687-130.867188 92.753906-9.214844-6.046875-17.847656-13.074219-25.703125-20.933594-40.164063-40.160156-45.40625-87.582031-46.429687-97.460937 3.828124-3.828125 8.203124-7.109375 13.015624-9.742188l10.910157-5.964844c7.683593-4.203124 12.269531-11.941406 12.269531-20.703124 0-8.757813-4.585938-16.496094-12.269531-20.699219l-10.910157-5.964844c-2.070312-1.132813-4.054687-2.394531-5.957031-3.761719 7.828125-24.027344 21.371094-46.101562 39.371094-64.097656 7.660156-7.664062 15.960937-14.460938 24.773437-20.34375 3.308594 6.964844 7.800782 13.371094 13.269532 18.839844 12.75 12.753906 29.707031 19.773437 47.742187 19.773437 18.03125 0 34.988281-7.023437 47.738281-19.773437 11.074219-11.074219 17.886719-25.695313 19.417969-41.140625 28.324219 6.945312 54.304688 21.496093 75.453125 42.644531 7.855469 7.855469 14.878906 16.496094 20.929688 25.710938-4.855469 15.832031-20.078125 40.859374-31.140625 57.160156zm36.035156-108.699219c4.28125 4.277344 5.519531 16.003906.9375 33.789063-11.667969-15.636719-28.234375-29.824219-34.738281-34.746094 18.933594-4.925782 29.898437-2.949219 33.800781.957031zm0 0"/><path d="m502.730469 34.125-6.992188-3.824219c-5.726562-3.128906-10.410156-7.816406-13.539062-13.539062l-3.824219-6.992188v-.003906c-3.128906-5.714844-9.117188-9.265625-15.636719-9.265625-6.515625 0-12.503906 3.550781-15.628906 9.269531l-3.824219 6.992188c-3.132812 5.722656-7.816406 10.410156-13.542968 13.539062l-6.992188 3.824219c-5.714844 3.128906-9.265625 9.117188-9.265625 15.632812-.003906 6.515626 3.550781 12.507813 9.265625 15.632813l6.992188 3.824219c5.726562 3.132812 10.410156 7.816406 13.542968 13.542968l3.824219 6.988282c3.125 5.71875 9.113281 9.269531 15.628906 9.269531h.003907c6.515624 0 12.503906-3.550781 15.632812-9.265625l3.824219-6.992188c3.128906-5.726562 7.8125-10.410156 13.542969-13.542968l6.988281-3.824219c5.71875-3.125 9.269531-9.117187 9.269531-15.632813 0-6.515624-3.550781-12.503906-9.269531-15.632812zm-7.199219 18.105469-6.988281 3.824219c-8.25 4.511718-14.992188 11.257812-19.503907 19.503906l-3.824218 6.992187c-.699219 1.273438-1.851563 1.464844-2.472656 1.464844-.625 0-1.773438-.1875-2.472657-1.464844l-3.824219-6.992187c-4.511718-8.246094-11.257812-14.992188-19.503906-19.503906l-6.992187-3.824219c-1.273438-.695313-1.464844-1.847657-1.464844-2.472657s.1875-1.773437 1.464844-2.472656l6.992187-3.824218c8.246094-4.511719 14.992188-11.253907 19.503906-19.503907l3.824219-6.992187c.695313-1.273438 1.847657-1.464844 2.472657-1.464844.621093 0 1.773437.191406 2.472656 1.464844l3.824218 6.992187c4.511719 8.25 11.253907 14.992188 19.503907 19.503907l6.992187 3.824218c1.273438.699219 1.464844 1.847656 1.464844 2.472656s-.191406 1.773438-1.46875 2.472657zm0 0"/><path d="m264.773438 243.515625c-10.390626-10.390625-25.992188-11.695313-34.78125-2.910156-8.789063 8.785156-7.480469 24.386719 2.914062 34.78125 4.796875 4.800781 10.871094 7.855469 17.097656 8.605469.976563.117187 1.941406.179687 2.898438.179687 5.710937 0 10.984375-2.070313 14.785156-5.871094 4.4375-4.4375 6.511719-10.882812 5.691406-17.683593-.746094-6.226563-3.804687-12.300782-8.605468-17.101563zm-7.691407 24.175781c-2.519531 2.523438-8.710937 1.945313-13.570312-2.910156-4.855469-4.855469-5.433594-11.050781-2.914063-13.570312.957032-.957032 2.441406-1.464844 4.183594-1.464844 2.84375 0 6.375 1.363281 9.386719 4.378906 4.855469 4.855469 5.433593 11.046875 2.914062 13.566406zm0 0"/></svg>