<svg height="512pt" viewBox="0 -40 512 511" width="512pt" xmlns="http://www.w3.org/2000/svg"><path d="m502 273.320312c0 61.882813-50.164062 112.046876-112.046875 112.046876s-112.046875-50.164063-112.046875-112.046876c0-61.882812 50.164062-112.046874 112.046875-112.046874s112.046875 50.164062 112.046875 112.046874zm0 0" fill="#e5ecec"/><path d="m469.839844 351.871094c-20.324219 20.675781-48.609375 33.492187-79.886719 33.492187s-59.5625-12.816406-79.886719-33.492187zm0 0" fill="#8291a8"/><path d="m501.96875 271.433594h-224.03125c.238281-15.410156 3.601562-30.058594 9.480469-43.351563h205.070312c5.878907 13.296875 9.242188 27.941407 9.480469 43.351563zm0 0" fill="#8291a8"/><path d="m297.238281 210.378906c-12.203125 17.941406-19.332031 39.609375-19.332031 62.9375 0 7.980469.832031 15.757813 2.421875 23.257813 7.070313 33.5 29.105469 61.484375 58.78125 76.613281 1.792969.910156 3.605469 1.78125 5.449219 2.582031-11.890625 9.738281-25.054688 18.027344-38.851563 24.785157-56.21875 27.542968-123.792969 27.605468-180.074219.195312-14.125-6.878906-27.460937-15.394531-39.648437-25.308594-10.539063-8.574218-20.230469-18.167968-28.890625-28.632812-8.738281-10.558594-16.414062-21.984375-22.878906-34.066406-6.699219-12.523438-12.101563-25.753907-16.066406-39.390626-4.371094-15.023437-7.007813-30.554687-7.832032-46.179687-.195312-3.742187-.316406-7.5-.316406-11.246094 0-113.46875 91.992188-205.449219 205.460938-205.449219 95.496093 0 175.785156 65.15625 198.820312 153.445313-7.828125-1.742187-15.96875-2.652344-24.328125-2.652344-38.546875 0-72.546875 19.472657-92.714844 49.109375zm0 0" fill="#d8a1e4"/><g fill="#c478d7"><path d="m121.90625 66.6875.609375-.308594c12.117187-6.167968 26.453125-6.167968 38.566406 0l.613281.308594c12.113282 6.167969 26.449219 6.167969 38.566407 0l.609375-.308594c12.117187-6.167968 26.453125-6.167968 38.570312 0l.609375.308594c12.117188 6.167969 26.453125 6.167969 38.570313 0l.609375-.308594c12.117187-6.167968 26.453125-6.167968 38.570312 0l.609375.308594c12.113282 6.167969 26.25 6.269531 38.363282.105469-36.824219-34.90625-86.566407-56.324219-141.308594-56.324219-53.113282 0-101.519532 20.15625-137.988282 53.234375l5.863282 2.984375c12.113281 6.167969 26.449218 6.167969 38.566406 0zm0 0"/><path d="m297.238281 210.378906c-12.203125 17.941406-19.332031 39.609375-19.332031 62.9375 0 7.980469.832031 15.757813 2.421875 23.257813-9.722656-1.191407-19.28125-4.085938-28.242187-8.640625l-1.234376-.621094c-24.320312-12.386719-53.082031-12.386719-77.402343 0l-1.230469.621094c-24.320312 12.386718-53.097656 12.386718-77.414062 0l-1.222657-.621094c-22.464843-11.445312-48.730469-12.304688-71.765625-2.613281-5.886718-16.53125-9.597656-33.8125-11.066406-51.296875-.425781-5.035156-.664062-10.089844-.71875-15.144532 1.007812.480469 2.003906.988282 3.003906 1.492188 24.320313 12.386719 53.09375 12.386719 77.402344 0l1.234375-.621094c24.316406-12.382812 53.09375-12.382812 77.414063 0l1.21875.621094c24.320312 12.386719 53.09375 12.386719 77.414062 0l1.230469-.621094c15.089843-7.6875 31.890625-10.601562 48.289062-8.75zm0 0"/><path d="m344.558594 375.769531c-14.011719 11.480469-29.753906 20.914063-46.296875 28.246094-50.1875 22.242187-109.097657 23.101563-159.9375 2.394531-16.929688-6.894531-32.925781-16.015625-47.457031-27.117187-1.71875-1.3125-3.414063-2.660157-5.09375-4.023438 11.167968-3.847656 23.265624-2.71875 33.742187 2.601563 12.113281 6.167968 26.449219 6.167968 38.566406 0l.609375-.308594c12.117188-6.167969 26.453125-6.167969 38.566406 0l.613282.308594c12.113281 6.167968 26.449218 6.167968 38.566406 0l.609375-.308594c12.117187-6.167969 26.453125-6.167969 38.566406 0l.613281.308594c12.113282 6.167968 26.453126 6.167968 38.566407 0 4.414062-2.242188 9.070312-3.828125 13.988281-4.515625 2.59375-.363281 5.222656-.480469 7.835938-.359375.707031.035156 1.441406.039062 2.140624.15625.613282.101562 1.140626.433594 1.703126.710937 1.351562.667969 2.714843 1.308594 4.097656 1.90625zm0 0"/></g><path d="m174.359375 124.167969c-2.390625-3.5-6.789063-5.210938-10.90625-4.101563-3.984375 1.074219-6.941406 4.574219-7.363281 8.675782-.425782 4.148437 1.917968 8.246093 5.679687 10.015624 3.671875 1.726563 8.136719 1.050782 11.105469-1.734374 3.542969-3.320313 4.132812-8.816407 1.484375-12.855469zm0 0"/><path d="m441.988281 231.898438c1.582031 3.847656 5.574219 6.382812 9.730469 6.164062 4.179688-.21875 7.851562-3.082031 9.070312-7.085938 1.160157-3.820312-.117187-8.097656-3.214843-10.628906-3.390625-2.769531-8.253907-2.992187-11.894531-.582031-3.921876 2.601563-5.496094 7.785156-3.691407 12.132813zm0 0"/><path d="m367.730469 301.5h-43.796875c-5.519532 0-10 4.480469-10 10 0 5.523438 4.480468 10 10 10h43.796875c5.523437 0 10-4.476562 10-10 0-5.519531-4.476563-10-10-10zm0 0"/><path d="m504.925781 314.265625c4.574219-12.804687 7.074219-26.589844 7.074219-40.945313 0-33.371093-13.46875-63.652343-35.246094-85.707031-.46875-.582031-1-1.109375-1.585937-1.574219-22.011719-21.496093-52.09375-34.765624-85.214844-34.765624-39.792969 0-75.191406 19.140624-97.484375 48.699218-16.640625-.851562-33.136719 2.644532-48.015625 10.226563l-1.269531.640625c-21.398438 10.898437-46.945313 10.894531-68.351563-.007813l-1.210937-.613281c-27.078125-13.789062-59.410156-13.789062-86.449219-.019531l-1.273437.640625c-20.554688 10.476562-44.949219 10.875-65.847657 1.195312.550781-28.183594 7.101563-54.917968 18.421875-78.992187 8.710938 3.070312 17.003906 4.613281 24.980469 4.613281 8.289063 0 16.242187-1.65625 23.976563-4.972656.273437-.117188.539062-.246094.800781-.386719 8.832031-4.753906 22.300781-9.808594 36.296875-6.886719 5.414062 1.125 10.707031-2.34375 11.832031-7.746094 1.128906-5.40625-2.339844-10.703124-7.746094-11.832031-15.617187-3.261719-32.707031-.277343-49.441406 8.628907-9.578125 4.003906-19.554687 4.226562-31.121094.683593 8.714844-14.417969 19.242188-27.625 31.257813-39.304687 14.8125 7.339844 32.382812 7.269531 47.132812-.238282l.613282-.3125c9.230468-4.703124 20.257812-4.703124 29.5.003907l.605468.308593c14.914063 7.589844 32.726563 7.589844 47.640625 0l.609375-.3125c9.238282-4.703124 20.261719-4.703124 29.496094 0l.609375.3125c14.914063 7.589844 32.722656 7.589844 47.632813.003907l.621093-.316407c9.230469-4.699218 20.257813-4.703124 29.492188 0l.609375.3125c7.601562 3.867188 15.746094 5.804688 23.875 5.804688 5.660156 0 11.304687-.960938 16.757812-2.835938 11.285156 11.421876 21.152344 24.207032 29.355469 38.089844-4.308594.652344-8.410156.691406-12.464844.09375-4.882812-.714844-9.335937-2.644531-14.492187-4.878906-2.558594-1.105469-5.207032-2.253906-8.058594-3.3125-10.285156-3.804688-21.46875-5.039062-32.34375-3.5625-7.773438 1.058594-14.101562 3.78125-20.21875 6.417969-2.425781 1.046875-4.71875 2.035156-7.070312 2.902343-7.222657 2.675782-15.074219 3.539063-22.710938 2.503907-4.964844-.675781-9.75-2.734375-14.816406-4.917969-3.628906-1.5625-7.382813-3.179688-11.5625-4.480469-11.867188-3.691406-24.503906-4.023437-36.550782-.957031-5.351562 1.363281-8.585937 6.808594-7.222656 12.160156 1.363282 5.351563 6.804688 8.585938 12.160156 7.222656 8.457032-2.15625 17.335938-1.925781 25.667969.671876 3.175781.988281 6.292969 2.332031 9.59375 3.753906 5.796875 2.496094 12.367188 5.324218 20.042969 6.363281 2.980469.40625 5.988281.605469 8.992188.605469 7.945312 0 15.882812-1.40625 23.347656-4.167969 2.839844-1.050781 5.484375-2.191406 8.042968-3.292969 5.328126-2.296875 9.933594-4.277344 14.992188-4.964844 7.640625-1.039062 15.492188-.171874 22.710938 2.5 2.34375.867188 4.628906 1.855469 7.050781 2.90625 5.921875 2.566407 12.042969 5.21875 19.550781 6.316407 10.738281 1.570312 21.757812.234375 33.683594-4.089844 3.011718-1.101563 5.371094-3.636719 6.21875-6.730469 1.023437-3.714844-.449219-6.75-2.144532-9.976562-4.191406-7.964844-8.882812-15.664063-14.035156-23.042969-10.433594-14.9375-22.757812-28.503906-36.574218-40.371094-14-12.027343-29.546876-22.25-46.152344-30.3125-16.109375-7.820312-33.195313-13.605469-50.742188-17.183593-18.558594-3.78125-37.554687-5.054688-56.457031-3.953126-2.347656.136719-4.695313.3125-7.039063.53125-49.921874 4.613282-96.253906 26.269532-132.148437 62.164063-40.699219 40.695313-63.109375 94.800781-63.109375 152.347656 0 19.207031 2.570312 38.441407 7.648438 56.964844 1.421874 5.183594 2.910156 10.410156 4.851562 15.425781 3.574219 10.003906 7.882812 19.769532 12.898438 29.144532 6.761718 12.636718 14.832031 24.65625 23.988281 35.722656 8.964843 10.832031 19.070312 20.859375 30.039062 29.808594 12.804688 10.5 26.941407 19.5 41.828125 26.75 4.359375 2.121093 8.804688 4.101562 13.296875 5.933593 25.824219 10.515625 53.371094 15.761719 80.90625 15.761719 28.796875 0 57.574219-5.757812 84.339844-17.207031 1.042969-.441407 2.082031-.882813 3.117187-1.339844 10.445313-4.664063 15.226563-16.644531 10.882813-27.273437-3.183594-7.785157-10.648437-12.9375-19.019531-13.125-4.847656-.109376-9.695313-1.328126-14.019532-3.53125l-.613281-.3125c-14.914062-7.578126-32.71875-7.578126-47.632812.003906l-.609375.308594c-9.238282 4.695312-20.265625 4.695312-29.5 0l-.613282-.3125c-14.910156-7.578126-32.71875-7.578126-47.632812.003906l-.613281.3125c-9.230469 4.699218-20.257813 4.699218-29.5-.003906-11.382813-5.789063-23.921875-7.402344-35.875-4.734376-8.464844-7.277343-16.3125-15.257812-23.371094-23.789062-8.308594-10.042969-15.632813-20.945312-21.765625-32.410156-3.003906-5.613282-5.722656-11.386719-8.164062-17.269532 18.015624-4.980468 37.296874-3.128906 54.183593 5.472657l1.214844.617187c13.542969 6.894532 28.398437 10.34375 43.253906 10.34375 14.84375 0 29.683594-3.441406 43.199219-10.328125l1.269531-.636719c20.695313-10.542968 44.660157-11 65.738281-1.257812 5.015626 2.316406 10.957032.128906 13.269532-4.882812 2.316406-5.015626.132812-10.957032-4.882813-13.273438-26.679687-12.328125-57.007812-11.75-83.167969 1.574219l-1.265624.636719c-21.398438 10.898437-46.945313 10.898437-68.34375 0l-1.21875-.621094c-21.804688-11.105469-46.777344-13.347656-69.976563-6.546875-3.695313-12.371094-6.136719-25.117188-7.304687-37.972657 24.195312 8.269532 51.070312 6.53125 74.097656-5.199218l1.269531-.640625c21.398437-10.898438 46.945313-10.894531 68.351563.003906l1.210937.617187c27.078125 13.789063 59.410156 13.789063 86.449219.019532l1.273437-.640625c8.367188-4.265625 17.363281-6.890625 26.582031-7.820313-.5 1.027344-.984374 2.0625-1.453124 3.105469-.265626.484375-.484376.996094-.667969 1.523437-6.457031 14.863282-10.046875 31.253907-10.046875 48.46875 0 32.917969 13.105468 62.828126 34.363281 84.800782.410156.515625.871094.988281 1.375 1.410156 22.105469 22.128906 52.636719 35.835938 86.308594 35.835938 52.472656 0 97.316406-33.289063 114.527343-79.855469.179688-.402344.328126-.816407.449219-1.246094zm-181.984375-256.488281-.605468-.3125c-14.917969-7.59375-32.726563-7.589844-47.636719-.003906l-.617188.316406c-9.234375 4.699218-20.261719 4.699218-29.496093-.003906l-.609376-.308594c-14.914062-7.59375-32.722656-7.59375-47.640624 0l-.609376.3125c-9.234374 4.699218-20.261718 4.703125-29.503906-.003906l-.601562-.308594c-14.917969-7.59375-32.722656-7.59375-47.640625 0l-.609375.308594c0 .003906-.003906.003906-.003906.003906-6.40625 3.261718-13.679688 4.253906-20.617188 2.988281 20.460938-15.691406 44.09375-27.441406 69.765625-34.082031 16.09375-4.15625 32.71875-6.246094 49.339844-6.207032 4.574219.011719 9.148437.179688 13.710937.507813 31.800782 2.28125 62.503906 12.257813 89.539063 29.203125 3.714843 2.328125 7.339843 4.777344 10.875 7.335938.117187.085937.234375.167968.347656.253906 1.5625 1.136718 3.105469 2.296875 4.632813 3.480468-4.101563-.363281-8.171876-1.523437-12.019532-3.480468zm-160.324218 329.007812.605468-.308594c9.234375-4.695312 20.265625-4.695312 29.5 0l.613282.3125c14.910156 7.582032 32.71875 7.578126 47.636718-.003906l.605469-.308594c9.234375-4.695312 20.265625-4.695312 29.5 0l.609375.308594c6.976562 3.554688 14.808594 5.523438 22.640625 5.699219.40625.011719.789063.289063.957031.699219.230469.5625-.007812 1.214844-.507812 1.4375l-.566406.25c-.699219.3125-1.410157.601562-2.113282.902344-48.027344 20.414062-103.964844 20.476562-151.949218.546874-.730469-.308593-1.460938-.621093-2.191407-.9375-.835937-.359374-1.675781-.71875-2.507812-1.089843-1.832031-.828125-3.652344-1.671875-5.457031-2.550781 11 1.859374 22.484374.207031 32.625-4.957032zm227.335937-11.417968c-18.433594 0-35.738281-4.914063-50.679687-13.496094h62.945312c5.523438 0 10-4.476563 10-10 0-5.523438-4.476562-10-10-10h-87.796875c-16.46875-18.128906-26.515625-42.1875-26.515625-68.550782 0-12.363281 2.210938-24.214843 6.253906-35.191406h116.589844c5.523438 0 10-4.476562 10-10 0-5.519531-4.476562-10-10-10h-106.597656c18.183594-28.167968 49.851562-46.855468 85.800781-46.855468 17.773437 0 34.5 4.570312 49.070313 12.597656h-49.070313c-5.523437 0-10 4.476562-10 10 0 5.519531 4.476563 10 10 10h74.695313c14.414062 15.492187 24.078124 35.460937 26.65625 57.5625h-145.882813c-5.519531 0-10 4.476562-10 10 0 5.519531 4.480469 10 10 10h146.257813c-.546876 6.902344-1.78125 13.613281-3.640626 20.066406h-84.222656c-5.523437 0-10 4.480469-10 10 0 5.523438 4.476563 10 10 10h76.070313c-17.230469 32.039062-51.078125 53.867188-89.933594 53.867188zm0 0"/></svg>