<?xml version="1.0" encoding="iso-8859-1"?>
<!-- Generator: Adobe Illustrator 19.0.0, SVG Export Plug-In . SVG Version: 6.00 Build 0)  -->
<svg version="1.1" id="Capa_1" xmlns="http://www.w3.org/2000/svg" xmlns:xlink="http://www.w3.org/1999/xlink" x="0px" y="0px"
	 viewBox="0 0 512 512" style="enable-background:new 0 0 512 512;" xml:space="preserve">
<circle style="fill:#62089E;" cx="256" cy="256" r="247.467"/>
<circle style="fill:#701CB2;" cx="213.333" cy="213.333" r="153.6"/>
<circle style="fill:#8B3FD3;" cx="213.333" cy="213.333" r="93.867"/>
<g>
	<path style="fill:#4D007E;" d="M256,512C114.842,512,0,397.158,0,256S114.842,0,256,0s256,114.842,256,256S397.158,512,256,512z
		 M256,17.067C124.254,17.067,17.067,124.254,17.067,256S124.254,494.933,256,494.933S494.933,387.746,494.933,256
		S387.746,17.067,256,17.067z"/>
	<path style="fill:#4D007E;" d="M93.858,366.933c-4.105,0-7.723-2.97-8.414-7.142c-0.768-4.651,2.381-9.045,7.031-9.805
		c41.634-6.861,70.724-19.934,88.934-39.987c3.174-3.49,8.567-3.746,12.058-0.58c3.49,3.174,3.746,8.567,0.58,12.058
		c-20.898,23.006-53.214,37.845-98.799,45.346C94.78,366.899,94.319,366.933,93.858,366.933z"/>
	<path style="fill:#4D007E;" d="M204.8,273.067c-1.109,0-2.236-0.222-3.319-0.683c-4.343-1.835-6.374-6.844-4.531-11.187
		c10.377-24.533,5.197-54.246-0.478-80.179c-1.007-4.608,1.911-9.156,6.511-10.163c4.608-1.007,9.148,1.911,10.155,6.511
		c6.238,28.501,11.853,61.338-0.478,90.487C211.285,271.113,208.119,273.067,204.8,273.067z"/>
	<path style="fill:#4D007E;" d="M187.733,136.533c-3.243,0-6.349-1.869-7.774-5.018c-12.228-26.999-29.039-55.381-51.379-86.775
		c-2.731-3.84-1.835-9.173,2.005-11.904c3.831-2.731,9.165-1.835,11.904,2.005c22.989,32.307,40.337,61.628,53.026,89.634
		c1.946,4.292,0.043,9.353-4.25,11.298C190.114,136.294,188.919,136.533,187.733,136.533z"/>
	<path style="fill:#4D007E;" d="M97.877,304.521c-10.701,0-21.308-2.654-30.993-7.868c-15.42-8.303-26.675-22.11-31.71-38.886
		c-4.156-13.85-2.671-28.493,4.19-41.233c6.861-12.732,18.261-22.033,32.119-26.189c11.52-3.456,23.697-2.219,34.287,3.482
		c10.59,5.7,18.321,15.189,21.777,26.709c2.893,9.651,1.86,19.849-2.918,28.723c-4.779,8.875-12.723,15.351-22.374,18.253
		c-16.853,5.052-34.654-4.54-39.706-21.385c-1.357-4.514,1.203-9.267,5.717-10.624c4.514-1.331,9.276,1.212,10.624,5.726
		c2.347,7.825,10.615,12.271,18.458,9.933c5.282-1.587,9.634-5.137,12.254-9.993c2.62-4.855,3.183-10.445,1.596-15.727
		c-2.142-7.151-6.946-13.047-13.525-16.58c-6.571-3.541-14.131-4.309-21.291-2.159c-9.489,2.842-17.297,9.216-21.99,17.937
		c-4.693,8.721-5.717,18.748-2.867,28.237c3.721,12.407,12.049,22.622,23.458,28.757c11.401,6.144,24.516,7.475,36.915,3.746
		c15.377-4.617,28.868-17.084,37.018-34.227c8.09-17.033,9.933-36.13,5.052-52.429c-5.965-19.891-21.615-37.248-42.923-47.625
		c-21.137-10.283-45.158-12.621-65.92-6.391c-4.506,1.34-9.267-1.203-10.624-5.726c-1.357-4.514,1.203-9.267,5.717-10.624
		c53.035-15.906,115.038,15.292,130.091,65.459c6.084,20.284,3.908,43.853-5.982,64.649c-10.214,21.495-27.537,37.257-47.531,43.255
		C110.566,303.59,104.201,304.521,97.877,304.521z"/>
	<path style="fill:#4D007E;" d="M409.609,290.133c-0.811,0-1.638-0.119-2.458-0.358c-17.135-5.146-31.181-10.769-44.22-17.707
		c-4.164-2.219-5.734-7.381-3.524-11.546c2.21-4.156,7.381-5.734,11.546-3.524c12.023,6.4,25.079,11.614,41.114,16.427
		c4.514,1.357,7.074,6.11,5.717,10.633C416.666,287.753,413.278,290.133,409.609,290.133z"/>
	<path style="fill:#4D007E;" d="M332.8,247.467c-1.894,0-3.797-0.631-5.385-1.92c-25.062-20.412-48.674-41.225-62.14-71.407
		c-1.92-4.301,0.009-9.344,4.318-11.264c4.301-1.937,9.344,0.009,11.264,4.318c11.955,26.786,33.033,45.338,57.327,65.126
		c3.652,2.978,4.207,8.354,1.229,12.006C337.732,246.391,335.275,247.467,332.8,247.467z"/>
	<path style="fill:#4D007E;" d="M255.991,128c-3.968,0-7.526-2.782-8.354-6.827c-3.772-18.458-2.347-35.482-0.845-53.504l0.7-8.585
		c0.358-4.702,4.412-8.269,9.156-7.859c4.702,0.358,8.218,4.454,7.859,9.156l-0.708,8.713c-1.399,16.768-2.722,32.597,0.555,48.666
		c0.939,4.617-2.039,9.122-6.656,10.069C257.135,127.949,256.555,128,255.991,128z"/>
	<path style="fill:#4D007E;" d="M227.627,510.396c-1.169,0-2.364-0.247-3.499-0.759c-4.292-1.937-6.212-6.989-4.275-11.281
		c24.567-54.511,59.238-91.418,100.267-106.735c38.639-14.43,83.012-10.291,131.866,12.271c4.275,1.971,6.144,7.049,4.164,11.324
		c-1.98,4.284-7.049,6.153-11.324,4.164c-44.57-20.582-84.514-24.55-118.741-11.767c-46.327,17.297-74.88,62.711-90.675,97.758
		C233.993,508.518,230.878,510.396,227.627,510.396z"/>
	<path style="fill:#4D007E;" d="M307.2,119.458c-0.009,0-0.017,0-0.017,0c-4.702-0.017-8.516-3.823-8.516-8.525
		c0-1.801,0.384-44.638,33.783-92.826c2.688-3.866,8.004-4.83,11.878-2.15c3.874,2.679,4.838,8.004,2.15,11.878
		c-30.182,43.537-30.746,82.731-30.746,83.115C315.708,115.652,311.893,119.458,307.2,119.458z"/>
	<path style="fill:#4D007E;" d="M482.577,264.934c-71.219,0-104.021-44.553-105.506-46.626c-2.748-3.831-1.86-9.165,1.963-11.913
		c3.831-2.739,9.139-1.86,11.895,1.946c1.468,2.014,35.516,47.437,111.42,38.315c4.651-0.555,8.926,2.773,9.489,7.458
		s-2.773,8.926-7.458,9.489C496.742,264.516,489.481,264.934,482.577,264.934z"/>
	<path style="fill:#4D007E;" d="M341.325,358.4c-1.28,0-2.586-0.29-3.806-0.896c-4.215-2.108-5.922-7.236-3.814-11.452
		c0.401-0.802,10.103-19.738,34.33-27.23c22.494-6.955,49.34-1.886,79.846,15.061c4.113,2.287,5.606,7.484,3.311,11.605
		c-2.287,4.113-7.475,5.606-11.605,3.311c-26.274-14.592-48.649-19.174-66.509-13.67c-17.067,5.282-24.047,18.432-24.115,18.56
		C347.469,356.676,344.457,358.4,341.325,358.4z"/>
	<path style="fill:#4D007E;" d="M170.342,414.199c-3.063,0-6.025-1.655-7.552-4.557c-2.193-4.173-0.597-9.335,3.567-11.529
		c23.859-12.57,50.91-20.181,80.41-22.622c4.642-0.393,8.815,3.098,9.207,7.799c0.393,4.702-3.106,8.823-7.799,9.207
		c-27.196,2.244-52.045,9.216-73.856,20.71C173.047,413.884,171.682,414.199,170.342,414.199z"/>
	<path style="fill:#4D007E;" d="M120.482,461.116l-7.859-3.405l-7.125-4.753c4.489-8.252,8.721-16.043,16.469-23.799
		c3.328-3.337,8.738-3.328,12.066,0c3.337,3.337,3.337,8.738,0,12.075C128.034,447.241,124.698,453.359,120.482,461.116z
		 M112.623,457.711h0.085H112.623z"/>
	<path style="fill:#4D007E;" d="M265.463,332.8c-2.901,0-5.726-1.476-7.322-4.139c-2.423-4.045-1.118-9.284,2.927-11.708
		c11.563-6.938,18.313-14.993,20.07-23.953c2.432-12.416-5.359-23.236-5.436-23.339c-2.833-3.772-2.065-9.122,1.707-11.947
		c3.789-2.842,9.122-2.057,11.947,1.707c0.512,0.683,12.45,16.887,8.533,36.864c-2.722,13.892-12.151,25.779-28.032,35.302
		C268.467,332.407,266.957,332.8,265.463,332.8z"/>
	<path style="fill:#4D007E;" d="M456.943,181.487c-32.674,0-56.866-9.327-72.124-27.878c-33.451-40.661-9.89-109.363-8.866-112.273
		c1.562-4.446,6.426-6.801,10.863-5.222c4.446,1.553,6.784,6.417,5.239,10.871c-0.213,0.623-21.402,62.609,5.973,95.812
		c15.659,19.004,44.996,25.523,87.151,19.422c4.676-0.657,8.994,2.56,9.668,7.219c0.674,4.668-2.56,8.994-7.219,9.668
		C476.689,180.693,466.449,181.487,456.943,181.487z"/>
</g>
<g>
</g>
<g>
</g>
<g>
</g>
<g>
</g>
<g>
</g>
<g>
</g>
<g>
</g>
<g>
</g>
<g>
</g>
<g>
</g>
<g>
</g>
<g>
</g>
<g>
</g>
<g>
</g>
<g>
</g>
</svg>
