<svg id="Layer_1" height="512" viewBox="0 0 512 512" width="512" xmlns="http://www.w3.org/2000/svg" data-name="Layer 1"><path d="m494.67 232.47q1.035 11.13 1.04 22.54a241.624 241.624 0 0 1 -19.58 95.6l-.33-.14h-195.45a19.365 19.365 0 0 1 0-38.73h134.27a20.265 20.265 0 0 0 0-40.53h-68.38a19.37 19.37 0 0 1 0-38.74z" fill="#fcc251"/><path d="m494.67 232.47h-148.43a19.37 19.37 0 0 0 0 38.74h68.38a20.265 20.265 0 0 1 0 40.53h-134.27a19.365 19.365 0 0 0 0 38.73h195.45l.33.14c-37.03 86.2-122.61 146.56-222.27 146.56a240.8 240.8 0 0 1 -164.18-64.35h56.48a20.27 20.27 0 0 0 0-40.54h-91.57a240.927 240.927 0 0 1 -21.72-38.73h48.27a20.265 20.265 0 0 0 0-40.53h-62.15a244.026 244.026 0 0 1 1.7-122.53l.63.17h217.95a20.265 20.265 0 0 0 0-40.53h-128.83a19.37 19.37 0 0 1 0-38.74h63.81a20.265 20.265 0 0 0 0-40.53h-77.43l-.01-.01a240.722 240.722 0 0 1 157.05-58c97.25 0 181.09 57.47 219.5 140.35h-32.65a19.37 19.37 0 0 0 0 38.74h46.71a239.489 239.489 0 0 1 7.25 40.53z" fill="#604af3"/><path d="m487.42 191.94h-46.71a19.37 19.37 0 0 1 0-38.74h32.65a240.031 240.031 0 0 1 14.06 38.74z" fill="#fcc251"/><path d="m239.27 150.13a20.265 20.265 0 0 1 0 40.53h-217.95l-.63-.17a242.125 242.125 0 0 1 76.12-119.64l.01.01h77.43a20.265 20.265 0 0 1 0 40.53h-63.81a19.37 19.37 0 0 0 0 38.74z" fill="#fcc251"/><path d="m146.16 392.28a20.27 20.27 0 0 1 0 40.54h-56.49a242.714 242.714 0 0 1 -35.08-40.54z" fill="#fcc251"/><path d="m81.14 313.02a20.265 20.265 0 0 1 0 40.53h-48.27a239.989 239.989 0 0 1 -13.88-40.53z" fill="#fcc251"/><path d="m119.68 432.82h-30a240.8 240.8 0 0 0 164.18 64.35q7.6 0 15.076-.471a240.753 240.753 0 0 1 -149.256-63.879z" fill="#8076ff"/><path d="m42 255.01a242.175 242.175 0 0 1 8.645-64.35h-29.325l-.63-.17a244.026 244.026 0 0 0 -1.7 122.53h30a242.619 242.619 0 0 1 -6.99-58.01z" fill="#8076ff"/><path d="m32.87 353.55a240.927 240.927 0 0 0 21.72 38.73h30a240.927 240.927 0 0 1 -21.72-38.73z" fill="#8076ff"/><path d="m126.82 70.86-.01-.01a240.641 240.641 0 0 1 142.09-57.53q-7.461-.459-15.038-.47a240.722 240.722 0 0 0 -157.05 58l.01.01z" fill="#8076ff"/><path d="m126.8 70.86h-29.98l-.01-.01a242.125 242.125 0 0 0 -76.12 119.64l.63.17h30l-.63-.17a242.123 242.123 0 0 1 76.11-119.63z" fill="#ffe566"/><path d="m84.59 392.28h-30a242.714 242.714 0 0 0 35.08 40.54h30a242.714 242.714 0 0 1 -35.08-40.54z" fill="#ffe566"/><path d="m18.99 313.02a239.989 239.989 0 0 0 13.88 40.53h30a239.989 239.989 0 0 1 -13.88-40.53z" fill="#ffe566"/><g fill="#ccd3df"><path d="m500.006 105.006a5.992 5.992 0 0 1 -5.074-2.79c-1.908-3.01-3.9-6.026-5.916-8.962a6 6 0 1 1 9.888-6.8c2.1 3.059 4.178 6.2 6.164 9.337a6 6 0 0 1 -5.062 9.212z"/><path d="m482.517 80.328a5.988 5.988 0 0 1 -4.714-2.284c-4.3-5.449-8.858-10.809-13.545-15.931a6 6 0 0 1 8.854-8.1c4.882 5.336 9.63 10.921 14.111 16.6a6 6 0 0 1 -4.706 9.718z"/><path d="m423.306 23.775a5.974 5.974 0 0 1 -3.493-1.125c-3.156-2.265-6.407-4.5-9.662-6.636a6 6 0 0 1 6.59-10.028c3.391 2.227 6.778 4.554 10.068 6.913a6 6 0 0 1 -3.5 10.876z"/><path d="m26.3 443.083a5.988 5.988 0 0 1 -4.691-2.254c-2.085-2.609-4.155-5.291-6.154-7.973a6 6 0 1 1 9.621-7.172c1.919 2.574 3.906 5.149 5.907 7.654a6 6 0 0 1 -4.683 9.745z"/><path d="m97.307 507a5.972 5.972 0 0 1 -3.226-.946c-6.638-4.243-13.192-8.811-19.481-13.578a6 6 0 1 1 7.248-9.563c6.036 4.574 12.327 8.959 18.7 13.031a6 6 0 0 1 -3.241 11.056z"/></g><path d="m134.334 228.247h-32.955a6 6 0 0 1 0-12h32.955a6 6 0 0 1 0 12z" fill="#8076ff"/><path d="m239.273 228.247h-81.682a6 6 0 0 1 0-12h81.682a6 6 0 0 1 0 12z" fill="#8076ff"/><path d="m413.446 388.06h-69.052a6 6 0 0 1 0-12h69.052a6 6 0 0 1 0 12z" fill="#8076ff"/><path d="m321.947 388.06h-26.613a6 6 0 0 1 0-12h26.613a6 6 0 0 1 0 12z" fill="#8076ff"/><path d="m457.854 13.17a27.058 27.058 0 1 0 27.032 27.058 27.075 27.075 0 0 0 -27.032-27.058z" fill="#49bdff"/><path d="m80.124 459a31.98 31.98 0 0 1 -20.117-20.143 6 6 0 0 0 -11.385 0 31.979 31.979 0 0 1 -20.117 20.143 6 6 0 0 0 0 11.383 31.982 31.982 0 0 1 20.117 20.144 6 6 0 0 0 11.385 0 31.982 31.982 0 0 1 20.117-20.144 6 6 0 0 0 0-11.383z" fill="#49bdff"/></svg>