<?xml version="1.0" encoding="iso-8859-1"?>
<!-- Generator: Adobe Illustrator 19.0.0, SVG Export Plug-In . SVG Version: 6.00 Build 0)  -->
<svg version="1.1" id="Capa_1" xmlns="http://www.w3.org/2000/svg" xmlns:xlink="http://www.w3.org/1999/xlink" x="0px" y="0px"
	 viewBox="0 0 512 512" style="enable-background:new 0 0 512 512;" xml:space="preserve">
<circle style="fill:#CB0E00;" cx="256" cy="256" r="247.467"/>
<circle style="fill:#DB0400;" cx="213.333" cy="213.333" r="153.6"/>
<circle style="fill:#ED4D4D;" cx="213.333" cy="213.333" r="93.867"/>
<g>
	<path style="fill:#EFBF00;" d="M162.133,264.533c-18.825,0-34.133-15.309-34.133-34.133s15.309-34.133,34.133-34.133
		s34.133,15.309,34.133,34.133S180.958,264.533,162.133,264.533z"/>
	<path style="fill:#EFBF00;" d="M332.8,315.733c-18.825,0-34.133-15.309-34.133-34.133c0-18.825,15.309-34.133,34.133-34.133
		s34.133,15.309,34.133,34.133C366.933,300.425,351.625,315.733,332.8,315.733z"/>
	<path style="fill:#EFBF00;" d="M307.2,460.8c-18.825,0-34.133-15.309-34.133-34.133s15.309-34.133,34.133-34.133
		s34.133,15.309,34.133,34.133S326.025,460.8,307.2,460.8z"/>
	<path style="fill:#EFBF00;" d="M196.267,119.467c-18.825,0-34.133-15.309-34.133-34.133S177.442,51.2,196.267,51.2
		S230.4,66.509,230.4,85.333S215.091,119.467,196.267,119.467z"/>
</g>
<g>
	<path style="fill:#4D007E;" d="M9.097,247.885c-3.379,0-6.579-2.022-7.919-5.35c-1.758-4.378,0.358-9.344,4.736-11.102
		c18.79-7.552,38.042-20.924,49.545-28.911l2.603-1.809c3.883-2.671,9.19-1.715,11.878,2.167c2.679,3.883,1.707,9.19-2.167,11.87
		l-2.577,1.792c-12.092,8.397-32.333,22.46-52.915,30.729C11.23,247.68,10.155,247.885,9.097,247.885z"/>
	<path style="fill:#4D007E;" d="M105.148,186.095c-2.244,0-4.48-0.879-6.161-2.628c-3.26-3.396-3.149-8.798,0.256-12.066
		c17.758-17.024,50.807-48.717,72.491-73.574c3.098-3.55,8.491-3.917,12.041-0.819c3.558,3.098,3.917,8.491,0.819,12.041
		c-22.187,25.429-55.595,57.463-73.54,74.675C109.406,185.301,107.273,186.095,105.148,186.095z"/>
	<path style="fill:#4D007E;" d="M208.034,71.185c-1.365,0-2.756-0.333-4.045-1.024c-4.147-2.236-5.692-7.415-3.456-11.563
		c7.706-14.285,13.722-32.341,16.503-49.545c0.751-4.651,5.103-7.834,9.788-7.066c4.651,0.751,7.817,5.137,7.066,9.788
		c-3.072,19.004-9.754,39.023-18.338,54.929C214.016,69.564,211.072,71.185,208.034,71.185z"/>
	<path style="fill:#4D007E;" d="M17.28,329.916c-4.062,0-7.654-2.901-8.388-7.04c-0.828-4.642,2.261-9.071,6.903-9.899
		c17.468-3.115,34.372-11.52,42.889-16.256c4.13-2.295,9.318-0.802,11.605,3.311c2.295,4.122,0.802,9.318-3.311,11.605
		c-9.455,5.257-28.279,14.592-48.188,18.133C18.278,329.873,17.775,329.916,17.28,329.916z"/>
	<path style="fill:#4D007E;" d="M105.071,282.547c-2.722,0-5.393-1.297-7.049-3.712c-2.662-3.883-1.673-9.199,2.21-11.861
		c11.068-7.595,23.953-17.357,36.275-27.503c3.635-2.995,9.011-2.483,12.006,1.169c2.995,3.635,2.475,9.02-1.169,12.006
		c-12.689,10.453-26.001,20.531-37.47,28.399C108.416,282.069,106.735,282.547,105.071,282.547z"/>
	<path style="fill:#4D007E;" d="M180.045,220.646c-2.185,0-4.369-0.836-6.033-2.492c-3.337-3.337-3.337-8.73,0-12.075
		c26.94-26.957,50.022-56.576,69.043-81.997c2.833-3.772,8.175-4.548,11.947-1.724c3.772,2.825,4.54,8.175,1.724,11.947
		c-19.388,25.907-42.948,56.124-70.639,83.84C184.414,219.819,182.221,220.646,180.045,220.646z"/>
	<path style="fill:#4D007E;" d="M286.071,89.463c-1.382,0-2.79-0.341-4.087-1.05c-4.13-2.261-5.658-7.45-3.388-11.58
		c14.157-25.89,21.623-47.027,22.178-62.831c0.171-4.702,4.053-8.439,8.832-8.226c4.71,0.171,8.388,4.122,8.226,8.832
		c-0.666,18.739-8.602,41.771-24.26,70.409C292.019,87.859,289.092,89.463,286.071,89.463z"/>
	<path style="fill:#4D007E;" d="M48.836,395.281c-3.959,0-7.509-2.773-8.346-6.801c-0.956-4.617,2.005-9.131,6.622-10.086
		c11.972-2.483,25.685-7.603,41.924-15.65c4.241-2.091,9.344-0.367,11.435,3.857c2.091,4.224,0.367,9.344-3.857,11.435
		c-17.562,8.704-32.623,14.285-46.037,17.067C49.988,395.221,49.417,395.281,48.836,395.281z"/>
	<path style="fill:#4D007E;" d="M135.074,348.757c-2.756,0-5.461-1.331-7.108-3.789c-2.62-3.917-1.562-9.216,2.355-11.836
		c38.844-25.958,88.875-61.611,131.234-107.315c3.209-3.465,8.602-3.652,12.058-0.461c3.456,3.2,3.661,8.602,0.461,12.058
		c-43.571,47.01-94.643,83.43-134.263,109.909C138.342,348.288,136.704,348.757,135.074,348.757z"/>
	<path style="fill:#4D007E;" d="M310.042,197.905c-1.937,0-3.891-0.657-5.487-2.005c-3.61-3.029-4.07-8.414-1.041-12.023
		c12.945-15.403,19.661-27.375,27.426-41.259c3.951-7.049,8.422-15.044,14.097-24.141c2.5-3.994,7.765-5.205,11.759-2.722
		c4.002,2.492,5.214,7.757,2.722,11.759c-5.47,8.755-9.643,16.222-13.687,23.45c-8.192,14.626-15.266,27.264-29.261,43.904
		C314.889,196.873,312.482,197.905,310.042,197.905z"/>
	<path style="fill:#4D007E;" d="M382.455,89.293c-1.195,0-2.406-0.247-3.558-0.777c-4.284-1.963-6.161-7.031-4.19-11.315
		c2.722-5.922,3.661-11.964,4.753-18.953c0.435-2.782,0.879-5.615,1.434-8.516c0.896-4.625,5.367-7.637,10.001-6.758
		c4.625,0.896,7.646,5.376,6.758,10.001c-0.521,2.679-0.93,5.308-1.331,7.885c-1.178,7.561-2.389,15.377-6.101,23.458
		C388.779,87.45,385.681,89.293,382.455,89.293z"/>
	<path style="fill:#4D007E;" d="M86.878,445.542c-4.514,0-8.286-3.55-8.516-8.115c-0.23-4.71,3.396-8.713,8.107-8.943
		c14.942-0.734,31.01-6.4,45.184-11.401l3.593,7.782l2.082,8.311c-14.515,5.12-32.589,11.494-50.014,12.356
		C87.159,445.534,87.014,445.542,86.878,445.542z"/>
	<path style="fill:#4D007E;" d="M286.089,342.895c-2.219,0-4.446-0.862-6.118-2.586c-3.285-3.379-3.209-8.781,0.171-12.066
		c10.001-9.737,21.751-21.632,31.411-31.838c3.243-3.422,8.644-3.558,12.066-0.333c3.422,3.234,3.567,8.644,0.333,12.066
		c-9.813,10.368-21.743,22.46-31.906,32.341C290.381,342.084,288.23,342.895,286.089,342.895z"/>
	<path style="fill:#4D007E;" d="M351.078,272.222c-1.911,0-3.831-0.64-5.419-1.946c-3.635-3.004-4.156-8.371-1.161-12.015
		l3.354-4.062c7.475-9.054,14.532-17.596,21.897-27.511c2.807-3.772,8.149-4.574,11.938-1.758c3.78,2.816,4.565,8.158,1.758,11.938
		c-7.629,10.266-15.155,19.379-22.443,28.194l-3.337,4.045C355.977,271.164,353.536,272.222,351.078,272.222z"/>
	<path style="fill:#4D007E;" d="M418.833,173.943c-0.998,0-2.014-0.179-3.012-0.546c-4.412-1.664-6.639-6.579-4.975-10.999
		c9.353-24.823,13.406-54.101,11.145-80.324c-0.41-4.693,3.072-8.832,7.765-9.233c4.727-0.529,8.832,3.072,9.233,7.765
		c2.483,28.672-1.954,60.672-12.169,87.808C425.532,171.836,422.281,173.943,418.833,173.943z"/>
	<path style="fill:#4D007E;" d="M183.501,409.267c-3.985,0-7.552-2.807-8.354-6.861c-0.922-4.617,2.065-9.105,6.673-10.035l0,0
		c0.282-0.06,28.075-5.948,49.963-27.844c3.337-3.337,8.73-3.337,12.066,0c3.337,3.337,3.337,8.73,0,12.066
		c-25.668,25.668-57.335,32.239-58.667,32.503C184.619,409.216,184.055,409.267,183.501,409.267z"/>
	<path style="fill:#4D007E;" d="M191.283,503.433c-3.277,0-6.4-1.894-7.808-5.086c-1.911-4.309,0.043-9.353,4.352-11.255
		c3.081-1.365,6.289-2.739,9.532-4.13c8.474-3.635,17.229-7.398,24.482-11.238c4.173-2.219,9.327-0.623,11.537,3.55
		c2.202,4.164,0.614,9.327-3.55,11.537c-7.868,4.164-16.947,8.064-25.737,11.836c-3.191,1.374-6.34,2.722-9.361,4.062
		C193.604,503.194,192.435,503.433,191.283,503.433z"/>
	<path style="fill:#4D007E;" d="M262.042,463.65c-2.85,0-5.641-1.425-7.253-4.028c-2.492-4.002-1.263-9.259,2.739-11.75l4.71-2.927
		c6.639-4.113,11.153-6.921,18.611-11.81c3.942-2.586,9.233-1.485,11.819,2.458c2.586,3.942,1.485,9.233-2.458,11.819
		c-7.612,4.983-12.211,7.834-18.978,12.041l-4.693,2.91C265.139,463.241,263.578,463.65,262.042,463.65z"/>
	<path style="fill:#4D007E;" d="M327.219,419.26c-2.517,0-5.009-1.109-6.699-3.234c-2.927-3.695-2.304-9.062,1.399-11.989
		c5.854-4.625,13.286-10.59,18.901-15.616c3.516-3.149,8.909-2.842,12.049,0.666c3.14,3.516,2.842,8.909-0.666,12.049
		c-5.956,5.333-13.653,11.503-19.695,16.282C330.94,418.662,329.071,419.26,327.219,419.26z"/>
	<path style="fill:#4D007E;" d="M394.778,355.038c-2.048,0-4.105-0.734-5.734-2.219c-3.49-3.174-3.738-8.567-0.572-12.058
		c20.54-22.579,31.676-35.814,47.497-59.358c2.628-3.908,7.936-4.949,11.844-2.321c3.908,2.628,4.958,7.927,2.321,11.844
		c-16.418,24.439-27.913,38.093-49.041,61.321C399.411,354.099,397.099,355.038,394.778,355.038z"/>
	<path style="fill:#4D007E;" d="M467.183,258.5c-1.468,0-2.97-0.375-4.326-1.186c-4.062-2.389-5.41-7.629-3.021-11.682
		c7.646-12.962,14.643-28.988,21.419-44.484c1.86-4.267,3.712-8.499,5.564-12.638c1.92-4.309,6.972-6.229,11.273-4.309
		c4.301,1.92,6.229,6.963,4.309,11.273c-1.826,4.096-3.661,8.286-5.504,12.51c-6.98,15.966-14.191,32.469-22.357,46.319
		C472.943,256.998,470.101,258.5,467.183,258.5z"/>
	<path style="fill:#4D007E;" d="M162.133,264.533c-18.825,0-34.133-15.309-34.133-34.133s15.309-34.133,34.133-34.133
		s34.133,15.309,34.133,34.133S180.958,264.533,162.133,264.533z M162.133,213.333c-9.412,0-17.067,7.654-17.067,17.067
		s7.654,17.067,17.067,17.067c9.412,0,17.067-7.654,17.067-17.067S171.546,213.333,162.133,213.333z"/>
	<path style="fill:#4D007E;" d="M332.8,315.733c-18.825,0-34.133-15.309-34.133-34.133c0-18.825,15.309-34.133,34.133-34.133
		s34.133,15.309,34.133,34.133C366.933,300.425,351.625,315.733,332.8,315.733z M332.8,264.533c-9.412,0-17.067,7.654-17.067,17.067
		c0,9.412,7.654,17.067,17.067,17.067s17.067-7.654,17.067-17.067C349.867,272.188,342.212,264.533,332.8,264.533z"/>
	<path style="fill:#4D007E;" d="M307.2,460.8c-18.825,0-34.133-15.309-34.133-34.133s15.309-34.133,34.133-34.133
		s34.133,15.309,34.133,34.133S326.025,460.8,307.2,460.8z M307.2,409.6c-9.412,0-17.067,7.654-17.067,17.067
		s7.654,17.067,17.067,17.067s17.067-7.654,17.067-17.067S316.612,409.6,307.2,409.6z"/>
	<path style="fill:#4D007E;" d="M196.267,119.467c-18.825,0-34.133-15.309-34.133-34.133S177.442,51.2,196.267,51.2
		S230.4,66.509,230.4,85.333S215.091,119.467,196.267,119.467z M196.267,68.267c-9.412,0-17.067,7.654-17.067,17.067
		s7.654,17.067,17.067,17.067s17.067-7.654,17.067-17.067S205.679,68.267,196.267,68.267z"/>
	<path style="fill:#4D007E;" d="M256,512C114.842,512,0,397.158,0,256S114.842,0,256,0s256,114.842,256,256S397.158,512,256,512z
		 M256,17.067C124.254,17.067,17.067,124.254,17.067,256S124.254,494.933,256,494.933S494.933,387.746,494.933,256
		S387.746,17.067,256,17.067z"/>
</g>
<g>
</g>
<g>
</g>
<g>
</g>
<g>
</g>
<g>
</g>
<g>
</g>
<g>
</g>
<g>
</g>
<g>
</g>
<g>
</g>
<g>
</g>
<g>
</g>
<g>
</g>
<g>
</g>
<g>
</g>
</svg>
