<?xml version="1.0" encoding="UTF-8"?>
<!DOCTYPE svg PUBLIC "-//W3C//DTD SVG 1.1//EN" "http://www.w3.org/Graphics/SVG/1.1/DTD/svg11.dtd">
<!-- Creator: CorelDRAW 2019 (64 Bit) -->
<svg xmlns="http://www.w3.org/2000/svg" xml:space="preserve" width="800px" height="800px" version="1.1" style="shape-rendering:geometricPrecision; text-rendering:geometricPrecision; image-rendering:optimizeQuality; fill-rule:evenodd; clip-rule:evenodd"
viewBox="0 0 800 800"
 xmlns:xlink="http://www.w3.org/1999/xlink"
 enable-background="new 0 0 512 512">
 <defs>
  <style type="text/css">
   <![CDATA[
    .fil3 {fill:black}
    .fil1 {fill:#60A4FF}
    .fil0 {fill:#66E0F7}
    .fil2 {fill:#99EBFA}
   ]]>
  </style>
 </defs>
 <g id="Camada_x0020_1">
  <metadata id="CorelCorpID_0Corel-Layer"/>
  <g id="_2781031599184">
   <g>
    <g>
     <g>
      <path class="fil0" d="M373.42 136.98c-13.18,13.18 -13.18,34.55 0,47.73 13.18,13.18 34.55,13.18 47.73,0 13.18,-13.18 13.18,-34.55 0,-47.73 -13.18,-13.18 -34.55,-13.18 -47.73,0z"/>
      <circle class="fil0" cx="181.71" cy="345.4" r="58.5"/>
      <circle class="fil0" cx="173.74" cy="528.09" r="33.75"/>
      <circle class="fil0" cx="343.59" cy="618.66" r="76.5"/>
     </g>
     <path class="fil1" d="M289.5 672.75c-29.88,-29.88 -29.88,-78.31 0,-108.19 29.87,-29.87 78.31,-29.87 108.19,0 29.87,29.88 29.87,78.31 0,108.19 -29.88,29.88 -78.32,29.88 -108.19,0zm83.19 -287.06c-80.61,-96.39 -99.85,-231.19 -47.71,-347.03 -68.12,14.08 -133.04,47.55 -185.9,100.42 -144.11,144.1 -144.11,377.74 0,521.84 144.1,144.11 377.74,144.11 521.84,0 52.87,-52.86 86.34,-117.78 100.42,-185.9 -33.78,15.2 -69.18,24.34 -104.76,27.65 2.2,17.33 -3.36,35.46 -16.67,48.77 -22.84,22.84 -59.88,22.84 -82.73,0 -15.72,-15.72 -20.62,-38.17 -14.7,-58.08 -36.95,-9.65 -72.33,-25.73 -104.38,-47.92 -1.76,2.78 -3.85,5.42 -6.28,7.85 -17.57,17.57 -46.06,17.57 -63.64,0 -17.57,-17.58 -17.57,-46.07 0,-63.64 1.43,-1.44 2.94,-2.76 4.51,-3.96l0 0zm-149.62 -81.65c22.85,22.84 22.85,59.88 0,82.73 -22.84,22.84 -59.88,22.84 -82.73,0 -22.84,-22.85 -22.84,-59.89 0,-82.73 22.85,-22.85 59.89,-22.85 82.73,0zm-25.47 200.18c13.19,13.18 13.19,34.55 0,47.73 -13.18,13.18 -34.54,13.18 -47.72,0 -13.18,-13.18 -13.18,-34.55 0,-47.73 13.18,-13.18 34.55,-13.18 47.72,0z"/>
     <path class="fil2" d="M324.98 38.66c-52.14,115.84 -32.9,250.64 47.71,347.03 17.64,-13.5 42.99,-12.19 59.13,3.95 15.15,15.15 17.24,38.41 6.28,55.79 32.05,22.2 67.43,38.28 104.38,47.93 2.68,-9.03 7.58,-17.53 14.7,-24.65 22.85,-22.85 59.89,-22.85 82.73,0 9.54,9.53 15.1,21.54 16.67,33.96 35.58,-3.31 70.98,-12.45 104.76,-27.65 24.29,-117.58 -9.18,-244.7 -100.42,-335.94 -91.24,-91.24 -218.36,-124.71 -335.94,-100.42l0 0zm96.17 146.05c-13.18,13.18 -34.55,13.18 -47.73,0 -13.18,-13.18 -13.18,-34.55 0,-47.73 13.18,-13.18 34.55,-13.18 47.73,0 13.18,13.18 13.18,34.55 0,47.73z"/>
     <path class="fil0" d="M431.82 389.64c-16.14,-16.14 -41.49,-17.45 -59.13,-3.95 -1.57,1.2 -3.08,2.52 -4.51,3.95 -17.57,17.58 -17.57,46.07 0,63.64 17.57,17.58 46.06,17.58 63.64,0 2.42,-2.43 4.52,-5.06 6.27,-7.85 10.97,-17.38 8.88,-40.64 -6.27,-55.79l0 0z"/>
     <path class="fil0" d="M557.18 468.71c-7.12,7.12 -12.02,15.62 -14.7,24.65 -5.92,19.91 -1.02,42.36 14.7,58.08 22.85,22.84 59.89,22.84 82.73,0 13.31,-13.31 18.87,-31.44 16.67,-48.77 -1.57,-12.42 -7.13,-24.43 -16.67,-33.97 -22.84,-22.84 -59.88,-22.84 -82.73,0.01z"/>
    </g>
    <g>
     <path class="fil3" d="M671.53 128.47c-72.53,-72.53 -168.96,-112.47 -271.53,-112.47 -102.57,0 -199,39.94 -271.53,112.47 -72.53,72.53 -112.47,168.96 -112.47,271.53 0,102.57 39.94,199 112.47,271.53 72.53,72.53 168.96,112.47 271.53,112.47 102.57,0 199,-39.94 271.53,-112.47 72.53,-72.53 112.47,-168.96 112.47,-271.53 0,-102.57 -39.94,-199 -112.47,-271.53zm-21.21 521.85c-138.03,138.02 -362.61,138.02 -500.64,0 -138.02,-138.03 -138.02,-362.61 0,-500.64 43.41,-43.4 95.37,-73.14 150.51,-89.25 -14.33,40.9 -20.73,83.6 -18.99,127.28 0.32,8.07 6.96,14.4 14.97,14.4 0.2,0 0.41,0 0.61,-0.01 8.28,-0.33 14.72,-7.31 14.39,-15.59 -1.85,-46.41 6.37,-91.63 24.37,-134.45 21.29,-3.91 42.88,-5.89 64.46,-5.89 90.65,0 181.3,34.5 250.32,103.51 85.45,85.45 117.97,204.07 97.62,314.79 -25.62,10.77 -52.42,18.08 -79.88,21.78 -3.51,-10.29 -9.35,-19.96 -17.54,-28.15 -28.66,-28.66 -75.29,-28.66 -103.94,0 -5.21,5.2 -9.46,11.01 -12.77,17.18 -27.13,-8.28 -52.86,-20.12 -76.76,-35.31 6.7,-20.76 1.83,-44.47 -14.62,-60.93 -17.83,-17.82 -44.15,-22.05 -66.02,-12.73 -13.28,-17.22 -24.77,-35.8 -34.22,-55.39 -3.6,-7.46 -12.56,-10.6 -20.03,-7 -7.46,3.6 -10.59,12.56 -6.99,20.03 10.35,21.46 22.94,41.82 37.48,60.68 -18.32,23.52 -16.69,57.65 4.92,79.26 11.7,11.7 27.06,17.55 42.43,17.55 14.73,0 29.45,-5.39 40.95,-16.15 26.27,16.7 54.56,29.7 84.39,38.77 -1.69,20.78 5.38,42.13 21.23,57.99 14.33,14.33 33.15,21.49 51.97,21.49 18.83,0 37.65,-7.16 51.98,-21.49 12.82,-12.82 19.88,-29.24 21.23,-46.03 23.11,-3.09 45.81,-8.52 67.81,-16.2 -16.1,55.13 -45.84,107.09 -89.24,150.5l0 0zm-82.53 -171.01c8.48,-8.48 19.62,-12.72 30.76,-12.72 11.14,0 22.28,4.24 30.76,12.72 16.96,16.96 16.96,44.56 0,61.52 -16.96,16.96 -44.56,16.96 -61.52,0 -16.96,-16.96 -16.96,-44.56 0,-61.52l0 0zm-189 -79.06c5.85,-5.85 13.53,-8.77 21.21,-8.77 7.68,0 15.36,2.92 21.21,8.77 11.7,11.7 11.7,30.73 0,42.43 -11.69,11.69 -30.73,11.69 -42.42,0 -11.7,-11.7 -11.7,-30.73 0,-42.43l0 0z"/>
     <path class="fil3" d="M233.68 293.43c-28.66,-28.66 -75.29,-28.66 -103.94,0 -28.66,28.66 -28.66,75.29 0,103.95 14.33,14.32 33.15,21.49 51.97,21.49 18.82,0 37.64,-7.16 51.97,-21.49 28.66,-28.66 28.66,-75.29 0,-103.95l0 0zm-21.21 82.73c-16.96,16.96 -44.56,16.96 -61.52,0 -16.96,-16.96 -16.96,-44.56 0,-61.52 8.48,-8.48 19.62,-12.72 30.76,-12.72 11.14,0 22.28,4.24 30.76,12.72 16.96,16.96 16.96,44.56 0,61.52l0 0z"/>
     <path class="fil3" d="M343.59 527.16c-24.44,0 -47.42,9.51 -64.7,26.8 -17.28,17.28 -26.8,40.26 -26.8,64.7 0,24.44 9.52,47.42 26.8,64.7 17.28,17.28 40.26,26.8 64.7,26.8 8.29,0 15,-6.72 15,-15 0,-8.29 -6.71,-15 -15,-15 -16.43,0 -31.87,-6.4 -43.49,-18.01 -11.61,-11.62 -18.01,-27.07 -18.01,-43.49 0,-16.43 6.4,-31.87 18.02,-43.49 11.61,-11.62 27.06,-18.01 43.48,-18.01 16.43,0 31.87,6.4 43.49,18.01 23.98,23.98 23.98,63 0,86.97 -5.86,5.86 -5.86,15.36 0,21.22 5.86,5.86 15.35,5.86 21.21,0 35.68,-35.68 35.68,-93.73 0,-129.4 -17.28,-17.28 -40.26,-26.8 -64.7,-26.8l0 0z"/>
     <path class="fil3" d="M208.21 493.61c-19,-19 -49.93,-19 -68.94,0 -19.01,19.01 -19.01,49.94 0,68.95 9.5,9.5 21.99,14.25 34.47,14.25 12.48,0 24.97,-4.75 34.47,-14.25 19.01,-19.01 19.01,-49.94 0,-68.95zm-21.21 47.73c-7.31,7.32 -19.21,7.32 -26.52,0 -7.31,-7.31 -7.31,-19.2 0,-26.51 3.66,-3.66 8.46,-5.48 13.26,-5.48 4.8,0 9.61,1.82 13.26,5.48 7.31,7.31 7.31,19.2 0,26.51l0 0z"/>
     <path class="fil3" d="M397.29 209.6c13.02,0 25.26,-5.07 34.47,-14.28 9.21,-9.21 14.28,-21.45 14.28,-34.47 0,-13.03 -5.07,-25.27 -14.28,-34.47 -9.21,-9.21 -21.45,-14.28 -34.47,-14.28 -13.03,0 -25.27,5.07 -34.47,14.28 -9.21,9.2 -14.28,21.44 -14.28,34.47 0,13.02 5.07,25.26 14.28,34.47 9.2,9.21 21.45,14.28 34.47,14.28l0 0zm-13.26 -62.01c3.54,-3.54 8.25,-5.49 13.26,-5.49 5,0 9.72,1.95 13.25,5.49 3.55,3.54 5.5,8.25 5.5,13.26 0,5.01 -1.95,9.72 -5.5,13.26 -3.54,3.54 -8.25,5.49 -13.25,5.49 -5.01,0 -9.72,-1.95 -13.26,-5.49 -3.54,-3.54 -5.49,-8.25 -5.49,-13.26 0,-5.01 1.95,-9.72 5.49,-13.26z"/>
     <path class="fil3" d="M519.11 613.65l-0.01 0c-8.29,0 -15,6.71 -15,15 0,8.28 6.72,15 15.01,15 8.28,0 15,-6.72 15,-15 0,-8.29 -6.72,-15 -15,-15l0 0z"/>
     <path class="fil3" d="M276.11 471.52c8.28,0 15,-6.71 15,-15 0,-8.28 -6.72,-14.99 -15,-14.99l-0.01 0c-8.29,0 -15,6.71 -15,14.99 0,8.29 6.72,15 15.01,15l0 0z"/>
     <path class="fil3" d="M217.61 199.27c8.28,0 15,-6.71 15,-15 0,-8.28 -6.72,-15 -15,-15l-0.01 0c-8.29,0 -15,6.72 -15,15 0,8.29 6.72,15 15.01,15l0 0z"/>
     <path class="fil3" d="M441.1 284.4c0,8.28 6.72,15 15.01,15 8.28,0 15,-6.72 15,-15 0,-8.29 -6.72,-15 -15,-15l-0.01 0c-8.29,0 -15,6.71 -15,15l0 0z"/>
     <path class="fil3" d="M647.36 360.15c8.28,0 15,-6.72 15,-15 0,-8.29 -6.72,-15 -15,-15l-0.01 0c-8.29,0 -15,6.71 -15,15 0,8.28 6.72,15 15.01,15z"/>
     <path class="fil3" d="M578.73 215.02c8.29,0 15,-6.71 15,-15 0,-8.28 -6.71,-15 -15,-15l-0.01 0c-8.28,0 -14.99,6.72 -14.99,15 0,8.29 6.72,15 15,15l0 0z"/>
     <path class="fil3" d="M305.75 268.93c8.28,0 15,-6.71 15,-15 0,-8.28 -6.72,-15 -15,-15l-0.01 0c-8.29,0 -15,6.72 -15,15 0,8.29 6.72,15 15.01,15z"/>
    </g>
   </g>
  </g>
 </g>
</svg>
