<?xml version="1.0" encoding="UTF-8"?>
<!DOCTYPE svg PUBLIC "-//W3C//DTD SVG 1.1//EN" "http://www.w3.org/Graphics/SVG/1.1/DTD/svg11.dtd">
<!-- Creator: CorelDRAW 2019 (64 Bit) -->
<svg xmlns="http://www.w3.org/2000/svg" xml:space="preserve" width="800px" height="800px" version="1.1" style="shape-rendering:geometricPrecision; text-rendering:geometricPrecision; image-rendering:optimizeQuality; fill-rule:evenodd; clip-rule:evenodd"
viewBox="0 0 800 800"
 xmlns:xlink="http://www.w3.org/1999/xlink"
 data-name="Layer 1">
 <defs>
  <style type="text/css">
   <![CDATA[
    .fil0 {fill:#6ADDC7}
    .fil5 {fill:#814ED1}
    .fil4 {fill:#85FFE8}
    .fil1 {fill:#A267F4}
    .fil3 {fill:#D79FFF}
    .fil2 {fill:#EEE051}
   ]]>
  </style>
 </defs>
 <g id="Camada_x0020_1">
  <metadata id="CorelCorpID_0Corel-Layer"/>
  <g id="_2781032946272">
   <path class="fil0" d="M529.73 382.42l0.07 -0.37c49.71,9.24 146.14,-21.29 192.08,-40.58 14.24,-9.71 27.59,-20.99 39.58,-33.41 7.65,30.14 11.57,61.23 11.57,92.35 0,6.12 -0.18,12.37 -0.45,18.44 -36.36,24.27 -77.12,41.59 -119.85,50.91l-0.74 -0.44c-79.18,24.36 -204.09,-20.74 -252.76,-41.11l-0.07 0.14c-19.03,-11.34 -37.08,-24.58 -53.59,-39.3 -25.88,-23.06 -18.1,-65.38 14.24,-77.85l0.11 -0.04c5.3,-2.05 10.97,-3.1 16.66,-3.1 11.84,0 23.24,4.51 31.87,12.61 12.41,11.59 25.79,22.84 37.26,29.65 12.98,7.7 55.1,25.93 84.01,32.09l0.01 0.01z"/>
   <path class="fil1" d="M399.16 428.34l0.08 -0.14c48.66,20.37 173.57,65.47 252.75,41.11l0.75 0.44c42.72,-9.31 83.48,-26.63 119.84,-50.93 -1.72,35.57 -8.67,70.7 -20.41,104.26 -44.08,26.82 -150,41.01 -200.67,45.19l-0.17 -0.29c-8.96,-0.19 -64.25,-5.68 -88.5,-7.94 -45.58,-7.05 -78.1,-16.52 -84.22,-19 -5.35,-2.16 -11.08,-3.28 -16.86,-3.28 -24.71,0 -44.74,20.04 -44.74,44.75 0,17.42 10.12,33.27 25.92,40.6 8,3.7 22.39,8.37 41.4,12.97l-0.1 0.75c39.4,5.95 141.22,19.67 188.85,17.6l0.07 0.59c25.48,-3.16 92.87,-12.35 116.48,-19.93 -35.31,43.64 -80.19,78.79 -131.08,102.59 -50.89,23.79 -101.98,-21.03 -157.77,-33.88l-0.76 0.44c-27.68,-8.36 -53.34,-18.24 -71.38,-29.56 -3,-1.85 -6.43,-2.83 -9.94,-2.83 -0.04,0 -0.07,0 -0.11,0 -5.95,0.07 -11.64,2.48 -15.82,6.7 -4.13,4.12 -6.45,9.72 -6.45,15.55 0,8.31 4.71,15.92 12.14,19.65 50.74,25.24 104.97,43.03 160.78,52.75 -22.79,4.31 -46.06,6.5 -69.24,6.5 -203.25,0 -369.2,-162.81 -372.98,-366.02l1.11 -0.03c0,0 8.15,23.85 27.47,59.45 4.55,8.33 13.29,13.52 22.78,13.52 14.31,0 25.91,-11.6 25.91,-25.91 0,-4.87 -1.38,-9.66 -3.97,-13.78 -32.58,-52.23 -58.5,-144.54 -58.5,-144.54 8.79,-30.12 21.45,-59.09 37.48,-86.06 1.49,-2.54 3.01,-5.04 4.58,-7.51 -0.02,1.56 -0.05,3.16 -0.05,4.74 0,11.84 0.92,23.68 2.69,35.37l0.6 0.2c8.55,38.26 27.6,111.85 40.22,145.68 4.9,13.12 17.43,21.81 31.42,21.81 18.53,0 33.55,-15.02 33.56,-33.55 0,-0.01 0,-0.02 0,-0.04 0,-5.23 -1.26,-10.39 -3.64,-15.05 -4.54,-8.84 -29.39,-82.92 -35.33,-98.58l0 -0.02c-1.06,-4.89 -2.04,-9.77 -2.92,-14.69 -2.03,-11.35 -3.57,-22.77 -4.63,-34.28 -1.1,-12.19 -1.69,-24.57 -1.69,-36.85 0,-17.14 1.13,-34.32 3.29,-51.32l-0.01 -0.01c25.98,-23.97 55.47,-44.18 87.21,-59.83 -3.66,20.1 -5.61,40.54 -5.65,60.98 0,0.32 -0.01,0.66 -0.01,0.98 0,26.32 21.34,47.66 47.66,47.66 25.93,0 47.12,-20.75 47.65,-46.67 0.33,-10.07 5.48,-54.82 6.47,-65.87l0.03 -0.55c1.8,-10.31 4.65,-20.45 8.43,-30.2 20.11,-3.3 40.64,-5.03 61.08,-5.03 9.15,0 18.39,0.36 27.49,1 -4.18,14.13 -6.56,28.79 -6.98,43.51l-0.23 0.41c1.6,12.47 6.13,51.3 10.39,63.11 5.48,15.18 19.91,25.32 36.06,25.32 21.16,0 38.32,-17.16 38.32,-38.32 0,-3.31 -0.43,-6.61 -1.27,-9.8 -7.11,-28.7 1.43,-57.52 7.52,-67.77l0.12 -0.37c55.17,17.4 105.68,47.45 147.34,87.5l-0.26 0.27c-7.74,13.02 -46.32,33.46 -58.56,40.55l0 0.02c-4.97,0.88 -10.05,1.34 -15.12,1.34 -4.33,0 -8.67,-0.34 -12.95,-0.98 -1.91,-0.32 -3.85,-0.48 -5.78,-0.48 -14.16,0 -26.99,8.4 -32.65,21.38l-1.01 2.31c-1.87,4.41 -2.85,9.15 -2.85,13.94 0,16.96 12.03,31.55 28.68,34.79 10.42,2.06 21.04,3.18 31.66,3.26 0.38,-0.76 0.81,-1.52 1.25,-2.27 7.7,-12.99 21.7,-20.96 36.8,-20.96 7.69,0 15.25,2.08 21.86,6 2.25,1.33 4.38,2.88 6.34,4.6 21.31,-8.62 40.7,-21.51 56.89,-37.82 21.93,33.95 38.18,71.37 48.13,110.53 -11.98,12.41 -25.33,23.69 -39.58,33.42 -45.94,19.29 -142.37,49.82 -192.08,40.58l-0.08 0.36c-28.91,-6.17 -71.03,-24.39 -84.01,-32.09 -11.47,-6.81 -24.85,-18.06 -37.26,-29.65 -8.62,-8.12 -20.02,-12.63 -31.86,-12.63 -5.69,0 -11.36,1.05 -16.67,3.08l-0.11 0.05c-32.34,12.47 -40.12,54.78 -14.23,77.85 16.51,14.73 34.56,27.97 53.57,39.29l0.02 0.01zm-222.79 183.2c4.84,-4.82 7.56,-11.37 7.56,-18.19 0,-7.53 -3.31,-14.68 -9.03,-19.56 -14.03,-11.92 -27.01,-24.13 -39.03,-36.39 -4.88,-4.98 -33.84,-38.44 -38.41,-43.44l-0.14 0.12c-4.87,-5.88 -12.12,-9.29 -19.76,-9.29 -14.17,0 -25.66,11.49 -25.66,25.66 0,5.8 1.96,11.42 5.56,15.96 9.38,11.81 19.62,23.86 30.8,35.9l0.06 0.17c7.05,6.53 45.69,44.2 53.34,50.59 4.63,3.88 10.48,6.01 16.52,6.01 6.82,0 13.37,-2.72 18.2,-7.54l-0.01 0z"/>
   <path class="fil0" d="M462.82 560.06c24.26,2.25 79.54,7.75 88.51,7.93l0.17 0.29c50.67,-4.17 156.58,-18.36 200.66,-45.19 -14.22,40.62 -35.46,78.54 -62.53,112 -23.61,7.58 -91,16.76 -116.48,19.93l-0.07 -0.6c-47.63,2.07 -149.45,-11.65 -188.85,-17.6l0.11 -0.74c-19.02,-4.6 -33.41,-9.28 -41.41,-12.98 -15.8,-7.32 -25.92,-23.17 -25.92,-40.59 0,-24.71 20.03,-44.75 44.74,-44.75 5.78,0 11.51,1.12 16.86,3.3 6.12,2.48 38.64,11.95 84.21,19l0 0z"/>
   <path class="fil0" d="M600.22 172.42l0 -0.02c12.24,-7.09 50.83,-27.52 58.56,-40.54l0.26 -0.28c20.57,19.75 38.83,42.02 54.3,65.96 -16.21,16.31 -35.6,29.2 -56.9,37.81 -1.97,-1.71 -4.1,-3.26 -6.35,-4.59 -6.61,-3.92 -14.17,-6 -21.86,-6 -15.1,0 -29.1,7.97 -36.8,20.96 -0.44,0.74 -0.86,1.51 -1.24,2.27 -10.63,-0.08 -21.25,-1.2 -31.66,-3.26 -16.66,-3.24 -28.69,-17.83 -28.69,-34.79 0,-4.79 0.98,-9.53 2.85,-13.93l1.01 -2.32c5.66,-12.98 18.49,-21.38 32.65,-21.38 1.93,0 3.87,0.16 5.78,0.47 4.28,0.65 8.62,0.99 12.95,0.99 5.07,0 10.15,-0.46 15.14,-1.35l0 0z"/>
   <path class="fil0" d="M511.68 44.09l-0.12 0.37c-6.09,10.25 -14.63,39.07 -7.52,67.77 0.84,3.19 1.27,6.49 1.27,9.8 0,21.16 -17.16,38.32 -38.32,38.32 -16.15,0 -30.58,-10.14 -36.05,-25.33 -4.26,-11.81 -8.78,-50.64 -10.38,-63.11l0.23 -0.41c0.4,-14.71 2.78,-29.37 6.98,-43.48 28.48,2.07 56.69,7.52 83.91,16.08l0 -0.01z"/>
   <path class="fil0" d="M400.76 703.79c55.79,12.85 157.77,33.88 157.77,33.88 -28.37,13.3 -58.47,23.06 -89.3,28.86 -55.8,-9.75 -110.03,-27.54 -160.73,-52.75 -7.47,-3.76 -12.18,-11.37 -12.18,-19.68 0,-5.83 2.32,-11.43 6.45,-15.55 4.18,-4.22 9.87,-6.63 15.82,-6.7 0.04,0 0.07,0 0.11,0 3.51,0 6.94,0.98 9.92,2.83 18.04,11.31 43.7,21.19 71.38,29.55l0.76 -0.44z"/>
   <path class="fil0" d="M339.19 32.04c-3.79,9.74 -6.64,19.88 -8.44,30.18l-0.03 0.55c-0.99,11.05 -6.14,55.8 -6.47,65.87 -0.9,25.66 -21.97,45.99 -47.64,45.99 -26.32,0 -47.66,-21.35 -47.66,-47.66 0,-0.1 0,-0.2 0,-0.29 0.04,-20.44 1.99,-40.88 5.65,-60.97 32.95,-16.3 68.26,-27.69 104.58,-33.68l0.01 0.01z"/>
   <path class="fil0" d="M150.92 533.38l0.13 -0.12c4.57,4.99 33.53,38.46 38.42,43.44 12.01,12.26 25,24.47 39.02,36.39 5.61,4.89 8.83,11.96 8.83,19.4 0,14.2 -11.53,25.73 -25.74,25.73 -5.95,0 -11.73,-2.07 -16.33,-5.85 -7.64,-6.39 -46.28,-44.06 -53.33,-50.59l-0.06 -0.17c-11.18,-12.04 -21.43,-24.09 -30.81,-35.9 -3.6,-4.54 -5.56,-10.16 -5.56,-15.96 0,-14.17 11.49,-25.66 25.67,-25.66 7.64,0 14.89,3.41 19.76,9.29l0 0z"/>
   <path class="fil0" d="M153.35 262.68l0 0.01c5.94,15.67 30.79,89.75 35.33,98.59 2.38,4.66 3.64,9.82 3.64,15.05 0,0.02 0,0.03 0,0.04 -0.01,18.53 -15.03,33.55 -33.56,33.55 -13.99,0 -26.52,-8.69 -31.43,-21.79 -12.62,-33.84 -31.67,-107.42 -40.22,-145.69l-0.6 -0.19c-1.76,-11.71 -2.68,-23.55 -2.68,-35.39 0,-1.58 0.03,-3.18 0.06,-4.73 17.57,-28.25 39.01,-54.08 63.48,-76.6l0.01 0.01c-2.14,17 -3.27,34.18 -3.27,51.32 0,12.28 0.59,24.66 1.67,36.84 1.06,11.5 2.61,22.93 4.65,34.29 0.88,4.91 1.86,9.8 2.92,14.69z"/>
   <path class="fil0" d="M104.28 454.02c-0.01,14.3 -11.61,25.89 -25.91,25.89 -9.49,0 -18.22,-5.19 -22.75,-13.52 -19.33,-35.6 -27.47,-59.44 -27.47,-59.44l-1.11 0.03c-0.03,-2.42 -0.07,-4.91 -0.07,-7.36 0,-35.14 5.02,-70.24 14.85,-103.93 9.83,-33.7 25.92,92.31 58.5,144.54 2.58,4.13 3.96,8.92 3.96,13.79l0 0z"/>
   <circle class="fil2" cx="296.46" cy="244.73" r="50.25"/>
   <circle class="fil2" cx="232.51" cy="486.82" r="36.54"/>
   <circle class="fil2" cx="629.91" cy="270.61" r="42.63"/>
   <path class="fil3" d="M202.2 133.12c8.74,-8.06 17.81,-15.64 27.2,-22.74 0.75,-14.98 2.54,-29.94 5.18,-44.68 -31.72,15.64 -61.21,35.86 -87.21,59.83l0.02 0.01c-2.13,16.91 -3.26,34.09 -3.26,51.16 0,7.85 0.24,15.8 0.69,23.6 16.35,-24.57 35.72,-47.24 57.4,-67.2l-0.02 0.02z"/>
   <path class="fil3" d="M99.57 293.75c-4.98,-19.33 -9.4,-37.59 -12.47,-51.31l-0.59 -0.19c-1.76,-11.71 -2.68,-23.55 -2.68,-35.39 0,-1.58 0.03,-3.18 0.06,-4.73 -1.58,2.46 -3.11,4.96 -4.6,7.49 -16.02,26.98 -28.68,55.95 -37.48,86.06 -8.79,30.11 16.63,59.2 39.98,109.61 0.14,-34.48 5.21,-68.89 14.86,-101.98 0.92,-3.2 1.9,-6.38 2.92,-9.56z"/>
   <path class="fil3" d="M88.5 477.86c-3.2,1.36 -6.66,2.07 -10.15,2.07 -9.49,0 -18.22,-5.2 -22.73,-13.54 -19.33,-35.6 -27.47,-59.44 -27.47,-59.44l-1.11 0.03c3.67,193.91 155.34,352.74 348.89,365.32 -146.04,-31.75 -259.22,-147.66 -287.44,-294.44l0.01 0z"/>
   <path class="fil3" d="M425.68 35.79c0.64,-2.6 1.32,-5.19 2.09,-7.77 -9.12,-0.66 -18.36,-1.02 -27.51,-1.02 -20.44,0 -40.97,1.73 -61.08,5.05 -2.98,7.54 -5.36,15.39 -7.02,23.36 20.07,-6.95 40.88,-12.26 61.83,-15.75 10.49,-1.74 21.06,-3.03 31.69,-3.87z"/>
   <path class="fil4" d="M87.1 242.44c3.07,13.72 7.49,31.98 12.47,51.31 8.6,-26.64 20.22,-52.45 34.54,-76.52 1.49,-2.53 3.02,-5.03 4.58,-7.49 2,-3.2 4.05,-6.34 6.13,-9.45 -0.45,-7.79 -0.69,-15.74 -0.69,-23.59 0,-17.07 1.13,-34.25 3.29,-51.18l-0.02 -0.01c-24.5,22.54 -45.94,48.37 -63.52,76.6 -0.02,1.57 -0.05,3.17 -0.05,4.75 0,11.84 0.92,23.68 2.69,35.37l0.58 0.21z"/>
   <path class="fil4" d="M229.4 110.38c31.1,-23.54 65.89,-42.19 102.77,-54.96 1.65,-7.98 4.03,-15.83 7.02,-23.39 -36.33,5.99 -71.64,17.38 -104.62,33.66 -2.63,14.75 -4.42,29.71 -5.15,44.67l-0.02 0.02z"/>
   <path class="fil4" d="M88.5 477.86c-3.98,-20.78 -6.22,-42.12 -6.63,-63.27 -0.06,-3.09 -0.07,-6.19 -0.05,-9.29 -23.36,-50.41 -39.98,-109.61 -39.98,-109.61 -9.85,33.69 -14.87,68.79 -14.87,103.93 0,2.45 0.04,4.94 0.09,7.34l1.11 -0.03c0,0 8.14,23.84 27.46,59.44 4.5,8.36 13.24,13.56 22.72,13.56 3.49,0 6.95,-0.71 10.16,-2.07l-0.01 0z"/>
   <g>
    <path class="fil5" d="M590.22 257.13l-0.08 0c-11.21,-0.09 -22.41,-1.27 -33.4,-3.45 -20.93,-4.08 -36.04,-22.43 -36.04,-43.75 0,-6.02 1.23,-12 3.6,-17.53l1 -2.32c7.13,-16.33 23.28,-26.9 41.11,-26.9 2.37,0 4.76,0.2 7.1,0.57 3.82,0.59 7.72,0.89 11.59,0.89 4.55,0 9.1,-0.41 13.58,-1.22 0.53,-0.1 1.07,-0.15 1.62,-0.15 5.04,0 9.13,4.09 9.13,9.14 0,4.42 -3.17,8.21 -7.52,8.99 -5.54,0.99 -11.18,1.51 -16.81,1.51 -4.81,0 -9.62,-0.37 -14.37,-1.1 -1.42,-0.24 -2.87,-0.36 -4.32,-0.36 -10.53,0 -20.07,6.22 -24.33,15.85l-0.99 2.31c-1.41,3.26 -2.14,6.79 -2.14,10.34 0,4.24 1.03,8.42 3.01,12.16 3.73,7.09 10.47,12.12 18.33,13.66 9.87,1.95 19.95,3.02 30.01,3.09 5.03,0.02 9.09,4.1 9.09,9.13 0,5.05 -4.09,9.14 -9.13,9.14 -0.02,0 -0.03,0 -0.04,0l0 0z"/>
    <path class="fil5" d="M588.32 292.13c0,0 0,0 0,0 -3.78,0 -7.17,-2.32 -8.53,-5.85 -2.3,-5.97 -3.49,-12.31 -3.49,-18.71 0,-28.68 23.26,-51.94 51.94,-51.94 23.74,0 44.46,16.11 50.32,39.1 0.18,0.73 0.28,1.47 0.28,2.21 0,5.05 -4.1,9.14 -9.14,9.14 -4.16,0 -7.79,-2.81 -8.84,-6.83 -3.8,-14.91 -17.24,-25.36 -32.63,-25.36 -18.59,0 -33.66,15.08 -33.66,33.67 0,4.15 0.77,8.28 2.27,12.15 0.4,1.05 0.61,2.16 0.61,3.29 0,5.04 -4.09,9.13 -9.14,9.13 0,0 0,0 0,0l0.01 0z"/>
    <path class="fil5" d="M628.25 319.52c0,0 0,0 0,0 -9.33,0 -18.51,-2.53 -26.52,-7.3 -2.77,-1.64 -4.48,-4.63 -4.48,-7.85 0,-5.05 4.09,-9.14 9.14,-9.14 1.64,0 3.25,0.44 4.66,1.28 5.21,3.1 11.15,4.73 17.2,4.73 9.73,0 18.99,-4.21 25.37,-11.55 1.73,-2.01 4.26,-3.17 6.92,-3.17 5.04,0 9.14,4.09 9.14,9.14 0,2.21 -0.81,4.35 -2.27,6.02 -9.83,11.32 -24.11,17.84 -39.12,17.84 -0.01,0 -0.03,0 -0.04,0l0 0z"/>
    <path class="fil5" d="M576.76 395.52c-16.29,0 -32.61,-1.52 -48.61,-4.48 -4.34,-0.82 -7.48,-4.59 -7.48,-9 0,-5.04 4.09,-9.13 9.13,-9.13 0.56,0 1.12,0.05 1.67,0.15 14.89,2.76 30.11,4.18 45.28,4.18 33.04,0 65.81,-6.65 96.23,-19.48 1.13,-0.48 2.33,-0.72 3.55,-0.72 5.04,0 9.13,4.09 9.13,9.14 0,3.67 -2.2,6.99 -5.59,8.42 -32.66,13.74 -67.84,20.92 -103.3,20.92l-0.01 0z"/>
    <path class="fil5" d="M399.96 437.97c-1.64,0 -3.25,-0.45 -4.66,-1.29 -19.79,-11.72 -38.63,-25.49 -55.83,-40.8 -11.77,-10.54 -18.51,-25.61 -18.51,-41.41 0,-22.96 14.13,-43.55 35.55,-51.81 6.38,-2.43 13.15,-3.68 19.98,-3.68 14.17,0 27.82,5.38 38.2,15.03 14.2,13.26 26.21,22.84 35.68,28.47 12.34,7.33 25.37,13.62 38.81,18.72 3.57,1.34 5.93,4.75 5.93,8.56 0,5.05 -4.09,9.14 -9.13,9.14 -1.12,0 -2.24,-0.21 -3.29,-0.61 -14.43,-5.49 -28.41,-12.23 -41.65,-20.1 -10.59,-6.29 -23.65,-16.66 -38.82,-30.82 -6.96,-6.73 -16.27,-10.5 -25.96,-10.5 -20.6,0 -37.31,16.71 -37.31,37.31 0,10.73 4.63,20.96 12.69,28.04 16.32,14.54 34.2,27.61 52.99,38.74 2.77,1.65 4.47,4.64 4.47,7.86 0,5.05 -4.09,9.14 -9.13,9.14 -0.01,0 -0.01,0 -0.01,0l0 0.01z"/>
    <path class="fil5" d="M577.63 486.97c-0.1,0 -0.19,0 -0.28,0 -47.06,0 -93.77,-9.45 -137.11,-27.67 -3.38,-1.4 -5.59,-4.73 -5.59,-8.41 0,-5.05 4.09,-9.14 9.13,-9.14 1.21,0 2.42,0.25 3.53,0.71 41.17,17.32 85.5,26.26 130.19,26.26 5.41,0 10.99,-0.17 16.36,-0.41 0.12,0.01 0.27,0 0.41,0 5.04,0 9.14,4.09 9.14,9.14 0,4.88 -3.84,8.89 -8.71,9.12 -5.71,0.27 -11.4,0.4 -17.07,0.4z"/>
    <path class="fil5" d="M272.02 296.51c-1.64,0 -3.25,-0.44 -4.65,-1.28 -17.92,-10.64 -28.92,-29.95 -28.92,-50.8 0,-10.61 2.87,-21.03 8.28,-30.15 1.65,-2.74 4.61,-4.41 7.81,-4.41 5.05,0 9.14,4.09 9.14,9.14 0,1.61 -0.43,3.2 -1.24,4.59 -3.74,6.3 -5.72,13.51 -5.72,20.84 0,14.39 7.6,27.73 19.98,35.08 2.77,1.65 4.47,4.64 4.47,7.86 0,5.05 -4.09,9.14 -9.14,9.14 0,0 -0.01,0 -0.01,0l0 -0.01z"/>
    <path class="fil5" d="M329.28 292.14c0,0 0,0 0,0 -5.05,0 -9.14,-4.1 -9.14,-9.14 0,-2.73 1.23,-5.32 3.33,-7.05 9.4,-7.75 14.87,-19.32 14.87,-31.51 0,-14.4 -7.6,-27.75 -19.98,-35.1 -2.73,-1.65 -4.4,-4.62 -4.4,-7.81 0,-5.04 4.09,-9.14 9.13,-9.14 1.62,0 3.2,0.43 4.6,1.24 17.92,10.65 28.9,29.97 28.9,50.81 0,17.65 -7.89,34.39 -21.5,45.61 -1.63,1.35 -3.69,2.09 -5.8,2.09 0,0 0,0 -0.01,0z"/>
    <path class="fil5" d="M158.99 419.1c-2.15,0 -4.31,-0.16 -6.43,-0.47 -15.45,-2.15 -28.45,-12.66 -33.78,-27.3 -15.84,-42.44 -27.61,-80.72 -35.01,-113.79 -0.16,-0.68 -0.24,-1.38 -0.24,-2.08 0,-5.04 4.09,-9.13 9.14,-9.13 4.3,0 8.03,3.01 8.93,7.22 7.22,32.26 18.75,69.73 34.29,111.39 3.57,9.54 12.68,15.87 22.86,15.87 7.64,0 14.84,-3.58 19.45,-9.67 3.21,-4.23 4.96,-9.41 4.96,-14.73 0,-3.8 -0.9,-7.56 -2.61,-10.96 -4.86,-9.46 -9.4,-19.24 -13.51,-29.06 -0.45,-1.1 -0.68,-2.27 -0.68,-3.45 0,-5.05 4.09,-9.14 9.14,-9.14 3.65,0 6.95,2.18 8.39,5.53 3.93,9.39 8.27,18.73 12.92,27.78 3.02,5.97 4.6,12.59 4.6,19.29 0,9.3 -3.04,18.36 -8.65,25.77 -7.93,10.65 -20.43,16.93 -33.71,16.93 -0.02,0 -0.05,0 -0.06,0l0 0z"/>
    <path class="fil5" d="M551.33 577.13l-0.19 0c-10.48,-0.22 -21.28,-0.72 -32.1,-1.5 -4.78,-0.34 -8.48,-4.32 -8.48,-9.11 0,-5.05 4.09,-9.14 9.13,-9.14 0.22,0 0.44,0.01 0.66,0.03 10.51,0.76 21.01,1.24 31.17,1.46 5.01,0.05 9.04,4.12 9.04,9.13 0,5.05 -4.09,9.14 -9.13,9.14 -0.03,0 -0.07,0 -0.1,0l0 -0.01z"/>
    <path class="fil5" d="M384.34 645.23c-0.73,0 -1.46,-0.09 -2.16,-0.26 -18.69,-4.53 -33.99,-9.35 -43.09,-13.58 -19.03,-8.83 -31.22,-27.91 -31.22,-48.89 0,-8.25 1.91,-16.4 5.54,-23.8 9.16,-18.37 27.94,-30 48.47,-30 6.9,0 13.75,1.33 20.15,3.89 5.31,2.15 38.78,11.94 85.45,18.94 4.5,0.64 7.84,4.49 7.84,9.04 0,5.04 -4.09,9.13 -9.13,9.13 -0.48,0 -0.95,-0.04 -1.42,-0.11 -48.46,-7.26 -82.62,-17.25 -89.59,-20.06 -4.23,-1.7 -8.77,-2.58 -13.33,-2.58 -13.57,0 -25.98,7.68 -32.04,19.82 -2.4,4.89 -3.66,10.28 -3.66,15.73 0,13.86 8.06,26.48 20.63,32.32 7.93,3.68 22.4,8.2 39.7,12.39 4.11,0.99 7,4.66 7,8.88 0,5.05 -4.09,9.14 -9.14,9.14 0,0 0,0 0,0l0 0z"/>
    <path class="fil5" d="M546.56 664.13c-36.34,-0.09 -72.76,-2.98 -108.65,-8.39 -4.43,-0.64 -7.73,-4.48 -7.73,-9 0,-5.04 4.09,-9.13 9.14,-9.13 0.46,0 0.92,0.03 1.37,0.1 35.03,5.33 70.63,8.07 106.05,8.07 8.64,0 17.37,-0.26 25.93,-0.51 0.17,0.02 0.34,0.02 0.51,0.02 5.04,0 9.13,4.09 9.13,9.13 0,4.93 -3.91,8.97 -8.84,9.13 -9.12,0.4 -18.11,0.58 -26.91,0.58l0 0z"/>
    <path class="fil5" d="M199.08 492.91c-0.28,0 -0.57,-0.01 -0.86,-0.04 -4.69,-0.44 -8.28,-4.38 -8.28,-9.09 0,-0.29 0.01,-0.57 0.04,-0.85 2.08,-22.3 20.8,-39.35 43.19,-39.35 19.86,0 37.2,13.5 42.06,32.76 0.19,0.73 0.28,1.49 0.28,2.25 0,5.05 -4.09,9.14 -9.13,9.14 -4.19,0 -7.85,-2.85 -8.87,-6.92 -2.81,-11.14 -12.84,-18.96 -24.34,-18.96 -12.96,0 -23.79,9.86 -25,22.76 -0.44,4.7 -4.37,8.3 -9.09,8.3l0 0z"/>
    <path class="fil5" d="M233.27 530.32c0,0 0,0 0,0 -12.99,0 -25.32,-5.8 -33.6,-15.81 -1.32,-1.63 -2.05,-3.67 -2.05,-5.77 0,-5.04 4.09,-9.13 9.13,-9.13 2.72,0 5.29,1.21 7.03,3.29 4.79,5.8 11.92,9.15 19.44,9.15 2.06,0 4.11,-0.25 6.11,-0.75 0.7,-0.17 1.41,-0.25 2.13,-0.25 5.05,0 9.14,4.09 9.14,9.13 0,4.15 -2.79,7.78 -6.8,8.84 -3.43,0.86 -6.97,1.3 -10.51,1.3 0,0 -0.02,0 -0.02,0l0 0z"/>
    <path class="fil5" d="M141.86 610.75c0,0 -0.01,0 -0.01,0 -2.54,0 -4.96,-1.06 -6.68,-2.93 -10.82,-11.63 -21.33,-23.9 -31.28,-36.44 -4.81,-6.12 -7.42,-13.69 -7.42,-21.48 0,-19.22 15.58,-34.81 34.8,-34.81 10.47,0 20.4,4.72 27.01,12.84 1.29,1.62 1.99,3.63 1.99,5.7 0,5.05 -4.09,9.14 -9.13,9.14 -2.74,0 -5.34,-1.23 -7.07,-3.35 -3.14,-3.88 -7.87,-6.14 -12.86,-6.14 -9.13,0 -16.54,7.41 -16.54,16.54 0,3.7 1.25,7.3 3.53,10.22 9.66,12.18 19.87,24.07 30.36,35.36 1.57,1.69 2.44,3.91 2.44,6.22 0,5.04 -4.09,9.13 -9.14,9.13 0,0 0,0 0,0l0 0z"/>
    <path class="fil5" d="M211.77 667.58c-8.19,-0.01 -16.11,-2.92 -22.38,-8.2 -7.56,-6.33 -15.09,-12.97 -22.37,-19.71 -1.86,-1.73 -2.92,-4.16 -2.92,-6.7 0,-5.05 4.09,-9.14 9.13,-9.14 2.31,0 4.53,0.87 6.22,2.44 7.05,6.54 14.34,12.96 21.67,19.1 2.99,2.5 6.77,3.87 10.66,3.87 9.17,0 16.61,-7.44 16.61,-16.61 0,-0.23 0,-0.46 -0.01,-0.69 -0.16,-4.6 -2.26,-8.93 -5.79,-11.9 -13.64,-11.6 -26.97,-24.03 -39.63,-36.95 -4.84,-4.94 -9.68,-10.06 -14.38,-15.19 -1.54,-1.69 -2.4,-3.89 -2.4,-6.17 0,-5.05 4.09,-9.14 9.14,-9.14 2.56,0 5.01,1.08 6.74,2.97 4.56,4.99 9.25,9.95 13.95,14.75 12.27,12.52 25.2,24.57 38.42,35.81 7.74,6.63 12.19,16.33 12.19,26.52 0,19.25 -15.58,34.88 -34.83,34.94l-0.02 0z"/>
    <path class="fil5" d="M420.5 80.63c0.09,0 0.19,0 0.28,0 4.94,-0.01 8.98,-3.93 9.13,-8.87 0.42,-13.92 2.64,-27.81 6.61,-41.16 0.18,-0.58 0.3,-1.18 0.35,-1.79 -3.03,-0.3 -6.06,-0.58 -9.1,-0.8 -3.11,-0.23 -6.22,-0.4 -9.33,-0.55 -4.05,14.23 -6.35,28.97 -6.79,43.75 -0.01,0.1 -0.01,0.19 -0.01,0.28 0,4.94 3.93,8.99 8.86,9.14l0 0z"/>
    <path class="fil5" d="M495.18 114.42c0.62,2.43 0.95,4.93 0.95,7.43 0,12.28 -7.62,23.28 -19.11,27.59 -3.21,1.17 -6.61,1.78 -10.02,1.78 -12.3,0 -23.29,-7.72 -27.47,-19.29 -4.03,-11.18 -6.86,-22.8 -8.38,-34.6 -0.5,-4.63 -4.41,-8.14 -9.07,-8.14 -5.05,0 -9.14,4.09 -9.14,9.13 0,0.45 0.03,0.9 0.1,1.33 1.68,13.13 4.83,26.05 9.31,38.48 6.75,18.82 24.6,31.38 44.59,31.38 5.57,0 11.12,-0.99 16.35,-2.91 18.69,-6.93 31.11,-24.79 31.11,-44.73 0,-3.99 -0.5,-7.98 -1.49,-11.84 -6.53,-26.37 1.73,-52.87 6.51,-60.91 0.4,-0.68 0.71,-1.41 0.92,-2.17 -2.88,-0.98 -5.76,-1.95 -8.66,-2.86 -2.96,-0.93 -5.92,-1.8 -8.89,-2.66 -7.16,13.37 -14.98,43.3 -7.61,72.99l0 0z"/>
    <path class="fil5" d="M650.92 127.19c-6.64,11.2 -16.07,20.55 -27.34,27.1 -2.82,1.64 -4.55,4.65 -4.55,7.91 0,5.04 4.09,9.13 9.13,9.13 1.61,0 3.19,-0.42 4.58,-1.23 13.41,-7.81 24.73,-18.81 32.9,-32 -2.17,-2.19 -4.35,-4.37 -6.58,-6.51 -2.19,-2.11 -4.42,-4.18 -6.67,-6.25 -0.57,0.55 -1.06,1.17 -1.47,1.85l0 0z"/>
    <path class="fil5" d="M653 226.9l6.87 16.93c21.75,-8.85 41.65,-21.94 58.43,-38.36 -1.63,-2.67 -3.28,-5.33 -4.98,-7.95 -1.69,-2.62 -3.41,-5.2 -5.17,-7.77 -15.62,16.05 -34.42,28.71 -55.14,37.15l-0.01 0z"/>
    <path class="fil5" d="M329.05 71.21c0.56,0.11 1.14,0.16 1.71,0.16 4.39,0 8.16,-3.12 8.97,-7.43 1.67,-9.7 4.35,-19.27 7.9,-28.43 0.45,-1.1 0.68,-2.27 0.68,-3.46 0,-0.46 -0.03,-0.92 -0.1,-1.37 -3.01,0.42 -6.03,0.86 -9.03,1.36 -3.5,0.58 -7,1.22 -10.48,1.9 -2.96,8.66 -5.29,17.59 -6.93,26.6 -0.1,0.55 -0.16,1.12 -0.16,1.69 0,4.39 3.13,8.16 7.44,8.98l0 0z"/>
    <path class="fil5" d="M243.84 173.32c9.5,6.79 20.9,10.47 32.58,10.49 6.6,-0.01 13.17,-1.17 19.36,-3.41 21.93,-7.75 36.88,-28.2 37.59,-51.45 0.37,-11.11 1,-21.73 1.88,-31.56 0.03,-0.27 0.04,-0.54 0.04,-0.81 0,-5.05 -4.09,-9.14 -9.14,-9.14 -4.73,0 -8.68,3.61 -9.1,8.32 -0.91,10.18 -1.56,21.14 -1.94,32.58 -0.65,20.79 -17.7,37.32 -38.51,37.32 -21.28,0 -38.53,-17.26 -38.53,-38.53 0,-0.14 0,-0.28 0,-0.42 0.08,-19.9 1.94,-39.83 5.51,-59.39 0.08,-0.52 0.13,-1.07 0.13,-1.62 0,-1.36 -0.3,-2.71 -0.89,-3.93 -2.76,1.28 -5.51,2.59 -8.25,3.93 -3.41,1.68 -6.8,3.42 -10.15,5.22 -2.97,18.4 -4.58,37.07 -4.63,55.73 0.01,0.06 0.01,0.14 0.01,0.2 0,18.47 8.97,35.8 24.04,46.47l0 0z"/>
    <path class="fil5" d="M716.19 334.31c-2.55,1.69 -4.09,4.55 -4.09,7.61 0,5.05 4.09,9.14 9.14,9.14 1.87,0 3.69,-0.58 5.22,-1.64 13.39,-9.08 26,-19.49 37.48,-30.87 -0.79,-3.5 -1.61,-6.99 -2.49,-10.47 -0.75,-2.94 -1.55,-5.87 -2.37,-8.8 -1.58,0.4 -3.04,1.25 -4.19,2.42 -11.72,12.14 -24.74,23.09 -38.7,32.6l0 0.01z"/>
    <path class="fil5" d="M772.91 409.72c-0.12,0 -0.24,0 -0.36,0 -1.79,0 -3.55,0.53 -5.04,1.53 -35.39,23.68 -75.11,40.52 -116.74,49.55 -4.18,0.94 -7.17,4.65 -7.17,8.95 0,5.04 4.09,9.13 9.13,9.13 0.66,0 1.31,-0.07 1.95,-0.21 41.56,-9 81.36,-25.51 117.14,-48.45 0.31,-3.79 0.56,-7.58 0.76,-11.38 0.15,-3.04 0.25,-6.08 0.33,-9.12l0 0z"/>
    <path class="fil5" d="M136.7 214.55c1.07,11.69 2.67,23.49 4.74,35.05 1.79,10.01 3.99,20.09 6.52,29.94 1.04,4.04 4.68,6.86 8.85,6.86 5.04,0 9.13,-4.09 9.13,-9.13 0,-0.77 -0.09,-1.53 -0.28,-2.27 -2.42,-9.43 -4.52,-19.05 -6.23,-28.62 -1.98,-11.05 -3.5,-22.33 -4.54,-33.5 -1.07,-11.93 -1.65,-23.99 -1.65,-36 0,-16.76 1.11,-33.57 3.22,-50.18 0.05,-0.4 0.07,-0.79 0.07,-1.18 0,-2.25 -0.83,-4.43 -2.34,-6.1 -2.29,2 -4.56,4.02 -6.81,6.09 -3.5,3.22 -6.93,6.54 -10.32,9.91 -1.33,13.74 -2.09,27.63 -2.09,41.46 0,12.57 0.61,25.2 1.71,37.67l0.02 0z"/>
    <path class="fil5" d="M86.49 251.38c0.44,0 0.87,-0.03 1.3,-0.09 4.51,-0.64 7.86,-4.5 7.86,-9.05 0,-0.43 -0.03,-0.86 -0.09,-1.28 -1.71,-11.26 -2.59,-22.7 -2.59,-34.08 0,-1.55 0.03,-3.17 0.05,-4.69 0,-0.11 0,-0.22 0,-0.32 0,-3.05 -1.52,-5.9 -4.05,-7.59 -1.72,2.6 -3.43,5.19 -5.09,7.85 -1.57,2.46 -3.09,4.96 -4.58,7.49 -1.5,2.52 -2.96,5.06 -4.39,7.61 0.38,8.19 1.23,16.97 2.56,26.3 0.64,4.5 4.48,7.84 9.03,7.85l-0.01 0z"/>
    <path class="fil5" d="M747.97 514.95c-37.91,23.47 -85.8,37.73 -142.33,42.37 -4.74,0.39 -8.39,4.35 -8.39,9.11 0,5.04 4.09,9.13 9.13,9.13 0.25,0 0.5,-0.01 0.76,-0.03 54.41,-4.47 101.41,-17.58 139.97,-38.95 1.77,-4.48 3.47,-8.97 5.06,-13.49 1.06,-3.05 2.08,-6.1 3.06,-9.16 -0.8,-0.23 -1.63,-0.34 -2.47,-0.34 -1.69,0 -3.35,0.47 -4.79,1.36l0 0z"/>
    <path class="fil5" d="M686.87 626.37c-23.47,7.34 -47.73,12.61 -72.17,15.46 -4.6,0.58 -8.04,4.47 -8.04,9.08 0,5.04 4.09,9.14 9.13,9.14 0.38,0 0.76,-0.03 1.13,-0.07 20.88,-2.51 41.63,-6.64 61.86,-12.15 3.69,-4.16 7.32,-8.38 10.84,-12.73 1.93,-2.38 3.81,-4.79 5.68,-7.21 -1.6,-1.27 -3.59,-1.96 -5.63,-1.96 -0.95,0 -1.9,0.15 -2.8,0.44l0 0z"/>
    <path class="fil5" d="M78.33 489.04c0.4,0 0.8,0 1.2,-0.02 18.89,-0.62 33.89,-16.12 33.89,-35.02 0,-6.58 -1.86,-13.04 -5.34,-18.61 -31.51,-50.5 -57.21,-141.26 -57.46,-142.17 -0.84,-3 -3.15,-5.35 -6.12,-6.26 -0.93,2.9 -1.83,5.81 -2.68,8.73 -1.64,5.62 -3.14,11.27 -4.49,16.94 8.73,28.34 29.79,91.64 55.24,132.43 1.68,2.68 2.58,5.78 2.58,8.94 0,2.41 -0.52,4.8 -1.53,7 -2.73,5.95 -8.69,9.77 -15.24,9.77 -6.15,0 -11.8,-3.36 -14.74,-8.75 -18.57,-34.21 -26.69,-57.57 -26.85,-58.02 -1.26,-3.7 -4.73,-6.18 -8.64,-6.18 -0.39,0 -0.78,0.02 -1.17,0.07 -0.01,3.03 0,6.06 0.06,9.09 0.16,8.3 0.6,16.58 1.32,24.84 4.5,10.16 10.81,23.43 19.23,38.92 6.07,11.27 17.84,18.3 30.64,18.3 0.03,0 0.07,0 0.1,0l0 0z"/>
    <path class="fil5" d="M559.75 728.62c-0.49,-0.06 -50.19,-6.8 -104.93,-19.41 -0.65,-0.14 -1.31,-0.22 -1.98,-0.22 -5.04,0 -9.13,4.09 -9.13,9.14 0,4.22 2.9,7.9 7,8.88 37.73,8.7 73.12,14.64 92.12,17.58 5.28,-2.18 10.51,-4.49 15.7,-6.92 2.76,-1.29 5.49,-2.63 8.22,-3.99 -1.33,-2.75 -3.97,-4.65 -7,-5.06l0 0z"/>
    <path class="fil5" d="M470.97 757.57c-54.96,-9.6 -108.48,-27.28 -158.45,-52.01 -4.32,-2.15 -7.06,-6.6 -7.06,-11.46 0,-3.41 1.36,-6.68 3.77,-9.09 4.1,-4.1 10.35,-5.21 14.54,-2.59 16.98,10.66 41.74,20.94 73.59,30.56 0.85,0.26 1.74,0.39 2.64,0.39 5.04,0 9.13,-4.09 9.13,-9.13 0,-4.03 -2.63,-7.59 -6.49,-8.75 -30.29,-9.15 -53.56,-18.76 -69.16,-28.54 -11.4,-7.16 -27.03,-5 -37.17,5.14 -5.84,5.83 -9.12,13.76 -9.12,22.01 0,11.78 6.65,22.55 17.18,27.82 43.88,21.74 90.46,38.19 138.36,48.6 8.89,-1.01 17.72,-2.35 26.49,-4 3.03,-0.57 6.06,-1.19 9.07,-1.84 -0.76,-3.64 -3.66,-6.46 -7.32,-7.11l0 0z"/>
   </g>
  </g>
 </g>
</svg>
