<?xml version="1.0" encoding="UTF-8"?>
<!DOCTYPE svg PUBLIC "-//W3C//DTD SVG 1.1//EN" "http://www.w3.org/Graphics/SVG/1.1/DTD/svg11.dtd">
<!-- Creator: CorelDRAW 2019 (64 Bit) -->
<svg xmlns="http://www.w3.org/2000/svg" xml:space="preserve" width="800px" height="800px" version="1.1" style="shape-rendering:geometricPrecision; text-rendering:geometricPrecision; image-rendering:optimizeQuality; fill-rule:evenodd; clip-rule:evenodd"
viewBox="0 0 800 800"
 xmlns:xlink="http://www.w3.org/1999/xlink">
 <defs>
  <style type="text/css">
   <![CDATA[
    .str0 {stroke:white;stroke-width:2.36;stroke-miterlimit:22.9256}
    .fil0 {fill:white}
    .fil5 {fill:black}
    .fil2 {fill:#8291A8}
    .fil4 {fill:#C478D7}
    .fil3 {fill:#D8A1E4}
    .fil1 {fill:#E5ECEC}
   ]]>
  </style>
 </defs>
 <g id="Camada_x0020_1">
  <metadata id="CorelCorpID_0Corel-Layer"/>
  <circle class="fil0 str0" cx="400" cy="400" r="400"/>
  <g id="_2781179344704">
   <path class="fil1" d="M778.61 488.27c0,95.24 -77.21,172.44 -172.45,172.44 -95.24,0 -172.45,-77.2 -172.45,-172.44 0,-95.25 77.21,-172.45 172.45,-172.45 95.24,0 172.45,77.21 172.45,172.45zm0 0z"/>
   <path class="fil2" d="M729.11 609.16c-31.28,31.82 -74.81,51.55 -122.95,51.55 -48.14,0 -91.67,-19.73 -122.95,-51.55l245.9 0zm0 0z"/>
   <path class="fil2" d="M778.56 485.36l-344.8 0c0.37,-23.71 5.55,-46.26 14.59,-66.72l315.62 0c9.05,20.47 14.23,43.01 14.59,66.72l0 0zm0 0z"/>
   <path class="fil3" d="M463.47 391.4c-18.78,27.61 -29.76,60.96 -29.76,96.86 0,12.28 1.28,24.25 3.73,35.8 10.88,51.55 44.8,94.63 90.47,117.91 2.76,1.4 5.55,2.74 8.39,3.97 -18.3,14.99 -38.56,27.75 -59.8,38.15 -86.52,42.39 -190.53,42.49 -277.15,0.3 -21.74,-10.59 -42.26,-23.69 -61.02,-38.95 -16.22,-13.2 -31.13,-27.96 -44.46,-44.07 -13.45,-16.25 -25.26,-33.84 -35.22,-52.43 -10.31,-19.27 -18.62,-39.64 -24.72,-60.63 -6.73,-23.12 -10.79,-47.02 -12.06,-71.07 -0.3,-5.76 -0.48,-11.54 -0.48,-17.31 0,-174.63 141.58,-316.2 316.22,-316.2 146.97,0 270.54,100.28 305.99,236.17 -12.04,-2.69 -24.57,-4.09 -37.44,-4.09 -59.33,0 -111.65,29.97 -142.69,75.59l0 0zm0 0z"/>
   <g>
    <path class="fil4" d="M193.62 170.24l0.94 -0.47c18.65,-9.49 40.71,-9.49 59.35,0l0.95 0.47c18.64,9.5 40.7,9.5 59.35,0l0.94 -0.47c18.65,-9.49 40.72,-9.49 59.36,0l0.94 0.47c18.65,9.5 40.72,9.5 59.36,0l0.94 -0.47c18.65,-9.49 40.72,-9.49 59.36,0l0.94 0.47c18.65,9.5 40.4,9.65 59.05,0.17 -56.68,-53.73 -133.24,-86.69 -217.49,-86.69 -81.74,0 -156.24,31.02 -212.37,81.93l9.02 4.59c18.65,9.5 40.71,9.5 59.36,0l0 0zm0 0z"/>
    <path class="fil4" d="M463.47 391.4c-18.78,27.61 -29.76,60.96 -29.76,96.86 0,12.28 1.28,24.25 3.73,35.8 -14.96,-1.84 -29.67,-6.29 -43.46,-13.3l-1.91 -0.96c-37.43,-19.06 -81.69,-19.06 -119.12,0l-1.9 0.96c-37.43,19.06 -81.72,19.06 -119.14,0l-1.88 -0.96c-34.58,-17.61 -75,-18.94 -110.46,-4.02 -9.06,-25.44 -14.77,-52.04 -17.03,-78.95 -0.65,-7.75 -1.02,-15.53 -1.11,-23.31 1.56,0.74 3.09,1.52 4.63,2.3 37.43,19.06 81.71,19.06 119.13,0l1.9 -0.96c37.42,-19.06 81.71,-19.06 119.14,0l1.88 0.96c37.43,19.06 81.71,19.06 119.14,0l1.9 -0.96c23.22,-11.83 49.08,-16.31 74.32,-13.46l0 0zm0 0z"/>
    <path class="fil4" d="M536.3 645.94c-21.57,17.67 -45.8,32.19 -71.26,43.48 -77.24,34.23 -167.91,35.55 -246.15,3.68 -26.06,-10.61 -50.68,-24.65 -73.04,-41.73 -2.65,-2.02 -5.26,-4.1 -7.84,-6.2 17.19,-5.92 35.8,-4.18 51.93,4.01 18.64,9.49 40.71,9.49 59.36,0l0.93 -0.48c18.65,-9.49 40.72,-9.49 59.36,0l0.94 0.48c18.65,9.49 40.71,9.49 59.36,0l0.94 -0.48c18.65,-9.49 40.71,-9.49 59.36,0l0.94 0.48c18.64,9.49 40.71,9.49 59.36,0 6.79,-3.45 13.96,-5.89 21.53,-6.95 3.99,-0.56 8.03,-0.74 12.06,-0.55 1.08,0.05 2.21,0.06 3.29,0.24 0.94,0.15 1.76,0.66 2.62,1.09 2.08,1.03 4.18,2.01 6.31,2.93l0 0zm0 0z"/>
   </g>
   <path class="fil5" d="M274.35 258.71c-3.68,-5.39 -10.45,-8.02 -16.79,-6.31 -6.13,1.65 -10.68,7.04 -11.33,13.35 -0.66,6.39 2.95,12.69 8.74,15.42 5.65,2.65 12.52,1.61 17.09,-2.67 5.46,-5.11 6.36,-13.57 2.29,-19.79l0 0zm0 0z"/>
   <path class="fil5" d="M686.25 424.52c2.43,5.92 8.58,9.82 14.97,9.48 6.44,-0.33 12.09,-4.74 13.96,-10.9 1.79,-5.88 -0.18,-12.47 -4.94,-16.36 -5.22,-4.26 -12.71,-4.61 -18.31,-0.9 -6.04,4.01 -8.46,11.98 -5.68,18.68l0 0zm0 0z"/>
   <path class="fil5" d="M571.96 531.64l-67.41 0c-8.49,0 -15.39,6.89 -15.39,15.39 0,8.5 6.9,15.39 15.39,15.39l67.41 0c8.5,0 15.39,-6.89 15.39,-15.39 0,-8.5 -6.89,-15.39 -15.39,-15.39l0 0zm0 0z"/>
   <path class="fil5" d="M783.11 551.28c7.04,-19.7 10.89,-40.92 10.89,-63.01 0,-51.36 -20.73,-97.97 -54.24,-131.91 -0.73,-0.9 -1.54,-1.71 -2.45,-2.43 -33.87,-33.08 -80.17,-53.5 -131.15,-53.5 -61.24,0 -115.72,29.46 -150.03,74.95 -25.61,-1.31 -51,4.07 -73.9,15.74l-1.96 0.99c-32.93,16.77 -72.25,16.76 -105.19,-0.02l-1.87 -0.94c-41.67,-21.22 -91.43,-21.22 -133.05,-0.03l-1.96 0.99c-31.63,16.12 -69.18,16.73 -101.34,1.83 0.84,-43.37 10.93,-84.52 28.35,-121.57 13.41,4.73 26.17,7.1 38.45,7.1 12.75,0 24.99,-2.55 36.9,-7.65 0.42,-0.18 0.83,-0.38 1.23,-0.6 13.59,-7.31 34.32,-15.09 55.86,-10.6 8.34,1.73 16.48,-3.6 18.21,-11.92 1.74,-8.32 -3.6,-16.47 -11.92,-18.21 -24.03,-5.02 -50.34,-0.43 -76.09,13.28 -14.74,6.16 -30.1,6.51 -47.9,1.05 13.41,-22.19 29.62,-42.51 48.11,-60.49 22.8,11.3 49.84,11.19 72.54,-0.37l0.94 -0.48c14.21,-7.24 31.18,-7.24 45.41,0.01l0.93 0.48c22.95,11.68 50.37,11.68 73.32,0l0.94 -0.49c14.22,-7.23 31.18,-7.23 45.39,0l0.94 0.49c22.96,11.68 50.37,11.68 73.31,0l0.96 -0.49c14.21,-7.23 31.18,-7.23 45.39,0l0.94 0.49c11.7,5.95 24.23,8.93 36.74,8.93 8.72,0 17.4,-1.48 25.8,-4.37 17.36,17.58 32.55,37.26 45.18,58.63 -6.64,1 -12.95,1.06 -19.19,0.14 -7.51,-1.1 -14.37,-4.07 -22.3,-7.51 -3.94,-1.7 -8.02,-3.47 -12.41,-5.1 -15.83,-5.85 -33.04,-7.75 -49.78,-5.48 -11.96,1.63 -21.7,5.82 -31.11,9.88 -3.74,1.61 -7.27,3.13 -10.89,4.47 -11.11,4.11 -23.19,5.44 -34.95,3.85 -7.64,-1.04 -15,-4.21 -22.8,-7.57 -5.59,-2.4 -11.36,-4.89 -17.8,-6.9 -18.26,-5.68 -37.71,-6.19 -56.25,-1.47 -8.24,2.1 -13.22,10.48 -11.12,18.72 2.1,8.23 10.47,13.21 18.72,11.11 13.01,-3.32 26.68,-2.96 39.5,1.04 4.89,1.52 9.69,3.59 14.77,5.77 8.92,3.85 19.03,8.2 30.84,9.8 4.59,0.62 9.22,0.93 13.85,0.93 12.22,0 24.44,-2.17 35.93,-6.42 4.37,-1.61 8.44,-3.37 12.38,-5.06 8.2,-3.54 15.29,-6.59 23.07,-7.64 11.76,-1.6 23.84,-0.27 34.95,3.84 3.61,1.34 7.13,2.86 10.86,4.48 9.11,3.95 18.53,8.03 30.09,9.72 16.52,2.41 33.48,0.36 51.84,-6.3 4.63,-1.69 8.26,-5.59 9.57,-10.36 1.57,-5.71 -0.69,-10.38 -3.3,-15.35 -6.45,-12.26 -13.67,-24.11 -21.6,-35.46 -16.06,-23 -35.03,-43.87 -56.29,-62.14 -21.55,-18.51 -45.48,-34.24 -71.04,-46.65 -24.79,-12.04 -51.09,-20.94 -78.09,-26.45 -28.56,-5.82 -57.8,-7.78 -86.89,-6.08 -3.62,0.21 -7.23,0.48 -10.84,0.81 -76.83,7.1 -148.14,40.43 -203.38,95.68 -62.64,62.63 -97.13,145.9 -97.13,234.47 0,29.56 3.95,59.17 11.77,87.68 2.19,7.97 4.48,16.02 7.47,23.74 5.5,15.39 12.13,30.42 19.85,44.85 10.41,19.45 22.83,37.95 36.92,54.98 13.8,16.67 29.35,32.11 46.23,45.88 19.71,16.16 41.46,30.01 64.38,41.17 6.71,3.26 13.55,6.31 20.46,9.13 39.75,16.19 82.14,24.26 124.52,24.26 44.32,0 88.61,-8.86 129.81,-26.48 1.6,-0.68 3.2,-1.36 4.79,-2.06 16.08,-7.18 23.44,-25.62 16.75,-41.98 -4.9,-11.98 -16.38,-19.91 -29.27,-20.2 -7.46,-0.17 -14.92,-2.05 -21.58,-5.43l-0.94 -0.49c-22.95,-11.66 -50.36,-11.66 -73.31,0.01l-0.94 0.48c-14.22,7.22 -31.19,7.22 -45.4,0l-0.94 -0.49c-22.95,-11.66 -50.36,-11.66 -73.32,0.01l-0.94 0.48c-14.21,7.23 -31.18,7.23 -45.4,0 -17.52,-8.92 -36.82,-11.4 -55.22,-7.29 -13.02,-11.2 -25.1,-23.48 -35.97,-36.61 -12.78,-15.46 -24.05,-32.24 -33.49,-49.89 -4.63,-8.64 -8.81,-17.52 -12.57,-26.58 27.73,-7.66 57.4,-4.81 83.39,8.43l1.87 0.95c20.85,10.61 43.71,15.92 66.57,15.92 22.85,0 45.69,-5.3 66.49,-15.9l1.95 -0.98c31.86,-16.22 68.74,-16.93 101.18,-1.93 7.72,3.56 16.86,0.19 20.42,-7.52 3.57,-7.72 0.21,-16.86 -7.51,-20.43 -41.06,-18.97 -87.74,-18.08 -128,2.42l-1.95 0.98c-32.93,16.78 -72.25,16.78 -105.19,0l-1.87 -0.95c-33.56,-17.09 -72,-20.55 -107.7,-10.08 -5.69,-19.04 -9.45,-38.65 -11.24,-58.44 37.23,12.73 78.6,10.05 114.04,-8l1.95 -0.99c32.94,-16.77 72.25,-16.77 105.2,0.01l1.86 0.95c41.68,21.22 91.44,21.22 133.05,0.03l1.96 -0.99c12.88,-6.56 26.73,-10.6 40.92,-12.03 -0.77,1.58 -1.52,3.17 -2.24,4.77 -0.41,0.75 -0.75,1.54 -1.03,2.35 -9.94,22.87 -15.46,48.1 -15.46,74.6 0,50.66 20.17,96.69 52.89,130.51 0.63,0.79 1.34,1.52 2.11,2.17 34.02,34.06 81.01,55.16 132.84,55.16 80.76,0 149.78,-51.24 176.26,-122.91 0.28,-0.62 0.51,-1.25 0.7,-1.92l-0.01 0zm-280.08 -394.75l-0.94 -0.48c-22.95,-11.69 -50.36,-11.68 -73.31,-0.01l-0.95 0.49c-14.21,7.23 -31.19,7.23 -45.4,-0.01l-0.94 -0.47c-22.95,-11.69 -50.36,-11.69 -73.32,0l-0.94 0.48c-14.21,7.23 -31.18,7.24 -45.41,-0.01l-0.92 -0.47c-22.96,-11.69 -50.36,-11.69 -73.32,0l-0.94 0.47c0,0.01 -0.01,0.01 -0.01,0.01 -9.86,5.02 -21.05,6.55 -31.73,4.6 31.49,-24.15 67.86,-42.23 107.37,-52.46 24.78,-6.39 50.36,-9.61 75.94,-9.55 7.04,0.02 14.08,0.28 21.1,0.78 48.95,3.51 96.2,18.87 137.81,44.95 5.72,3.58 11.3,7.35 16.74,11.29 0.18,0.13 0.36,0.26 0.53,0.39 2.41,1.75 4.78,3.54 7.14,5.36 -6.32,-0.56 -12.58,-2.35 -18.5,-5.36l0 0zm-246.75 506.37l0.93 -0.48c14.21,-7.22 31.19,-7.22 45.4,0l0.94 0.48c22.95,11.67 50.36,11.67 73.32,0l0.93 -0.48c14.21,-7.22 31.19,-7.22 45.41,0l0.93 0.48c10.74,5.47 22.79,8.5 34.85,8.77 0.62,0.02 1.21,0.44 1.47,1.08 0.36,0.86 -0.01,1.87 -0.78,2.21l-0.87 0.38c-1.08,0.48 -2.17,0.93 -3.25,1.39 -73.92,31.42 -160.01,31.52 -233.86,0.84 -1.13,-0.47 -2.25,-0.95 -3.38,-1.44 -1.28,-0.55 -2.58,-1.11 -3.86,-1.68 -2.82,-1.27 -5.62,-2.57 -8.4,-3.92 16.93,2.86 34.61,0.32 50.22,-7.63l0 0zm349.88 -17.58c-28.37,0 -55,-7.56 -78,-20.77l96.88 0c8.5,0 15.39,-6.89 15.39,-15.39 0,-8.5 -6.89,-15.39 -15.39,-15.39l-135.13 0c-25.34,-27.9 -40.81,-64.93 -40.81,-105.5 0,-19.03 3.41,-37.27 9.63,-54.17l179.44 0c8.5,0 15.39,-6.88 15.39,-15.39 0,-8.49 -6.89,-15.39 -15.39,-15.39l-164.06 0c27.98,-43.35 76.72,-72.11 132.05,-72.11 27.36,0 53.1,7.03 75.53,19.39l-75.53 0c-8.5,0 -15.39,6.89 -15.39,15.39 0,8.49 6.89,15.39 15.39,15.39l114.96 0c22.19,23.84 37.06,54.58 41.03,88.59l-224.52 0c-8.5,0 -15.4,6.89 -15.4,15.39 0,8.5 6.9,15.39 15.4,15.39l225.1 0c-0.85,10.63 -2.74,20.96 -5.61,30.89l-129.62 0c-8.5,0 -15.39,6.89 -15.39,15.39 0,8.5 6.89,15.39 15.39,15.39l117.08 0c-26.52,49.31 -78.62,82.9 -138.42,82.9l0 0zm0 0z"/>
  </g>
 </g>
</svg>
