<?xml version="1.0" encoding="UTF-8"?>
<!DOCTYPE svg PUBLIC "-//W3C//DTD SVG 1.1//EN" "http://www.w3.org/Graphics/SVG/1.1/DTD/svg11.dtd">
<!-- Creator: CorelDRAW 2019 (64 Bit) -->
<svg xmlns="http://www.w3.org/2000/svg" xml:space="preserve" width="800px" height="800px" version="1.1" style="shape-rendering:geometricPrecision; text-rendering:geometricPrecision; image-rendering:optimizeQuality; fill-rule:evenodd; clip-rule:evenodd"
viewBox="0 0 800 800"
 xmlns:xlink="http://www.w3.org/1999/xlink">
 <defs>
  <style type="text/css">
   <![CDATA[
    .fil3 {fill:#4D007E}
    .fil0 {fill:#62089E}
    .fil1 {fill:#701CB2}
    .fil2 {fill:#8B3FD3}
   ]]>
  </style>
 </defs>
 <g id="Camada_x0020_1">
  <metadata id="CorelCorpID_0Corel-Layer"/>
  <g id="_2781084730240">
   <circle class="fil0" cx="400" cy="400" r="386.67"/>
   <circle class="fil1" cx="333.33" cy="333.33" r="240"/>
   <circle class="fil2" cx="333.33" cy="333.33" r="146.67"/>
   <g>
    <path class="fil3" d="M400 800c-220.56,0 -400,-179.44 -400,-400 0,-220.56 179.44,-400 400,-400 220.56,0 400,179.44 400,400 0,220.56 -179.44,400 -400,400zm0 -773.33c-205.85,0 -373.33,167.48 -373.33,373.33 0,205.85 167.48,373.33 373.33,373.33 205.85,0 373.33,-167.48 373.33,-373.33 0,-205.85 -167.48,-373.33 -373.33,-373.33z"/>
    <path class="fil3" d="M146.65 573.33c-6.41,0 -12.06,-4.64 -13.14,-11.16 -1.2,-7.26 3.72,-14.13 10.98,-15.32 65.05,-10.72 110.51,-31.14 138.96,-62.48 4.96,-5.45 13.39,-5.85 18.84,-0.9 5.46,4.96 5.86,13.38 0.91,18.84 -32.65,35.95 -83.15,59.13 -154.38,70.85 -0.73,0.12 -1.45,0.17 -2.17,0.17z"/>
    <path class="fil3" d="M320 426.67c-1.73,0 -3.49,-0.35 -5.19,-1.07 -6.78,-2.87 -9.96,-10.69 -7.08,-17.48 16.22,-38.33 8.12,-84.76 -0.74,-125.28 -1.58,-7.2 2.98,-14.31 10.17,-15.88 7.2,-1.57 14.29,2.99 15.87,10.17 9.74,44.54 18.52,95.84 -0.75,141.39 -2.15,5.09 -7.09,8.15 -12.28,8.15z"/>
    <path class="fil3" d="M293.33 213.33c-5.06,0 -9.92,-2.92 -12.14,-7.84 -19.11,-42.18 -45.38,-86.53 -80.28,-135.58 -4.27,-6 -2.87,-14.34 3.13,-18.6 5.99,-4.27 14.32,-2.87 18.6,3.13 35.92,50.48 63.03,96.29 82.85,140.05 3.04,6.71 0.07,14.62 -6.64,17.65 -1.8,0.82 -3.66,1.19 -5.52,1.19z"/>
    <path class="fil3" d="M152.93 475.81c-16.72,0 -33.29,-4.14 -48.42,-12.29 -24.1,-12.97 -41.68,-34.55 -49.55,-60.76 -6.49,-21.64 -4.17,-44.52 6.55,-64.43 10.72,-19.89 28.53,-34.42 50.18,-40.92 18,-5.4 37.03,-3.46 53.58,5.44 16.54,8.91 28.62,23.74 34.02,41.74 4.52,15.08 2.91,31.01 -4.56,44.88 -7.46,13.86 -19.88,23.98 -34.96,28.52 -26.33,7.89 -54.14,-7.1 -62.04,-33.42 -2.12,-7.05 1.88,-14.48 8.94,-16.6 7.05,-2.08 14.49,1.89 16.6,8.95 3.66,12.22 16.58,19.17 28.84,15.52 8.25,-2.48 15.05,-8.03 19.14,-15.62 4.1,-7.58 4.98,-16.32 2.5,-24.57 -3.35,-11.17 -10.86,-20.38 -21.14,-25.9 -10.26,-5.54 -22.08,-6.74 -33.26,-3.38 -14.83,4.44 -27.03,14.4 -34.36,28.03 -7.33,13.62 -8.94,29.29 -4.48,44.12 5.81,19.38 18.82,35.35 36.65,44.93 17.82,9.6 38.31,11.68 57.68,5.85 24.03,-7.21 45.11,-26.69 57.84,-53.47 12.64,-26.62 15.52,-56.46 7.89,-81.92 -9.32,-31.08 -33.77,-58.2 -67.06,-74.42 -33.03,-16.07 -70.56,-19.72 -103,-9.99 -7.04,2.1 -14.48,-1.87 -16.6,-8.94 -2.12,-7.06 1.88,-14.48 8.93,-16.6 82.87,-24.86 179.75,23.89 203.27,102.28 9.5,31.69 6.1,68.52 -9.35,101.01 -15.96,33.59 -43.03,58.22 -74.27,67.59 -9.73,2.92 -19.68,4.37 -29.56,4.37z"/>
    <path class="fil3" d="M640.01 453.33c-1.26,0 -2.55,-0.18 -3.84,-0.56 -26.77,-8.04 -48.72,-16.82 -69.09,-27.66 -6.51,-3.47 -8.96,-11.54 -5.51,-18.04 3.46,-6.5 11.54,-8.96 18.04,-5.51 18.79,10 39.19,18.15 64.24,25.67 7.06,2.12 11.06,9.54 8.94,16.61 -1.75,5.77 -7.04,9.49 -12.78,9.49z"/>
    <path class="fil3" d="M520 386.67c-2.96,0 -5.93,-0.99 -8.41,-3 -39.16,-31.9 -76.06,-64.42 -97.1,-111.58 -3,-6.72 0.02,-14.6 6.75,-17.6 6.72,-3.02 14.6,0.02 17.6,6.75 18.68,41.86 51.61,70.84 89.57,101.76 5.71,4.65 6.57,13.05 1.92,18.76 -2.62,3.23 -6.46,4.91 -10.33,4.91z"/>
    <path class="fil3" d="M399.99 200c-6.2,0 -11.76,-4.35 -13.06,-10.67 -5.89,-28.84 -3.67,-55.44 -1.32,-83.6l1.1 -13.41c0.56,-7.35 6.89,-12.92 14.3,-12.28 7.35,0.56 12.84,6.96 12.28,14.31l-1.1 13.61c-2.19,26.2 -4.26,50.93 0.86,76.04 1.47,7.21 -3.18,14.25 -10.4,15.73 -0.88,0.19 -1.78,0.27 -2.66,0.27z"/>
    <path class="fil3" d="M355.67 797.49c-1.83,0 -3.7,-0.38 -5.47,-1.18 -6.71,-3.03 -9.71,-10.92 -6.68,-17.63 38.39,-85.17 92.56,-142.84 156.67,-166.77 60.37,-22.55 129.7,-16.08 206.04,19.17 6.68,3.08 9.6,11.01 6.51,17.69 -3.1,6.7 -11.02,9.62 -17.7,6.51 -69.64,-32.16 -132.05,-38.36 -185.53,-18.38 -72.39,27.02 -117,97.98 -141.68,152.74 -2.22,4.92 -7.08,7.85 -12.16,7.85z"/>
    <path class="fil3" d="M480 186.65c-0.01,0 -0.03,0 -0.03,0 -7.34,-0.02 -13.3,-5.97 -13.3,-13.32 0,-2.81 0.6,-69.74 52.78,-145.04 4.2,-6.04 12.51,-7.55 18.56,-3.36 6.06,4.19 7.56,12.51 3.36,18.56 -47.16,68.03 -48.04,129.27 -48.04,129.87 -0.04,7.35 -6,13.29 -13.33,13.29z"/>
    <path class="fil3" d="M754.03 413.96c-111.28,0 -162.54,-69.61 -164.86,-72.85 -4.29,-5.99 -2.9,-14.32 3.07,-18.62 5.99,-4.28 14.28,-2.9 18.59,3.04 2.29,3.15 55.49,74.12 174.09,59.87 7.27,-0.87 13.95,4.33 14.83,11.65 0.88,7.32 -4.34,13.95 -11.66,14.83 -11.93,1.43 -23.28,2.08 -34.06,2.08z"/>
    <path class="fil3" d="M533.32 560c-2,0 -4.04,-0.45 -5.95,-1.4 -6.58,-3.29 -9.25,-11.31 -5.96,-17.89 0.63,-1.26 15.79,-30.84 53.65,-42.55 35.14,-10.87 77.09,-2.95 124.75,23.53 6.43,3.58 8.76,11.7 5.18,18.13 -3.58,6.43 -11.68,8.76 -18.14,5.18 -41.05,-22.8 -76.01,-29.96 -103.92,-21.36 -26.66,8.25 -37.57,28.8 -37.68,29 -2.33,4.67 -7.04,7.36 -11.93,7.36z"/>
    <path class="fil3" d="M266.16 647.19c-4.79,0 -9.42,-2.59 -11.8,-7.12 -3.43,-6.53 -0.93,-14.59 5.57,-18.02 37.28,-19.64 79.55,-31.53 125.64,-35.35 7.26,-0.61 13.78,4.84 14.39,12.19 0.61,7.35 -4.85,13.79 -12.19,14.39 -42.49,3.5 -81.32,14.4 -115.4,32.36 -1.98,1.05 -4.12,1.55 -6.21,1.55z"/>
    <path class="fil3" d="M188.25 720.49l-12.28 -5.32 -11.13 -7.42c7.01,-12.9 13.63,-25.07 25.73,-37.19 5.2,-5.21 13.66,-5.2 18.86,0 5.21,5.21 5.21,13.65 0,18.87 -9.38,9.38 -14.59,18.94 -21.18,31.06zm-12.28 -5.32l0.14 0 -0.14 0z"/>
    <path class="fil3" d="M414.79 520c-4.54,0 -8.95,-2.31 -11.44,-6.47 -3.79,-6.32 -1.75,-14.5 4.57,-18.29 18.07,-10.84 28.61,-23.43 31.36,-37.43 3.8,-19.4 -8.37,-36.3 -8.49,-36.47 -4.43,-5.89 -3.23,-14.25 2.66,-18.66 5.92,-4.44 14.26,-3.22 18.67,2.66 0.8,1.07 19.45,26.39 13.33,57.6 -4.25,21.71 -18.98,40.28 -43.8,55.16 -2.17,1.29 -4.53,1.9 -6.86,1.9z"/>
    <path class="fil3" d="M713.97 283.57c-51.05,0 -88.85,-14.57 -112.69,-43.56 -52.27,-63.53 -15.45,-170.88 -13.85,-175.42 2.44,-6.95 10.04,-10.63 16.97,-8.16 6.95,2.42 10.6,10.02 8.19,16.98 -0.34,0.98 -33.44,97.83 9.33,149.71 24.47,29.69 70.31,39.88 136.17,30.35 7.31,-1.03 14.05,4 15.11,11.28 1.05,7.29 -4,14.05 -11.28,15.1 -17.09,2.48 -33.09,3.72 -47.95,3.72z"/>
   </g>
   <g>
   </g>
   <g>
   </g>
   <g>
   </g>
   <g>
   </g>
   <g>
   </g>
   <g>
   </g>
   <g>
   </g>
   <g>
   </g>
   <g>
   </g>
   <g>
   </g>
   <g>
   </g>
   <g>
   </g>
   <g>
   </g>
   <g>
   </g>
   <g>
   </g>
  </g>
 </g>
</svg>
