<?xml version="1.0" encoding="UTF-8"?>
<!DOCTYPE svg PUBLIC "-//W3C//DTD SVG 1.1//EN" "http://www.w3.org/Graphics/SVG/1.1/DTD/svg11.dtd">
<!-- Creator: CorelDRAW 2019 (64 Bit) -->
<svg xmlns="http://www.w3.org/2000/svg" xml:space="preserve" width="800px" height="800px" version="1.1" style="shape-rendering:geometricPrecision; text-rendering:geometricPrecision; image-rendering:optimizeQuality; fill-rule:evenodd; clip-rule:evenodd"
viewBox="0 0 800 800"
 xmlns:xlink="http://www.w3.org/1999/xlink">
 <defs>
  <style type="text/css">
   <![CDATA[
    .fil7 {fill:black}
    .fil6 {fill:#454545}
    .fil4 {fill:#59C2E8}
    .fil3 {fill:#91D4F2}
    .fil1 {fill:#B18CD9}
    .fil2 {fill:#C2EAFB}
    .fil0 {fill:#C7AEE4}
    .fil5 {fill:#F9EE80}
   ]]>
  </style>
 </defs>
 <g id="Camada_x0020_1">
  <metadata id="CorelCorpID_0Corel-Layer"/>
  <g id="_2781070882224">
   <path class="fil0" d="M532.31 579.45c-67.57,67.57 -141.43,121.31 -207.96,151.32 -74.26,33.5 -133.27,33.83 -166.17,0.94 -32.89,-32.9 -32.56,-91.91 0.94,-166.17 30.01,-66.53 83.76,-140.39 151.33,-207.95 67.57,-67.58 141.42,-121.32 207.95,-151.33 74.26,-33.5 133.27,-33.83 166.17,-0.94 32.89,32.9 32.56,91.91 -0.93,166.17 -30.02,66.53 -83.76,140.39 -151.33,207.96l0 0zm-185.28 -185.28c-63.25,63.26 -113.24,131.67 -140.74,192.65 -22.98,50.93 -27.39,92.43 -11.52,108.3 15.87,15.87 57.38,11.46 108.31,-11.51 60.97,-27.51 129.38,-77.5 192.64,-140.75 63.26,-63.26 113.24,-131.67 140.75,-192.65 22.97,-50.93 27.38,-92.43 11.51,-108.3 -15.87,-15.87 -57.37,-11.46 -108.3,11.51 -60.97,27.51 -129.39,77.49 -192.65,140.75zm0 0z"/>
   <path class="fil1" d="M194.77 695.12c0.01,0 0.01,0 0,0 -15.87,-15.87 -11.46,-57.38 11.52,-108.31 27.5,-60.97 77.49,-129.38 140.74,-192.64 63.26,-63.26 131.68,-113.25 192.65,-140.75 50.89,-22.96 92.37,-27.38 108.27,-11.54 -0.65,-0.64 -32.48,-31.79 -95.75,-48.95 -10.86,3.63 -22.14,8.07 -33.8,13.33 -66.53,30 -140.38,83.75 -207.95,151.32 -67.57,67.57 -121.32,141.43 -151.33,207.96 0,0 -14.37,84.34 35.65,129.58l0 0zm0 0z"/>
   <path class="fil2" d="M684.89 468.51c0,145.53 -117.98,263.51 -263.51,263.51 -145.53,0 -263.51,-117.98 -263.51,-263.51 0,-145.53 117.98,-263.51 263.51,-263.51 145.53,0 263.51,117.98 263.51,263.51zm0 0z"/>
   <path class="fil3" d="M607.71 654.85c14.05,-14.05 26.18,-29.29 36.39,-45.4 -8.66,-14.67 -15.04,-36.13 -14.32,-67.46 2.08,-90.49 0,-118.89 0,-118.89 0,0 -105.09,132.83 -105.85,134.66 -187.3,83.56 -302.27,1.16 -366,-83.42 1.44,65.48 27.15,130.53 77.12,180.5 102.91,102.91 269.75,102.91 372.66,0.01l0 0zm0 0z"/>
   <path class="fil4" d="M601.62 468.51c0,23.88 -19.35,43.23 -43.22,43.23 -23.89,0 -43.24,-19.35 -43.24,-43.23 0,-23.87 19.35,-43.22 43.24,-43.22 23.87,0 43.22,19.35 43.22,43.22zm0 0z"/>
   <path class="fil0" d="M655.45 292.33c-2.98,16.85 -9.35,36.53 -18.98,57.88 -27.51,60.98 -77.49,129.39 -140.75,192.65 -63.26,63.25 -131.67,113.24 -192.64,140.75 -19.68,8.87 -37.92,14.97 -53.85,18.2l42.04 42.04c10.64,-3.58 21.68,-7.94 33.08,-13.08 66.53,-30.01 140.39,-83.76 207.96,-151.33 67.57,-67.57 121.31,-141.42 151.33,-207.95 5.73,-12.71 10.48,-24.95 14.27,-36.7l-42.46 -42.46zm0 0z"/>
   <path class="fil4" d="M470.56 209.6c-61.87,-11.69 -127.12,-1.1 -182.87,31.76 4.35,14.08 12.07,27.34 23.21,38.48 36.55,36.55 95.8,36.55 132.34,0 19.31,-19.3 28.41,-44.95 27.32,-70.24zm0 0z"/>
   <path class="fil4" d="M531.18 636.54c-26.77,17.68 -35.57,52.35 -21.6,80.35 35.84,-12.7 69.46,-33.39 98.14,-62.05 2.07,-2.08 4.09,-4.17 6.08,-6.29 -20.22,-24.1 -55.74,-29.75 -82.62,-12.01l0 0zm0 0z"/>
   <path class="fil5" d="M136.12 349.33l9.3 17c9.28,16.97 23.23,30.91 40.19,40.19l17.01 9.31c17.4,9.52 17.4,34.51 0,44.03l-17.01 9.3c-16.97,9.28 -30.91,23.23 -40.19,40.19l-9.3 17.01c-9.52,17.4 -34.52,17.4 -44.04,0l-9.3 -17.01c-9.28,-16.96 -23.22,-30.91 -40.19,-40.19l-17.01 -9.3c-17.4,-9.52 -17.4,-34.51 0,-44.03l17.01 -9.31c16.97,-9.28 30.91,-23.22 40.19,-40.19l9.3 -17c9.52,-17.41 34.52,-17.41 44.04,0zm0 0z"/>
   <path class="fil5" d="M736.47 52.27l5.97 10.9c5.95,10.88 14.89,19.81 25.76,25.76l10.9 5.97c11.16,6.1 11.16,22.13 0,28.22l-10.9 5.97c-10.88,5.95 -19.81,14.89 -25.76,25.76l-5.97 10.9c-6.09,11.16 -22.12,11.16 -28.22,0l-5.96 -10.9c-5.95,-10.87 -14.9,-19.81 -25.77,-25.76l-10.9 -5.97c-11.16,-6.1 -11.16,-22.13 0,-28.22l10.9 -5.97c10.87,-5.95 19.82,-14.89 25.77,-25.76l5.96 -10.9c6.1,-11.16 22.12,-11.16 28.22,0zm0 0z"/>
   <path class="fil6" d="M405.41 419.4c-11.67,-11.67 -28.54,-13.7 -37.7,-4.55 -9.15,9.16 -7.12,26.03 4.55,37.7 11.66,11.66 28.53,13.7 37.69,4.54 9.16,-9.15 7.12,-26.03 -4.54,-37.69zm0 0z"/>
   <path class="fil7" d="M448.71 343.03c-4.56,-4.57 -11.96,-4.57 -16.53,0 -4.57,4.56 -4.57,11.97 0,16.54l13.73 13.73c4.56,4.56 11.96,4.56 16.53,0 4.57,-4.57 4.57,-11.98 0,-16.55l-13.73 -13.72zm0 0z"/>
   <path class="fil7" d="M312.43 479.32c-4.57,-4.57 -11.97,-4.57 -16.54,0 -4.57,4.56 -4.57,11.96 0,16.53l13.73 13.73c4.57,4.57 11.97,4.57 16.54,0 4.56,-4.57 4.56,-11.97 0,-16.53l-13.73 -13.73zm0 0z"/>
   <path class="fil7" d="M676.3 213.59c9.62,9.62 16.02,22.1 19.01,37.07 1.11,5.56 5.17,10.32 13.76,9.18 6.4,-0.86 10.44,-7.43 9.17,-13.76 -3.91,-19.59 -11.37,-37.26 -25.4,-49.03 -73.44,-61.59 -190.51,3.78 -196.22,6.64 -24.17,-6.84 -49.43,-10.38 -75.24,-10.38 -73.52,0 -142.62,28.62 -194.61,80.6 -27.98,28 -49.63,61.79 -63.35,98.62 -2.87,-3.71 -5.47,-7.65 -7.74,-11.81l-9.31 -17.01c-6.54,-11.98 -18.61,-19.13 -32.27,-19.13 -13.66,0 -25.73,7.15 -32.28,19.13 0,0 -9.78,21.76 -21.72,34.4 -4.44,4.7 -4.02,12.17 0.74,16.53 4.78,4.35 12.02,3.88 16.53,-0.75 16.76,-17.24 24.97,-38.95 24.97,-38.95 2.39,-4.37 6.78,-6.98 11.76,-6.97 4.98,0 9.37,2.6 11.75,6.97l9.31 17c10.37,18.97 25.87,34.47 44.83,44.84l17.02 9.3c4.36,2.39 6.96,6.79 6.96,11.76 0,4.98 -2.6,9.37 -6.96,11.76l-17.02 9.3c-18.96,10.37 -34.46,25.88 -44.83,44.84l-9.31 17.01c-2.38,4.36 -6.77,6.97 -11.75,6.97 -4.98,0 -9.37,-2.61 -11.76,-6.97l-9.3 -17.01c-10.37,-18.96 -25.88,-34.47 -44.84,-44.84l-17.01 -9.3c-4.36,-2.39 -6.97,-6.78 -6.97,-11.76 0,-4.97 2.61,-9.37 6.97,-11.76 5.67,-3.1 7.75,-10.2 4.65,-15.87 -3.1,-5.66 -10.2,-7.75 -15.87,-4.65 -11.98,6.56 -19.13,18.62 -19.13,32.28 0,13.66 7.15,25.73 19.13,32.28l17.01 9.3c15.03,8.22 27.31,20.51 35.54,35.54l9.3 17.01c6.55,11.98 18.62,19.14 32.28,19.13 13.66,0 25.73,-7.15 32.27,-19.13l5.15 -9.41c1.43,7.09 3.13,14.11 5.11,21.04 -2.89,5.75 -5.63,11.5 -8.17,17.13 -35.64,79.01 -35.12,142.67 1.45,179.25 18.54,18.54 44.04,27.81 74.96,27.81 30.1,0 88.03,-14.03 121.35,-34.49 24.79,7.01 158.2,41.38 269.75,-70.18 70.91,-70.92 97.43,-173.63 70.18,-269.75 2.87,-5.74 24.42,-46.48 31.96,-91.64 1.07,-6.37 -3.25,-12.4 -9.62,-13.45 -6.36,-1.07 -12.39,3.25 -13.45,9.62 -3.47,20.87 -10.89,44.01 -22.07,68.78 -29.44,65.28 -82.33,137.9 -148.93,204.49 -66.6,66.6 -139.22,119.49 -204.5,148.94 -69.51,31.36 -123.87,32.54 -153.08,3.33 -28.54,-28.54 -28.06,-81.1 1.22,-148.33 4.91,11.69 10.63,23.03 17.12,33.95 -15.45,44.37 -14.91,77.72 1.7,94.33 8.64,8.63 21.8,12.92 38.58,12.91 22.05,0 50.35,-7.39 82.8,-22.03 62.23,-28.07 131.88,-78.92 196.11,-143.14 64.23,-64.24 115.07,-133.88 143.14,-196.11 25.77,-57.15 29.1,-101.4 9.12,-121.38 -16.58,-16.58 -49.88,-17.15 -94.17,-1.77 -10.91,-6.51 -22.24,-12.23 -33.91,-17.14 67.13,-29.19 119.62,-29.64 148.13,-1.13l0 -0.01zm-138.68 432.72c18.65,-12.31 42.66,-10.91 59.61,2.4 -23.69,23.12 -51.22,40.95 -80.9,53.04 -5.39,-20.73 2.78,-43.23 21.29,-55.44zm2.96 -58.6c52.68,-52.68 97.11,-109.22 128.74,-163.35 13.21,73.92 -7.14,149.73 -56.08,207.21 -24.79,-20.58 -60.73,-23.12 -88.51,-4.78 -27.56,18.19 -39.4,52.02 -30.51,82.76 -37.49,11.33 -77.53,13.9 -116.98,6.89 54.13,-31.63 110.66,-76.05 163.34,-128.73l0 0zm-81.86 -368.28c-1.39,19.56 -9.77,38.18 -23.74,52.14 -31.93,31.93 -83.88,31.93 -115.8,0 -7.31,-7.3 -13.01,-15.68 -17.07,-24.96 36.23,-19.54 90.77,-36.24 156.61,-27.18zm-255.68 467.42c-8.4,-8.4 -7.15,-29.88 -1.36,-52.63 7.65,10.16 28.81,35.36 54.06,54.08 -27.74,7.15 -46.03,5.22 -52.7,-1.45zm333.05 -240.64c8.93,-9.07 22.36,-11.49 33.73,-7.09 -11.48,15.69 -24.02,31.47 -37.5,47.13 -3.54,-5.19 -10.39,-25.64 3.77,-40.04l0 0zm47.43 -26.54c-20.83,-10.7 -47.01,-7.16 -63.96,10.01 -27.64,27.97 -11.47,64.48 -3.01,74.4 -9.33,10.26 -19.09,20.39 -29.1,30.51 -108.43,109.62 -199.28,142.76 -204.05,144.63 -14.37,-9.43 -27.83,-20.39 -40.08,-32.64 -62.62,-62.62 -70.8,-136.57 -72.39,-151.97 5.97,-5.97 12.79,-11.08 20.29,-15.19l17.01 -9.3c11.98,-6.55 19.13,-18.62 19.13,-32.28 0,-13.66 -7.15,-25.72 -19.13,-32.28l-17.01 -9.3c-3.23,-1.76 -6.32,-3.73 -9.29,-5.86 12.21,-37.47 33.32,-71.89 61.39,-99.95 11.94,-11.95 24.89,-22.54 38.63,-31.72 5.16,10.86 12.16,20.85 20.69,29.38 19.88,19.89 46.32,30.83 74.44,30.83 28.11,0 54.55,-10.95 74.44,-30.83 17.26,-17.27 27.88,-40.07 30.27,-64.15 44.17,10.83 84.68,33.52 117.65,66.49 12.25,12.25 23.2,25.73 32.64,40.09 -7.57,24.69 -31.31,63.71 -48.56,89.13l0 0zm56.19 -169.49c6.67,6.67 8.61,24.96 1.46,52.69 -18.19,-24.38 -44.02,-46.51 -54.16,-54.18 29.52,-7.68 46.61,-4.6 52.7,1.49zm0 0z"/>
   <path class="fil7" d="M784.71 84.63l-10.9 -5.96c-8.93,-4.88 -16.23,-12.19 -21.11,-21.11l-5.96 -10.9 0 -0.01c-4.88,-8.91 -14.22,-14.44 -24.39,-14.44 -10.16,0 -19.49,5.53 -24.36,14.45l-5.97 10.9c-4.88,8.92 -12.19,16.23 -21.11,21.11l-10.91 5.96c-8.91,4.88 -14.44,14.22 -14.44,24.38 -0.01,10.16 5.53,19.5 14.44,24.37l10.91 5.97c8.92,4.88 16.23,12.19 21.11,21.11l5.97 10.9c4.87,8.92 14.21,14.45 24.36,14.45l0.01 0c10.16,0 19.5,-5.53 24.38,-14.44l5.96 -10.91c4.88,-8.92 12.18,-16.23 21.11,-21.11l10.9 -5.97c8.92,-4.87 14.45,-14.21 14.45,-24.37 0,-10.16 -5.53,-19.5 -14.45,-24.38zm-11.22 28.24l-10.9 5.96c-12.86,7.03 -23.38,17.55 -30.41,30.41l-5.96 10.9c-1.09,1.99 -2.89,2.29 -3.86,2.29 -0.97,0 -2.76,-0.3 -3.86,-2.29l-5.96 -10.9c-7.03,-12.86 -17.55,-23.38 -30.41,-30.41l-10.9 -5.96c-1.99,-1.09 -2.29,-2.89 -2.29,-3.86 0,-0.97 0.3,-2.76 2.29,-3.86l10.9 -5.96c12.86,-7.03 23.38,-17.55 30.41,-30.41l5.96 -10.9c1.09,-1.99 2.89,-2.29 3.86,-2.29 0.97,0 2.77,0.3 3.86,2.29l5.96 10.9c7.03,12.86 17.55,23.38 30.41,30.41l10.9 5.96c1.99,1.1 2.29,2.89 2.29,3.86 0,0.97 -0.3,2.77 -2.29,3.86l0 0zm0 0z"/>
   <path class="fil7" d="M413.68 411.12c-16.2,-16.2 -40.53,-18.23 -54.23,-4.53 -13.71,13.69 -11.67,38.02 4.54,54.23 7.48,7.48 16.95,12.25 26.66,13.42 1.52,0.18 3.03,0.28 4.52,0.28 8.9,0 17.13,-3.23 23.05,-9.16 6.92,-6.92 10.16,-16.97 8.88,-27.57 -1.17,-9.71 -5.93,-19.18 -13.42,-26.67zm-11.99 37.7c-3.93,3.94 -13.58,3.03 -21.16,-4.54 -7.57,-7.57 -8.47,-17.23 -4.55,-21.16 1.5,-1.49 3.81,-2.28 6.53,-2.28 4.43,0 9.94,2.12 14.63,6.83 7.57,7.57 8.48,17.22 4.55,21.15zm0 0z"/>
  </g>
 </g>
</svg>
