<?xml version="1.0" encoding="UTF-8"?>
<!DOCTYPE svg PUBLIC "-//W3C//DTD SVG 1.1//EN" "http://www.w3.org/Graphics/SVG/1.1/DTD/svg11.dtd">
<!-- Creator: CorelDRAW 2019 (64 Bit) -->
<svg xmlns="http://www.w3.org/2000/svg" xml:space="preserve" width="800px" height="800px" version="1.1" style="shape-rendering:geometricPrecision; text-rendering:geometricPrecision; image-rendering:optimizeQuality; fill-rule:evenodd; clip-rule:evenodd"
viewBox="0 0 800 800"
 xmlns:xlink="http://www.w3.org/1999/xlink">
 <defs>
  <style type="text/css">
   <![CDATA[
    .str0 {stroke:white;stroke-width:2.36;stroke-miterlimit:22.9256}
    .fil0 {fill:white}
    .fil4 {fill:black}
    .fil1 {fill:#78D2FA}
    .fil3 {fill:#A5DC69}
    .fil2 {fill:white}
   ]]>
  </style>
 </defs>
 <g id="Camada_x0020_1">
  <metadata id="CorelCorpID_0Corel-Layer"/>
  <circle class="fil0 str0" cx="400" cy="400" r="400"/>
  <g id="_2781081002016">
   <path class="fil1" d="M732.86 207.94c-58.62,-101.54 -156.59,-166.18 -263.53,-185.83 -41.94,7.74 -83.3,22.63 -122.35,45.17 -183.8,106.11 -246.77,341.14 -140.65,524.93 58.62,101.54 156.59,166.18 263.53,185.83 41.94,-7.75 83.3,-22.63 122.35,-45.17 183.8,-106.12 246.77,-341.14 140.65,-524.93z"/>
   <path class="fil2" d="M440.48 515.25c5.48,-16.96 10.34,-28.46 2.67,-46.85 -4.01,-9.59 -15.57,-16.02 -18.11,-26.47 -2.93,-12.07 2.92,-21.81 -8.14,-32.16 -15,-14.05 -32.76,-3.41 -49.7,-1.42 -60.98,7.17 -99.78,-54.09 -74.57,-107.46 6.87,-14.54 17.48,-25.09 28.03,-37.24 1.43,-1.65 3.04,-3.77 4.77,-6.16 -14.1,0.5 -30.79,1.25 -40.77,6.87 -9.4,5.29 -22.04,27.27 -29.62,36 -10.55,12.15 -21.16,22.7 -28.03,37.25 -25.21,53.36 13.59,114.62 74.58,107.46 16.93,-1.99 34.69,-12.64 49.69,1.41 11.06,10.35 5.21,20.09 8.14,32.17 2.54,10.45 14.11,16.87 18.11,26.46 7.68,18.4 2.82,29.9 -2.67,46.86 -7.19,22.26 11.41,48.68 18.65,70.16 3.64,10.82 14.26,41.11 24.69,45.84 16.39,7.46 42.09,-14.89 51.88,-26.91 4.51,-5.55 5.49,-11.14 6.59,-16.6 -7.8,-10.86 -14.74,-30.72 -17.54,-39.04 -7.24,-21.48 -25.84,-47.91 -18.65,-70.17z"/>
   <g>
    <path class="fil3" d="M496.87 588.65c4.2,-13.23 8.57,-16.53 17.44,-26.18 14.29,-15.55 12.07,-24.64 6.36,-43.07 -11.87,-38.29 31.24,-56.19 50.65,-84.3 20.28,-29.35 -18.91,-19.56 -34.27,-29.6 -15.79,-10.33 -22.7,-29.94 -30.31,-46.21 -7.61,-16.26 -13.91,-40.7 -26.51,-54.06 -9.71,-10.29 -39.25,-15.06 -53.04,-20.15 -2.76,0.65 -8.12,2.01 -10.44,3.87 -2.89,2.32 1.63,5.34 -0.02,6.66 -2.86,2.28 -4.92,6.42 -11.03,6.03 -12.75,-0.82 -32.35,-17.32 -44.01,-23.55 18.79,-19.34 -10.93,-22.23 -22.52,-21.26 -3.95,0.33 -8.69,0.48 -13.74,0.66 -1.73,2.39 -3.34,4.51 -4.77,6.16 -10.55,12.15 -21.16,22.7 -28.03,37.24 -25.21,53.37 13.59,114.63 74.57,107.47 16.93,-1.99 34.7,-12.64 49.7,1.41 11.06,10.35 5.21,20.09 8.14,32.17 2.54,10.44 14.1,16.87 18.11,26.46 7.67,18.39 2.81,29.9 -2.67,46.86 -7.19,22.25 11.41,48.68 18.64,70.16 2.81,8.33 9.75,28.18 17.55,39.04 0.76,-3.8 1.59,-7.54 3.7,-11.15 5.56,-9.52 12.61,-12.38 16.5,-24.66z"/>
    <path class="fil3" d="M625.56 541.94c-6.13,20.65 -12.26,41.3 -18.38,61.94 -4.29,14.44 -19.43,61.66 -40.67,31.41 -8.08,-11.49 -1.51,-26.55 3,-37.13 5.68,-13.34 -2,-20.06 1.96,-32.69 4.54,-14.48 23.24,-14.98 32.08,-25.16 6.17,-7.1 9.98,-18.39 14.48,-26.71 2.51,9.45 5.02,18.9 7.53,28.34z"/>
   </g>
   <path class="fil2" d="M739.04 238.58c-0.96,-2.65 -2.39,-5.11 -4.23,-7.26l-19.24 -22.53c-4.49,-5.25 -11.04,-8.27 -17.94,-8.27l-23.56 0c-5.6,0 -8.94,6.23 -5.83,10.89l9.76 14.64c-19.16,19.16 -42.25,33.94 -67.67,43.32l-11.77 4.34 -40.44 -77.45 0 -17.63 -29.08 -27.77 -84.44 -29.67 -73.46 0c-23.41,0 -44.31,14.7 -52.22,36.74l-4.73 13.2 -39.52 -55.35 -5.07 1.77 -28.89 70.04 44.57 62.44 4.74 -13.2c7.91,-22.04 28.8,-36.74 52.22,-36.74l73.45 0 84.44 29.67 29.08 27.77 0 17.63 40.44 77.45 11.77 -4.34c25.42,-9.38 48.51,-24.15 67.67,-43.32l-9.76 -14.64c-3.11,-4.66 0.23,-10.89 5.83,-10.89l23.56 0c6.9,0 13.46,3.02 17.94,8.27l19.24 22.53c1.84,2.15 3.27,4.61 4.24,7.26l21.24 58.41 10.11 -10.11c6.37,-6.38 9.6,-15.06 9.75,-24.08 0.12,-7.25 3.27,-14.12 8.69,-18.96l7.74 -6.9c1.95,-1.74 4.12,-3.15 6.43,-4.22 -1.77,-7.5 -3.8,-14.97 -6.05,-22.4l-7.77 7.77 -21.24 -58.41z"/>
   <g>
    <path class="fil3" d="M427.56 16.75l-50.25 63.04 -102.64 35.98 39.52 55.36 4.73 -13.2c7.92,-22.04 28.81,-36.74 52.22,-36.74l73.46 0 84.44 29.67 29.08 27.77 0 17.63 40.43 77.45 11.77 -4.34c25.43,-9.38 48.52,-24.15 67.68,-43.32l-9.77 -14.64c-3.1,-4.66 0.24,-10.89 5.83,-10.89l23.57 0c6.9,0 13.45,3.02 17.93,8.27l19.25 22.53c1.83,2.15 3.27,4.61 4.23,7.26l21.24 58.41 7.78 -7.77c-8.39,-27.79 -20.06,-55.06 -35.2,-81.28 -66.18,-114.64 -182.52,-182.27 -305.3,-191.19z"/>
    <path class="fil3" d="M186.07 149.87c-2.57,-6.24 -6.15,-11.75 -10.45,-16.46 -65.52,61.16 -106.32,142.36 -118.21,228.28 4.36,3.81 8.78,7.7 12.82,11.31 14.96,-2.1 32.2,-4.99 32.2,-4.99l-27.76 -40.73 39.87 -28.51 43.44 -75.82 18.38 -19.7c13.4,-14.36 17.19,-35.22 9.71,-53.38l0 0z"/>
    <path class="fil3" d="M211.58 549.05c-2.16,-6.65 -2.15,-13.82 0.03,-20.47l0 0c6.18,-18.85 -5.55,-38.85 -25.02,-42.65l-38.83 -7.59 -70.93 -53.93 -0.87 0.28c6.78,46.96 22.39,93.45 47.56,137.06 15,25.96 32.58,49.49 52.21,70.49l4.1 -21.35 15.52 -5.05c17.33,-5.63 26.81,-24.23 21.18,-41.56l-4.95 -15.23z"/>
   </g>
   <path class="fil4" d="M584.37 719.36l-0.6 0.34c-7.46,4.33 -10,13.89 -5.68,21.36 2.9,4.99 8.14,7.78 13.53,7.78 2.66,0 5.36,-0.68 7.83,-2.11l0.6 -0.35c7.46,-4.33 10,-13.89 5.67,-21.35 -4.32,-7.46 -13.88,-10 -21.35,-5.67z"/>
   <path class="fil4" d="M746.4 200.13c-53.41,-92.51 -139.65,-158.68 -242.83,-186.33 -103.17,-27.65 -210.94,-13.46 -303.45,39.95 -92.51,53.41 -158.68,139.65 -186.32,242.82 -27.65,103.18 -13.46,210.95 39.95,303.45 47.91,82.98 124.05,146.05 214.4,177.58 42.83,14.94 87.54,22.4 132.19,22.4 48.53,0 96.99,-8.82 142.79,-26.43 8.05,-3.09 12.07,-12.13 8.97,-20.18 -3.1,-8.06 -12.14,-12.08 -20.19,-8.98 -121.9,46.85 -253.88,25.57 -352.47,-48.45l13.99 -73.07 6.75 -2.19c25.49,-8.28 39.49,-35.75 31.21,-61.24l-4.95 -15.24c-1.15,-3.52 -1.14,-7.25 0.02,-10.77 4.34,-13.24 2.79,-27.72 -4.26,-39.74 -7.05,-12.02 -18.93,-20.44 -32.61,-23.12l-35.26 -6.89 -68.05 -51.73c-4.07,-3.1 -9.41,-4.01 -14.28,-2.43l-39.84 12.94c-0.84,-14.24 -0.85,-28.49 -0.05,-42.66 1.57,1.47 2.59,2.46 3.22,3.12 0.78,1.29 1.75,2.48 2.88,3.52 3.25,2.96 6.2,4.3 12.39,4.3 5.68,0 14.1,-1.13 28,-3.19 13.18,-1.94 26.29,-4.14 26.42,-4.16 5.26,-0.88 9.7,-4.38 11.79,-9.28 2.09,-4.9 1.54,-10.52 -1.46,-14.93l-19.16 -28.1 27.44 -19.62c1.83,-1.31 3.35,-2.99 4.47,-4.94l42.54 -74.26 17.14 -18.37c17.52,-18.78 22.52,-46.25 12.74,-70 -5.77,-14 -15.86,-25.66 -28.46,-33.52 13.65,-10.74 28.21,-20.65 43.69,-29.58 56.78,-32.78 118.74,-48.67 180.05,-49.28l-27.9 35 -103.46 36.27c-4.2,1.48 -7.58,4.67 -9.28,8.79l-28.89 70.05c-2.05,4.97 -1.4,10.65 1.73,15.03l42.2 59.11c-6.05,5.52 -11.93,13.55 -18.96,23.52 -3.08,4.37 -5.99,8.5 -8,10.82 -1.75,2.01 -3.5,3.98 -5.23,5.93 -9.08,10.21 -18.46,20.77 -25.13,34.88 -14.66,31.03 -11.7,67.1 7.73,94.12 18.78,26.14 49.75,39.42 82.8,35.53 5.38,-0.63 10.4,-1.87 15.26,-3.07 13.39,-3.32 17.64,-3.65 21.93,0.37 2.1,1.96 2.29,2.33 2.25,8.97 -0.03,4.22 -0.07,9.48 1.39,15.48 2.33,9.6 8.36,16.24 13.2,21.57 2.41,2.65 4.9,5.39 5.67,7.23 4.87,11.68 2.75,18.15 -1.9,32.32 -0.4,1.21 -0.8,2.45 -1.21,3.72 -7.06,21.86 2.78,43.55 11.47,62.69 2.82,6.21 5.49,12.08 7.23,17.27 14.05,41.68 24.58,51.23 33.03,55.07 4.43,2.01 9.01,2.9 13.64,2.9 22.52,-0.01 46.02,-20.92 56.82,-34.18 6.78,-8.32 8.45,-16.66 9.67,-22.75 0.61,-3.03 1.09,-5.42 2,-6.98 1.4,-2.39 3.04,-4.24 5.12,-6.59 4.19,-4.72 9.41,-10.59 12.78,-21.22 2.57,-8.08 4.43,-10.07 10.61,-16.64 1.07,-1.14 2.22,-2.37 3.45,-3.7 20.81,-22.65 15.45,-39.95 9.77,-58.26 -4.77,-15.41 3.58,-25.27 23.78,-44.08 8.76,-8.15 17.81,-16.59 24.81,-26.71 3.06,-4.44 12.38,-17.93 6.61,-31.3 -5.65,-13.11 -20.01,-15.31 -31.55,-17.08 -4.56,-0.7 -11.45,-1.76 -13.64,-3.19 -9.67,-6.32 -15.58,-19.51 -21.3,-32.27 -1.14,-2.54 -2.27,-5.04 -3.4,-7.47 -2.04,-4.35 -4.07,-9.6 -6.21,-15.16 -5.69,-14.71 -12.13,-31.38 -23.1,-43.01 -9.86,-10.45 -28.44,-15.48 -44.83,-19.92 -5.52,-1.49 -10.72,-2.9 -14.16,-4.17 -2.87,-1.06 -5.99,-1.25 -8.97,-0.55 -7.98,1.87 -12.96,3.93 -16.66,6.89 -0.97,0.79 -3.87,3.36 -5.56,7.49 -5.72,-2.75 -13.59,-7.99 -18.43,-11.22 -0.1,-0.06 -0.2,-0.13 -0.3,-0.2 1.63,-6.53 0.16,-11.77 -1.39,-15.04 -8.73,-18.46 -37.7,-17.02 -43.42,-16.53 -3.25,0.27 -7.35,0.42 -11.7,0.57 -6.82,0.24 -14.37,0.51 -21.83,1.35l0.38 -1.07c5.67,-15.79 20.74,-26.39 37.52,-26.39l8.88 -0.01c8.63,0 15.62,-6.99 15.62,-15.62 0,-8.63 -7,-15.62 -15.62,-15.62l-8.88 0c-24.9,0 -47.7,13.1 -60.48,33.73l-23.31 -32.65 22.93 -55.57 101.1 -35.45c2.77,-0.97 5.21,-2.71 7.05,-5l44.94 -56.38c114.83,10.93 222.93,75.31 284.87,182.6 16.5,28.57 28.7,58.66 36.81,89.43l-6.62 5.9c-8.65,7.72 -13.71,18.78 -13.9,30.36 -0.01,0.13 -0.01,0.25 -0.01,0.38l-10.79 -29.68c-1.61,-4.43 -3.98,-8.49 -7.04,-12.07l-19.25 -22.53c-7.46,-8.74 -18.33,-13.74 -29.81,-13.74l-23.56 -0.01c-8.37,0 -16.01,4.59 -19.96,11.96 -3.94,7.37 -3.51,16.27 1.13,23.23l2.38 3.58c-15.22,13.09 -32.83,23.57 -51.58,30.63l-32.3 -61.86 0 -13.8c0,-4.27 -1.74,-8.36 -4.83,-11.3l-29.09 -27.77c-1.6,-1.53 -3.51,-2.7 -5.6,-3.44l-26.19 -9.2c-8.14,-2.86 -17.06,1.42 -19.92,9.56 -2.86,8.15 1.42,17.06 9.56,19.92l23.01 8.09 21.82 20.82 0 10.95c0,2.52 0.61,5 1.77,7.23l40.43 77.45c3.64,6.97 11.89,10.15 19.26,7.43l11.77 -4.34c27.35,-10.09 52.71,-26.32 73.32,-46.92 5.26,-5.27 6.08,-13.52 1.95,-19.72l-0.83 -1.25 7.46 0c2.33,0 4.54,1.02 6.05,2.79l19.25 22.54c0.62,0.73 1.1,1.55 1.43,2.45l21.24 58.41c1.83,5.02 6.09,8.76 11.3,9.91 1.12,0.25 2.26,0.37 3.38,0.37 4.1,0 8.09,-1.61 11.05,-4.57l10.11 -10.11c6.4,-6.41 10.81,-14.51 12.92,-23.5 15.64,125.32 -33.5,254.96 -137.37,336.48 -6.79,5.33 -7.97,15.15 -2.64,21.94 5.33,6.79 15.14,7.97 21.93,2.64 74.99,-58.85 126.51,-143.03 145.06,-237.03 18.73,-94.9 2.38,-193.36 -46.04,-277.23zm-672.52 241.66l64.42 48.99c1.91,1.45 4.12,2.44 6.47,2.9l38.83 7.58c4.95,0.97 9.09,3.9 11.64,8.26 2.56,4.35 3.09,9.39 1.52,14.19 -3.23,9.87 -3.25,20.3 -0.04,30.17l4.95 15.23c2.96,9.1 -2.05,18.92 -11.15,21.88l-15.52 5.04c-5.42,1.76 -9.45,6.33 -10.52,11.92l-12.5 65.23c-27.47,-25.14 -51.59,-54.86 -71.17,-88.78 -23.89,-41.37 -38.81,-85.49 -45.39,-130.11l38.46 -12.5zm-40.8 -66.04c0.05,0.68 0.13,1.35 0.26,2.02 -0.12,-0.63 -0.21,-1.31 -0.26,-2.02zm138.55 -219.93c5.14,12.47 2.51,26.91 -6.7,36.77l-18.37 19.69c-0.83,0.88 -1.54,1.86 -2.14,2.9l-41.74 72.87 -37.09 26.52c-6.91,4.94 -8.61,14.49 -3.83,21.51l13.88 20.35c-8,1.19 -15.18,2.18 -19.95,2.7 -0.92,-0.88 -1.87,-1.78 -2.87,-2.7 -3.71,-3.45 -8.87,-8.06 -16.56,-14.79 12.68,-78.54 50.53,-152.52 110.05,-209 11.39,3.59 20.75,12.09 25.32,23.18zm155.65 117.24c4.73,-0.17 9.2,-0.33 13.2,-0.66 2.11,-0.18 4.45,-0.15 6.65,0.02 -0.98,2.54 -1.3,5.31 -0.87,8.07 0.75,4.85 3.74,9.06 8.06,11.37 2.93,1.57 7.01,4.29 11.33,7.17 12.21,8.14 26.06,17.37 39.06,18.2 11.82,0.76 18.4,-5.97 21.22,-8.85 0.23,-0.23 0.44,-0.45 0.66,-0.66 1.59,-1.29 3.08,-3.03 4.18,-5.12 2.5,0.71 5.13,1.42 7.82,2.15 9.25,2.51 26.47,7.17 30.28,11.2 6.75,7.17 12.02,20.8 16.67,32.83 2.35,6.08 4.57,11.82 7.06,17.14 1.06,2.28 2.12,4.63 3.18,7.01 7.21,16.09 15.39,34.31 32.72,45.65 7.86,5.13 17.5,6.61 26,7.92 1.03,0.15 2.21,0.33 3.4,0.53 -5.04,7.04 -12.23,13.73 -19.82,20.8 -19.34,18.02 -43.42,40.44 -32.33,76.2 5.23,16.89 5.48,18.71 -2.94,27.86 -1.14,1.25 -2.21,2.39 -3.21,3.46 -7.21,7.67 -12.9,13.73 -17.62,28.57 -1.36,4.31 -3.14,6.31 -6.36,9.93 -2.57,2.9 -5.78,6.52 -8.74,11.58 -3.54,6.06 -4.72,11.91 -5.66,16.6 -0.92,4.61 -1.45,6.93 -3.26,9.16 -4.13,5.06 -11.82,12.42 -19.73,17.44 -7.34,4.66 -11.63,5.3 -13.09,5.21 -1.67,-1.79 -7.7,-9.61 -16.83,-36.7 -2.25,-6.68 -5.37,-13.55 -8.39,-20.2 -6.65,-14.66 -13.53,-29.81 -10.19,-40.17 0.4,-1.22 0.79,-2.42 1.17,-3.58 5.35,-16.3 10.4,-31.69 1.05,-54.1 -2.85,-6.82 -7.38,-11.81 -11.38,-16.2 -2.58,-2.85 -5.51,-6.08 -5.96,-7.93 -0.55,-2.27 -0.54,-4.88 -0.52,-7.91 0.06,-8.16 0.14,-20.5 -12.13,-31.98 -17.29,-16.19 -37.45,-11.2 -50.79,-7.9 -4.1,1.01 -7.97,1.97 -11.4,2.38 -21.95,2.57 -41.55,-5.71 -53.79,-22.74 -12.79,-17.8 -14.65,-41.77 -4.84,-62.53 4.74,-10.05 11.92,-18.13 20.22,-27.47 1.82,-2.04 3.65,-4.1 5.48,-6.21 3.05,-3.51 6.4,-8.27 9.95,-13.31 4.23,-6.01 12.11,-17.19 15.53,-19.32 6.97,-3.92 23.15,-4.49 34.96,-4.91z"/>
   <path class="fil4" d="M584.45 660.5c15.94,-2.6 27.92,-19.18 37.71,-52.17l18.38 -61.94c0.81,-2.76 0.86,-5.68 0.12,-8.46l-7.52 -28.33c-1.64,-6.19 -6.89,-10.75 -13.25,-11.51 -6.36,-0.74 -12.53,2.44 -15.58,8.07 -1.72,3.15 -3.26,6.5 -4.75,9.73 -2.51,5.44 -5.1,11.06 -7.8,14.17 -1.52,1.74 -5.41,3.62 -9.17,5.44 -9,4.34 -21.32,10.28 -26.03,25.28 -2.92,9.31 -1.83,16.67 -1.03,22.05 0.69,4.66 0.85,6.28 -0.4,9.21l-0.16 0.36c-4.97,11.67 -14.22,33.4 -1.25,51.87 9.26,13.18 18.99,16.57 26.56,16.57 1.48,0 2.88,-0.13 4.17,-0.34zm-5.16 -34.19c-2.98,-4.25 1.48,-14.73 4.43,-21.66l0.16 -0.37c4.76,-11.17 3.49,-19.76 2.56,-26.03 -0.59,-4.01 -0.8,-5.74 -0.06,-8.11 0.61,-1.95 4.28,-3.84 9.79,-6.5 2.45,-1.18 5.14,-2.48 7.86,-4.05l-11.83 39.85c-4.99,16.82 -9.4,24.67 -11.95,28.15 -0.3,-0.37 -0.62,-0.79 -0.96,-1.28z"/>
   <path class="fil4" d="M420.87 185.35c-8.14,-2.85 -17.06,1.43 -19.92,9.57 -2.85,8.14 1.43,17.06 9.57,19.92l1.06 0.36c1.71,0.6 3.45,0.89 5.17,0.89 6.45,0 12.49,-4.03 14.74,-10.46 2.86,-8.14 -1.43,-17.05 -9.57,-19.91l-1.05 -0.37z"/>
   <g>
   </g>
   <g>
   </g>
   <g>
   </g>
   <g>
   </g>
   <g>
   </g>
   <g>
   </g>
   <g>
   </g>
   <g>
   </g>
   <g>
   </g>
   <g>
   </g>
   <g>
   </g>
   <g>
   </g>
   <g>
   </g>
   <g>
   </g>
   <g>
   </g>
  </g>
 </g>
</svg>
