<?xml version="1.0" encoding="UTF-8"?>
<!DOCTYPE svg PUBLIC "-//W3C//DTD SVG 1.1//EN" "http://www.w3.org/Graphics/SVG/1.1/DTD/svg11.dtd">
<!-- Creator: CorelDRAW 2019 (64 Bit) -->
<svg xmlns="http://www.w3.org/2000/svg" xml:space="preserve" width="800px" height="800px" version="1.1" style="shape-rendering:geometricPrecision; text-rendering:geometricPrecision; image-rendering:optimizeQuality; fill-rule:evenodd; clip-rule:evenodd"
viewBox="0 0 800 800"
 xmlns:xlink="http://www.w3.org/1999/xlink">
 <defs>
  <style type="text/css">
   <![CDATA[
    .fil3 {fill:#2747BF}
    .fil6 {fill:#4D007E}
    .fil5 {fill:#CB0E00}
    .fil4 {fill:#EA3600}
    .fil0 {fill:#FE9010}
    .fil1 {fill:#FEA03E}
    .fil2 {fill:#FFCFA5}
   ]]>
  </style>
 </defs>
 <g id="Camada_x0020_1">
  <metadata id="CorelCorpID_0Corel-Layer"/>
  <g id="_2781084771872">
   <path class="fil0" d="M413.33 93.33c-50.96,0 -99.22,11.48 -142.41,31.92l-165.92 174.68c-16.08,39.08 -25,81.86 -25,126.74 0,184.09 149.24,333.33 333.33,333.33 184.09,0 333.33,-149.24 333.33,-333.33 0,-184.09 -149.23,-333.34 -333.33,-333.34z"/>
   <circle class="fil1" cx="360" cy="373.33" r="240"/>
   <circle class="fil2" cx="360" cy="373.33" r="146.67"/>
   <path class="fil3" d="M146.67 306.67c-73.52,0 -133.34,-59.82 -133.34,-133.33 0,-73.52 59.82,-133.34 133.34,-133.34 73.52,0 133.33,59.82 133.33,133.33 0,73.52 -59.81,133.34 -133.33,133.34z"/>
   <path class="fil4" d="M133.33 626.67c-0.58,0 -1.17,-0.04 -1.76,-0.12 -63.48,-8.47 -101.54,-30.11 -113.13,-64.32 -19.88,-58.74 49.17,-128.71 52.13,-131.66 5.2,-5.21 13.64,-5.2 18.84,0 5.22,5.2 5.22,13.64 0.02,18.86 -16.83,16.89 -57.86,68.54 -45.72,104.28 9.97,29.38 54.49,41.38 90.48,46.29 13.64,-0.12 184.38,-2.6 347.18,-52.51 -0.92,-4.76 -1.37,-9.48 -1.37,-14.16 0,-44.12 35.89,-79.99 80,-79.99 26.17,0 49.93,12.5 64.8,33.37 47.22,-27.42 84.58,-59.23 111.2,-94.71 0.82,-1.02 48.69,-60.54 31.7,-104 -9.7,-24.82 -39.85,-41.02 -89.58,-48.13 -7.3,-1.04 -12.36,-7.78 -11.32,-15.08 1.04,-7.29 7.78,-12.37 15.08,-11.3 60,8.57 97.24,30.4 110.69,64.89 22.6,57.99 -33.2,127.17 -35.58,130.08 -30.63,40.85 -74.68,77.33 -130.59,107.97 -3.21,1.76 -7.02,2.13 -10.5,1 -3.47,-1.12 -6.35,-3.62 -7.93,-6.93 -9,-18.82 -27.38,-30.5 -47.97,-30.5 -29.41,0 -53.33,23.92 -53.33,53.34 0,6 1.14,12.01 3.49,18.38 1.25,3.4 1.08,7.19 -0.52,10.46 -1.6,3.26 -4.44,5.74 -7.91,6.86 -176.45,56.87 -366.49,57.63 -368.4,57.63l0 0z"/>
   <path class="fil5" d="M560 613.33c-44.11,0 -80,-35.88 -80,-80 0,-44.12 35.89,-80 80,-80 44.1,0 80,35.88 80,80 0,44.12 -35.89,80 -80,80z"/>
   <g>
    <path class="fil6" d="M146.67 320c-80.87,0 -146.67,-65.8 -146.67,-146.67 0,-80.86 65.8,-146.66 146.67,-146.66 80.86,0 146.66,65.8 146.66,146.66 0,80.87 -65.8,146.67 -146.66,146.67zm0 -266.67c-66.18,0 -120,53.84 -120,120 0,66.16 53.82,120 120,120 66.17,0 120,-53.84 120,-120 0,-66.16 -53.83,-120 -120,-120z"/>
    <path class="fil6" d="M560 613.33c-44.11,0 -80,-35.88 -80,-80 0,-44.12 35.89,-80 80,-80 44.1,0 80,35.88 80,80 0,44.12 -35.89,80 -80,80zm0 -133.33c-29.42,0 -53.33,23.92 -53.33,53.33 0,29.42 23.92,53.34 53.33,53.34 29.41,0 53.33,-23.92 53.33,-53.34 0,-29.41 -23.92,-53.33 -53.33,-53.33z"/>
    <path class="fil6" d="M720 165.52l-58.85 -58.85 58.85 -58.86 58.85 58.86 -58.85 58.85zm-21.15 -58.85l21.15 21.15 21.15 -21.15 -21.15 -21.15 -21.15 21.15z"/>
    <path class="fil6" d="M720 80c-7.36,0 -13.33,-5.97 -13.33,-13.33l0 -26.67c0,-7.36 5.97,-13.33 13.33,-13.33 7.36,0 13.33,5.97 13.33,13.33l0 26.67c0,7.36 -5.97,13.33 -13.33,13.33z"/>
    <path class="fil6" d="M786.67 120l-26.67 0c-7.36,0 -13.33,-5.97 -13.33,-13.33 0,-7.36 5.97,-13.33 13.33,-13.33l26.67 0c7.36,0 13.33,5.97 13.33,13.33 0,7.36 -5.98,13.33 -13.33,13.33z"/>
    <path class="fil6" d="M720 186.67c-7.36,0 -13.33,-5.98 -13.33,-13.33l0 -26.67c0,-7.36 5.97,-13.33 13.33,-13.33 7.36,0 13.33,5.97 13.33,13.33l0 26.67c0,7.35 -5.97,13.33 -13.33,13.33z"/>
    <path class="fil6" d="M680 120l-26.67 0c-7.36,0 -13.33,-5.97 -13.33,-13.33 0,-7.36 5.97,-13.33 13.33,-13.33l26.67 0c7.36,0 13.33,5.97 13.33,13.33 0,7.36 -5.97,13.33 -13.33,13.33z"/>
    <path class="fil6" d="M132.45 626.67l-0.88 -0.12c-63.48,-8.47 -101.54,-30.11 -113.13,-64.32 -19.88,-58.74 49.17,-128.71 52.13,-131.66l18.87 18.86c-16.83,16.89 -57.85,68.54 -45.72,104.28 9.97,29.38 54.49,41.38 90.48,46.29 13.64,-0.12 184.39,-2.6 347.18,-52.51 -0.93,-4.76 -1.38,-9.48 -1.38,-14.16 0,-44.12 35.89,-79.99 80,-79.99 26.17,0 49.93,12.5 64.8,33.37 47.22,-27.42 84.58,-59.23 111.2,-94.71 0.83,-1.02 48.69,-60.54 31.71,-104 -9.71,-24.82 -39.86,-41.02 -89.59,-48.13l3.77 -26.38c60,8.57 97.24,30.4 110.7,64.89 22.6,57.99 -33.2,127.17 -35.59,130.08 -30.62,40.85 -74.68,77.33 -130.58,107.97l-12.36 6.77 -6.08 -12.7c-9,-18.82 -27.39,-30.5 -47.98,-30.5 -29.41,0 -53.33,23.92 -53.33,53.34 0,6 1.15,12.01 3.5,18.38l4.82 13.06 -13.24 4.26c-176.47,56.87 -366.51,57.63 -368.42,57.63l-0.88 0z"/>
    <path class="fil6" d="M600 266.67c-1.27,0 -2.56,-0.19 -3.84,-0.56 -26.78,-8.04 -48.73,-16.83 -69.1,-27.67 -6.5,-3.47 -8.97,-11.53 -5.5,-18.04 3.46,-6.51 11.53,-8.97 18.04,-5.51 18.78,10.01 39.18,18.15 64.24,25.67 7.05,2.12 11.05,9.55 8.93,16.62 -1.73,5.77 -7.04,9.49 -12.77,9.49z"/>
    <path class="fil6" d="M453.32 426.53c-2,0 -4.04,-0.45 -5.96,-1.4 -6.59,-3.29 -9.25,-11.3 -5.96,-17.89 0.62,-1.25 15.78,-30.84 53.65,-42.55 35.13,-10.85 77.1,-2.96 124.75,23.54 6.44,3.57 8.76,11.69 5.19,18.13 -3.58,6.42 -11.7,8.76 -18.14,5.17 -41.05,-22.78 -76.01,-29.97 -103.92,-21.36 -26.66,8.25 -37.57,28.8 -37.68,29 -2.33,4.67 -7.04,7.36 -11.93,7.36z"/>
    <path class="fil6" d="M388.11 333.33c-4.54,0 -8.95,-2.3 -11.45,-6.46 -3.78,-6.32 -1.74,-14.51 4.58,-18.3 18.07,-10.84 28.61,-23.42 31.36,-37.42 3.8,-19.4 -8.38,-36.31 -8.5,-36.47 -4.41,-5.9 -3.22,-14.26 2.67,-18.67 5.89,-4.43 14.25,-3.21 18.67,2.67 0.8,1.07 19.44,26.38 13.33,57.6 -4.25,21.7 -19,40.28 -43.81,55.16 -2.15,1.28 -4.52,1.89 -6.85,1.89z"/>
    <path class="fil6" d="M196.85 478.68c-4.78,0 -9.41,-2.59 -11.8,-7.12 -3.44,-6.52 -0.93,-14.58 5.58,-18.02 37.28,-19.65 79.56,-31.54 125.64,-35.34 7.36,-0.55 13.77,4.85 14.38,12.2 0.62,7.34 -4.85,13.77 -12.18,14.38 -42.5,3.51 -81.32,14.4 -115.4,32.36 -1.99,1.05 -4.12,1.54 -6.22,1.54z"/>
    <path class="fil6" d="M118.93 552l-12.26 -5.33 -11.15 -7.4c7.01,-12.9 13.64,-25.08 25.75,-37.2 5.2,-5.22 13.65,-5.2 18.85,0 5.21,5.21 5.21,13.65 0,18.86 -9.39,9.38 -14.59,18.95 -21.19,31.07zm-12.26 -5.33l0.13 0 -0.13 0z"/>
    <path class="fil6" d="M80 186.67c-7.36,0 -13.33,-5.98 -13.33,-13.33 0,-44.12 35.89,-80 80,-80 7.36,0 13.33,5.97 13.33,13.33 0,7.36 -5.97,13.33 -13.33,13.33 -29.42,0 -53.34,23.92 -53.34,53.33 0,7.36 -5.97,13.34 -13.33,13.34z"/>
    <path class="fil6" d="M413.33 773.33c-191.14,0 -346.66,-155.52 -346.66,-346.66 0,-45.52 8.74,-89.87 26.01,-131.8l4.72 -11.47 11.77 3.88c12.23,4.01 24.84,6.05 37.5,6.05 66.17,0 120,-53.84 120,-120 0,-14.69 -2.75,-29.25 -8.19,-43.26l-4.48 -11.56 11.22 -5.31c46.54,-22.03 96.38,-33.2 148.11,-33.2 191.15,0 346.67,155.52 346.67,346.67 0,191.14 -155.52,346.66 -346.67,346.66zm-300.3 -457.28c-13.07,35.42 -19.7,72.56 -19.7,110.62 0,176.44 143.55,320 320,320 176.46,0 320,-143.56 320,-320 0,-176.44 -143.54,-320 -320,-320 -43.77,0 -86.08,8.65 -125.9,25.76 3.92,13.37 5.9,27.08 5.9,40.9 0,80.87 -65.8,146.67 -146.66,146.67 -11.31,0 -22.58,-1.33 -33.64,-3.95z"/>
   </g>
   <g>
   </g>
   <g>
   </g>
   <g>
   </g>
   <g>
   </g>
   <g>
   </g>
   <g>
   </g>
   <g>
   </g>
   <g>
   </g>
   <g>
   </g>
   <g>
   </g>
   <g>
   </g>
   <g>
   </g>
   <g>
   </g>
   <g>
   </g>
   <g>
   </g>
  </g>
 </g>
</svg>
