<?xml version="1.0" encoding="UTF-8"?>
<!DOCTYPE svg PUBLIC "-//W3C//DTD SVG 1.1//EN" "http://www.w3.org/Graphics/SVG/1.1/DTD/svg11.dtd">
<!-- Creator: CorelDRAW 2019 (64 Bit) -->
<svg xmlns="http://www.w3.org/2000/svg" xml:space="preserve" width="800px" height="800px" version="1.1" style="shape-rendering:geometricPrecision; text-rendering:geometricPrecision; image-rendering:optimizeQuality; fill-rule:evenodd; clip-rule:evenodd"
viewBox="0 0 800 800"
 xmlns:xlink="http://www.w3.org/1999/xlink"
 data-name="Layer 1">
 <defs>
  <style type="text/css">
   <![CDATA[
    .str0 {stroke:white;stroke-width:2.36;stroke-miterlimit:22.9256}
    .fil0 {fill:white}
    .fil6 {fill:#49BDFF}
    .fil2 {fill:#604AF3}
    .fil3 {fill:#8076FF}
    .fil5 {fill:#CCD3DF}
    .fil1 {fill:#FCC251}
    .fil4 {fill:#FFE566}
   ]]>
  </style>
 </defs>
 <g id="Camada_x0020_1">
  <metadata id="CorelCorpID_0Corel-Layer"/>
  <circle class="fil0 str0" cx="400" cy="400" r="400"/>
  <g id="_2781178404176">
   <path class="fil1" d="M764.48 363.59c1.07,11.47 1.6,23.09 1.61,34.86 0,0.12 0,0.35 0,0.49 0,50.64 -10.36,100.82 -30.3,147.36l-0.51 -0.22 -302.26 0c-16.54,0 -29.95,-13.41 -29.95,-29.95 0,-16.54 13.41,-29.95 29.95,-29.95l207.66 0c17.3,0 31.34,-14.03 31.34,-31.34 0,-17.3 -14.04,-31.34 -31.34,-31.34l-105.76 0c-16.54,0 -29.96,-13.41 -29.96,-29.96 0,-16.54 13.42,-29.95 29.96,-29.95l229.56 0z"/>
   <path class="fil2" d="M764.48 363.59l-229.56 0c-16.54,0 -29.96,13.41 -29.96,29.95 0,16.55 13.42,29.96 29.96,29.96l105.76 0c17.3,0 31.34,14.04 31.34,31.34 0,17.31 -14.04,31.34 -31.34,31.34l-207.66 0c-16.54,0 -29.95,13.41 -29.95,29.95 0,16.54 13.41,29.95 29.95,29.95l302.27 0 0.51 0.22c-57.26,133.31 -189.62,226.66 -343.75,226.66 -0.13,0 -0.36,0 -0.49,0 -93.98,0 -184.6,-35.6 -253.43,-99.52l87.36 0c17.31,0 31.34,-14.04 31.34,-31.35 0,-17.31 -14.03,-31.35 -31.34,-31.35l-141.62 0c-12.98,-18.87 -24.31,-38.98 -33.59,-59.9l74.65 0c17.3,0 31.34,-14.03 31.34,-31.34 0,-17.3 -14.04,-31.34 -31.34,-31.34l-96.12 0c-7.12,-29.32 -10.81,-59.5 -10.81,-89.68 0,-33.68 4.56,-67.36 13.45,-99.8l0.98 0.26 337.06 -0.02c17.3,0 31.34,-14.03 31.34,-31.34 0,-17.3 -14.04,-31.34 -31.34,-31.34l-199.25 0c-16.54,0 -29.96,-13.41 -29.96,-29.95 0,-16.55 13.42,-29.96 29.96,-29.96l98.69 0c17.3,0 31.34,-14.04 31.34,-31.34 0,-17.31 -14.04,-31.34 -31.34,-31.34l-119.75 0 -0.02 -0.02c67.43,-57.84 153.47,-89.7 242.37,-89.7 0.14,0 0.37,0 0.5,0 150.41,0 280.07,88.88 339.47,217.06l-50.47 0c-16.55,0 -29.96,13.42 -29.96,29.96 0,16.54 13.41,29.95 29.96,29.95l72.24 0c5.5,20.49 9.3,41.52 11.2,62.68l0.01 0.01z"/>
   <path class="fil1" d="M753.27 300.9l-72.24 0c-16.55,0 -29.96,-13.41 -29.96,-29.95 0,-16.54 13.41,-29.96 29.96,-29.96l50.49 0c8.92,19.27 16.26,39.43 21.74,59.92l0.01 -0.01z"/>
   <path class="fil1" d="M369.49 236.24c17.3,0 31.34,14.04 31.34,31.34 0,17.31 -14.04,31.34 -31.34,31.34l-337.08 0 -0.97 -0.26c19.9,-71.98 60.96,-136.53 117.74,-185.03l0.01 0.01 119.74 0.01c17.3,0 31.34,14.03 31.34,31.34 0,17.3 -14.04,31.34 -31.34,31.34l-98.69 0c-16.54,0 -29.95,13.41 -29.95,29.96 0,16.54 13.41,29.95 29.95,29.95l199.25 0z"/>
   <path class="fil1" d="M225.49 610.74c17.31,0 31.34,14.04 31.34,31.35 0,17.31 -14.03,31.35 -31.34,31.35l-87.37 0c-20.29,-18.79 -38.58,-39.92 -54.25,-62.69l141.62 -0.01z"/>
   <path class="fil1" d="M124.93 488.16c17.3,0 31.34,14.04 31.34,31.34 0,17.31 -14.04,31.34 -31.34,31.34l-74.66 0c-8.95,-20.15 -16.2,-41.23 -21.46,-62.66l96.12 -0.02z"/>
   <path class="fil3" d="M184.53 673.44l-46.4 0c68.83,63.92 159.45,99.52 253.43,99.52 0.13,0 0.36,0 0.5,0 7.83,0 15.6,-0.24 23.31,-0.73 -86,-5.18 -167.69,-40.14 -230.83,-98.78l-0.01 -0.01z"/>
   <path class="fil3" d="M64.4 398.45c0,-0.12 0,-0.25 0,-0.35 0,-33.47 4.52,-66.94 13.35,-99.17l-45.34 -0.01 -0.97 -0.26c-8.88,32.46 -13.44,66.14 -13.44,99.82 0,30.18 3.69,60.36 10.83,89.66l46.38 0.02c-7.15,-29.23 -10.81,-59.32 -10.81,-89.42 0,-0.09 0,-0.18 0,-0.27l0 -0.02z"/>
   <path class="fil3" d="M50.27 550.84c9.29,20.92 20.62,41.03 33.58,59.91l46.41 -0.01c-12.98,-18.87 -24.31,-38.98 -33.59,-59.9l-46.4 0z"/>
   <path class="fil3" d="M195.57 113.65l-0.01 -0.02c61.57,-52.76 138.81,-84.07 219.73,-88.97 -7.68,-0.48 -15.42,-0.72 -23.24,-0.73 -0.15,0 -0.38,0 -0.51,0 -88.91,0 -174.95,31.86 -242.39,89.72l0.01 0.02 46.41 -0.02z"/>
   <path class="fil4" d="M195.54 113.65l-46.36 0 -0.02 -0.02c-56.76,48.5 -97.82,113.05 -117.7,185.01l0.97 0.26 46.38 0.02 -0.98 -0.26c19.91,-71.97 60.92,-136.53 117.7,-185.03l0.01 0.02z"/>
   <path class="fil4" d="M130.26 610.74l-46.39 0c15.67,22.78 33.96,43.91 54.26,62.7l46.39 0c-20.3,-18.79 -38.58,-39.92 -54.26,-62.69l0 -0.01z"/>
   <path class="fil4" d="M28.81 488.16c5.26,21.45 12.51,42.53 21.48,62.69l46.38 -0.01c-8.95,-20.15 -16.2,-41.23 -21.46,-62.66l-46.4 -0.02z"/>
   <g>
    <path class="fil5" d="M772.73 166.46c0,0 -0.01,0 -0.01,0 -3.18,0 -6.14,-1.63 -7.84,-4.32 -2.95,-4.66 -6.03,-9.32 -9.15,-13.86 -1.06,-1.55 -1.63,-3.38 -1.63,-5.26 0,-5.12 4.16,-9.28 9.28,-9.28 3.05,0 5.92,1.51 7.65,4.02 3.24,4.74 6.46,9.59 9.53,14.44 0.94,1.49 1.44,3.21 1.44,4.97 0,5.12 -4.15,9.28 -9.27,9.28l0 0.01z"/>
    <path class="fil5" d="M745.68 128.29c0,0 -0.01,0 -0.01,0 -2.84,0 -5.52,-1.3 -7.28,-3.53 -6.65,-8.43 -13.7,-16.72 -20.95,-24.64 -1.56,-1.71 -2.43,-3.95 -2.43,-6.26 0,-5.13 4.16,-9.28 9.28,-9.28 2.6,0 5.09,1.09 6.85,3.01 7.55,8.25 14.89,16.89 21.82,25.67 1.29,1.64 2,3.67 2,5.76 0,5.12 -4.15,9.27 -9.28,9.27l0 0z"/>
    <path class="fil5" d="M654.11 40.83c0,0 -0.01,0 -0.01,0 -1.93,0 -3.82,-0.61 -5.39,-1.74 -4.88,-3.51 -9.91,-6.96 -14.95,-10.27 -2.57,-1.72 -4.11,-4.61 -4.11,-7.71 0,-5.12 4.15,-9.28 9.28,-9.28 1.78,0 3.53,0.52 5.03,1.48 5.24,3.45 10.48,7.05 15.57,10.7 2.42,1.74 3.87,4.55 3.87,7.54 0,5.12 -4.16,9.28 -9.28,9.28 0,0 -0.01,0 -0.01,0l0 0z"/>
    <path class="fil5" d="M40.11 689.31c0,0 -0.01,0 -0.01,0 -2.82,0 -5.48,-1.28 -7.24,-3.48 -3.22,-4.04 -6.43,-8.19 -9.52,-12.33 -1.19,-1.61 -1.84,-3.55 -1.84,-5.55 0,-5.12 4.16,-9.28 9.28,-9.28 2.93,0 5.69,1.39 7.44,3.73 2.97,3.99 6.04,7.97 9.14,11.84 1.31,1.64 2.03,3.69 2.03,5.79 0,5.13 -4.15,9.28 -9.27,9.28l-0.01 0z"/>
    <path class="fil5" d="M149.93 788.17c0,-0.01 0,-0.01 0,-0.01 -1.77,0 -3.5,-0.5 -4.99,-1.46 -10.26,-6.56 -20.4,-13.63 -30.13,-21 -2.36,-1.75 -3.75,-4.51 -3.75,-7.45 0,-5.13 4.16,-9.28 9.28,-9.28 2.06,0 4.06,0.68 5.68,1.94 9.34,7.08 19.07,13.86 28.92,20.16 2.67,1.7 4.29,4.65 4.29,7.82 0,5.12 -4.16,9.27 -9.28,9.27 -0.01,0 -0.01,0 -0.02,0l0 0.01z"/>
   </g>
   <path class="fil3" d="M207.2 357.06l-50.97 0c-5.12,0 -9.28,-4.16 -9.28,-9.28 0,-5.13 4.16,-9.28 9.28,-9.28l50.97 0c5.12,0 9.28,4.15 9.28,9.28 0,5.12 -4.16,9.28 -9.28,9.28l0 0z"/>
   <path class="fil3" d="M369.49 357.06l-126.33 0c-5.12,0 -9.28,-4.16 -9.28,-9.28 0,-5.13 4.16,-9.28 9.28,-9.28l126.33 0c5.12,0 9.28,4.15 9.28,9.28 0,5.12 -4.16,9.28 -9.28,9.28l0 0z"/>
   <path class="fil3" d="M638.86 604.22l-106.79 0c-5.13,0 -9.28,-4.16 -9.28,-9.28 0,-5.13 4.15,-9.28 9.28,-9.28l106.79 0c5.12,0 9.28,4.15 9.28,9.28 0,5.12 -4.16,9.28 -9.28,9.28l0 0z"/>
   <path class="fil3" d="M497.35 604.22l-41.16 0c-5.12,0 -9.28,-4.16 -9.28,-9.28 0,-5.13 4.16,-9.28 9.28,-9.28l41.16 0c5.13,0 9.28,4.15 9.28,9.28 0,5.12 -4.15,9.28 -9.28,9.28l0 0z"/>
   <path class="fil6" d="M707.54 24.43c-0.01,0 -0.03,0 -0.04,0 -23.11,0 -41.85,18.73 -41.85,41.84 0,23.11 18.74,41.85 41.85,41.85 23.11,0 41.85,-18.74 41.85,-41.85 -0.01,-23.08 -18.72,-41.81 -41.81,-41.84z"/>
   <path class="fil6" d="M123.36 713.93c-14.68,-4.94 -26.19,-16.48 -31.11,-31.15 -1.27,-3.79 -4.81,-6.35 -8.81,-6.35 -3.99,0 -7.54,2.56 -8.8,6.35 -4.92,14.67 -16.44,26.21 -31.11,31.15 -3.79,1.26 -6.35,4.81 -6.35,8.8 0,3.99 2.56,7.54 6.34,8.8 14.68,4.94 26.19,16.48 31.12,31.16 1.26,3.79 4.81,6.34 8.8,6.34 4,0 7.54,-2.55 8.8,-6.34 4.93,-14.68 16.44,-26.22 31.12,-31.16 3.78,-1.26 6.34,-4.81 6.34,-8.8 0,-3.99 -2.56,-7.54 -6.34,-8.8l0 0z"/>
  </g>
 </g>
</svg>
