<?xml version="1.0" encoding="UTF-8"?>
<!DOCTYPE svg PUBLIC "-//W3C//DTD SVG 1.1//EN" "http://www.w3.org/Graphics/SVG/1.1/DTD/svg11.dtd">
<!-- Creator: CorelDRAW 2019 (64 Bit) -->
<svg xmlns="http://www.w3.org/2000/svg" xml:space="preserve" width="1514px" height="1107px" version="1.1" style="shape-rendering:geometricPrecision; text-rendering:geometricPrecision; image-rendering:optimizeQuality; fill-rule:evenodd; clip-rule:evenodd"
viewBox="0 0 1514 1107"
 xmlns:xlink="http://www.w3.org/1999/xlink">
 <defs>
  <style type="text/css">
   <![CDATA[
    .fil0 {fill:black}
    .fil9 {fill:#2D75BB}
    .fil8 {fill:#32B1CC}
    .fil17 {fill:#78D2FA}
    .fil3 {fill:#8291A8}
    .fil4 {fill:#95E8FA}
    .fil12 {fill:#C478D7}
    .fil13 {fill:#D1ED7E}
    .fil10 {fill:#D8A1E4}
    .fil5 {fill:#D9176C}
    .fil2 {fill:#E5ECEC}
    .fil11 {fill:#F0838F}
    .fil7 {fill:#F49E21}
    .fil16 {fill:#F5B955}
    .fil6 {fill:#FDBD40}
    .fil14 {fill:#FF5A5A}
    .fil1 {fill:#FFCB7C}
    .fil15 {fill:white}
   ]]>
  </style>
 </defs>
 <g id="Camada_x0020_1">
  <metadata id="CorelCorpID_0Corel-Layer"/>
  <path class="fil0" d="M161.02 218.48c-0.09,0.39 0.15,0.77 0.54,0.86 0.05,0.01 0.11,0.02 0.16,0.02 0.33,0 0.62,-0.23 0.7,-0.56l0.95 -4.24c0.06,-0.25 -0.03,-0.52 -0.22,-0.69l-11.63 -10.22c-0.23,-0.2 -0.18,-0.45 -0.15,-0.54 0.03,-0.1 0.14,-0.33 0.45,-0.36l15.4 -1.43c0.26,-0.02 0.49,-0.19 0.59,-0.43l6.12 -14.21c0.12,-0.28 0.38,-0.31 0.48,-0.31 0.1,0 0.35,0.03 0.47,0.31l1.67 3.86c0.15,0.37 0.57,0.53 0.94,0.38 0.36,-0.16 0.53,-0.58 0.37,-0.95l-1.66 -3.86c-0.31,-0.72 -1,-1.18 -1.79,-1.18 -0.79,0 -1.48,0.46 -1.8,1.18l-5.95 13.82 -14.98 1.39c-0.79,0.08 -1.43,0.59 -1.67,1.34 -0.25,0.76 -0.03,1.55 0.56,2.07l11.31 9.93 -0.86 3.82z"/>
  <g id="_2817377930608">
   <g>
    <path class="fil1" d="M1345.1 23.37l0 60.5 -94.2 94.2 4.56 -4.56c7.01,-7.01 7.01,-18.37 0,-25.38l-0.46 -0.47c-7.01,-7.01 -7.01,-18.37 0,-25.37 1.68,-1.69 2.99,-3.67 3.89,-5.83 0.89,-2.15 1.36,-4.48 1.36,-6.86l0 -10.62c0,-4.76 -1.89,-9.32 -5.25,-12.68l-0.01 -0.02c-6.88,-6.87 -17.94,-7 -24.97,-0.39l62.71 -62.52 52.37 0zm0 0z"/>
    <path class="fil2" d="M1179 207.42l15.37 0c4.76,0 9.32,-1.89 12.69,-5.26l7.56 -7.57c3.37,-3.36 7.93,-5.25 12.69,-5.25l4.89 0c4.76,0 9.32,-1.89 12.69,-5.26l10.57 -10.57c7.01,-7.01 7.01,-18.37 0,-25.38l-0.46 -0.47c-7.01,-7.01 -7.01,-18.37 0,-25.37 3.36,-3.37 5.25,-7.94 5.25,-12.69l0 -10.62c0,-4.76 -1.89,-9.32 -5.25,-12.69l-0.01 -0.01c-7.01,-7 -18.37,-7 -25.38,0l-29.08 29.08c-3.36,3.37 -5.25,7.93 -5.25,12.69l0 4.22c0,5.23 -2.29,10.2 -6.25,13.61l-21.72 18.67c-3.97,3.41 -6.25,8.38 -6.25,13.61l0 11.31c0,9.91 8.03,17.95 17.94,17.95l0 0zm0 0z"/>
    <g>
     <path class="fil3" d="M1240.87 162.44c0,4.55 -3.68,8.23 -8.22,8.23 -4.54,0 -8.23,-3.68 -8.23,-8.23 0,-4.54 3.69,-8.22 8.23,-8.22 4.54,0 8.22,3.68 8.22,8.22zm0 0z"/>
     <path class="fil3" d="M1200.01 169.31c0,8.34 -6.76,15.1 -15.09,15.1 -8.34,0 -15.1,-6.76 -15.1,-15.1 0,-8.33 6.76,-15.09 15.1,-15.09 8.33,0 15.09,6.76 15.09,15.09zm0 0z"/>
     <path class="fil3" d="M1305.59 155.12l4.69 0c1.29,0 2.53,0.51 3.44,1.43 1.9,1.89 1.9,4.97 0,6.87l-8 8.01c-0.91,0.91 -2.15,1.42 -3.44,1.42l-5.59 0c-1.29,0 -2.53,-0.51 -3.44,-1.42 -1.63,-1.63 -1.63,-4.26 -0.02,-5.89l8.91 -8.98c0.91,-0.92 2.15,-1.44 3.45,-1.44l0 0zm0 0z"/>
     <path class="fil3" d="M1198.55 82.16l0 6.43c0,3.04 3.68,4.57 5.84,2.41l12.01 -12.01c0.64,-0.64 1,-1.51 1,-2.42l0 -6.53c0,-3.05 -3.7,-4.58 -5.85,-2.41l-12.01 12.13c-0.64,0.64 -0.99,1.5 -0.99,2.4l0 0zm0 0z"/>
    </g>
    <path class="fil0" d="M1257.64 145.02c-5.53,-5.54 -5.53,-14.55 0,-20.09 4.1,-4.09 6.36,-9.54 6.36,-15.33l0 -6.35 31.69 -31.69c1.46,-1.47 1.46,-3.84 0,-5.3 -1.46,-1.46 -3.83,-1.46 -5.29,0l-27.13 27.13c-0.97,-3.65 -2.89,-7 -5.64,-9.75 -0.98,-0.98 -2.03,-1.85 -3.14,-2.6 -0.02,-0.01 -0.04,-0.03 -0.07,-0.04 -3.19,-2.16 -6.84,-3.37 -10.54,-3.64l30.38 -30.29c1.47,-1.46 1.47,-3.83 0.01,-5.3 -1.46,-1.46 -3.83,-1.46 -5.3,-0.01l-40.16 40.05c-0.18,0.18 -0.33,0.37 -0.47,0.57 -0.47,0.39 -0.93,0.81 -1.38,1.26l-29.08 29.07c-4.09,4.1 -6.35,9.55 -6.35,15.34l0 4.22c0,4.14 -1.8,8.07 -4.94,10.77l-21.72 18.67c-4.8,4.12 -7.56,10.12 -7.56,16.45l0 11.31c0,11.96 9.73,21.69 21.69,21.69l15.37 0c5.79,0 11.24,-2.26 15.33,-6.35l7.57 -7.57c2.68,-2.68 6.25,-4.16 10.04,-4.16l4.89 0c5.79,0 11.24,-2.26 15.33,-6.35l10.58 -10.58c8.45,-8.45 8.45,-22.21 0,-30.67l-0.47 -0.46zm-72.72 12.94c6.26,0 11.35,5.09 11.35,11.35 0,6.26 -5.09,11.35 -11.35,11.35 -6.26,0 -11.35,-5.09 -11.35,-11.35 0,-6.26 5.09,-11.35 11.35,-11.35zm67.9 12.9l-10.58 10.57c-2.68,2.69 -6.25,4.16 -10.04,4.16l-4.89 0c-5.79,0 -11.24,2.26 -15.33,6.36l-7.57 7.56c-2.68,2.69 -6.25,4.16 -10.04,4.16l-15.37 0c-7.83,0 -14.2,-6.37 -14.2,-14.2l0 -11.31c0,-2.2 0.51,-4.34 1.46,-6.27 1.26,9.17 9.15,16.26 18.66,16.26 10.38,0 18.83,-8.45 18.83,-18.84 0,-9.01 -6.36,-16.56 -14.83,-18.4l2.55 -2.19c4.8,-4.13 7.55,-10.12 7.55,-16.45l0 -4.22c0,-3.79 1.47,-7.36 4.16,-10.04l29.07 -29.08c2.77,-2.77 6.41,-4.15 10.04,-4.15 1.24,0 2.47,0.16 3.67,0.48l-18.62 18.62c-3.75,3.75 -5.82,8.75 -5.82,14.06 0,3.32 -1.29,6.44 -3.64,8.78l-2.96 2.96c-1.46,1.46 -1.46,3.83 0,5.29 0.74,0.73 1.69,1.1 2.65,1.1 0.96,0 1.92,-0.37 2.65,-1.1l2.96 -2.96c3.75,-3.75 5.82,-8.75 5.82,-14.07 0,-3.31 1.29,-6.43 3.64,-8.77l19.96 -19.96c2.52,2.65 3.91,6.1 3.91,9.77l0 1.17 -9.26 9.26c-1.46,1.46 -1.46,3.83 0,5.29 0.73,0.73 1.69,1.1 2.65,1.1 0.96,0 1.91,-0.37 2.64,-1.1l3.92 -3.91c-0.28,3.34 -1.71,6.45 -4.11,8.85 -8.46,8.45 -8.46,22.21 0,30.67l0.46 0.47c5.54,5.53 5.54,14.54 0.01,20.08l0 0zm0 0z"/>
    <path class="fil0" d="M1232.65 150.48c-6.6,0 -11.97,5.36 -11.97,11.96 0,6.6 5.37,11.97 11.97,11.97 6.6,0 11.97,-5.37 11.97,-11.97 0,-6.6 -5.37,-11.96 -11.97,-11.96zm0 16.44c-2.47,0 -4.48,-2.01 -4.48,-4.48 0,-2.47 2.01,-4.48 4.48,-4.48 2.47,0 4.48,2.01 4.48,4.48 0,2.47 -2.01,4.48 -4.48,4.48zm0 0z"/>
    <path class="fil0" d="M1210.59 139.69c-0.6,-1.45 -2.09,-2.39 -3.66,-2.3 -1.55,0.08 -2.92,1.16 -3.38,2.65 -0.45,1.49 0.1,3.17 1.36,4.09 1.23,0.9 2.9,0.97 4.2,0.17 1.54,-0.94 2.17,-2.94 1.48,-4.61l0 0zm0 0z"/>
    <path class="fil0" d="M1335.1 60.25c-1.47,-1.46 -3.84,-1.46 -5.3,0l-42.47 42.47c-1.46,1.46 -1.46,3.83 0,5.3 0.73,0.73 1.69,1.09 2.65,1.09 0.95,0 1.91,-0.36 2.64,-1.09l42.48 -42.48c1.46,-1.46 1.46,-3.83 0,-5.29zm0 0z"/>
    <path class="fil0" d="M1283.45 36.39c0.96,0 1.92,-0.37 2.65,-1.1l9.28 -9.28c1.46,-1.46 1.46,-3.83 0,-5.29 -1.47,-1.46 -3.84,-1.46 -5.3,0l-9.28 9.28c-1.46,1.46 -1.46,3.83 0,5.29 0.74,0.73 1.69,1.1 2.65,1.1l0 0zm0 0z"/>
    <path class="fil0" d="M1312.17 116.8c-1.46,-1.46 -3.83,-1.46 -5.29,0l-37.91 37.91c-1.46,1.46 -1.46,3.83 0,5.29 0.73,0.73 1.69,1.1 2.65,1.1 0.96,0 1.91,-0.37 2.64,-1.1l37.91 -37.91c1.47,-1.46 1.47,-3.83 0,-5.29l0 0zm0 0z"/>
    <path class="fil0" d="M1282.27 119.15l-10.53 10.53c-1.46,1.46 -1.46,3.83 0,5.29 0.73,0.73 1.69,1.1 2.64,1.1 0.96,0 1.92,-0.37 2.65,-1.1l10.53 -10.53c1.46,-1.46 1.46,-3.83 0,-5.29 -1.46,-1.46 -3.83,-1.46 -5.29,0l0 0zm0 0z"/>
    <path class="fil0" d="M1300.48 60.87c0.86,1.3 2.5,1.93 4.02,1.55 1.51,-0.39 2.65,-1.7 2.81,-3.26 0.16,-1.55 -0.71,-3.07 -2.1,-3.74 -1.38,-0.66 -3.06,-0.41 -4.18,0.64 -1.33,1.24 -1.55,3.3 -0.55,4.81l0 0zm0 0z"/>
    <path class="fil0" d="M1311.69 51.69c0.73,0.73 1.68,1.1 2.64,1.1 0.96,0 1.92,-0.37 2.65,-1.1l25.41 -25.4c1.46,-1.47 1.46,-3.84 0,-5.3 -1.46,-1.46 -3.83,-1.46 -5.3,0l-25.4 25.41c-1.46,1.46 -1.46,3.83 0,5.29l0 0zm0 0z"/>
    <path class="fil0" d="M1327.02 96.66l-8.92 8.92c-1.46,1.46 -1.46,3.83 0,5.3 0.73,0.73 1.69,1.09 2.64,1.09 0.96,0 1.92,-0.36 2.65,-1.09l8.92 -8.93c1.46,-1.46 1.46,-3.83 0,-5.29 -1.46,-1.46 -3.83,-1.46 -5.29,0l0 0zm0 0z"/>
    <path class="fil0" d="M1342.27 73.32l-6.68 6.69c-1.46,1.46 -1.46,3.83 0,5.29 0.73,0.73 1.69,1.1 2.65,1.1 0.95,0 1.91,-0.37 2.64,-1.1l6.69 -6.68c1.46,-1.46 1.46,-3.83 0,-5.3 -1.46,-1.46 -3.83,-1.46 -5.3,0zm0 0z"/>
    <path class="fil0" d="M1271.74 63.5l-7.92 7.91c-1.46,1.46 -1.46,3.83 0,5.3 0.73,0.73 1.69,1.09 2.65,1.09 0.95,0 1.91,-0.36 2.64,-1.09l7.92 -7.92c1.46,-1.46 1.46,-3.83 0,-5.29 -1.46,-1.47 -3.83,-1.47 -5.29,0zm0 0z"/>
    <path class="fil0" d="M1283.42 57.74c0.73,0.73 1.69,1.1 2.65,1.1 0.95,0 1.91,-0.37 2.64,-1.1l30.84 -30.84c1.47,-1.46 1.47,-3.83 0,-5.3 -1.46,-1.46 -3.83,-1.46 -5.29,0l-30.84 30.84c-1.46,1.47 -1.46,3.84 0,5.3l0 0zm0 0z"/>
    <path class="fil0" d="M1334.55 46.4c-1.47,1.46 -1.47,3.83 0,5.29 0.73,0.73 1.69,1.1 2.64,1.1 0.96,0 1.92,-0.37 2.65,-1.1l8.03 -8.02c1.46,-1.46 1.46,-3.83 0,-5.3 -1.46,-1.46 -3.83,-1.46 -5.3,0l-8.02 8.03zm0 0z"/>
    <path class="fil0" d="M1331.2 129.97l-11.61 11.61c-1.47,1.46 -1.47,3.83 0,5.29 0.73,0.73 1.69,1.1 2.64,1.1 0.96,0 1.92,-0.37 2.65,-1.1l11.61 -11.61c1.46,-1.46 1.46,-3.83 0,-5.29 -1.46,-1.46 -3.83,-1.46 -5.29,0l0 0zm0 0z"/>
    <path class="fil0" d="M1310.28 151.38l-4.69 0c-2.28,0 -4.51,0.93 -6.11,2.55l-8.9 8.97c-3.06,3.09 -3.05,8.1 0.02,11.17 1.63,1.63 3.79,2.52 6.09,2.52l5.59 0c2.3,0 4.46,-0.89 6.09,-2.52l8 -8c3.36,-3.36 3.36,-8.81 0,-12.17 -1.63,-1.63 -3.79,-2.52 -6.09,-2.52zm0.8 9.4l-8.01 8c-0.21,0.21 -0.49,0.33 -0.79,0.33l-5.59 0c-0.3,0 -0.58,-0.12 -0.8,-0.33 -0.16,-0.17 -0.16,-0.44 0,-0.61l8.9 -8.97c0.21,-0.21 0.5,-0.33 0.8,-0.33l4.69 0c0.3,0 0.59,0.11 0.8,0.32 0.43,0.44 0.43,1.15 0,1.59zm0 0z"/>
    <path class="fil0" d="M1199.23 95.2c0.89,0.37 1.82,0.55 2.75,0.55 1.86,0 3.68,-0.73 5.06,-2.1l12.01 -12.01c1.35,-1.35 2.1,-3.15 2.1,-5.07l0 -6.53c0,-2.91 -1.75,-5.51 -4.44,-6.62 -2.7,-1.11 -5.77,-0.49 -7.82,1.58l-12.01 12.12c-1.34,1.35 -2.08,3.14 -2.08,5.05l0 6.42c0,2.9 1.74,5.5 4.43,6.61l0 0zm3.06 -12.9l11.37 -11.48 0 5.62 -11.37 11.37 0 -5.51zm0 0z"/>
   </g>
   <g>
    <path class="fil1" d="M1456.38 21.91l0 36.92 -57.48 57.48 2.78 -2.78c4.28,-4.28 4.28,-11.21 0,-15.49l-0.28 -0.28c-4.28,-4.28 -4.28,-11.21 0,-15.49 1.03,-1.03 1.83,-2.24 2.38,-3.55 0.54,-1.32 0.83,-2.74 0.83,-4.19l0 -6.48c0,-2.9 -1.15,-5.69 -3.21,-7.74l-0.01 -0.01c-4.19,-4.19 -10.94,-4.27 -15.23,-0.24l38.27 -38.15 31.95 0zm0 0z"/>
    <path class="fil2" d="M1355.03 134.22l9.37 0c2.91,0 5.69,-1.15 7.75,-3.21l4.61 -4.61c2.06,-2.06 4.84,-3.21 7.75,-3.21l2.98 0c2.9,0 5.69,-1.16 7.74,-3.21l6.45 -6.45c4.28,-4.28 4.28,-11.21 0,-15.49l-0.28 -0.28c-4.28,-4.28 -4.28,-11.21 0,-15.49 2.05,-2.05 3.21,-4.84 3.21,-7.74l0 -6.48c0,-2.9 -1.16,-5.69 -3.21,-7.74l-0.01 -0.01c-4.27,-4.28 -11.21,-4.28 -15.48,0l-17.75 17.75c-2.05,2.05 -3.2,4.83 -3.2,7.74l0 2.57c0,3.19 -1.4,6.23 -3.82,8.31l-13.25 11.39c-2.42,2.08 -3.81,5.11 -3.81,8.31l0 6.9c0,6.05 4.9,10.95 10.95,10.95l0 0zm0 0z"/>
    <g>
     <path class="fil3" d="M1392.78 106.78c0,2.77 -2.25,5.01 -5.02,5.01 -2.77,0 -5.02,-2.24 -5.02,-5.01 0,-2.78 2.25,-5.02 5.02,-5.02 2.77,0 5.02,2.24 5.02,5.02zm0 0z"/>
     <path class="fil3" d="M1367.85 110.97c0,5.08 -4.13,9.21 -9.21,9.21 -5.09,0 -9.21,-4.13 -9.21,-9.21 0,-5.09 4.12,-9.21 9.21,-9.21 5.08,0 9.21,4.12 9.21,9.21zm0 0z"/>
     <path class="fil3" d="M1432.27 102.31l2.87 0c0.79,0 1.54,0.31 2.1,0.87 1.16,1.16 1.16,3.03 0,4.19l-4.89 4.89c-0.55,0.55 -1.31,0.87 -2.1,0.87l-3.41 0c-0.79,0 -1.54,-0.32 -2.1,-0.87 -0.99,-0.99 -0.99,-2.6 -0.01,-3.6l5.44 -5.47c0.55,-0.56 1.31,-0.88 2.1,-0.88l0 0zm0 0z"/>
     <path class="fil3" d="M1366.95 57.79l0 3.92c0,1.85 2.25,2.79 3.57,1.47l7.33 -7.33c0.39,-0.39 0.61,-0.92 0.61,-1.47l0 -3.99c0,-1.86 -2.26,-2.79 -3.57,-1.47l-7.33 7.4c-0.39,0.39 -0.61,0.92 -0.61,1.47l0 0zm0 0z"/>
    </g>
    <path class="fil0" d="M1403.01 96.14c-3.37,-3.38 -3.37,-8.87 0,-12.25 2.51,-2.5 3.88,-5.83 3.88,-9.36l0 -3.87 19.34 -19.35c0.9,-0.89 0.9,-2.34 0,-3.23 -0.89,-0.89 -2.33,-0.89 -3.23,0l-16.55 16.56c-0.59,-2.23 -1.76,-4.28 -3.44,-5.95 -0.6,-0.6 -1.24,-1.13 -1.92,-1.59 -0.01,-0.01 -0.03,-0.02 -0.04,-0.03 -1.95,-1.31 -4.17,-2.05 -6.44,-2.21l18.55 -18.49c0.89,-0.89 0.89,-2.34 0,-3.23 -0.89,-0.89 -2.34,-0.9 -3.23,-0.01l-24.51 24.44c-0.11,0.11 -0.2,0.22 -0.28,0.35 -0.29,0.24 -0.58,0.49 -0.85,0.77l-17.74 17.74c-2.5,2.5 -3.88,5.82 -3.88,9.36l0 2.57c0,2.53 -1.1,4.93 -3.02,6.57l-13.25 11.4c-2.93,2.52 -4.61,6.17 -4.61,10.04l0 6.9c0,7.3 5.94,13.23 13.24,13.23l9.37 0c3.54,0 6.86,-1.37 9.36,-3.87l4.62 -4.62c1.64,-1.64 3.81,-2.54 6.13,-2.54l2.98 0c3.53,0 6.86,-1.37 9.36,-3.87l6.45 -6.46c5.16,-5.16 5.16,-13.55 0,-18.71l-0.29 -0.29zm-44.37 7.9c3.82,0 6.92,3.11 6.92,6.93 0,3.82 -3.1,6.92 -6.92,6.92 -3.82,0 -6.93,-3.1 -6.93,-6.92 0,-3.82 3.11,-6.93 6.93,-6.93zm41.43 7.87l-6.45 6.45c-1.64,1.64 -3.82,2.54 -6.13,2.54l-2.98 0c-3.54,0 -6.86,1.38 -9.36,3.88l-4.62 4.62c-1.64,1.64 -3.81,2.54 -6.13,2.54l-9.37 0c-4.78,0 -8.67,-3.89 -8.67,-8.67l0 -6.9c0,-1.35 0.31,-2.65 0.89,-3.83 0.77,5.6 5.58,9.92 11.39,9.92 6.33,0 11.49,-5.15 11.49,-11.49 0,-5.5 -3.88,-10.11 -9.05,-11.23l1.55 -1.34c2.93,-2.52 4.61,-6.18 4.61,-10.04l0 -2.57c0,-2.32 0.9,-4.49 2.54,-6.13l17.74 -17.74c1.69,-1.69 3.91,-2.54 6.13,-2.54 0.75,0 1.5,0.1 2.24,0.3l-11.36 11.36c-2.3,2.29 -3.56,5.34 -3.56,8.58 0,2.02 -0.79,3.93 -2.22,5.36l-1.8 1.8c-0.89,0.89 -0.89,2.34 0,3.23 0.44,0.45 1.03,0.67 1.61,0.67 0.59,0 1.17,-0.22 1.62,-0.67l1.8 -1.8c2.3,-2.3 3.56,-5.34 3.56,-8.59 0,-2.02 0.79,-3.92 2.22,-5.35l12.18 -12.19c1.54,1.62 2.38,3.73 2.38,5.97l0 0.71 -5.65 5.65c-0.89,0.9 -0.89,2.34 0,3.23 0.45,0.45 1.03,0.67 1.62,0.67 0.58,0 1.17,-0.22 1.61,-0.67l2.39 -2.38c-0.17,2.04 -1.04,3.93 -2.5,5.4 -5.16,5.16 -5.16,13.55 0,18.71l0.28 0.29c3.38,3.38 3.38,8.87 0,12.25l0 0zm0 0z"/>
    <path class="fil0" d="M1387.76 99.47c-4.02,0 -7.3,3.28 -7.3,7.31 0,4.02 3.28,7.3 7.3,7.3 4.03,0 7.31,-3.28 7.31,-7.3 0,-4.03 -3.28,-7.31 -7.31,-7.31zm0 10.04c-1.51,0 -2.73,-1.23 -2.73,-2.73 0,-1.51 1.22,-2.74 2.73,-2.74 1.51,0 2.74,1.23 2.74,2.74 0,1.5 -1.23,2.73 -2.74,2.73zm0 0z"/>
    <path class="fil0" d="M1374.3 92.89c-0.37,-0.88 -1.27,-1.46 -2.23,-1.4 -0.95,0.05 -1.78,0.7 -2.06,1.61 -0.28,0.91 0.06,1.94 0.82,2.5 0.76,0.55 1.78,0.59 2.57,0.11 0.94,-0.58 1.33,-1.8 0.9,-2.82l0 0zm0 0z"/>
    <path class="fil0" d="M1450.28 44.41c-0.89,-0.89 -2.34,-0.89 -3.23,0l-25.92 25.92c-0.89,0.89 -0.89,2.34 0,3.23 0.45,0.45 1.03,0.67 1.62,0.67 0.58,0 1.16,-0.22 1.61,-0.67l25.92 -25.92c0.89,-0.89 0.89,-2.34 0,-3.23zm0 0z"/>
    <path class="fil0" d="M1418.76 29.85c0.59,0 1.17,-0.22 1.62,-0.67l5.66 -5.66c0.89,-0.89 0.89,-2.34 0,-3.23 -0.89,-0.89 -2.34,-0.89 -3.23,0l-5.66 5.66c-0.89,0.9 -0.89,2.34 0,3.23 0.45,0.45 1.03,0.67 1.61,0.67l0 0zm0 0z"/>
    <path class="fil0" d="M1436.29 78.92c-0.89,-0.89 -2.34,-0.89 -3.23,0l-23.13 23.13c-0.89,0.9 -0.89,2.34 0,3.24 0.44,0.44 1.03,0.66 1.61,0.66 0.59,0 1.17,-0.22 1.62,-0.66l23.13 -23.14c0.89,-0.89 0.89,-2.34 0,-3.23l0 0zm0 0z"/>
    <path class="fil0" d="M1418.04 80.36l-6.42 6.42c-0.9,0.89 -0.9,2.34 0,3.23 0.44,0.45 1.03,0.67 1.61,0.67 0.59,0 1.17,-0.22 1.62,-0.67l6.42 -6.42c0.89,-0.89 0.89,-2.34 0,-3.23 -0.89,-0.89 -2.34,-0.89 -3.23,0l0 0zm0 0z"/>
    <path class="fil0" d="M1429.15 44.79c0.53,0.79 1.53,1.18 2.46,0.95 0.92,-0.24 1.62,-1.04 1.71,-1.99 0.1,-0.94 -0.43,-1.88 -1.28,-2.28 -0.84,-0.41 -1.87,-0.25 -2.55,0.39 -0.81,0.75 -0.94,2.01 -0.34,2.93l0 0zm0 0z"/>
    <path class="fil0" d="M1435.99 39.19c0.45,0.45 1.03,0.67 1.62,0.67 0.58,0 1.17,-0.22 1.62,-0.67l15.5 -15.5c0.89,-0.89 0.89,-2.34 0,-3.23 -0.89,-0.89 -2.34,-0.89 -3.23,0l-15.51 15.5c-0.89,0.9 -0.89,2.34 0,3.23l0 0zm0 0z"/>
    <path class="fil0" d="M1445.35 66.63l-5.44 5.45c-0.9,0.89 -0.9,2.34 0,3.23 0.44,0.44 1.03,0.67 1.61,0.67 0.59,0 1.17,-0.23 1.62,-0.67l5.44 -5.45c0.89,-0.89 0.89,-2.34 0,-3.23 -0.89,-0.89 -2.34,-0.89 -3.23,0l0 0zm0 0z"/>
    <path class="fil0" d="M1454.66 52.39l-4.08 4.08c-0.89,0.89 -0.89,2.34 0,3.23 0.45,0.45 1.03,0.67 1.62,0.67 0.58,0 1.17,-0.22 1.61,-0.67l4.08 -4.08c0.89,-0.89 0.89,-2.33 0,-3.23 -0.89,-0.89 -2.34,-0.89 -3.23,0zm0 0z"/>
    <path class="fil0" d="M1411.62 46.4l-4.84 4.83c-0.89,0.89 -0.89,2.33 0,3.23 0.45,0.44 1.04,0.67 1.62,0.67 0.58,0 1.17,-0.23 1.62,-0.67l4.83 -4.83c0.89,-0.9 0.89,-2.34 0,-3.23 -0.89,-0.9 -2.34,-0.9 -3.23,0zm0 0z"/>
    <path class="fil0" d="M1418.74 42.88c0.45,0.45 1.03,0.67 1.62,0.67 0.58,0 1.17,-0.22 1.62,-0.67l18.81 -18.82c0.9,-0.89 0.9,-2.33 0,-3.23 -0.89,-0.89 -2.33,-0.89 -3.23,0l-18.82 18.82c-0.89,0.89 -0.89,2.34 0,3.23l0 0zm0 0z"/>
    <path class="fil0" d="M1449.94 35.96c-0.89,0.9 -0.89,2.34 0,3.23 0.45,0.45 1.03,0.67 1.62,0.67 0.58,0 1.17,-0.22 1.61,-0.67l4.9 -4.9c0.9,-0.89 0.9,-2.33 0,-3.23 -0.89,-0.89 -2.34,-0.89 -3.23,0l-4.9 4.9zm0 0z"/>
    <path class="fil0" d="M1447.9 86.96l-7.08 7.08c-0.9,0.89 -0.9,2.34 0,3.23 0.44,0.45 1.03,0.67 1.61,0.67 0.59,0 1.17,-0.22 1.62,-0.67l7.08 -7.08c0.89,-0.89 0.89,-2.34 0,-3.23 -0.89,-0.89 -2.34,-0.89 -3.23,0l0 0zm0 0z"/>
    <path class="fil0" d="M1435.14 100.02l-2.87 0c-1.39,0 -2.75,0.57 -3.72,1.56l-5.44 5.47c-1.86,1.89 -1.86,4.95 0.02,6.82 0.99,1 2.31,1.54 3.71,1.54l3.41 0c1.41,0 2.73,-0.54 3.72,-1.54l4.88 -4.88c2.05,-2.05 2.05,-5.38 0,-7.43 -0.99,-0.99 -2.31,-1.54 -3.71,-1.54zm0.48 5.74l-4.88 4.88c-0.13,0.13 -0.3,0.2 -0.49,0.2l-3.41 0c-0.18,0 -0.35,-0.07 -0.48,-0.2 -0.1,-0.1 -0.1,-0.27 0,-0.37l5.43 -5.47c0.13,-0.13 0.3,-0.21 0.48,-0.21l2.87 0c0.18,0 0.35,0.07 0.48,0.2 0.27,0.27 0.27,0.7 0,0.97zm0 0z"/>
    <path class="fil0" d="M1367.37 65.74c0.54,0.23 1.11,0.34 1.68,0.34 1.13,0 2.24,-0.44 3.08,-1.28l7.33 -7.33c0.83,-0.83 1.28,-1.93 1.28,-3.09l0 -3.99c0,-1.78 -1.06,-3.37 -2.7,-4.04 -1.65,-0.68 -3.52,-0.3 -4.77,0.96l-7.33 7.4c-0.82,0.82 -1.27,1.92 -1.27,3.08l0 3.92c0,1.77 1.06,3.35 2.7,4.03l0 0zm1.87 -7.87l6.94 -7 0 3.42 -6.94 6.94 0 -3.36zm0 0z"/>
   </g>
   <g>
    <path class="fil1" d="M1463.59 123.45l0 39.82 -61.99 61.98 3 -3c4.62,-4.62 4.62,-12.09 0,-16.7l-0.3 -0.31c-4.61,-4.61 -4.61,-12.09 0,-16.7 1.1,-1.1 1.97,-2.41 2.56,-3.83 0.58,-1.42 0.89,-2.95 0.89,-4.52l0 -6.98c0,-3.13 -1.24,-6.14 -3.45,-8.35l-0.01 -0.01c-4.52,-4.52 -11.8,-4.61 -16.43,-0.26l41.26 -41.14 34.47 0zm0 0z"/>
    <path class="fil2" d="M1354.29 244.56l10.11 0c3.14,0 6.14,-1.25 8.35,-3.46l4.98 -4.98c2.22,-2.21 5.22,-3.46 8.35,-3.46l3.22 0c3.13,0 6.13,-1.24 8.35,-3.46l6.95 -6.95c4.61,-4.62 4.61,-12.09 0,-16.7l-0.3 -0.31c-4.61,-4.61 -4.61,-12.09 0,-16.7 2.21,-2.21 3.46,-5.22 3.46,-8.35l0 -6.98c0,-3.13 -1.25,-6.14 -3.46,-8.35l-0.01 -0.01c-4.61,-4.61 -12.09,-4.61 -16.7,0l-19.13 19.14c-2.22,2.21 -3.46,5.21 -3.46,8.35l0 2.77c0,3.44 -1.5,6.71 -4.11,8.95l-14.29 12.29c-2.61,2.24 -4.11,5.51 -4.11,8.95l0 7.45c0,6.52 5.28,11.81 11.8,11.81l0 0zm0 0z"/>
    <g>
     <path class="fil3" d="M1395 214.97c0,2.98 -2.42,5.41 -5.41,5.41 -2.99,0 -5.41,-2.43 -5.41,-5.41 0,-2.99 2.42,-5.42 5.41,-5.42 2.99,0 5.41,2.43 5.41,5.42zm0 0z"/>
     <path class="fil3" d="M1368.12 219.49c0,5.48 -4.45,9.93 -9.93,9.93 -5.49,0 -9.94,-4.45 -9.94,-9.93 0,-5.49 4.45,-9.94 9.94,-9.94 5.48,0 9.93,4.45 9.93,9.94zm0 0z"/>
     <path class="fil3" d="M1437.59 210.15l3.09 0c0.84,0 1.66,0.34 2.26,0.94 1.25,1.25 1.25,3.27 0,4.52l-5.27 5.27c-0.6,0.6 -1.41,0.93 -2.26,0.93l-3.68 0c-0.85,0 -1.66,-0.33 -2.26,-0.93 -1.07,-1.07 -1.08,-2.8 -0.01,-3.88l5.85 -5.91c0.61,-0.6 1.42,-0.94 2.28,-0.94l0 0zm0 0z"/>
     <path class="fil3" d="M1367.15 162.14l0 4.23c0,2 2.43,3.01 3.85,1.59l7.9 -7.9c0.42,-0.43 0.66,-1 0.66,-1.6l0 -4.29c0,-2.01 -2.44,-3.02 -3.85,-1.59l-7.9 7.98c-0.42,0.42 -0.66,0.99 -0.66,1.58l0 0zm0 0z"/>
    </g>
    <path class="fil0" d="M1406.04 203.5c-3.65,-3.64 -3.65,-9.57 0,-13.22 2.69,-2.69 4.18,-6.28 4.18,-10.09l0 -4.17 20.85 -20.86c0.97,-0.96 0.97,-2.52 0,-3.48 -0.96,-0.96 -2.52,-0.96 -3.48,0l-17.85 17.85c-0.64,-2.4 -1.9,-4.61 -3.71,-6.42 -0.64,-0.64 -1.34,-1.21 -2.07,-1.71 -0.01,-0.01 -0.03,-0.02 -0.04,-0.03 -2.1,-1.42 -4.5,-2.21 -6.94,-2.39l19.99 -19.93c0.97,-0.96 0.97,-2.52 0.01,-3.49 -0.96,-0.96 -2.52,-0.96 -3.49,0l-26.42 26.35c-0.12,0.11 -0.22,0.24 -0.31,0.37 -0.31,0.26 -0.62,0.54 -0.91,0.83l-19.13 19.13c-2.7,2.7 -4.18,6.28 -4.18,10.1l0 2.77c0,2.73 -1.19,5.31 -3.26,7.09l-14.29 12.28c-3.16,2.72 -4.97,6.66 -4.97,10.82l0 7.45c0,7.87 6.4,14.27 14.27,14.27l10.11 0c3.81,0 7.4,-1.48 10.09,-4.18l4.98 -4.98c1.77,-1.76 4.12,-2.73 6.61,-2.73l3.22 0c3.81,0 7.39,-1.49 10.09,-4.19l6.96 -6.95c5.56,-5.57 5.56,-14.62 0,-20.18l-0.31 -0.31zm-47.85 8.52c4.11,0 7.46,3.35 7.46,7.47 0,4.11 -3.35,7.46 -7.46,7.46 -4.12,0 -7.47,-3.35 -7.47,-7.46 0,-4.12 3.35,-7.47 7.47,-7.47zm44.67 8.48l-6.96 6.96c-1.76,1.77 -4.11,2.74 -6.6,2.74l-3.22 0c-3.81,0 -7.39,1.48 -10.09,4.18l-4.98 4.98c-1.76,1.76 -4.11,2.74 -6.61,2.74l-10.11 0c-5.15,0 -9.34,-4.2 -9.34,-9.35l0 -7.44c0,-1.45 0.34,-2.86 0.96,-4.13 0.83,6.04 6.02,10.7 12.27,10.7 6.84,0 12.4,-5.56 12.4,-12.39 0,-5.93 -4.19,-10.9 -9.76,-12.11l1.68 -1.45c3.15,-2.71 4.96,-6.66 4.96,-10.82l0 -2.77c0,-2.5 0.98,-4.85 2.74,-6.61l19.13 -19.14c1.82,-1.82 4.22,-2.73 6.61,-2.73 0.81,0 1.62,0.11 2.41,0.32l-12.25 12.25c-2.47,2.47 -3.83,5.76 -3.83,9.26 0,2.18 -0.85,4.23 -2.39,5.77l-1.95 1.95c-0.96,0.96 -0.96,2.52 0,3.48 0.48,0.48 1.11,0.72 1.74,0.72 0.63,0 1.26,-0.24 1.74,-0.72l1.95 -1.95c2.47,-2.47 3.83,-5.76 3.83,-9.25 0,-2.19 0.85,-4.24 2.4,-5.78l13.13 -13.13c1.66,1.74 2.57,4.01 2.57,6.43l0 0.77 -6.09 6.09c-0.96,0.96 -0.96,2.52 0,3.48 0.48,0.48 1.11,0.72 1.74,0.72 0.63,0 1.26,-0.24 1.74,-0.72l2.58 -2.57c-0.19,2.2 -1.13,4.24 -2.7,5.82 -5.57,5.56 -5.57,14.62 0,20.18l0.3 0.31c3.65,3.64 3.65,9.57 0,13.21l0 0zm0 0z"/>
    <path class="fil0" d="M1389.59 207.09c-4.34,0 -7.87,3.53 -7.87,7.88 0,4.34 3.53,7.87 7.87,7.87 4.34,0 7.88,-3.53 7.88,-7.87 0,-4.35 -3.54,-7.88 -7.88,-7.88zm0 10.82c-1.62,0 -2.95,-1.32 -2.95,-2.94 0,-1.63 1.33,-2.95 2.95,-2.95 1.63,0 2.95,1.32 2.95,2.95 0,1.62 -1.32,2.94 -2.95,2.94zm0 0z"/>
    <path class="fil0" d="M1375.08 200c-0.4,-0.96 -1.37,-1.58 -2.41,-1.52 -1.02,0.05 -1.92,0.76 -2.22,1.74 -0.3,0.98 0.06,2.09 0.89,2.7 0.81,0.59 1.91,0.64 2.76,0.11 1.02,-0.62 1.44,-1.94 0.98,-3.03l0 0zm0 0z"/>
    <path class="fil0" d="M1457 147.72c-0.96,-0.96 -2.52,-0.96 -3.48,0l-27.95 27.95c-0.96,0.96 -0.96,2.52 0,3.48 0.48,0.48 1.11,0.72 1.74,0.72 0.63,0 1.26,-0.24 1.74,-0.72l27.95 -27.94c0.96,-0.97 0.96,-2.53 0,-3.49zm0 0z"/>
    <path class="fil0" d="M1423.02 132.02c0.63,0 1.26,-0.24 1.74,-0.72l6.11 -6.1c0.96,-0.97 0.96,-2.53 0,-3.49 -0.96,-0.96 -2.53,-0.96 -3.49,0l-6.1 6.11c-0.96,0.96 -0.96,2.52 0,3.48 0.48,0.48 1.11,0.72 1.74,0.72l0 0zm0 0z"/>
    <path class="fil0" d="M1441.92 184.93c-0.96,-0.96 -2.52,-0.96 -3.48,0l-24.95 24.94c-0.96,0.97 -0.96,2.53 0,3.49 0.48,0.48 1.11,0.72 1.74,0.72 0.63,0 1.26,-0.24 1.75,-0.72l24.94 -24.94c0.96,-0.97 0.96,-2.53 0,-3.49l0 0zm0 0z"/>
    <path class="fil0" d="M1422.24 186.48l-6.93 6.93c-0.96,0.96 -0.96,2.52 0,3.48 0.48,0.48 1.11,0.72 1.74,0.72 0.63,0 1.26,-0.24 1.75,-0.72l6.92 -6.93c0.97,-0.96 0.97,-2.52 0,-3.48 -0.96,-0.96 -2.52,-0.96 -3.48,0l0 0zm0 0z"/>
    <path class="fil0" d="M1434.22 148.13c0.57,0.86 1.65,1.27 2.65,1.02 1,-0.25 1.74,-1.12 1.85,-2.15 0.1,-1.01 -0.47,-2.02 -1.38,-2.46 -0.91,-0.43 -2.02,-0.27 -2.76,0.42 -0.87,0.82 -1.01,2.18 -0.36,3.17l0 0zm0 0z"/>
    <path class="fil0" d="M1441.6 142.09c0.48,0.48 1.11,0.72 1.74,0.72 0.63,0 1.26,-0.24 1.74,-0.72l16.72 -16.72c0.96,-0.96 0.96,-2.52 0,-3.48 -0.96,-0.96 -2.52,-0.96 -3.48,0l-16.72 16.72c-0.96,0.96 -0.96,2.52 0,3.48l0 0zm0 0z"/>
    <path class="fil0" d="M1451.69 171.68l-5.87 5.87c-0.96,0.96 -0.96,2.52 0,3.48 0.48,0.49 1.11,0.73 1.74,0.73 0.63,0 1.26,-0.24 1.74,-0.73l5.87 -5.87c0.96,-0.96 0.96,-2.52 0,-3.48 -0.96,-0.96 -2.52,-0.96 -3.48,0l0 0zm0 0z"/>
    <path class="fil0" d="M1461.73 156.33l-4.4 4.39c-0.96,0.97 -0.96,2.53 0,3.49 0.48,0.48 1.11,0.72 1.74,0.72 0.63,0 1.26,-0.24 1.74,-0.72l4.4 -4.4c0.96,-0.96 0.96,-2.52 0,-3.48 -0.96,-0.96 -2.52,-0.97 -3.48,0zm0 0z"/>
    <path class="fil0" d="M1415.31 149.86l-5.21 5.21c-0.96,0.96 -0.96,2.52 0,3.48 0.48,0.48 1.11,0.72 1.74,0.72 0.63,0 1.27,-0.24 1.75,-0.72l5.21 -5.21c0.96,-0.96 0.96,-2.52 0,-3.48 -0.97,-0.96 -2.52,-0.96 -3.49,0zm0 0z"/>
    <path class="fil0" d="M1423 146.07c0.48,0.48 1.11,0.72 1.74,0.72 0.63,0 1.26,-0.24 1.74,-0.72l20.29 -20.29c0.97,-0.96 0.97,-2.52 0,-3.49 -0.96,-0.96 -2.52,-0.96 -3.48,0l-20.29 20.3c-0.96,0.96 -0.96,2.52 0,3.48l0 0zm0 0z"/>
    <path class="fil0" d="M1456.64 138.61c-0.96,0.96 -0.96,2.52 0,3.48 0.48,0.48 1.11,0.72 1.74,0.72 0.63,0 1.26,-0.24 1.74,-0.72l5.29 -5.28c0.96,-0.96 0.96,-2.52 0,-3.48 -0.97,-0.96 -2.52,-0.96 -3.49,0l-5.28 5.28zm0 0z"/>
    <path class="fil0" d="M1454.44 193.6l-7.64 7.64c-0.96,0.96 -0.96,2.52 0,3.48 0.48,0.48 1.11,0.72 1.74,0.72 0.63,0 1.26,-0.24 1.74,-0.72l7.64 -7.64c0.96,-0.96 0.96,-2.52 0,-3.48 -0.96,-0.96 -2.52,-0.96 -3.48,0l0 0zm0 0z"/>
    <path class="fil0" d="M1440.68 207.69l-3.09 0c-1.5,0 -2.97,0.61 -4.02,1.67l-5.86 5.91c-2.02,2.03 -2.01,5.33 0.01,7.35 1.07,1.07 2.5,1.66 4.01,1.66l3.68 0c1.51,0 2.93,-0.59 4,-1.66l5.27 -5.27c2.21,-2.21 2.21,-5.8 0,-8.01 -1.07,-1.07 -2.49,-1.65 -4,-1.65zm0.52 6.18l-5.27 5.27c-0.14,0.13 -0.32,0.21 -0.52,0.21l-3.68 0c-0.2,0 -0.38,-0.08 -0.52,-0.21 -0.11,-0.12 -0.11,-0.29 0,-0.4l5.85 -5.91c0.14,-0.14 0.33,-0.22 0.53,-0.22l3.09 0c0.19,0 0.38,0.08 0.52,0.22 0.28,0.28 0.28,0.75 0,1.04zm0 0z"/>
    <path class="fil0" d="M1367.6 170.72c0.59,0.25 1.2,0.36 1.81,0.36 1.22,0 2.42,-0.47 3.33,-1.38l7.9 -7.9c0.89,-0.89 1.38,-2.08 1.38,-3.34l0 -4.29c0,-1.92 -1.14,-3.63 -2.92,-4.36 -1.77,-0.73 -3.79,-0.32 -5.14,1.04l-7.9 7.97c-0.88,0.89 -1.37,2.07 -1.37,3.32l0 4.23c0,1.91 1.14,3.62 2.91,4.35l0 0zm2.02 -8.49l7.48 -7.55 0 3.7 -7.48 7.48 0 -3.63zm0 0z"/>
   </g>
  </g>
  <g id="_2817457521376">
   <path class="fil3" d="M191.34 913.98l-23.8 28.66 0 0c-0.86,0.01 -1.72,-0.02 -2.59,-0.08 -6.44,-0.51 -12.54,-3.11 -17.36,-7.4l-38.44 -34.21c-1.92,-1.72 -4.04,-3.16 -6.31,-4.31l30.98 -34.76c0,0 11.05,-7.98 39.31,13.78 25.74,24.68 18.21,38.32 18.21,38.32zm0 0z"/>
   <path class="fil2" d="M208.18 941.58c-0.36,1.7 -1.16,3.34 -2.41,4.75l-1.71 1.92c-11.06,12.43 -27.07,19.32 -43.7,18.82l-13.86 -0.42c-6.7,-0.2 -13.15,2.57 -17.62,7.58l-63.71 71.1c-4.49,5.01 -12.16,5.49 -17.24,1.08l-0.43 -0.37c-5.2,-4.52 -5.67,-12.44 -1.04,-17.55l29.07 -32.12c2.47,-2.73 2.23,-6.95 -0.53,-9.38 -0.88,-0.78 -1.91,-1.27 -2.98,-1.5 -2.24,-0.48 -4.66,0.22 -6.29,2.05l-29.49 32.7c-4.49,4.98 -12.15,5.44 -17.22,1.04 -5.18,-4.5 -5.67,-12.37 -1.1,-17.49l70.22 -78.56c2.18,-2.45 0.31,-6.31 -2.96,-6.12 -4.1,0.24 -8.07,1.29 -11.69,3.04 -3.64,1.76 -6.92,4.23 -9.66,7.29l-12.44 13.98c-3.78,4.25 -10.28,4.63 -14.53,0.85 -2.87,-2.55 -3.97,-6.34 -3.23,-9.84 0.36,-1.7 1.15,-3.32 2.38,-4.7l17.49 -19.65c8.77,-9.85 21.09,-15.81 34.25,-16.58 2.67,-0.15 5.31,0.05 7.87,0.6 4.99,1.06 9.66,3.4 13.53,6.85l38.44 34.21c4.83,4.29 10.92,6.89 17.36,7.39 4.62,0.37 9.18,-0.36 13.37,-2.05 4.18,-1.67 7.98,-4.32 11.06,-7.77l0.11 -0.14c3.9,-4.38 10.75,-4.86 15.23,-1.09 3.03,2.57 4.23,6.47 3.46,10.08zm0 0z"/>
   <path class="fil3" d="M55.71 938.57l-0.01 0.02 -4.31 4.83c-3.78,4.25 -10.28,4.63 -14.53,0.85 -2.87,-2.55 -3.97,-6.34 -3.23,-9.84 0.36,-1.7 1.15,-3.32 2.38,-4.7l4.72 -5.3 14.98 14.14zm0 0z"/>
   <path class="fil3" d="M208.18 941.58c-0.36,1.7 -1.16,3.34 -2.41,4.75l-1.71 1.92c-0.91,1.02 -1.85,2 -2.82,2.95l-0.96 0.79 -14.91 -15.53 0 0c1.44,-1.11 2.78,-2.36 4.01,-3.73l0.12 -0.14c3.89,-4.37 10.74,-4.86 15.22,-1.08 3.03,2.56 4.23,6.46 3.46,10.07zm0 0z"/>
   <path class="fil2" d="M143.56 931.56l-21.49 -19.13c-2.91,-2.59 -3.17,-7.05 -0.58,-9.96l13.1 -14.72c7.88,-8.85 21.43,-9.63 30.28,-1.76 8.84,7.88 9.63,21.43 1.76,30.28l-13.11 14.72c-2.59,2.91 -7.05,3.17 -9.96,0.57l0 0zm0 0z"/>
   <path class="fil4" d="M168.2 914.28c-0.47,0.68 -1,1.35 -1.57,1.99l-6.56 7.37c-3.69,-1.16 -10.44,-4.09 -18.6,-11.35l-0.01 -0.01c-8.16,-7.26 -11.85,-13.62 -13.43,-17.16l6.56 -7.37c0.57,-0.64 1.17,-1.24 1.8,-1.79 3.73,1.19 10.4,4.15 18.44,11.3l0.01 0.01c8.03,7.15 11.74,13.44 13.36,17.01l0 0zm0 0z"/>
   <path class="fil3" d="M87.82 944.39l17.18 -19.34 29.08 25.81 -17.18 19.35 -29.08 -25.82zm0 0z"/>
   <path class="fil0" d="M211.57 934.79c-0.47,-1.35 -1.15,-2.64 -2.01,-3.81 -0.66,-0.9 -1.43,-1.74 -2.31,-2.49 -1.32,-1.11 -2.78,-1.94 -4.33,-2.52 -0.01,-0.01 -0.03,-0.02 -0.05,-0.02 -0.08,-0.03 -0.15,-0.05 -0.22,-0.08 -4.2,-1.47 -8.92,-1 -12.74,1.31 -1.22,0.75 -2.36,1.68 -3.35,2.8 -1.06,1.19 -2.23,2.3 -3.49,3.28 -1.62,1.27 -3.39,2.33 -5.26,3.18l16.56 -19.95c0.15,-0.19 0.29,-0.39 0.41,-0.61 0.27,-0.48 2.54,-4.9 0.96,-12.6 -1.93,-9.41 -8.62,-19.66 -19.89,-30.46 -0.1,-0.1 -0.21,-0.19 -0.32,-0.28 -29.73,-22.89 -42.64,-14.85 -44.01,-13.85 -0.24,0.16 -0.45,0.36 -0.64,0.57l-29.06 32.62c-1.74,-0.69 -3.54,-1.24 -5.38,-1.63 -2.92,-0.62 -5.92,-0.85 -8.92,-0.68 -14.1,0.83 -27.57,7.35 -36.96,17.9l-12.73 14.3c-0.01,0.01 -0.03,0.03 -0.04,0.04l-4.71 5.3c-1.65,1.85 -2.78,4.09 -3.3,6.5 -1.06,4.99 0.65,10.2 4.46,13.6 4.43,3.94 11.05,4.69 16.26,1.87 1.44,-0.79 2.76,-1.82 3.85,-3.06l4.29 -4.82c0,0 0.01,-0.01 0.01,-0.01l8.12 -9.13c2.39,-2.67 5.22,-4.81 8.43,-6.36 3.02,-1.46 6.24,-2.34 9.58,-2.62l-39.38 44.06c-1.45,1.62 -1.31,4.11 0.31,5.56 1.62,1.44 4.11,1.31 5.56,-0.32l39.81 -44.54c2.05,-2.3 2.51,-5.59 1.17,-8.37 -1.35,-2.78 -4.21,-4.46 -7.3,-4.29 -4.6,0.28 -9.04,1.43 -13.18,3.43 -4.14,2 -7.8,4.76 -10.88,8.22l-5.42 6.1 -9.25 -8.74 10.22 -11.49c8.01,-9 19.51,-14.57 31.54,-15.27 2.29,-0.13 4.59,0.04 6.82,0.52 4.36,0.92 8.41,2.98 11.73,5.94l38.44 34.21c5.44,4.83 12.43,7.81 19.67,8.38 0.98,0.08 1.97,0.11 2.95,0.1 4.18,-0.05 8.34,-0.87 12.2,-2.42 1.75,-0.71 3.44,-1.57 5.05,-2.56l9.79 10.18c-9.6,7.66 -21.65,11.73 -34.15,11.35l-13.86 -0.41c-7.89,-0.24 -15.42,3 -20.67,8.89l-63.71 71.1c-3.03,3.39 -8.3,3.71 -11.73,0.73l-0.42 -0.37c-1.72,-1.49 -2.73,-3.55 -2.87,-5.82 -0.14,-2.26 0.63,-4.44 2.15,-6.12l29.08 -32.12c1.91,-2.11 2.87,-4.83 2.71,-7.66 -0.16,-2.84 -1.42,-5.44 -3.56,-7.32 -1.36,-1.19 -3.01,-2.02 -4.76,-2.39 -3.69,-0.78 -7.53,0.47 -10.03,3.26l-29.49 32.7c-3.04,3.37 -8.29,3.69 -11.71,0.71 -1.71,-1.48 -2.72,-3.54 -2.87,-5.79 -0.14,-2.26 0.61,-4.42 2.12,-6.11l8.98 -10.05c1.45,-1.62 1.31,-4.11 -0.31,-5.56 -1.62,-1.44 -4.11,-1.3 -5.56,0.32l-8.98 10.04c-2.92,3.27 -4.38,7.48 -4.1,11.85 0.27,4.37 2.25,8.37 5.55,11.24 6.64,5.77 16.83,5.16 22.73,-1.38l29.5 -32.71c0.63,-0.71 1.6,-1.02 2.53,-0.82 0.45,0.09 0.85,0.3 1.2,0.6 0.54,0.48 0.86,1.13 0.9,1.85 0.04,0.72 -0.2,1.41 -0.68,1.94l-29.08 32.12c-2.96,3.26 -4.44,7.48 -4.18,11.87 0.27,4.4 2.24,8.4 5.56,11.29l0.43 0.37c3.05,2.66 6.85,3.96 10.64,3.96 4.47,0 8.93,-1.82 12.11,-5.38l63.72 -71.11c3.7,-4.15 9,-6.44 14.56,-6.27l13.86 0.42c0.62,0.02 1.23,0.03 1.84,0.03 15.69,0 30.65,-6.09 41.85,-16.96 1.7,-1.6 3.23,-3.38 4.78,-5.13 1.66,-1.86 2.81,-4.12 3.32,-6.54 0.55,-2.58 0.37,-5.2 -0.46,-7.61l0 0zm-161.34 4.02l-1.78 2c-1.71,1.92 -4.51,2.62 -6.93,1.73 -2.47,-0.9 -4.15,-3.29 -4.17,-5.91 -0.02,-1.57 0.56,-3.11 1.61,-4.28l2.02 -2.28 9.25 8.74zm58.69 -43.08l27.37 -30.71c1.82,-0.74 11.95,-3.51 34.27,13.63 20.68,19.9 18.01,31.4 17.38,33.25l-22.2 26.75c-0.16,0 -0.32,-0.01 -0.48,-0.02 0,0 0,0 0,0 -3.77,-0.3 -7.45,-1.44 -10.73,-3.31 0.7,-0.49 1.35,-1.06 1.94,-1.72l6.52 -7.33c2.09,-2.36 4.19,-4.71 6.29,-7.06 0.78,-0.88 1.55,-1.78 2.2,-2.76 3.22,-4.64 4.8,-10.18 4.47,-15.91 -0.4,-6.77 -3.4,-12.98 -8.47,-17.49 -9.66,-8.6 -24.14,-8.44 -33.62,-0.1 -1.95,1.64 -3.59,3.73 -5.28,5.64l-10.03 11.26c-0.72,0.82 -1.3,1.71 -1.74,2.64l-5.04 -4.48c-0.9,-0.81 -1.86,-1.57 -2.85,-2.28l0 0zm15.51 9.36l2.82 -3.17c2.39,3.78 6.05,8.36 11.59,13.3 0.04,0.04 0.09,0.07 0.13,0.11 5.5,4.87 10.43,7.94 14.44,9.87l-2.82 3.17c-0.56,0.62 -1.32,0.99 -2.16,1.04 -0.83,0.05 -1.63,-0.23 -2.25,-0.78l-21.49 -19.14c-1.29,-1.14 -1.4,-3.12 -0.26,-4.4zm43.31 0.58c-2.36,-3.36 -5.67,-7.23 -10.29,-11.34 -0.01,-0.02 -0.03,-0.03 -0.04,-0.04 -4.6,-4.09 -8.81,-6.91 -12.41,-8.86 1.82,-0.61 3.72,-0.92 5.62,-0.92 4.14,0 8.3,1.46 11.63,4.42 3.49,3.11 5.57,7.39 5.84,12.06 0.09,1.59 -0.03,3.16 -0.35,4.68l0 0zm-30.34 -15.15c3.42,1.4 8.66,4.21 14.81,9.68 0.02,0.01 0.03,0.02 0.05,0.04 6.13,5.47 9.51,10.34 11.3,13.56l-4.66 5.23c-3.44,-1.41 -8.67,-4.21 -14.82,-9.69 -0.04,-0.03 -0.08,-0.06 -0.12,-0.1 -6.07,-5.43 -9.43,-10.26 -11.22,-13.49l1.57 -1.76 3.09 -3.47zm53.66 46.15c0.85,-0.86 1.64,-1.89 2.65,-2.57 1.1,-0.74 2.42,-1.13 3.74,-1.18 1.69,-0.05 3.39,0.47 4.73,1.59 1.82,1.54 2.64,3.94 2.15,6.25 0,0.38 -0.24,0.87 -0.39,1.22 -0.17,0.39 -0.38,0.77 -0.63,1.12 -0.26,0.37 -2.22,2.58 -2.91,3.33 -1.06,-1.11 -9.34,-9.76 -9.34,-9.76l0 0zm0 0z"/>
   <path class="fil0" d="M114.28 973.15c0.72,0.65 1.65,1 2.61,1 0.08,0 0.16,0 0.24,-0.01 1.04,-0.06 2.01,-0.53 2.71,-1.31l17.18 -19.35c1.44,-1.63 1.29,-4.11 -0.33,-5.56l-29.08 -25.82c-0.78,-0.69 -1.8,-1.04 -2.85,-0.98 -1.04,0.06 -2.01,0.53 -2.71,1.31l-17.17 19.35c-1.45,1.63 -1.3,4.11 0.33,5.56l29.07 25.81zm-8.95 -42.55l23.19 20.6 -11.96 13.46 -23.19 -20.59 11.96 -13.47zm0 0z"/>
   <path class="fil0" d="M141.05 1021.68l-2.97 0 0 -2.97c0,-2.17 -1.76,-3.93 -3.93,-3.93 -2.18,0 -3.94,1.76 -3.94,3.93l0 2.97 -2.97 0c-2.17,0 -3.93,1.76 -3.93,3.94 0,2.17 1.76,3.93 3.93,3.93l2.97 0 0 2.97c0,2.18 1.76,3.94 3.94,3.94 2.17,0 3.93,-1.76 3.93,-3.94l0 -2.97 2.97 0c2.17,0 3.94,-1.76 3.94,-3.93 0,-2.18 -1.77,-3.94 -3.94,-3.94l0 0zm0 0z"/>
   <path class="fil0" d="M182.29 985.77l-1.44 0 0 -1.45c0,-2.17 -1.77,-3.93 -3.94,-3.93 -2.17,0 -3.94,1.76 -3.94,3.93l0 1.45 -1.44 0c-2.17,0 -3.93,1.76 -3.93,3.93 0,2.18 1.76,3.94 3.93,3.94l1.44 0 0 1.44c0,2.17 1.77,3.93 3.94,3.93 2.17,0 3.94,-1.76 3.94,-3.93l0 -1.44 1.44 0c2.17,0 3.93,-1.76 3.93,-3.94 0,-2.17 -1.76,-3.93 -3.93,-3.93zm0 0z"/>
   <path class="fil0" d="M30.06 886.44l4.2 0 0 4.2c0,2.18 1.76,3.94 3.93,3.94 2.18,0 3.94,-1.76 3.94,-3.94l0 -4.2 4.2 0c2.17,0 3.94,-1.76 3.94,-3.94 0,-2.17 -1.77,-3.93 -3.94,-3.93l-4.2 0 0 -4.2c0,-2.18 -1.76,-3.94 -3.94,-3.94 -2.17,0 -3.93,1.76 -3.93,3.94l0 4.2 -4.2 0c-2.18,0 -3.94,1.76 -3.94,3.93 0,2.18 1.76,3.94 3.94,3.94l0 0zm0 0z"/>
   <path class="fil0" d="M36.16 985.33c1.52,0.62 3.32,0.23 4.42,-0.99 1.09,-1.2 1.33,-2.99 0.59,-4.44 -0.77,-1.5 -2.46,-2.37 -4.13,-2.09 -1.6,0.26 -2.91,1.52 -3.23,3.11 -0.36,1.82 0.64,3.69 2.35,4.41l0 0zm0 0z"/>
  </g>
  <g id="_2781032912256">
   <path class="fil5" d="M91.83 212.92c11.31,29.66 44.52,44.54 74.18,33.23 15.07,-5.74 27.03,-17.55 32.97,-32.55 -17.1,2.88 -34.42,4.27 -51.76,4.17 -18.57,0.14 -37.12,-1.48 -55.39,-4.85l0 0zm0 0z"/>
   <path class="fil5" d="M202.81 187.32c-2.65,-31.63 -30.45,-55.11 -62.08,-52.46 -28.16,2.36 -50.42,24.85 -52.51,53.03 -0.11,1.49 -0.22,2.98 -0.22,4.5 0.02,2.66 0.22,5.31 0.61,7.95 19.4,2.83 39,4.14 58.61,3.89 18.44,0.18 36.87,-0.94 55.15,-3.33 0.44,-2.82 0.68,-5.66 0.7,-8.51 0,-1.71 -0.11,-3.39 -0.26,-5.07l0 0zm0 0z"/>
   <path class="fil6" d="M89.69 84.08c4.87,2.44 16.72,-2.14 24.26,-7.41 -3.99,-9.63 -11.83,-17.15 -21.61,-20.74 -5.87,6.49 -18.43,15.5 -40.26,9.84 -3.88,4.24 -6.73,9.32 -8.32,14.85 6.07,2.14 12.43,3.31 18.85,3.46 13.54,0 20.31,-3.38 27.08,0zm0 0z"/>
   <path class="fil7" d="M238.61 63.78c-5.61,-0.01 -10.15,-4.55 -10.16,-10.16 0,-1.87 -1.51,-3.38 -3.38,-3.38 -1.87,0 -3.39,1.51 -3.39,3.38 0,5.61 -4.54,10.15 -10.15,10.16 -1.87,0 -3.39,1.51 -3.39,3.38 0,1.87 1.52,3.39 3.39,3.39 5.61,0 10.15,4.54 10.15,10.15 0,1.87 1.52,3.38 3.39,3.38 1.87,0 3.38,-1.51 3.38,-3.38 0.01,-5.61 4.55,-10.15 10.16,-10.15 1.86,0 3.38,-1.52 3.38,-3.39 0,-1.87 -1.52,-3.38 -3.38,-3.38zm-13.54 6.87c-0.99,-1.33 -2.17,-2.5 -3.49,-3.49 1.32,-0.99 2.5,-2.16 3.49,-3.49 0.98,1.33 2.16,2.5 3.49,3.49 -1.33,0.99 -2.51,2.16 -3.49,3.49zm0 0z"/>
   <path class="fil7" d="M150.61 104.39c-5.61,-0.01 -10.15,-4.55 -10.15,-10.15 0,-1.87 -1.52,-3.39 -3.39,-3.39 -1.87,0 -3.38,1.52 -3.38,3.39 -0.01,5.6 -4.55,10.14 -10.16,10.15 -1.87,0 -3.38,1.52 -3.38,3.38 0,1.87 1.51,3.39 3.38,3.39 5.61,0 10.15,4.55 10.16,10.15 0,1.87 1.51,3.39 3.38,3.39 1.87,0 3.39,-1.52 3.39,-3.39 0,-5.6 4.54,-10.15 10.15,-10.15 1.87,0 3.38,-1.52 3.38,-3.39 0,-1.86 -1.51,-3.38 -3.38,-3.38zm-13.54 6.87c-0.99,-1.32 -2.16,-2.5 -3.49,-3.49 1.33,-0.98 2.5,-2.16 3.49,-3.49 0.99,1.33 2.16,2.51 3.49,3.49 -1.33,0.99 -2.5,2.17 -3.49,3.49zm0 0z"/>
   <path class="fil8" d="M200.31 174.8c1.3,4.07 2.14,8.27 2.5,12.52 11.73,1.8 18.87,4.16 18.87,6.76 0,2.62 -7.31,5.02 -19.31,6.82 -18.28,2.39 -36.71,3.51 -55.15,3.33 -19.61,0.25 -39.21,-1.06 -58.61,-3.9 -9.92,-1.72 -15.84,-3.89 -15.84,-6.25 0,-2.33 5.77,-4.48 15.45,-6.19 0.31,-4.2 1.09,-8.35 2.3,-12.38 -21.11,4.34 -34.68,11.04 -34.68,18.57 0,7.68 14.13,14.51 35.99,18.84 18.27,3.37 36.82,4.99 55.4,4.85 17.33,0.1 34.65,-1.29 51.75,-4.17 23.93,-4.27 39.63,-11.42 39.63,-19.52 0,-7.95 -15.13,-14.98 -38.3,-19.28l0 0zm0 0z"/>
   <path class="fil9" d="M204.76 94.24c0,7.47 -6.06,13.53 -13.54,13.53 -7.47,0 -13.54,-6.06 -13.54,-13.53 0,-7.48 6.07,-13.54 13.54,-13.54 7.48,0 13.54,6.06 13.54,13.54zm0 0z"/>
   <path class="fil9" d="M231.84 141.62c0,3.74 -3.03,6.77 -6.77,6.77 -3.74,0 -6.77,-3.03 -6.77,-6.77 0,-3.74 3.03,-6.77 6.77,-6.77 3.74,0 6.77,3.03 6.77,6.77zm0 0z"/>
   <path class="fil7" d="M92.34 55.93c-14.17,-5.25 -30.11,-1.36 -40.26,9.84 21.83,5.66 34.39,-3.35 40.26,-9.84zm0 0z"/>
   <path class="fil7" d="M86.3 117.93c-9.41,2.35 -25.35,-0.2 -34.2,-1.98 13.8,15.16 37.28,16.26 52.45,2.45 0.57,-0.52 1.13,-1.06 1.67,-1.62 -6.66,-0.75 -13.39,-0.36 -19.92,1.15zm0 0z"/>
   <path class="fil6" d="M43.05 98.29c1.35,6.59 4.48,12.7 9.05,17.66 8.85,1.78 24.79,4.33 34.2,1.98 6.53,-1.51 13.26,-1.9 19.92,-1.15 6.77,-6.93 10.55,-16.24 10.54,-25.93 0,-0.49 -0.05,-0.97 -0.07,-1.45 -21.7,11.11 -58.02,9.99 -73.64,8.89l0 0zm0 0z"/>
   <path class="fil7" d="M89.69 84.08c-6.77,-3.38 -13.54,0 -27.08,0 -6.42,-0.15 -12.78,-1.32 -18.85,-3.46 -1.66,5.74 -1.9,11.81 -0.71,17.67 15.62,1.11 51.94,2.22 73.64,-8.89 -0.15,-4.37 -1.08,-8.69 -2.74,-12.73 -7.54,5.27 -19.39,9.85 -24.26,7.41l0 0zm0 0z"/>
   <path class="fil6" d="M189.01 189c-1.67,0 -3.09,-1.22 -3.34,-2.87 -0.26,-1.66 -0.62,-3.32 -1.08,-4.94 -0.52,-1.8 0.52,-3.67 2.32,-4.18 1.8,-0.52 3.67,0.53 4.18,2.32 0.54,1.9 0.97,3.82 1.27,5.77 0.28,1.85 -0.98,3.58 -2.83,3.86 -0.17,0.03 -0.35,0.04 -0.52,0.04l0 0zm0 0z"/>
   <path class="fil6" d="M181.07 169.82c-1.08,0 -2.09,-0.51 -2.73,-1.38 -7.67,-10.45 -19.85,-16.64 -32.81,-16.67 -1.87,0 -3.38,-1.51 -3.38,-3.38 0,-1.87 1.51,-3.39 3.38,-3.39 15.12,0.03 29.33,7.25 38.27,19.44 1.1,1.51 0.78,3.63 -0.73,4.73 -0.58,0.42 -1.28,0.65 -2,0.65l0 0zm0 0z"/>
   <path class="fil0" d="M238.61 63.78c-5.61,-0.01 -10.15,-4.55 -10.16,-10.16 0,-1.87 -1.51,-3.38 -3.38,-3.38 -1.87,0 -3.39,1.51 -3.39,3.38 0,5.61 -4.54,10.15 -10.15,10.16 -1.87,0 -3.39,1.51 -3.39,3.38 0,1.87 1.52,3.39 3.39,3.39 5.61,0 10.15,4.54 10.15,10.15 0,1.87 1.52,3.38 3.39,3.38 1.87,0 3.38,-1.51 3.38,-3.38 0.01,-5.61 4.55,-10.15 10.16,-10.15 1.86,0 3.38,-1.52 3.38,-3.39 0,-1.87 -1.52,-3.38 -3.38,-3.38zm-13.54 6.87c-0.99,-1.33 -2.17,-2.5 -3.49,-3.49 1.32,-0.99 2.5,-2.16 3.49,-3.49 0.98,1.33 2.16,2.5 3.49,3.49 -1.33,0.99 -2.51,2.16 -3.49,3.49zm0 0z"/>
   <path class="fil0" d="M123.53 111.16c5.61,0 10.15,4.55 10.16,10.15 0,1.87 1.51,3.39 3.38,3.39 1.87,0 3.39,-1.52 3.39,-3.39 0,-5.6 4.54,-10.15 10.15,-10.15 1.87,0 3.38,-1.52 3.38,-3.39 0,-1.86 -1.51,-3.38 -3.38,-3.38 -5.61,-0.01 -10.15,-4.55 -10.15,-10.15 0,-1.87 -1.52,-3.39 -3.39,-3.39 -1.87,0 -3.38,1.52 -3.38,3.39 -0.01,5.6 -4.55,10.14 -10.16,10.15 -1.87,0 -3.38,1.52 -3.38,3.38 0,1.87 1.51,3.39 3.38,3.39zm13.54 -6.88c0.99,1.33 2.16,2.51 3.49,3.49 -1.33,0.99 -2.5,2.17 -3.49,3.49 -0.99,-1.32 -2.16,-2.5 -3.49,-3.49 1.33,-0.98 2.5,-2.16 3.49,-3.49zm0 0z"/>
   <path class="fil0" d="M202.83 171.84c-11.31,-31.64 -46.13,-48.13 -77.78,-36.83 -17.43,6.23 -31.09,20.07 -37.09,37.59 -16.63,3.6 -35.5,10.16 -35.5,21.48 0,11.58 19.69,18.21 36.96,21.79 9.53,22.59 31.6,37.31 56.11,37.44 24.29,0.06 46.26,-14.39 55.82,-36.71 15.97,-3 40.64,-9.7 40.64,-22.52 0,-11.98 -20.85,-18.67 -39.16,-22.24l0 0zm-111.23 16.31c0.29,-3.95 1.02,-7.86 2.16,-11.65l0 0c8.71,-28.59 38.95,-44.7 67.54,-35.99 21.14,6.44 36.24,25.09 38.14,47.11l0 0c0.14,1.57 0.24,3.16 0.24,4.77 0,1.84 -0.11,3.68 -0.33,5.5 -0.52,0.07 -1.04,0.15 -1.58,0.22 -0.85,0.11 -1.72,0.21 -2.61,0.32 -1.02,0.12 -2.06,0.23 -3.13,0.34 -0.91,0.09 -1.83,0.19 -2.77,0.28 -1.1,0.1 -2.24,0.2 -3.39,0.3 -0.96,0.08 -1.92,0.16 -2.92,0.23 -1.2,0.09 -2.43,0.17 -3.67,0.26 -0.99,0.06 -1.97,0.13 -2.97,0.19 -1.31,0.07 -2.64,0.14 -3.97,0.2 -1,0.05 -1.99,0.11 -3,0.15 -1.41,0.06 -2.84,0.11 -4.28,0.16 -0.97,0.03 -1.94,0.07 -2.92,0.1 -1.63,0.04 -3.29,0.07 -4.94,0.1 -0.82,0.02 -1.62,0.04 -2.44,0.05 -2.5,0.04 -5.01,0.05 -7.53,0.06 -2.78,0 -5.53,-0.02 -8.25,-0.07 -0.88,-0.01 -1.73,-0.04 -2.61,-0.05 -1.82,-0.04 -3.64,-0.08 -5.42,-0.13 -1.03,-0.03 -2.03,-0.07 -3.04,-0.11 -1.59,-0.06 -3.18,-0.12 -4.73,-0.19 -1.06,-0.05 -2.09,-0.11 -3.13,-0.17 -1.45,-0.07 -2.9,-0.15 -4.31,-0.24 -1.05,-0.07 -2.06,-0.15 -3.08,-0.22 -1.34,-0.1 -2.68,-0.2 -3.98,-0.3 -1,-0.09 -1.98,-0.18 -2.95,-0.27 -1.24,-0.12 -2.48,-0.23 -3.66,-0.36 -0.95,-0.1 -1.87,-0.21 -2.79,-0.32 -1.13,-0.13 -2.24,-0.27 -3.32,-0.41 -0.88,-0.11 -1.73,-0.24 -2.58,-0.36 -0.59,-0.09 -1.15,-0.18 -1.72,-0.27 -0.18,-1.66 -0.27,-3.32 -0.28,-4.99 0,-1.43 0.11,-2.84 0.22,-4.24l0 0zm53.93 58.39c-20.15,-0.1 -38.59,-11.31 -47.97,-29.15 1.98,0.33 4,0.64 6.06,0.93 0.61,0.08 1.25,0.15 1.86,0.24 1.49,0.19 2.98,0.39 4.5,0.56 0.79,0.09 1.6,0.17 2.41,0.26 1.38,0.14 2.76,0.28 4.16,0.41 0.87,0.08 1.74,0.15 2.62,0.23 1.38,0.11 2.77,0.22 4.17,0.31 0.89,0.07 1.79,0.13 2.68,0.18 1.44,0.09 2.89,0.17 4.35,0.23 0.88,0.05 1.74,0.09 2.62,0.13 1.59,0.06 3.19,0.1 4.8,0.15 0.76,0.02 1.51,0.04 2.28,0.06 2.37,0.04 4.76,0.07 7.16,0.07 3.7,0 7.37,-0.07 11.01,-0.18 0.56,-0.02 1.12,-0.03 1.67,-0.05 3.47,-0.13 6.88,-0.3 10.25,-0.53 0.63,-0.04 1.26,-0.08 1.89,-0.13 3.37,-0.24 6.7,-0.53 9.94,-0.87 0.44,-0.05 0.86,-0.1 1.3,-0.15 3.23,-0.36 6.39,-0.76 9.47,-1.21 0.15,-0.02 0.32,-0.04 0.47,-0.06 -9.37,17.63 -27.73,28.63 -47.7,28.57l0 0zm52.85 -36.27c-16.9,2.84 -34.02,4.22 -51.16,4.11 -7.49,0 -14.83,-0.23 -21.92,-0.69 -11.01,-0.65 -21.97,-2.02 -32.81,-4.09 -22.98,-4.55 -33.26,-11.07 -33.26,-15.52 0,-3.96 8.3,-9.66 26.67,-14.08 -0.03,0.17 -0.05,0.36 -0.08,0.53 -0.1,0.48 -0.16,0.98 -0.24,1.47 -0.16,1 -0.36,2 -0.48,3.03 -11.12,2.2 -15.72,4.88 -15.72,9.05 0,4.51 5.4,7.29 18.65,9.59 19.6,2.87 39.39,4.19 59.2,3.95 18.6,0.16 37.19,-0.97 55.64,-3.37 19.51,-2.93 22.2,-6.62 22.2,-10.17 0,-4.53 -5.6,-7.39 -19.17,-9.69 -0.13,-0.97 -0.33,-1.92 -0.51,-2.88 -0.1,-0.56 -0.17,-1.12 -0.29,-1.67 -0.04,-0.21 -0.06,-0.43 -0.11,-0.65 20.73,4.49 30.23,10.72 30.23,14.89 0,4.63 -11.53,11.67 -36.84,16.19l0 0zm-113.62 -14.13c-2.42,-0.48 -4.8,-1.17 -7.1,-2.06 2.26,-0.88 4.59,-1.56 6.97,-2.03 0,0.11 -0.02,0.22 -0.02,0.34 0,1.21 0.06,2.45 0.15,3.75zm121.67 -4.77c3.54,0.55 7.01,1.45 10.37,2.71 -3.41,1.27 -6.95,2.19 -10.55,2.74 0.13,-1.54 0.2,-3 0.2,-4.43 0,-0.33 -0.02,-0.69 -0.02,-1.02zm0 0z"/>
   <path class="fil0" d="M208.14 94.24c0,-9.35 -7.57,-16.93 -16.92,-16.93 -9.34,0 -16.92,7.58 -16.92,16.93 0,9.34 7.58,16.92 16.92,16.92 9.34,-0.01 16.91,-7.58 16.92,-16.92zm-27.07 0c0,-5.61 4.54,-10.16 10.15,-10.16 5.61,0 10.16,4.55 10.16,10.16 0,5.6 -4.55,10.15 -10.16,10.15 -5.6,-0.01 -10.14,-4.55 -10.15,-10.15zm0 0z"/>
   <path class="fil0" d="M235.22 141.62c0,-5.61 -4.54,-10.15 -10.15,-10.15 -5.61,0 -10.16,4.54 -10.16,10.15 0,5.61 4.55,10.15 10.16,10.15 5.6,0 10.14,-4.55 10.15,-10.15zm-13.54 0c0,-1.87 1.52,-3.39 3.39,-3.39 1.87,0 3.38,1.52 3.38,3.39 0,1.87 -1.51,3.38 -3.38,3.38 -1.87,0 -3.39,-1.51 -3.39,-3.38zm0 0z"/>
   <path class="fil0" d="M120.07 89.27l0 -0.01c-0.17,-4.77 -1.18,-9.47 -2.99,-13.89l0 0c-8.58,-20.72 -32.34,-30.57 -53.07,-21.99 -11.43,4.73 -20.08,14.41 -23.5,26.3l0 0.01c-1.81,6.26 -2.08,12.87 -0.78,19.27l0 0c4.47,21.97 25.9,36.16 47.87,31.69 8.01,-1.63 15.35,-5.64 21.04,-11.51l0 0 0 0 0.01 0c7.38,-7.56 11.52,-17.72 11.5,-28.29 0,-0.37 -0.02,-0.73 -0.05,-1.1l-0.03 -0.48zm-34.47 -31.7c-0.08,0.06 -0.16,0.12 -0.24,0.18 -0.55,0.42 -1.12,0.83 -1.72,1.22 -0.2,0.13 -0.4,0.26 -0.61,0.39 -0.63,0.39 -1.29,0.78 -1.99,1.14 -0.11,0.06 -0.21,0.12 -0.32,0.18 -0.82,0.41 -1.68,0.8 -2.58,1.16 -0.17,0.07 -0.35,0.13 -0.52,0.2 -0.77,0.29 -1.57,0.55 -2.39,0.79 -0.21,0.06 -0.41,0.12 -0.62,0.18 -2.15,0.57 -4.35,0.92 -6.57,1.07 -0.25,0.02 -0.5,0.03 -0.76,0.04 -1,0.05 -2.05,0.06 -3.12,0.03 -0.23,-0.01 -0.45,0 -0.69,-0.01 -1.27,-0.06 -2.6,-0.18 -3.97,-0.36 -0.06,0 -0.12,-0.02 -0.17,-0.02 7.52,-5.62 17.04,-7.86 26.27,-6.19l0 0zm-32.3 11.97c0.28,0.07 0.54,0.1 0.82,0.16 0.68,0.14 1.34,0.27 2,0.39 0.55,0.1 1.11,0.19 1.65,0.27 0.67,0.1 1.33,0.18 1.98,0.25 0.51,0.06 1.02,0.11 1.52,0.15 0.66,0.05 1.3,0.09 1.93,0.11 0.47,0.02 0.94,0.04 1.4,0.05 0.22,0 0.45,0.02 0.66,0.02 0.2,0 0.37,-0.03 0.57,-0.03 1.59,-0.01 3.18,-0.11 4.76,-0.29 0.19,-0.02 0.37,-0.06 0.56,-0.08 1.42,-0.19 2.83,-0.45 4.22,-0.79 0.15,-0.03 0.31,-0.06 0.46,-0.1 1.31,-0.34 2.61,-0.75 3.89,-1.23 0.23,-0.08 0.46,-0.16 0.68,-0.25 1.18,-0.46 2.3,-0.97 3.35,-1.5 0.21,-0.11 0.41,-0.21 0.62,-0.32 1.04,-0.56 2.04,-1.14 2.96,-1.74 0.13,-0.08 0.24,-0.17 0.37,-0.25 0.93,-0.63 1.81,-1.26 2.62,-1.91l0.08 -0.06c0.83,-0.67 1.58,-1.33 2.28,-1.99 0.08,-0.08 0.18,-0.16 0.26,-0.25 0.08,-0.07 0.17,-0.15 0.25,-0.23 7.09,3.14 12.89,8.6 16.45,15.49 -0.12,0.07 -0.23,0.15 -0.35,0.22 -0.43,0.26 -0.86,0.49 -1.29,0.73 -0.57,0.32 -1.13,0.63 -1.7,0.92 -0.45,0.23 -0.9,0.44 -1.35,0.65 -0.55,0.26 -1.09,0.51 -1.63,0.74 -0.46,0.19 -0.9,0.38 -1.35,0.55 -0.53,0.21 -1.04,0.4 -1.55,0.58 -0.43,0.15 -0.85,0.29 -1.27,0.42 -0.5,0.16 -0.98,0.29 -1.45,0.42 -0.38,0.1 -0.76,0.2 -1.12,0.28 -0.47,0.11 -0.9,0.18 -1.33,0.24 -0.31,0.06 -0.63,0.12 -0.92,0.15 -0.4,0.04 -0.8,0.05 -1.2,0.04 -0.21,0 -0.44,0.02 -0.62,0.01 -0.45,-0.02 -0.9,-0.12 -1.31,-0.31 -0.65,-0.32 -1.32,-0.6 -2.01,-0.84 -0.22,-0.08 -0.44,-0.13 -0.66,-0.2 -0.45,-0.14 -0.91,-0.27 -1.36,-0.37 -0.26,-0.05 -0.52,-0.09 -0.79,-0.14 -0.41,-0.07 -0.83,-0.14 -1.24,-0.18 -0.28,-0.03 -0.57,-0.04 -0.85,-0.06 -0.41,-0.03 -0.82,-0.05 -1.24,-0.06 -0.12,0 -0.23,-0.01 -0.35,-0.01 -0.11,0 -0.23,0.02 -0.34,0.02 -1.04,0.01 -2.1,0.06 -3.19,0.16 -0.18,0.02 -0.36,0.04 -0.53,0.05 -1.13,0.11 -2.28,0.24 -3.5,0.39 -4.15,0.55 -8.34,0.85 -12.53,0.89 -1.16,0 -2.31,-0.08 -3.47,-0.17 -0.26,-0.02 -0.52,-0.05 -0.77,-0.07 -1.12,-0.12 -2.22,-0.26 -3.29,-0.44 -0.15,-0.03 -0.3,-0.06 -0.45,-0.08 -0.98,-0.18 -1.93,-0.37 -2.86,-0.58 -0.22,-0.05 -0.44,-0.1 -0.66,-0.15 -0.99,-0.24 -1.96,-0.49 -2.86,-0.75l-0.16 -0.05c1.27,-3.2 3.03,-6.19 5.21,-8.87l0 0zm-7.13 25.56l-0.22 -0.02c-0.17,-1.4 -0.26,-2.81 -0.26,-4.23 0,-1.98 0.18,-3.96 0.54,-5.92 0.33,0.1 0.65,0.16 0.97,0.25 0.61,0.17 1.21,0.31 1.8,0.46 1.03,0.26 2.05,0.48 3.05,0.68 0.58,0.12 1.15,0.23 1.72,0.33 1.05,0.18 2.08,0.32 3.11,0.44 0.47,0.05 0.95,0.12 1.42,0.16 1.47,0.14 2.91,0.22 4.31,0.22 4.46,-0.04 8.91,-0.35 13.33,-0.94 5.39,-0.64 8.95,-1.06 12.23,0.58 0.77,0.37 1.58,0.64 2.42,0.79 0.26,0.06 0.57,0.05 0.84,0.08 0.59,0.09 1.18,0.15 1.77,0.17 0.04,0 0.09,-0.02 0.13,-0.02 0.33,0 0.68,-0.05 1.03,-0.07 0.63,-0.04 1.26,-0.07 1.93,-0.17 0.4,-0.07 0.82,-0.17 1.24,-0.25 0.62,-0.13 1.23,-0.24 1.87,-0.41 0.44,-0.11 0.89,-0.26 1.34,-0.4 0.61,-0.18 1.22,-0.36 1.83,-0.58 0.47,-0.16 0.93,-0.35 1.39,-0.53 0.6,-0.22 1.18,-0.45 1.76,-0.7 0.47,-0.2 0.93,-0.41 1.39,-0.62 0.56,-0.26 1.11,-0.52 1.66,-0.79 0.45,-0.22 0.89,-0.45 1.33,-0.69 0.51,-0.27 1.02,-0.54 1.52,-0.82 0.17,-0.1 0.35,-0.19 0.52,-0.28 0.49,1.79 0.83,3.63 1.01,5.48 -0.4,0.18 -0.79,0.37 -1.2,0.55 -0.58,0.25 -1.18,0.5 -1.78,0.74 -0.8,0.31 -1.61,0.6 -2.43,0.89 -0.62,0.21 -1.23,0.43 -1.86,0.63 -0.86,0.27 -1.75,0.52 -2.63,0.77 -0.62,0.18 -1.24,0.36 -1.87,0.52 -0.96,0.25 -1.93,0.47 -2.91,0.69 -0.59,0.13 -1.16,0.27 -1.76,0.4 -1.14,0.23 -2.3,0.44 -3.47,0.65 -0.44,0.07 -0.87,0.16 -1.32,0.24 -1.61,0.26 -3.24,0.5 -4.88,0.71 -0.28,0.04 -0.55,0.06 -0.83,0.1 -1.37,0.17 -2.74,0.32 -4.1,0.45 -0.53,0.06 -1.06,0.09 -1.59,0.14 -1.11,0.1 -2.23,0.19 -3.33,0.27 -0.59,0.04 -1.16,0.07 -1.75,0.11 -1.05,0.06 -2.09,0.12 -3.13,0.17 -0.58,0.03 -1.15,0.05 -1.73,0.07 -1.02,0.03 -2.03,0.07 -3.03,0.09 -0.56,0.02 -1.12,0.03 -1.67,0.04 -0.99,0.01 -1.98,0.02 -2.95,0.03 -0.52,0 -1.03,0 -1.54,0 -0.99,0 -1.96,-0.01 -2.9,-0.02 -0.46,-0.01 -0.91,-0.01 -1.35,-0.02 -0.98,-0.02 -1.92,-0.04 -2.84,-0.07 -0.39,-0.01 -0.78,-0.02 -1.16,-0.03 -0.94,-0.04 -1.85,-0.07 -2.73,-0.11 -0.31,-0.01 -0.64,-0.02 -0.95,-0.04 -0.93,-0.04 -1.81,-0.09 -2.67,-0.14 -0.2,-0.01 -0.42,-0.02 -0.62,-0.03l0 0zm33.37 29.6c-4.93,-0.01 -9.8,-1.09 -14.26,-3.19 1.58,0.19 3.16,0.34 4.73,0.46 0.2,0.02 0.4,0.03 0.6,0.05 2.05,0.15 4.06,0.23 6.02,0.24 0.06,0 0.12,0.01 0.18,0.01l0.11 -0.01c0.12,0 0.23,0 0.35,-0.01 0.81,0 1.62,-0.01 2.41,-0.05l0.17 -0.01c0.84,-0.04 1.67,-0.1 2.47,-0.18 0.08,-0.01 0.16,-0.02 0.25,-0.03 0.76,-0.08 1.52,-0.17 2.24,-0.29 0.8,-0.14 1.57,-0.29 2.31,-0.48 1.61,-0.39 3.23,-0.7 4.87,-0.92 0.07,0 0.15,-0.02 0.22,-0.03 1.54,-0.2 3.06,-0.32 4.52,-0.38 0.08,0 0.16,-0.01 0.23,-0.01 -5.26,3.17 -11.28,4.84 -17.43,4.83l0.01 0zm25.33 -11.44l-0.14 0c-1.12,-0.09 -2.33,-0.15 -3.61,-0.18 -0.26,-0.01 -0.5,-0.01 -0.76,-0.02 -1.29,-0.02 -2.64,0 -4.05,0.07 -0.27,0.01 -0.54,0.03 -0.81,0.04 -1.46,0.09 -2.95,0.22 -4.47,0.43 -0.21,0.02 -0.42,0.06 -0.63,0.09 -1.62,0.24 -3.26,0.54 -4.92,0.95 -1.15,0.28 -2.32,0.48 -3.5,0.6 -0.52,0.06 -1.09,0.07 -1.64,0.11 -0.76,0.05 -1.51,0.12 -2.31,0.13 -0.66,0.02 -1.35,-0.01 -2.04,-0.02 -0.73,-0.01 -1.46,0 -2.21,-0.04 -0.73,-0.03 -1.47,-0.09 -2.2,-0.14 -0.73,-0.05 -1.46,-0.09 -2.2,-0.15 -0.75,-0.07 -1.49,-0.16 -2.23,-0.24 -0.73,-0.08 -1.46,-0.16 -2.19,-0.25 -0.71,-0.09 -1.4,-0.19 -2.09,-0.28 -0.74,-0.11 -1.48,-0.21 -2.19,-0.32 -0.63,-0.1 -1.23,-0.2 -1.85,-0.3 -0.72,-0.12 -1.46,-0.25 -2.14,-0.37 -0.53,-0.09 -1.02,-0.19 -1.52,-0.28 -0.45,-0.08 -0.88,-0.17 -1.31,-0.25 -2.76,-3.2 -4.89,-6.9 -6.3,-10.89 1.02,0.06 2.1,0.11 3.22,0.15 0.4,0.02 0.82,0.03 1.23,0.04 0.99,0.04 2,0.07 3.05,0.1 0.63,0.01 1.25,0.03 1.9,0.04 1.12,0.02 2.28,0.03 3.46,0.03 0.41,0.01 0.79,0.02 1.2,0.02 0.23,0 0.47,-0.01 0.69,-0.01 1.66,-0.01 3.37,-0.03 5.11,-0.07 0.56,-0.02 1.11,-0.03 1.69,-0.05 1.94,-0.06 3.91,-0.14 5.92,-0.26 0.51,-0.03 1.03,-0.06 1.54,-0.1 2.12,-0.13 4.25,-0.29 6.4,-0.51 0.15,-0.01 0.3,-0.03 0.45,-0.05 2.11,-0.21 4.23,-0.48 6.34,-0.77 0.46,-0.07 0.91,-0.13 1.36,-0.19 2.13,-0.33 4.25,-0.7 6.35,-1.12 0.43,-0.09 0.85,-0.18 1.27,-0.27 2.18,-0.46 4.33,-0.96 6.42,-1.55 0.07,-0.02 0.14,-0.04 0.21,-0.06 2.03,-0.57 3.99,-1.23 5.91,-1.93 0.36,-0.13 0.72,-0.26 1.08,-0.39 0.26,-0.1 0.54,-0.19 0.8,-0.3 -0.78,6.9 -3.68,13.38 -8.29,18.56l0 0zm0 0z"/>
   <path class="fil0" d="M185.67 186.13c0.25,1.65 1.67,2.87 3.34,2.87 0.17,0 0.35,-0.01 0.52,-0.04 1.85,-0.28 3.11,-2.01 2.83,-3.86 -0.3,-1.95 -0.73,-3.87 -1.26,-5.77 -0.52,-1.79 -2.39,-2.83 -4.19,-2.32 -1.8,0.51 -2.84,2.38 -2.32,4.18 0.46,1.62 0.82,3.28 1.08,4.94l0 0zm0 0z"/>
   <path class="fil0" d="M145.53 151.77c12.96,0.03 25.14,6.22 32.81,16.67 1.11,1.5 3.23,1.81 4.73,0.7 1.49,-1.1 1.81,-3.2 0.73,-4.7 -8.94,-12.19 -23.15,-19.41 -38.27,-19.44 -1.87,0 -3.38,1.52 -3.38,3.39 0,1.87 1.51,3.38 3.38,3.38zm0 0z"/>
  </g>
  <g id="_2817466575968">
   <path class="fil4" d="M1354.34 997.85c0,46.15 -37.42,83.56 -83.57,83.56 -46.15,0 -83.56,-37.41 -83.56,-83.56 0,-46.15 37.41,-83.56 83.56,-83.56 46.15,0 83.57,37.41 83.57,83.56zm0 0z"/>
   <path class="fil10" d="M1431.88 845.49c0,32.15 -26.06,58.21 -58.21,58.21 -32.14,0 -58.2,-26.06 -58.2,-58.21 0,-32.15 26.06,-58.21 58.2,-58.21 32.15,0 58.21,26.06 58.21,58.21zm0 0z"/>
   <path class="fil11" d="M1459.49 940.46c-8.24,-15.81 -27.74,-21.94 -43.55,-13.7 -15.82,8.25 -21.95,27.75 -13.7,43.56 8.24,15.81 27.74,21.95 43.55,13.7 15.82,-8.24 21.95,-27.75 13.7,-43.56zm0 0z"/>
   <path class="fil12" d="M1415.92 805.44l-36.02 0c-4.07,0 -7.99,1.62 -10.87,4.51l-1.96 1.95c-2.88,2.89 -6.79,4.51 -10.87,4.51l-32.96 0c10.06,-17.41 28.88,-29.13 50.44,-29.13 16.62,0 31.62,6.98 42.24,18.16zm0 0z"/>
   <path class="fil12" d="M1431.88 845.49c0,21.34 -11.48,39.99 -28.61,50.13l-19.19 -19.19c-1.75,-1.75 -4.12,-2.74 -6.6,-2.74l-24.2 0c-2.58,0 -4.91,-1.04 -6.6,-2.73 -1.69,-1.69 -2.74,-4.02 -2.74,-6.6 0,-5.15 4.18,-9.33 9.34,-9.33l2.48 0c2.48,0 4.86,-0.99 6.6,-2.74l6.31 -6.3c1.75,-1.75 4.12,-2.73 6.59,-2.73l56.57 0c0.04,0.74 0.05,1.48 0.05,2.23l0 0zm0 0z"/>
   <g>
    <path class="fil13" d="M1336.11 945.75l-12.83 18.52c-1.11,1.61 -1.71,3.53 -1.71,5.49l0 27.32c0,5.32 -4.32,9.63 -9.64,9.63 -2.66,0 -5.07,1.08 -6.8,2.83 -1.75,1.73 -2.83,4.14 -2.83,6.8l0 8.27c0,3.16 -1.55,6.12 -4.14,7.91l-5.57 3.87c-6.39,4.43 -15.12,-0.14 -15.12,-7.91l0 -36.28 -14.41 -14.41c-1.81,-1.81 -2.82,-4.25 -2.82,-6.8l0 -19.29c0,-2.55 1.02,-5 2.82,-6.8l10.32 -10.32c1.8,-1.81 2.81,-4.26 2.81,-6.81l0 -13.31c24.24,1.55 45.66,13.43 59.92,31.29l0 0zm0 0z"/>
    <path class="fil13" d="M1251.69 1058.27l0 20.95c-33.22,-7.75 -58.81,-35.33 -63.65,-69.57l5.92 -1.99 12.08 0c5.52,0 10,4.47 10,10l0 4.96c0,2.65 1.05,5.19 2.93,7.07l15.66 15.66c1.87,1.87 4.41,2.93 7.06,2.93 2.77,0 5.26,1.12 7.08,2.93 1.8,1.81 2.92,4.31 2.92,7.06l0 0zm0 0z"/>
    <path class="fil13" d="M1226.94 946.77l0 20.21c0,2.81 -1.12,5.5 -3.1,7.49 -2.07,2.06 -4.78,3.1 -7.49,3.1 -2.72,0 -5.42,-1.04 -7.49,-3.1l-13.22 -13.22c5.3,-10.88 12.89,-20.42 22.15,-28.02l6.05 6.05c1.98,1.98 3.1,4.68 3.1,7.49l0 0zm0 0z"/>
   </g>
   <path class="fil0" d="M1483.93 926.08c-3.62,-6.94 -13.91,-7.66 -31.4,-2.2 -11.3,-7.74 -26.4,-9.17 -39.36,-2.41 -12.97,6.76 -20.44,19.96 -20.56,33.65 -14.5,11.22 -19.8,20.07 -16.18,27.01 2.37,4.53 7.44,5.82 12.55,5.82 5.07,0 10.18,-1.27 12.7,-1.9 1.51,-0.37 3.07,-0.8 4.66,-1.27 6.91,5.74 15.65,8.88 24.58,8.88 5.96,0 11.99,-1.39 17.63,-4.33 9.06,-4.72 15.74,-12.7 18.81,-22.45 1.53,-4.85 2.07,-9.86 1.64,-14.78 1.29,-1.03 2.53,-2.06 3.69,-3.07 3.94,-3.45 15.94,-13.93 11.24,-22.95l0 0zm-65.24 5.99c3.88,-2.02 8.03,-2.98 12.12,-2.98 9.5,0 18.69,5.16 23.38,14.15 0.64,1.24 1.18,2.52 1.62,3.82 -5.86,4.16 -13.26,8.76 -22.28,13.46 -9.02,4.7 -17.03,8.13 -23.8,10.56 -0.81,-1.1 -1.55,-2.27 -2.2,-3.51 -6.71,-12.87 -1.7,-28.79 11.16,-35.5zm-30.51 43.96c1.03,-1.59 3.09,-4.06 6.8,-7.36 0.55,1.49 1.19,2.97 1.95,4.42 0.28,0.55 0.58,1.07 0.89,1.6 -4.33,1.02 -7.59,1.41 -9.64,1.34l0 0zm67.77 -12.74c-2.11,6.71 -6.7,12.19 -12.93,15.44 -7.19,3.75 -15.35,3.83 -22.31,0.93 5.94,-2.42 12.13,-5.3 18.35,-8.54 6.21,-3.24 12.12,-6.68 17.51,-10.16 -0.17,0.78 -0.37,1.56 -0.62,2.33l0 0zm9.64 -23.94c-0.25,-0.55 -0.52,-1.1 -0.8,-1.64 -0.76,-1.45 -1.6,-2.82 -2.51,-4.13 4.83,-1.15 8.03,-1.43 9.92,-1.36 -1.11,1.73 -3.3,4.18 -6.61,7.13zm0 0z"/>
   <path class="fil0" d="M1378.07 825.96c0.96,2.34 3.4,3.86 5.91,3.69 2.53,-0.18 4.72,-1.98 5.38,-4.42 0.64,-2.39 -0.29,-5.01 -2.32,-6.42 -1.95,-1.38 -4.57,-1.46 -6.61,-0.21 -2.45,1.51 -3.47,4.71 -2.36,7.36l0 0zm0 0z"/>
   <path class="fil0" d="M1331.25 1058.51c-0.94,-2.3 -3.31,-3.81 -5.8,-3.69 -2.47,0.12 -4.64,1.8 -5.4,4.15 -0.79,2.42 0.11,5.17 2.18,6.66 1.96,1.42 4.65,1.51 6.71,0.21 2.42,-1.53 3.41,-4.69 2.31,-7.33l0 0zm0 0z"/>
   <path class="fil0" d="M1239.43 861.5l6.28 0 0 6.29c0,3.3 2.68,5.98 5.98,5.98 3.3,0 5.98,-2.68 5.98,-5.98l0 -6.29 6.29 0c3.3,0 5.98,-2.67 5.98,-5.97 0,-3.31 -2.68,-5.98 -5.98,-5.98l-6.29 0 0 -6.29c0,-3.3 -2.68,-5.98 -5.98,-5.98 -3.3,0 -5.98,2.68 -5.98,5.98l0 6.29 -6.28 0c-3.3,0 -5.98,2.67 -5.98,5.98 0,3.3 2.68,5.97 5.98,5.97l0 0zm0 0z"/>
   <path class="fil0" d="M1448.21 1042.62l-6.29 0 0 -6.28c0,-3.3 -2.68,-5.98 -5.98,-5.98 -3.3,0 -5.98,2.68 -5.98,5.98l0 6.28 -6.28 0c-3.3,0 -5.98,2.68 -5.98,5.98 0,3.3 2.68,5.98 5.98,5.98l6.28 0 0 6.29c0,3.3 2.68,5.98 5.98,5.98 3.3,0 5.98,-2.68 5.98,-5.98l0 -6.29 6.29 0c3.3,0 5.97,-2.68 5.97,-5.98 0,-3.3 -2.67,-5.98 -5.97,-5.98zm0 0z"/>
   <path class="fil0" d="M1393.25 1013.67l-1.44 0 0 -1.44c0,-3.3 -2.67,-5.98 -5.98,-5.98 -3.3,0 -5.98,2.68 -5.98,5.98l0 1.44 -1.43 0c-3.3,0 -5.98,2.67 -5.98,5.98 0,3.3 2.68,5.97 5.98,5.97l1.43 0 0 1.44c0,3.3 2.68,5.98 5.98,5.98 3.31,0 5.98,-2.68 5.98,-5.98l0 -1.44 1.44 0c3.3,0 5.98,-2.67 5.98,-5.97 0,-3.31 -2.68,-5.98 -5.98,-5.98zm0 0z"/>
   <path class="fil0" d="M1309.85 838.7c-0.24,2.23 -0.36,4.5 -0.36,6.79 0,35.39 28.79,64.19 64.18,64.19 11.78,0 22.82,-3.19 32.32,-8.75 2.85,-1.46 5.53,-3.5 8.01,-5.52 2.49,-2.02 4.84,-4.24 7,-6.61 5.05,-5.51 9.15,-11.91 12.04,-18.93 0.1,-0.21 0.19,-0.42 0.27,-0.64 2.42,-6.06 3.94,-12.57 4.4,-19.37 0.7,-10.2 -1.08,-20.53 -5.15,-29.9 -3.91,-8.96 -9.9,-17.06 -17.33,-23.4 -6.93,-5.91 -15.09,-10.31 -23.85,-12.8 -9.29,-2.64 -19.2,-3.16 -28.72,-1.5 -9.45,1.64 -18.48,5.44 -26.28,11.03 -0.99,0.7 -1.96,1.44 -2.91,2.2 -6.11,4.91 -11.37,10.95 -15.41,17.92 -0.07,0.13 -0.13,0.27 -0.2,0.41 -4.25,7.46 -7.05,15.85 -8,24.78 -0.01,0.04 -0.01,0.07 -0.01,0.1l0 0zm11.59 6.79c0,-0.08 0.01,-0.16 0.01,-0.23l19.46 0c3.3,0 5.98,-2.68 5.98,-5.98 0,-3.3 -2.68,-5.98 -5.98,-5.98l-18.03 0c0.92,-3.82 2.26,-7.47 3.96,-10.91l29.36 0c5.7,0 11.06,-2.23 15.09,-6.25l1.97 -1.97c1.75,-1.75 4.17,-2.75 6.64,-2.75l33.32 0c1.7,1.97 3.26,4.07 4.65,6.28l-11.84 0c-3.3,0 -5.98,2.68 -5.98,5.98 0,3.3 2.68,5.98 5.98,5.98l17.41 0c0.79,2.47 1.4,5.01 1.81,7.62l-49.99 0c-4.09,0 -7.94,1.6 -10.82,4.49l-6.3 6.3c-0.64,0.63 -1.48,0.98 -2.38,0.98l-2.48 0c-8.45,0 -15.32,6.87 -15.32,15.32 0,4.09 1.6,7.94 4.49,10.82 2.89,2.89 6.74,4.48 10.83,4.48l24.2 0c0.89,0 1.74,0.35 2.37,0.99l13.3 13.29c-6.02,2.43 -12.6,3.77 -19.48,3.77 -28.8,0 -52.23,-23.43 -52.23,-52.23zm18.94 -40.21c8.25,-6.81 18.54,-11.01 29.22,-11.85 3.15,-0.25 6.32,-0.2 9.47,0.11 6.9,0.71 13.41,2.78 19.26,5.92l-18.43 0c-5.62,0 -11.13,2.28 -15.09,6.25l-1.97 1.97c-1.77,1.77 -4.13,2.75 -6.64,2.75l-21.2 0c1.66,-1.84 3.47,-3.56 5.38,-5.15l0 0zm72.15 75.07c-2.54,2.82 -5.39,5.39 -8.47,7.6l-15.75 -15.75c-2.9,-2.89 -6.74,-4.48 -10.83,-4.48l-24.2 0c-0.9,0 -1.74,-0.35 -2.38,-0.99 -0.63,-0.63 -0.98,-1.47 -0.98,-2.36 0,-1.86 1.51,-3.36 3.36,-3.36l2.48 0c4.09,0 7.94,-1.6 10.83,-4.48l6.31 -6.31c0.63,-0.63 1.47,-0.98 2.36,-0.98l50.51 0c0,0.01 0,0.02 -0.01,0.03 -0.3,4.12 -1.1,8.17 -2.35,12.06l-15.01 0c-3.3,0 -5.98,2.67 -5.98,5.97 0,3.31 2.68,5.98 5.98,5.98l9.45 0c0.02,0 -1.25,1.91 -1.43,2.16 -1.2,1.71 -2.5,3.35 -3.89,4.9l0 0.01zm0 0z"/>
   <path class="fil0" d="M1340.78 942.02c-7.08,-8.87 -15.72,-16.22 -25.37,-21.77 -1.78,-1.03 -3.6,-2 -5.45,-2.9 -0.64,-0.31 -1.28,-0.62 -1.93,-0.91 0,0 -0.01,-0.01 -0.01,-0.01 -6.92,-3.18 -14.3,-5.49 -22.03,-6.82 -3.13,-0.54 -6.33,-0.97 -9.51,-1.11 -1.89,-0.12 -3.79,-0.19 -5.7,-0.19 -21.28,0 -40.84,7.46 -56.22,19.9 -0.19,0.12 -0.38,0.26 -0.56,0.4 -9.91,8.13 -18.12,18.51 -23.73,30.02 -0.08,0.15 -0.14,0.3 -0.2,0.46 -5.66,11.74 -8.84,24.88 -8.84,38.76 0,4.24 0.31,8.4 0.88,12.48 0.33,2.86 0.94,5.71 1.61,8.5 3.53,14.73 10.72,28.28 21.1,39.58 11.73,12.77 26.67,21.74 43.31,26.07 0.3,0.09 0.6,0.16 0.9,0.23 0.44,0.11 0.87,0.23 1.3,0.34 0.06,0.01 0.11,0.01 0.17,0.02 6.51,1.52 13.3,2.32 20.28,2.32 13.21,0 25.95,-2.82 37.86,-8.39 2.99,-1.39 4.28,-4.95 2.88,-7.94 -1.39,-2.99 -4.95,-4.28 -7.94,-2.89 -10.31,4.82 -21.35,7.26 -32.81,7.26 -4.46,0 -8.84,-0.38 -13.1,-1.11l0 -16.05c0,-4.26 -1.66,-8.27 -4.68,-11.29 -3.02,-3.02 -7.03,-4.68 -11.3,-4.68 -1.05,0 -2.09,-0.43 -2.84,-1.18l-15.66 -15.66c-0.75,-0.75 -1.18,-1.78 -1.18,-2.84l0 -4.97c0,-8.81 -7.16,-15.97 -15.97,-15.97l-12.08 0c-0.22,0 -0.45,0.02 -0.67,0.04 -0.07,-1.28 -0.1,-2.57 -0.1,-3.87 0,-9.15 1.6,-17.93 4.52,-26.08l6.92 6.92c3.13,3.13 7.29,4.85 11.72,4.85 4.41,0 8.57,-1.72 11.71,-4.85 3.13,-3.13 4.86,-7.29 4.86,-11.71l0 -20.21c0,-4.43 -1.73,-8.59 -4.86,-11.72l-1.15 -1.16c12.34,-8.49 27.25,-13.5 43.31,-13.62l0 7.49c0,0.98 -0.38,1.9 -1.07,2.59l-10.32 10.32c-2.94,2.94 -4.57,6.86 -4.57,11.03l0 19.28c0,4.16 1.62,8.08 4.57,11.04l12.66 12.65 0 33.81c0,5.82 3.21,11.12 8.37,13.82 2.28,1.2 4.77,1.79 7.24,1.79 3.12,0 6.23,-0.94 8.89,-2.79l5.58 -3.86c4.2,-2.92 6.71,-7.71 6.71,-12.83l0 -8.27c0,-0.97 0.38,-1.89 1.08,-2.59 0.69,-0.68 1.6,-1.06 2.57,-1.06 8.61,0 15.62,-7 15.62,-15.61l0 -27.32c0,-0.75 0.22,-1.47 0.65,-2.09l7.98 -11.52c7.7,12.05 12.18,26.36 12.18,41.7 0,14.86 -4.21,29.3 -12.18,41.75 -1.78,2.78 -0.97,6.48 1.81,8.26 2.78,1.78 6.48,0.97 8.26,-1.81 9.2,-14.39 14.07,-31.05 14.07,-48.2 0,-20.85 -7.16,-40.05 -19.15,-55.28 -0.12,-0.19 -0.25,-0.38 -0.39,-0.55l0 0zm-145.84 71.61l11.1 0c2.22,0 4.02,1.81 4.02,4.02l0 4.97c0,4.2 1.71,8.32 4.68,11.3l15.66 15.65c2.97,2.98 7.09,4.68 11.29,4.68 1.08,0 2.09,0.42 2.85,1.18 0.76,0.77 1.18,1.77 1.18,2.84l0 13.01c-25.11,-8.59 -44.46,-29.72 -50.53,-55.89 -0.01,-0.06 -0.03,-0.13 -0.04,-0.19 -0.12,-0.51 -0.23,-1.02 -0.33,-1.52l0.12 -0.05zm24.67 -70.12c0.87,0.87 1.35,2.03 1.35,3.26l0 20.21c0,1.23 -0.48,2.39 -1.35,3.25 -0.87,0.88 -2.03,1.36 -3.26,1.36 -1.24,0 -2.39,-0.48 -3.26,-1.35l-10.1 -10.1c3.89,-6.95 8.81,-13.26 14.56,-18.69l2.06 2.06zm98.75 17.36c-1.81,2.63 -2.77,5.7 -2.77,8.89l0 27.32c0,2.02 -1.64,3.65 -3.66,3.65 -4.17,0 -8.1,1.63 -11.02,4.57 -2.96,2.95 -4.59,6.87 -4.59,11.04l0 8.27c0,1.2 -0.58,2.32 -1.56,3l-5.58 3.87c-1.64,1.14 -3.19,0.54 -3.78,0.23 -0.59,-0.3 -1.96,-1.24 -1.96,-3.23l0 -36.28c0,-1.59 -0.63,-3.11 -1.75,-4.23l-14.4 -14.4c-0.68,-0.68 -1.07,-1.62 -1.07,-2.59l0 -19.28c0,-0.96 0.39,-1.9 1.07,-2.58l10.31 -10.32c2.95,-2.94 4.57,-6.86 4.57,-11.03l0 -6.66c7.74,1.14 15.29,3.48 22.33,6.88 9.17,4.44 17.34,10.64 24.06,18.15l-10.2 14.73zm0 0z"/>
  </g>
  <g id="_2817466517376">
   <path class="fil1" d="M563.02 953.09c-5.47,7.97 -16.36,9.99 -24.33,4.53 -7.97,-5.47 -10,-16.36 -4.53,-24.33 5.47,-7.97 16.36,-9.99 24.33,-4.53 7.96,5.47 9.99,16.36 4.53,24.33zm0 0z"/>
   <path class="fil12" d="M582.9 1026.43c-5.47,7.97 -16.36,10 -24.33,4.53 -7.96,-5.47 -9.99,-16.36 -4.53,-24.33 5.47,-7.96 16.36,-9.99 24.33,-4.53 7.97,5.47 10,16.36 4.53,24.33zm0 0z"/>
   <path class="fil12" d="M643.77 981.37c-5.47,7.97 -16.36,10 -24.33,4.53 -7.97,-5.47 -10,-16.36 -4.53,-24.33 5.47,-7.97 16.36,-9.99 24.33,-4.53 7.97,5.47 9.99,16.36 4.53,24.33zm0 0z"/>
   <g>
    <path class="fil1" d="M769.37 944.12c-5.47,7.97 -16.36,10 -24.33,4.53 -7.97,-5.47 -10,-16.36 -4.53,-24.32 5.47,-7.97 16.36,-10 24.33,-4.53 7.97,5.46 10,16.35 4.53,24.32zm0 0z"/>
    <path class="fil1" d="M928.51 939.47c-5.46,7.97 -16.35,10 -24.32,4.53 -7.97,-5.47 -10,-16.36 -4.53,-24.32 5.46,-7.97 16.36,-10 24.32,-4.54 7.97,5.47 10,16.36 4.53,24.33zm0 0z"/>
    <path class="fil1" d="M869.8 1066.24c4.53,-8.53 1.28,-19.12 -7.26,-23.65 -8.54,-4.53 -19.13,-1.28 -23.66,7.26 -4.52,8.53 -1.28,19.12 7.26,23.65 8.54,4.53 19.13,1.28 23.66,-7.26zm0 0z"/>
   </g>
   <path class="fil12" d="M855.44 981.95c-5.47,7.97 -16.36,10 -24.33,4.53 -7.97,-5.46 -10,-16.35 -4.53,-24.32 5.47,-7.97 16.36,-10 24.33,-4.53 7.97,5.46 9.99,16.36 4.53,24.32zm0 0z"/>
   <path class="fil0" d="M876.14 1069.61c3.09,-5.82 3.72,-12.49 1.79,-18.79 -1.93,-6.3 -6.2,-11.46 -12.02,-14.55 -1.81,-0.95 -3.7,-1.68 -5.64,-2.16l-11.1 -38.81c4.78,-1.67 9.09,-4.81 12.17,-9.3 4.83,-7.04 5.49,-15.72 2.54,-23.11l32.89 -15.78c1.02,1.01 2.14,1.95 3.37,2.79 11.21,7.69 26.58,4.83 34.27,-6.38 7.7,-11.21 4.83,-26.59 -6.38,-34.28 -11.21,-7.69 -26.59,-4.83 -34.28,6.38 -3.93,5.74 -5.1,12.56 -3.8,18.89l-35.38 16.97c-10.48,-6.92 -24.43,-4.78 -32.39,4.66l-42.83 -18.52c1.23,-8.96 -2.52,-18.27 -10.46,-23.73 -11.21,-7.69 -26.59,-4.82 -34.28,6.39 -2.77,4.03 -4.16,8.61 -4.3,13.17l-34.04 9.74c-3.8,1.09 -6,5.06 -4.91,8.86 0.47,1.66 1.5,3.02 2.83,3.93 1.69,1.16 3.88,1.59 6.02,0.98l33.82 -9.69c1.74,2.8 4.07,5.3 6.96,7.28 10.34,7.1 24.23,5.2 32.36,-3.93l43.17 18.67c-0.97,8.76 2.78,17.77 10.54,23.09 2.31,1.59 4.81,2.72 7.37,3.43l11.21 39.19c-5.62,2.12 -10.22,6.15 -13.06,11.5 -3.08,5.82 -3.72,12.49 -1.79,18.79 1.65,5.38 5.01,9.93 9.58,13.07 0.78,0.53 1.59,1.03 2.44,1.48 5.82,3.08 12.49,3.72 18.79,1.78 6.29,-1.93 11.46,-6.2 14.54,-12.01l0 0zm43.79 -148.56c4.71,3.22 5.91,9.67 2.68,14.37 -3.22,4.7 -9.67,5.9 -14.37,2.68 -4.71,-3.23 -5.91,-9.68 -2.68,-14.38 3.23,-4.7 9.67,-5.9 14.37,-2.67zm-170.84 21.7c-4.7,-3.22 -5.9,-9.67 -2.68,-14.37 3.23,-4.71 9.68,-5.91 14.38,-2.68 4.7,3.22 5.9,9.67 2.67,14.37 -3.22,4.7 -9.67,5.91 -14.37,2.68zm83.39 23.45c3.23,-4.7 9.68,-5.9 14.38,-2.67 4.7,3.22 5.9,9.67 2.68,14.37 -3.23,4.7 -9.68,5.91 -14.38,2.68 -4.7,-3.23 -5.9,-9.68 -2.68,-14.38zm24.92 101.74c-4.08,1.25 -8.63,-0.19 -11.23,-3.57 -2.61,-3.4 -2.84,-8.16 -0.58,-11.79 2.31,-3.72 6.89,-5.61 11.15,-4.59 4.27,1.01 7.5,4.72 7.92,9.09 0.47,4.82 -2.63,9.44 -7.26,10.86l0 0zm0 0z"/>
   <path class="fil0" d="M643.29 951.14c-11.21,-7.69 -26.59,-4.83 -34.28,6.38 -4.53,6.61 -5.4,14.67 -3.05,21.74l-21.8 18.26c-0.56,-0.46 -1.14,-0.9 -1.74,-1.32 -4.51,-3.09 -9.7,-4.48 -14.79,-4.3l-6.13 -27.72c2.86,-1.75 5.4,-4.11 7.42,-7.04 7.69,-11.22 4.83,-26.59 -6.38,-34.28 -11.21,-7.69 -26.59,-4.83 -34.28,6.38 -7.69,11.21 -4.83,26.59 6.38,34.28 3.99,2.73 8.5,4.13 13.01,4.29l6.36 28.76c-2.23,1.61 -4.23,3.62 -5.87,6.02 -7.69,11.2 -4.82,26.58 6.38,34.27 11.22,7.69 26.59,4.83 34.28,-6.38 4.37,-6.36 5.33,-14.06 3.3,-20.94l22.16 -18.56c0.37,0.28 0.74,0.56 1.13,0.82 11.21,7.69 26.59,4.83 34.28,-6.38 7.69,-11.21 4.83,-26.59 -6.38,-34.28zm-103.23 -13.8c3.23,-4.7 9.68,-5.9 14.38,-2.68 4.7,3.23 5.9,9.68 2.67,14.38 -3.22,4.7 -9.67,5.9 -14.37,2.68 -4.7,-3.23 -5.9,-9.68 -2.68,-14.38zm22.56 87.72c-4.7,-3.23 -5.9,-9.68 -2.68,-14.38 3.23,-4.7 9.68,-5.9 14.38,-2.67 4.7,3.22 5.9,9.67 2.68,14.37 -3.23,4.7 -9.67,5.91 -14.38,2.68zm60.87 -45.06c-4.7,-3.23 -5.9,-9.68 -2.68,-14.38 3.23,-4.7 9.68,-5.9 14.38,-2.68 4.7,3.23 5.9,9.68 2.67,14.38 -3.22,4.7 -9.67,5.9 -14.37,2.68zm0 0z"/>
   <path class="fil0" d="M725.05 1028.46l-6.4 -4.4 4.39 -6.4c2.24,-3.26 1.41,-7.71 -1.85,-9.95 -3.26,-2.24 -7.72,-1.41 -9.95,1.85l-4.4 6.41 -6.4 -4.4c-3.26,-2.23 -7.71,-1.4 -9.95,1.86 -2.23,3.26 -1.4,7.71 1.85,9.95l6.41 4.39 -4.4 6.4c-2.23,3.26 -1.4,7.72 1.86,9.95 3.26,2.24 7.71,1.41 9.95,-1.85l4.39 -6.4 6.4 4.39c3.26,2.24 7.72,1.41 9.95,-1.85 2.24,-3.26 1.41,-7.72 -1.85,-9.95zm0 0z"/>
   <path class="fil0" d="M814.25 892.24l2.8 1.93 -1.92 2.8c-2.24,3.26 -1.41,7.72 1.85,9.95 3.26,2.24 7.71,1.41 9.95,-1.85l1.93 -2.81 2.8 1.93c3.26,2.23 7.72,1.41 9.95,-1.85 2.24,-3.26 1.41,-7.72 -1.85,-9.96l-2.8 -1.92 1.92 -2.81c2.24,-3.25 1.4,-7.71 -1.85,-9.95 -3.26,-2.23 -7.72,-1.4 -9.95,1.86l-1.93 2.8 -2.81 -1.92c-3.25,-2.24 -7.71,-1.41 -9.95,1.85 -2.23,3.26 -1.4,7.71 1.86,9.95zm0 0z"/>
   <path class="fil0" d="M623.89 874.21l6.4 4.4 -4.39 6.4c-2.24,3.26 -1.41,7.72 1.85,9.95 3.26,2.24 7.72,1.41 9.95,-1.85l4.4 -6.4 6.4 4.39c3.26,2.23 7.71,1.41 9.95,-1.85 2.24,-3.26 1.41,-7.72 -1.85,-9.96l-6.41 -4.39 4.4 -6.4c2.23,-3.26 1.4,-7.71 -1.86,-9.95 -3.26,-2.24 -7.71,-1.41 -9.95,1.85l-4.39 6.4 -6.4 -4.39c-3.26,-2.24 -7.72,-1.41 -9.95,1.85 -2.24,3.26 -1.41,7.72 1.85,9.95zm0 0z"/>
   <path class="fil0" d="M679.97 959.35c0.82,-3.8 -1.72,-7.67 -5.52,-8.48 -3.95,-0.83 -7.89,1.89 -8.53,5.87 -0.62,3.85 2.07,7.56 5.92,8.19 3.7,0.6 7.36,-1.89 8.13,-5.58zm0 0z"/>
  </g>
  <g id="_2781031567472">
   <g>
    <path class="fil14" d="M670.07 113.04l4.82 -2.52 -0.18 72.59 -32.1 -0.08 0.06 -24.9c0.05,-18.95 10.6,-36.32 27.4,-45.09z"/>
    <path class="fil14" d="M792.89 113.34l-4.8 -2.53 -0.18 72.58 32.09 0.08 0.06 -24.9c0.05,-18.95 -10.42,-36.37 -27.17,-45.23z"/>
   </g>
   <path class="fil15" d="M731.71 16.08l0 0c-35.15,20.86 -56.74,58.66 -56.84,99.53l-0.16 67.5 56.59 0.14 0.01 0 56.59 0.14 0.17 -67.48c0.1,-40.88 -21.3,-78.8 -56.36,-99.82l0 -0.01z"/>
   <polygon class="fil16" points="761.22,203.19 746.61,236.34 739.5,222.33 731.21,247.8 723.01,222.29 715.82,236.26 701.38,203.04 "/>
   <circle class="fil17" transform="matrix(0.113389 -0.112829 0.112829 0.113389 731.48 113.379)" r="246.29"/>
   <path class="fil14" d="M778.1 184.08l-0.05 19.15 -93.53 -0.23 93.58 -18.92zm0 0z"/>
   <path class="fil0" d="M733.65 12.88l0 -0.01c-1.18,-0.71 -2.66,-0.72 -3.85,-0.01 -17.8,10.56 -32.64,25.65 -42.91,43.62 -9.02,15.81 -14.33,33.53 -15.51,51.65l-3.04 1.58c-18.1,9.45 -29.37,28 -29.42,48.41l-0.06 24.9c0,2.07 1.67,3.75 3.74,3.76l32.1 0.08 6.11 0.02 -0.04 16.11c-0.01,2.07 1.67,3.76 3.74,3.76l14.41 0.04 13.46 30.96c0.58,1.33 1.87,2.21 3.32,2.26 1.45,0.04 2.79,-0.75 3.46,-2.04l3.05 -5.92 5.43 16.9c0.5,1.54 1.94,2.59 3.57,2.6 1.62,0 3.07,-1.05 3.57,-2.59l5.48 -16.85 3.01 5.92c0.66,1.3 2,2.09 3.45,2.06 0.97,-0.03 1.87,-0.43 2.54,-1.1 0.32,-0.32 0.59,-0.71 0.78,-1.14l13.62 -30.9 14.38 0.03c1.04,0.01 1.98,-0.41 2.66,-1.09 0.68,-0.67 1.1,-1.61 1.1,-2.65l0.04 -16.11 6.06 0.01 32.09 0.08c1,0 1.95,-0.39 2.65,-1.09 0.71,-0.7 1.11,-1.65 1.11,-2.65l0.06 -24.89c0.05,-20.42 -11.13,-39.02 -29.17,-48.56l-3.04 -1.6c-1.09,-18.13 -6.31,-35.87 -15.26,-51.72 -10.18,-18.03 -24.94,-33.19 -42.69,-43.83zm-87.23 145.26c0.04,-17.35 9.49,-33.15 24.7,-41.41l-0.15 62.62 -24.6 -0.06 0.05 -21.15zm99.95 69.44l-3.53 -6.95c-0.69,-1.35 -2.12,-2.15 -3.63,-2.04 -1.52,0.12 -2.81,1.14 -3.28,2.58l-4.7 14.45 -4.65 -14.48c-0.47,-1.44 -1.75,-2.46 -3.27,-2.59 -1.51,-0.12 -2.94,0.68 -3.64,2.03l-3.56 6.93 -9 -20.7 48.36 0.12 -9.1 20.65zm27.94 -28.11l-13.03 -0.03c-0.01,0 -0.01,0 -0.02,0l-59.9 -0.15c-0.01,0 -0.02,0 -0.03,0l-13.06 -0.03 0.04 -12.37 86.03 0.22 -0.03 12.36zm42 -40.91l-0.05 21.15 -24.6 -0.06 0.16 -62.62c15.17,8.33 24.54,24.18 24.49,41.53zm-31.99 -42.68l-0.15 63.75 -105.71 -0.26 0.03 -10.46 24.16 0.06c1.03,0 1.97,-0.42 2.65,-1.09 0.68,-0.68 1.1,-1.62 1.1,-2.65 0.01,-2.07 -1.67,-3.76 -3.74,-3.76l-24.15 -0.06 0.11 -45.79c0.1,-38.58 20.38,-74.83 53.08,-95.14 32.61,20.47 52.71,56.81 52.62,95.4z"/>
   <path class="fil0" d="M714.26 162.6c-0.7,0.69 -1.11,1.66 -1.11,2.64 0,0.99 0.4,1.96 1.09,2.66 0.7,0.7 1.67,1.1 2.65,1.1 0.99,0 1.96,-0.39 2.66,-1.09 0.7,-0.69 1.1,-1.66 1.1,-2.65 0,-0.98 -0.4,-1.95 -1.09,-2.65 -0.7,-0.7 -1.66,-1.1 -2.65,-1.11 -0.99,0 -1.95,0.4 -2.65,1.1z"/>
   <path class="fil0" d="M741.13 74.99c-0.7,1.95 0.33,4.09 2.28,4.78 14.22,5.05 23.76,18.59 23.72,33.7 -0.05,19.65 -16.08,35.6 -35.74,35.56 -9.52,-0.03 -18.46,-3.76 -25.18,-10.51 -6.72,-6.75 -10.4,-15.71 -10.38,-25.23 0.04,-15.13 9.66,-28.63 23.94,-33.59 1.96,-0.68 2.99,-2.82 2.31,-4.78 -0.68,-1.95 -2.82,-2.99 -4.77,-2.31 -17.29,6.01 -28.93,22.35 -28.98,40.66 -0.03,11.53 4.43,22.37 12.56,30.54 8.13,8.17 18.96,12.69 30.48,12.72 11.9,0.02 22.7,-4.79 30.53,-12.58 7.83,-7.79 12.7,-18.57 12.73,-30.47 0.04,-18.28 -11.5,-34.66 -28.72,-40.77 -1.95,-0.7 -4.09,0.32 -4.78,2.28z"/>
   <path class="fil0" d="M731.65 77.73c1.04,0.01 1.99,-0.41 2.67,-1.09 0.67,-0.67 1.1,-1.61 1.1,-2.64 0.02,-2.07 -1.65,-3.75 -3.72,-3.77l-0.1 0c-2.07,-0.01 -3.76,1.66 -3.77,3.73 -0.02,2.07 1.65,3.76 3.72,3.77l0.1 0z"/>
   <path class="fil0" d="M710.06 113.33l6.91 -6.87c1.46,-1.46 1.47,-3.84 0.01,-5.31 -1.46,-1.46 -3.84,-1.47 -5.3,-0.01l-9.56 9.51c-1.47,1.46 -1.48,3.84 -0.02,5.31l9.52 9.56c1.46,1.46 3.83,1.47 5.3,0.01 1.47,-1.46 1.47,-3.83 0.01,-5.3l-6.87 -6.9 0 0z"/>
   <path class="fil0" d="M746.03 106.53l6.86 6.9 -6.9 6.87c-1.47,1.46 -1.47,3.83 -0.01,5.3 1.46,1.47 3.83,1.48 5.3,0.02l9.56 -9.52c1.47,-1.46 1.48,-3.83 0.02,-5.3l-9.52 -9.56c-1.46,-1.47 -3.83,-1.48 -5.3,-0.01 -1.47,1.46 -1.47,3.83 -0.01,5.3z"/>
   <path class="fil0" d="M727.36 127.48c0.22,-0.22 0.42,-0.47 0.59,-0.76l13.52 -22.87c1.05,-1.79 0.46,-4.09 -1.32,-5.14 -1.78,-1.05 -4.08,-0.46 -5.14,1.32l-13.52 22.88c-1.05,1.78 -0.46,4.08 1.32,5.14 1.5,0.88 3.37,0.6 4.55,-0.57z"/>
   <path class="fil0" d="M727.36 260.1l-0.03 11.84c0,2.07 1.67,3.75 3.74,3.76 1.04,0 1.98,-0.42 2.66,-1.09 0.68,-0.68 1.1,-1.62 1.1,-2.65l0.03 -11.84c0.01,-2.07 -1.67,-3.76 -3.74,-3.76 -2.07,-0.01 -3.75,1.67 -3.76,3.74z"/>
   <path class="fil0" d="M741.71 249l-0.02 8.66c-0.01,2.07 1.67,3.75 3.74,3.76 1.03,0 1.97,-0.42 2.65,-1.1 0.68,-0.67 1.1,-1.61 1.1,-2.64l0.03 -8.66c0,-2.07 -1.67,-3.76 -3.74,-3.76 -2.08,-0.01 -3.76,1.67 -3.76,3.74z"/>
   <path class="fil0" d="M720.24 261.05c0.68,-0.67 1.11,-1.61 1.11,-2.64l0.02 -10.17c0.01,-2.07 -1.67,-3.75 -3.74,-3.76 -2.07,0 -3.75,1.67 -3.76,3.74l-0.02 10.17c-0.01,2.07 1.67,3.75 3.74,3.76 1.03,0 1.97,-0.42 2.65,-1.1z"/>
   <g>
   </g>
   <g>
   </g>
   <g>
   </g>
   <g>
   </g>
   <g>
   </g>
   <g>
   </g>
   <g>
   </g>
   <g>
   </g>
   <g>
   </g>
   <g>
   </g>
   <g>
   </g>
   <g>
   </g>
   <g>
   </g>
   <g>
   </g>
   <g>
   </g>
  </g>
 </g>
</svg>
